<svg width="86" height="80" viewBox="0 0 86 80" fill="none" xmlns="http://www.w3.org/2000/svg">
<path d="M52.9246 76.3219C62.2944 69.3156 75.8158 58.3467 81.4505 49.5742C85.6666 43.0204 87.0384 34.9007 85.2045 27.3512C81.2865 10.1541 59.59 3.12692 46.0754 14.6514C45.3153 15.2953 44.6146 16.0091 43.8954 16.742C43.602 17.0411 43.3052 17.3434 43 17.6454C42.6948 17.3434 42.398 17.0411 42.1046 16.742C41.3854 16.0091 40.6848 15.2953 39.9247 14.6514C26.41 3.12692 4.71359 10.1541 0.795491 27.3512C-1.03833 34.9007 0.333324 43.0204 4.5496 49.5742C10.1842 58.3467 23.7056 69.3156 33.0754 76.3219C35.6862 78.2746 38.2428 80 43 80C47.7572 80 50.3138 78.2746 52.9246 76.3219Z" fill="#95CFE0"/>
<g clip-path="url(#clip0)">
<path d="M25 36.5V41L27.5 43L30 41L34.5 41.5L40.5 41L42 39.5L41.5 37L44 34.5L46.5 31.5L47.5 30L47 28.5L43.5 27.5L40 27L38 26L36.5 22.5L35 19L33 18.5L32 20L28.5 26L26.5 26.5L20.5 28L19.5 29.5L20.5 31.5L25 36.5Z" fill="#FFCE51"/>
<path d="M46.499 4.5L49 1L50.5 1.5L52.5 6.5L54.5 7.5L60 8L60.5 10L58 13L56 15.5L57 19V22.5L54.5 23L49.5 20.5L44.5 23.5L42 22.5V18.5L43 15.5L41 13L38 11L38.5 9L41 8L45 7L46.499 4.5Z" fill="#FFD977"/>
<path d="M24.5328 5.02222L25.8667 3L26.6667 3.28889L27.7333 6.17778L28.8 6.75556L31.7333 7.04444L32 8.2L30.6667 9.93333L29.6 11.3778L30.1333 13.4V15.4222L28.8 15.7111L26.1333 14.2667L23.4667 16L22.1333 15.4222V13.1111L22.6667 11.3778L21.6 9.93333L20 8.77778L20.2667 7.62222L21.6 7.04444L23.7333 6.46667L24.5328 5.02222Z" fill="#FFDB80"/>
<path d="M57.2418 15.3706C57.0543 15.5661 56.9717 15.8395 57.0196 16.1061L57.8513 21.1465C58.0302 22.1632 57.609 23.1922 56.7685 23.7917C55.9879 24.3525 54.9544 24.4138 54.113 23.9494L49.6971 21.5384C49.506 21.4315 49.2732 21.4315 49.0821 21.5384L44.6652 23.9521C43.8236 24.4159 42.7904 24.3545 42.0097 23.7944C41.1692 23.195 40.748 22.1659 40.9269 21.1492L41.7586 16.1088C41.8073 15.842 41.7242 15.568 41.5355 15.3733L38.0297 11.8199C37.3124 11.0901 37.0678 10.0183 37.3978 9.04958C37.6932 8.11599 38.4907 7.4295 39.4578 7.27615L44.3488 6.54066C44.5837 6.4992 44.7826 6.34344 44.879 6.12533L47.08 1.48914C47.4905 0.582463 48.3938 -1.148e-06 49.3891 -1.06099e-06C50.3844 -9.73978e-07 51.2877 0.582463 51.6983 1.48903L53.902 6.12522C53.9985 6.34333 54.1974 6.49909 54.4322 6.54055L59.3205 7.27615C60.2876 7.42951 61.0851 8.1161 61.3805 9.04958C61.7109 10.0185 61.4663 11.0909 60.7486 11.8208L57.2418 15.3706ZM59.6098 9.63488C59.5329 9.37062 59.3125 9.17296 59.0414 9.12527L54.1494 8.38694C53.3006 8.25283 52.5743 7.70526 52.2117 6.92613L50.008 2.28435C49.9065 2.02949 49.6598 1.86224 49.3854 1.86224C49.1109 1.86224 48.8644 2.02949 48.7628 2.28435L46.559 6.92613C46.1979 7.70318 45.4747 8.25042 44.6288 8.38693L39.7405 9.12527C39.4695 9.17296 39.249 9.37061 39.1721 9.63488C39.0655 9.93722 39.1377 10.2737 39.3588 10.5058L42.8646 14.0592C43.4709 14.6803 43.7445 15.5535 43.6011 16.4095L42.7695 21.4499C42.7069 21.7622 42.8319 22.0822 43.0896 22.2694C43.2877 22.418 43.5553 22.4345 43.7701 22.3114L48.187 19.8966C48.936 19.4866 49.8424 19.4866 50.5914 19.8966L55.0082 22.3141C55.223 22.4373 55.4906 22.4208 55.6887 22.2721C55.9464 22.085 56.0714 21.7649 56.0088 21.4526L55.1772 16.4123C55.0337 15.5562 55.3074 14.683 55.9137 14.0619L59.4205 10.5057C59.6424 10.2742 59.7156 9.93766 59.6098 9.63488Z" fill="#262626"/>
<path d="M30.9082 11.492C30.8869 11.518 30.8784 11.5522 30.8849 11.5853L31.3703 14.5265C31.5 15.2663 31.1927 16.0148 30.5806 16.4502C30.0043 16.8634 29.2418 16.9088 28.6205 16.5669L26.0593 15.1584L23.4831 16.5669C22.8618 16.9088 22.0993 16.8634 21.5229 16.4502C20.9108 16.0153 20.6038 15.2669 20.7342 14.5273L21.2186 11.5853C21.2253 11.5523 21.2171 11.5182 21.1962 11.492L19.1474 9.42266C18.6257 8.89127 18.4486 8.11093 18.69 7.40651C18.9099 6.72483 19.4953 6.22539 20.2031 6.11557L23.0676 5.65912L24.3529 2.95222C24.6562 2.28662 25.3203 1.85937 26.0517 1.85937C26.7832 1.85937 27.4472 2.28651 27.7506 2.95222L29.0545 5.68898L31.9051 6.12017C32.6123 6.22889 33.1979 6.72681 33.4191 7.40728C33.6605 8.11137 33.4834 8.89149 32.9618 9.42244L30.9082 11.492ZM31.627 7.96086L28.7755 7.53055C28.1522 7.43309 27.6185 7.03165 27.3521 6.45991L26.0547 3.72873C26.0472 3.73606 26.0414 3.74503 26.0378 3.75487L24.7516 6.46177C24.4854 7.03329 23.952 7.43473 23.3291 7.53241L20.4776 7.96174L20.4776 8.11017L22.5253 10.1843C22.9647 10.636 23.163 11.2699 23.0592 11.8914L22.5739 14.8335C22.5674 14.8659 22.5742 14.8995 22.5926 14.9268L25.1669 13.5201C25.7193 13.2175 26.388 13.2175 26.9404 13.5201L29.4988 14.9295C29.4988 14.9295 29.5464 14.9108 29.5324 14.8297L29.0471 11.8876C28.9436 11.2655 29.1429 10.6313 29.5838 10.1805L31.6289 8.10831L32.2936 8.76165L31.627 7.96086Z" fill="#262626"/>
<path d="M68.0573 54.1325C67.8454 54.1327 67.6396 54.0606 67.474 53.9281C67.2817 53.7741 62.7454 50.1404 60.8637 48.2587C53.5784 40.9716 48.1759 40.1315 44.7457 40.1315C43.4508 40.124 42.1947 40.5736 41.1987 41.4009C40.7098 41.7942 40.0993 42.0054 39.4719 41.9983L29.9652 41.9983C28.932 41.9699 28.0519 42.7435 27.9472 43.7717C27.9216 44.2827 28.1069 44.782 28.4599 45.1524C28.8127 45.523 29.3023 45.7324 29.814 45.7318L40.0815 45.7318C40.597 45.7318 41.0148 46.1498 41.0148 46.6652C41.0148 47.1807 40.5969 47.5986 40.0815 47.5986L29.814 47.5986C28.7905 47.5983 27.812 47.1781 27.1072 46.4359C26.4025 45.6938 26.0333 44.6948 26.086 43.6727C26.086 43.6597 26.0916 43.6484 26.0916 43.6354L17.971 36.8338C17.5883 36.5132 17.0937 36.3579 16.5964 36.4025C16.0992 36.447 15.64 36.6874 15.3201 37.0709C14.7066 37.8174 14.7491 38.905 15.4191 39.6014L27.0661 51.4556C27.5443 51.9478 28.1931 52.2378 28.8788 52.2658L45.7406 52.2658C47.052 52.2651 48.3512 52.5166 49.5676 53.0069L52.5348 54.1998C53.0133 54.3921 53.2451 54.9357 53.0528 55.4142C52.8606 55.8926 52.3169 56.1245 51.8385 55.9322L48.8713 54.7384C47.8761 54.3381 46.8133 54.1324 45.7406 54.1327L28.8544 54.1327C27.6771 54.0991 26.5585 53.611 25.7332 52.7708L14.0843 40.911C12.6812 39.4842 12.645 37.2071 14.0022 35.7364C15.3594 34.2658 17.632 34.1194 19.1667 35.4039L23.9373 39.397L24.2173 37.6815C24.2862 37.2704 24.1568 36.8509 23.8683 36.5502L19.4925 32.1045C18.6554 31.2561 18.3702 30.0073 18.7561 28.8795C19.099 27.7979 20.0237 27.0029 21.1447 26.8261L27.2481 25.902C27.6195 25.8401 27.9365 25.5992 28.0956 25.258L30.8482 19.4531C31.3203 18.3999 32.3669 17.7222 33.521 17.7222C34.6752 17.7222 35.7217 18.3999 36.1938 19.4531L38.9417 25.2467C39.1003 25.592 39.4193 25.8366 39.7939 25.9001L45.8955 26.8241C47.0175 26.9997 47.9437 27.795 48.2868 28.8776C48.6727 30.004 48.3882 31.2518 47.5522 32.0997L43.1765 36.5408C42.8903 36.8386 42.7598 37.2529 42.8236 37.6609L42.9607 38.4758C43.545 38.3339 44.1442 38.2632 44.7454 38.2648C48.508 38.2648 54.408 39.1637 62.1833 46.9389C63.9923 48.7469 68.594 52.4338 68.6407 52.4701C68.9503 52.7178 69.0698 53.1341 68.9385 53.5082C68.8073 53.8823 68.4539 54.1328 68.0573 54.1325ZM41.8446 35.2386L46.2251 30.7975C46.5635 30.4473 46.6758 29.9364 46.5154 29.4767C46.3953 29.0605 46.046 28.7507 45.6183 28.6815L39.5129 27.7574C38.5311 27.5968 37.6901 26.9657 37.2616 26.068L34.5071 20.2613C34.3443 19.8597 33.9543 19.5969 33.521 19.5969C33.0877 19.5969 32.6977 19.8596 32.5349 20.2613L29.7757 26.0801C29.3465 26.9737 28.5075 27.6011 27.529 27.7602L21.4217 28.6843C20.9955 28.7544 20.6474 29.0635 20.5275 29.4786C20.3687 29.9382 20.4817 30.448 20.8197 30.7976L25.1983 35.2415C25.902 35.9669 26.2218 36.9822 26.0608 37.9801L25.594 40.7896L26.7561 41.7622C27.4983 40.7306 28.6944 40.1229 29.9652 40.1315L39.4747 40.1315C39.6681 40.1385 39.8581 40.0785 40.0123 39.9617C40.3768 39.6629 40.769 39.3998 41.1837 39.1758L40.9811 37.9717C40.8224 36.9755 41.1424 35.9627 41.8446 35.2386Z" fill="#262626"/>
</g>
<defs>
<clipPath id="clip0">
<rect width="56" height="56" fill="white" transform="matrix(-1 -8.74228e-08 -8.74228e-08 1 69 0)"/>
</clipPath>
</defs>
</svg>
