<svg width="79" height="76" viewBox="0 0 79 76" fill="none" xmlns="http://www.w3.org/2000/svg">
<g clip-path="url(#clip0)">
<path d="M78.1737 7.16388C78.0497 4.94069 77.6365 2.7175 78.091 0.57666C73.5874 3.70559 68.6292 6.17579 63.3818 7.86377C61.2333 8.56366 59.0435 9.14004 56.9776 10.087C54.9117 11.0339 53.011 12.3925 51.8541 14.3275C51.1104 15.6037 50.7385 17.0035 50.4493 18.4445C50.1601 20.1736 50.0361 21.9028 50.0361 23.6731L50.2427 36.5593H54.9943L57.68 31.6601C58.7955 30.4662 60.1177 29.4369 61.6465 28.6958C63.0513 28.0371 64.4974 27.5431 66.0262 27.2549C67.1418 27.049 68.2987 26.9255 69.4143 26.5962C70.5299 26.2668 71.5628 25.6492 72.1826 24.7023C72.9263 23.5496 72.9263 22.0674 72.5131 20.75C73.2982 20.503 74.0006 20.1736 74.6203 19.6384C76.0251 18.4445 76.397 16.2213 75.5293 14.6157C75.8599 14.204 76.1491 13.7923 76.521 13.4217C78.0497 11.8161 78.2976 9.38706 78.1737 7.16388Z" fill="#FFCE51"/>
<path d="M0.619623 7.86358C0.743577 5.6404 1.15676 3.41721 0.702259 1.27637C5.20592 4.40529 10.1641 6.8755 15.4115 8.56347C17.56 9.26337 19.7499 9.83975 21.8158 10.7867C23.8817 11.7336 25.7823 13.0922 26.9392 15.0272C27.6829 16.3035 28.0548 17.7032 28.344 19.1442C28.6332 20.8733 28.7572 22.6025 28.7572 24.3728L28.8398 36.3121H23.799L21.072 32.3598C19.9564 31.1659 18.6343 30.1366 17.1055 29.3955C15.7007 28.7368 14.2546 28.2428 12.7258 27.9546C11.6102 27.7487 10.4533 27.6252 9.33772 27.2959C8.22213 26.9665 7.18918 26.349 6.56941 25.402C5.82569 24.2493 5.82569 22.7672 6.23887 21.4497C5.45383 21.2027 4.75142 20.8733 4.13165 20.3381C2.72684 19.1442 2.35498 16.921 3.22266 15.3154C2.89211 14.9037 2.60289 14.492 2.23103 14.1214C0.743577 12.5158 0.495669 10.0868 0.619623 7.86358Z" fill="#FFCE51"/>
<path d="M61.4809 36.5596H17.5186V75.4241H61.4809V36.5596Z" stroke="#262626" stroke-width="1.6" stroke-miterlimit="10" stroke-linecap="round"/>
<path d="M23.9776 65.4243C23.7088 66.7065 22.7065 67.7088 21.4243 67.9775C21.1771 68.0293 21 68.2473 21 68.5C21 68.7526 21.177 68.9706 21.4243 69.0224C22.7065 69.2912 23.7088 70.2934 23.9775 71.5757C24.0293 71.8229 24.2474 72 24.5 72C24.7526 72 24.9706 71.8229 25.0224 71.5757C25.2912 70.2935 26.2934 69.2912 27.5757 69.0225C27.8229 68.9707 28 68.7527 28 68.5C28 68.2474 27.823 68.0294 27.5757 67.9776C26.2934 67.7088 25.2912 66.7065 25.0225 65.4243C24.9706 65.1771 24.7526 65 24.5 65C24.2474 65 24.0294 65.1771 23.9776 65.4243Z" fill="white"/>
<path d="M32.1269 64.303C31.9348 65.219 31.219 65.9348 30.3031 66.1268C30.1265 66.1638 30 66.3195 30 66.5C30 66.6804 30.1265 66.8361 30.303 66.8731C31.219 67.0652 31.9348 67.781 32.1268 68.6969C32.1638 68.8735 32.3196 69 32.5 69C32.6804 69 32.8361 68.8735 32.8731 68.6969C33.0652 67.781 33.781 67.0652 34.6969 66.8732C34.8735 66.8362 35 66.6805 35 66.5C35 66.3196 34.8735 66.1639 34.6969 66.1269C33.781 65.9348 33.0652 65.219 32.8732 64.3031C32.8362 64.1265 32.6804 64 32.5 64C32.3196 64 32.1639 64.1265 32.1269 64.303Z" fill="white"/>
<path d="M27.2761 60.1818C27.1609 60.7314 26.7314 61.1609 26.1818 61.2761C26.0759 61.2983 26 61.3917 26 61.5C26 61.6082 26.0759 61.7017 26.1818 61.7239C26.7314 61.8391 27.1609 62.2686 27.2761 62.8182C27.2983 62.9241 27.3917 63 27.5 63C27.6082 63 27.7017 62.9241 27.7239 62.8182C27.8391 62.2686 28.2686 61.8391 28.8182 61.7239C28.9241 61.7017 29 61.6083 29 61.5C29 61.3918 28.9241 61.2983 28.8182 61.2761C28.2686 61.1609 27.8391 60.7314 27.7239 60.1818C27.7017 60.0759 27.6083 60 27.5 60C27.3918 60 27.2983 60.0759 27.2761 60.1818Z" fill="white"/>
<path d="M36.7314 36.5596V51.916V59.6148L43.425 54.4686L50.1598 59.6148V51.916V36.7654" stroke="#262626" stroke-width="1.6" stroke-miterlimit="10" stroke-linecap="round"/>
<path d="M66.1093 17.4151C68.0925 16.8387 70.0758 16.2623 72.0591 15.7271C73.7531 15.2331 75.5298 14.6978 76.728 13.4216C78.2568 11.8159 78.5047 9.38691 78.3807 7.20489C78.2568 4.98171 77.8436 2.75852 78.2981 0.617676C73.7944 3.70543 68.8363 6.17564 63.5889 7.86361C61.4403 8.56351 59.2505 9.13989 57.1846 10.0868C55.1187 11.0337 53.2181 12.3923 52.0612 14.3273C51.3174 15.6036 50.9456 17.0034 50.6563 18.4443C50.3671 20.1735 50.2432 21.9026 50.2432 23.6729V36.5592" stroke="#262626" stroke-width="1.6" stroke-miterlimit="10" stroke-linecap="round" stroke-linejoin="round"/>
<path d="M75.6124 14.3687C76.6453 16.0155 76.2735 18.3621 74.8273 19.6384C73.9183 20.4207 72.6788 20.7912 71.4806 21.0794C69.0428 21.7381 66.5637 22.3968 64.126 23.0555" stroke="#262626" stroke-width="1.6" stroke-miterlimit="10" stroke-linecap="round" stroke-linejoin="round"/>
<path d="M72.7203 20.709C73.0922 22.0264 73.1335 23.5086 72.3898 24.6613C71.77 25.6082 70.6958 26.2258 69.6215 26.5551C68.5059 26.8845 67.3903 27.008 66.2334 27.2139C64.7046 27.5021 63.2585 27.9961 61.8537 28.6548C60.3663 29.3547 59.0441 30.384 57.8872 31.6191L57.5566 31.9896" stroke="#262626" stroke-width="1.6" stroke-miterlimit="10" stroke-linecap="round" stroke-linejoin="round"/>
<path d="M12.8499 17.4151C10.8667 16.8387 8.8834 16.2623 6.90014 15.7271C5.2061 15.2331 3.42943 14.6978 2.23121 13.4216C0.702442 11.8159 0.454534 9.38691 0.578488 7.20489C0.702442 4.98171 1.11562 2.75852 0.661124 0.617676C5.16479 3.70543 10.1643 6.17564 15.3703 7.86361C17.5189 8.56351 19.7087 9.13989 21.7746 10.0868C23.8405 11.0337 25.7411 12.3923 26.898 14.3273C27.6418 15.6036 28.0136 17.0034 28.3029 18.4443C28.5921 20.1735 28.716 21.9026 28.716 23.6729V36.5592" stroke="#262626" stroke-width="1.6" stroke-miterlimit="10" stroke-linecap="round" stroke-linejoin="round"/>
<path d="M3.347 14.3687C2.31405 16.0155 2.68591 18.3621 4.13204 19.6384C5.04104 20.4207 6.28058 20.7912 7.4788 21.0794C9.95788 21.7381 12.3956 22.3968 14.8747 23.0555" stroke="#262626" stroke-width="1.6" stroke-miterlimit="10" stroke-linecap="round" stroke-linejoin="round"/>
<path d="M6.28074 20.709C5.90888 22.0264 5.86756 23.5086 6.61128 24.6613C7.23105 25.6082 8.30532 26.2258 9.37959 26.5551C10.4952 26.8845 11.6108 27.008 12.7677 27.2139C13.594 27.3785 14.3791 27.5844 15.2054 27.8726C17.6019 28.696 19.7091 30.2193 21.3205 32.1543C21.4031 32.2366 21.4444 32.319 21.5271 32.4013" stroke="#262626" stroke-width="1.6" stroke-miterlimit="10" stroke-linecap="round" stroke-linejoin="round"/>
<path d="M23.6755 36.1475C23.6755 35.3241 21.4443 32.3599 21.4443 32.3599" stroke="#262626" stroke-width="1.6" stroke-miterlimit="10" stroke-linecap="round" stroke-linejoin="round"/>
<path d="M54.7881 36.5594C54.7881 36.5594 56.5234 33.1011 57.8869 31.6602" stroke="#262626" stroke-width="1.6" stroke-miterlimit="10" stroke-linecap="round" stroke-linejoin="round"/>
</g>
<defs>
<clipPath id="clip0">
<rect width="79" height="76" fill="white"/>
</clipPath>
</defs>
</svg>
