<svg width="20" height="19" viewBox="0 0 20 19" fill="none" xmlns="http://www.w3.org/2000/svg">
<path d="M5.98186 15.9914C6.75012 15.9914 7.37374 16.615 7.37374 17.3833C7.37374 18.1516 6.75001 18.7742 5.98186 18.7742C5.2136 18.7742 4.59089 18.1515 4.59089 17.3833C4.59089 16.6151 5.2135 15.9914 5.98186 15.9914ZM16.3198 15.9914C17.0881 15.9914 17.7117 16.615 17.7117 17.3833C17.7117 18.1516 17.088 18.7742 16.3198 18.7742C15.5517 18.7742 14.9279 18.1516 14.9279 17.3833C14.9279 16.615 15.5516 15.9914 16.3198 15.9914ZM1.71347 0.768037L1.80668 0.777785L3.71764 1.10853C3.9923 1.15607 4.20763 1.36312 4.27051 1.62801L4.28677 1.72985L4.50242 4.3039H17.4537C18.5774 4.3039 19.4501 5.26002 19.3699 6.36165L19.3548 6.50005L18.4829 12.5255C18.3225 13.6297 17.4112 14.4608 16.3121 14.531L16.1611 14.5358H6.13584C4.96647 14.5358 3.98467 13.6777 3.81562 12.5362L3.79824 12.3858L2.95803 2.37548L1.57165 2.1357C1.22792 2.07621 0.98806 1.77161 1.00046 1.43243L1.01021 1.33923C1.0697 0.995501 1.37429 0.755638 1.71347 0.768037ZM17.4537 5.682H4.61818L5.17154 12.2708C5.2104 12.7367 5.5743 13.1021 6.02932 13.1519L6.13584 13.1577H16.1611C16.6049 13.1577 16.9866 12.8568 17.0972 12.4355L17.1191 12.3277L17.9909 6.30274C18.0344 6.00236 17.8248 5.73108 17.5347 5.68796L17.4537 5.682ZM14.6879 7.69954C15.0684 7.69954 15.3769 8.00804 15.3769 8.38859C15.3769 8.73743 15.1177 9.02573 14.7814 9.07135L14.6879 9.07764H12.1402C11.7597 9.07764 11.4512 8.76915 11.4512 8.38859C11.4512 8.03975 11.7104 7.75146 12.0467 7.70583L12.1402 7.69954H14.6879Z" fill="white" stroke="white" stroke-width="0.4"/>
</svg>
