<svg width="90" height="52" viewBox="0 0 90 52" fill="none" xmlns="http://www.w3.org/2000/svg">
<circle opacity="0.5" cx="45" cy="26" r="45" fill="white"/>
<circle cx="45" cy="26" r="34" fill="white"/>
<path d="M56.9391 23.3098C56.7649 22.7738 56.2462 22.4055 55.5158 22.2994L49.5631 21.4344L46.9008 16.0413C46.5743 15.3797 46.0636 15 45.5 15C44.9364 15 44.4257 15.3797 44.0992 16.0415L41.4372 21.4344L35.4844 22.2994C34.7538 22.4055 34.235 22.7738 34.0609 23.3098C33.8868 23.8458 34.09 24.4486 34.6186 24.9635L38.9261 29.1615L37.9091 35.0894C37.7791 35.8475 38.0007 36.3017 38.2095 36.5494C38.4545 36.84 38.8117 37 39.2155 37C39.5192 37 39.8423 36.911 40.1759 36.7358L45.5 33.9372L50.8245 36.736C51.1579 36.9112 51.4809 37 51.7847 37H51.7848C52.1884 37 52.5459 36.84 52.7909 36.5494C52.9995 36.3019 53.2213 35.8475 53.0911 35.0894L52.0742 29.1615L56.3816 24.9635C56.91 24.4486 57.1132 23.8458 56.9391 23.3098Z" fill="#4F742E"/>
</svg>
