<svg width="571" height="448" viewBox="0 0 571 448" fill="none" xmlns="http://www.w3.org/2000/svg">
<ellipse cx="285" cy="433" rx="195" ry="15" fill="#F1F3F4"/>
<path d="M457 299.136C457 299.359 456.048 321.519 430.462 334.161C420.227 339.218 408.654 339.337 399.461 338.087C389.777 336.794 382.696 333.997 382.577 333.938C382.473 333.893 382.413 333.819 382.368 333.73C382.368 333.73 382.354 333.73 382.354 333.715C382.339 333.715 382.339 333.715 382.339 333.715C382.324 333.655 382.339 333.596 382.339 333.551V333.373C382.428 333.165 391.175 312.432 412.551 300.772C413.176 300.43 413.831 300.162 414.485 299.865C414.545 299.82 414.604 299.791 414.678 299.776C416.597 298.913 418.635 298.229 420.733 297.708C420.837 297.619 420.941 297.56 421.12 297.604C437.156 293.767 456.435 298.645 456.673 298.705C456.673 298.705 456.673 298.705 456.688 298.705C456.717 298.72 456.732 298.749 456.762 298.764C456.836 298.809 456.896 298.854 456.926 298.913C456.94 298.928 456.955 298.928 456.955 298.943C456.97 298.973 456.955 299.002 456.97 299.032C456.97 299.062 457 299.092 457 299.136Z" fill="white"/>
<path d="M456.97 299.016C456.955 298.987 456.97 298.957 456.955 298.927C456.955 298.912 456.94 298.912 456.926 298.897C456.896 298.838 456.836 298.793 456.762 298.749C456.732 298.734 456.717 298.704 456.688 298.689C456.673 298.689 456.673 298.689 456.673 298.689C456.435 298.63 437.141 293.752 421.12 297.589C420.956 297.544 420.837 297.604 420.733 297.693C418.635 298.198 416.597 298.883 414.678 299.76C414.589 299.775 414.53 299.805 414.485 299.849C413.831 300.147 413.176 300.414 412.551 300.757C391.16 312.417 382.413 333.149 382.339 333.357V333.536C382.339 333.58 382.324 333.64 382.339 333.699C382.339 333.699 382.339 333.699 382.354 333.699C382.354 333.714 382.368 333.714 382.368 333.714C382.428 333.818 382.487 333.878 382.577 333.922C382.711 333.982 389.777 336.763 399.461 338.072C408.654 339.306 420.227 339.202 430.462 334.146C456.033 321.504 457 299.344 457 299.121C457 299.091 456.97 299.061 456.97 299.016ZM421.358 298.436C434.88 295.194 450.797 298.273 455.245 299.269L416.538 317.295L421.358 298.436ZM415.08 300.533C416.791 299.775 418.576 299.165 420.406 298.689L415.526 317.786L408.222 321.192L415.08 300.533ZM412.968 301.545C413.31 301.366 413.667 301.218 414.009 301.039L407.151 321.682L383.618 332.643C385.671 328.316 394.611 311.554 412.968 301.545ZM430.075 333.372C411.555 342.534 388.661 335.202 383.841 333.491L415.869 318.559L437.334 329.089C435.162 330.606 432.767 332.049 430.075 333.372ZM438.152 328.524L416.895 318.083L456.078 299.834C455.735 303.106 453.4 317.473 438.152 328.524Z" fill="black"/>
<path d="M142.112 98.2363C166.032 122.508 180.015 147.509 173.336 154.068C166.671 160.627 141.873 146.275 117.968 122.003C94.063 97.7455 86.7441 66.1709 86.7441 66.1709C86.7441 66.1709 118.206 73.9642 142.112 98.2363Z" fill="white"/>
<path d="M168.725 156.373C158.267 156.373 137.784 143.166 117.448 122.523C93.6622 98.3847 86.0905 66.6614 86.0161 66.349C85.9566 66.0962 86.031 65.8285 86.2244 65.65C86.4029 65.4716 86.6706 65.3972 86.9235 65.4567C87.2359 65.5311 118.862 73.5771 142.648 97.7154C154.251 109.495 163.92 121.824 169.856 132.428C175.94 143.3 177.353 151.168 173.872 154.603C172.652 155.808 170.897 156.373 168.725 156.373ZM87.7863 67.2265C89.4226 73.2648 97.6638 100.333 118.505 121.482C141.696 145.01 166.568 159.69 172.816 153.532C175.731 150.662 174.184 143.226 168.546 133.142C162.685 122.657 153.105 110.432 141.577 98.7416C120.736 77.5928 93.7961 68.9666 87.7863 67.2265Z" fill="#333333"/>
<path d="M87.2785 65.6428L86.2188 66.6865L172.827 154.585L173.887 153.541L87.2785 65.6428Z" fill="#333333"/>
<path d="M116.202 95.4105L99.6836 96.916L99.8186 98.3972L116.337 96.8917L116.202 95.4105Z" fill="#333333"/>
<path d="M120.469 99.8149L103.188 102.812L103.443 104.277L120.723 101.28L120.469 99.8149Z" fill="#333333"/>
<path d="M138.814 95.4008L131.96 112.489L133.341 113.043L140.195 95.9544L138.814 95.4008Z" fill="#333333"/>
<path d="M137.709 117.555L136.37 116.886L144.433 100.987L145.757 101.657L137.709 117.555Z" fill="#333333"/>
<path d="M152.629 132.472L134.373 136.451L134.69 137.904L152.946 133.926L152.629 132.472Z" fill="#333333"/>
<path d="M111.018 75.8284L106.1 86.1875L107.443 86.8252L112.361 76.4661L111.018 75.8284Z" fill="#333333"/>
<path d="M387.336 25.1825V404.94C387.336 418.786 376.105 430 362.27 430H188.165C174.316 430 163.1 418.772 163.1 404.94V25.1825C163.1 11.336 174.331 0.122085 188.165 0.122085H362.256C376.105 0.107212 387.336 11.336 387.336 25.1825Z" fill="#DDDFDC"/>
<path d="M370.378 45.9448V369.633C370.378 381.605 360.679 391.302 348.704 391.302H201.732C189.758 391.302 180.059 381.605 180.059 369.633V45.9448C180.059 33.9723 189.758 24.2754 201.732 24.2754H348.704C360.664 24.2754 370.378 33.9723 370.378 45.9448Z" fill="white"/>
<path d="M348.704 392.045H201.732C189.37 392.045 179.314 381.991 179.314 369.632V45.9443C179.314 33.5851 189.37 23.5312 201.732 23.5312H348.704C361.066 23.5312 371.122 33.5851 371.122 45.9443V369.632C371.122 381.991 361.066 392.045 348.704 392.045ZM201.732 25.0185C190.189 25.0185 180.802 34.4031 180.802 45.9443V369.632C180.802 381.173 190.189 390.558 201.732 390.558H348.704C360.248 390.558 369.634 381.173 369.634 369.632V45.9443C369.634 34.4031 360.248 25.0185 348.704 25.0185H201.732Z" fill="#333333"/>
<path d="M324.084 80.33H194.844C192.583 80.33 190.738 78.5007 190.738 76.24V64.5353C190.738 62.2746 192.568 60.4453 194.844 60.4453H324.069C326.33 60.4453 328.16 62.2746 328.16 64.5353V76.24C328.175 78.5007 326.345 80.33 324.084 80.33Z" fill="#DDDFDC"/>
<path d="M356.588 80.33H345.134C342.873 80.33 341.043 78.5007 341.043 76.24V64.5353C341.043 62.2746 342.873 60.4453 345.134 60.4453H356.588C358.849 60.4453 360.679 62.2746 360.679 64.5353V76.24C360.694 78.5007 358.864 80.33 356.588 80.33Z" fill="#DDDFDC"/>
<path d="M353.687 41.8395H335.241C333.828 41.8395 332.668 40.6943 332.668 39.2665V32.6482C332.668 31.2353 333.828 30.0752 335.241 30.0752H353.687C355.101 30.0752 356.261 31.2204 356.261 32.6482V39.2665C356.246 40.6943 355.101 41.8395 353.687 41.8395ZM335.241 31.384C334.542 31.384 333.962 31.9491 333.962 32.663V39.2814C333.962 39.9804 334.527 40.5604 335.241 40.5604H353.687C354.387 40.5604 354.967 39.9953 354.967 39.2814V32.663C354.967 31.964 354.401 31.384 353.687 31.384H335.241Z" fill="#333333"/>
<path d="M349.328 39.6681H336.178C335.33 39.6681 334.676 38.9691 334.676 38.1214V33.8231C334.676 32.9754 335.33 32.2764 336.178 32.2764H344.642L349.328 39.6681Z" fill="#333333"/>
<path d="M357.616 35.0423V36.5147C357.616 36.7824 357.422 36.9906 357.155 36.9906H355.607V34.5664H357.155C357.422 34.5664 357.616 34.7895 357.616 35.0423Z" fill="#333333"/>
<path d="M210.376 33.3769L208.68 35.1765C207.118 33.6893 204.991 32.7672 202.655 32.7672C200.275 32.7672 198.118 33.719 196.541 35.2509L194.801 33.4662C196.824 31.4881 199.591 30.2686 202.64 30.2686C205.645 30.2983 208.367 31.4584 210.376 33.3769Z" fill="#333333"/>
<path d="M207.831 36.0536L206.105 37.8829C205.198 37.0203 203.978 36.4998 202.639 36.4998C201.285 36.4998 200.036 37.05 199.128 37.9275L197.373 36.128C198.727 34.8043 200.586 33.9863 202.639 33.9863C204.662 34.0012 206.477 34.7746 207.831 36.0536Z" fill="#333333"/>
<path d="M205.229 38.8055L202.655 41.5272L200.037 38.8501C200.707 38.1957 201.644 37.7793 202.655 37.7793C203.652 37.7793 204.559 38.166 205.229 38.8055Z" fill="#333333"/>
<path d="M230.795 41.5215H234.217V29.4301H230.795V41.5215Z" fill="#333333"/>
<path d="M225.717 41.5225H229.139V32.1081H225.717V41.5225Z" fill="#333333"/>
<path d="M221.006 41.5264H224.428V34.3727H221.006V41.5264Z" fill="#333333"/>
<path d="M216.36 41.5352H219.781V37.9509H216.36V41.5352Z" fill="#333333"/>
<path d="M365.855 44.7246H183.166V46.2119H365.855V44.7246Z" fill="#333333"/>
<path d="M221.028 337.968L216.074 391.301H273.599H340.718L336.835 344.735L221.028 337.968Z" fill="#333333"/>
<path d="M167.668 241.549C184.12 199.578 205.125 178.786 223.065 171.186C223.065 171.186 252.653 153.116 290.035 158.098C330.765 161.415 350.877 169.089 350.877 169.089L385.359 184.884L377.876 235.957L347.664 235.02L341.833 352.751L231.47 349.003L224.612 235.644L204.991 254.324L167.668 241.549Z" fill="#FAB70C"/>
<path d="M271.604 150.677L269.447 164.761L281.214 181.329L303.26 168.896L304.747 150.171L271.604 150.677Z" fill="white"/>
<path d="M281.228 182.073C280.99 182.073 280.767 181.969 280.618 181.761L268.852 165.193C268.733 165.029 268.688 164.836 268.718 164.642L270.875 150.558C270.934 150.201 271.232 149.933 271.604 149.933L304.762 149.442C304.97 149.442 305.178 149.517 305.312 149.68C305.461 149.829 305.52 150.037 305.505 150.245L304.018 168.97C304.003 169.223 303.854 169.431 303.646 169.565L281.6 181.999C281.466 182.043 281.347 182.073 281.228 182.073ZM270.235 164.568L281.437 180.348L302.56 168.435L303.958 150.915L272.258 151.391L270.235 164.568Z" fill="#333333"/>
<path d="M265.776 122.88C270.164 105.271 285.085 93.4173 299.098 96.4215C313.125 99.4258 320.935 116.143 316.547 133.752C312.158 151.361 297.238 163.214 283.225 160.21C269.197 157.206 261.388 140.489 265.776 122.88Z" fill="white"/>
<path d="M287.598 161.415C286.08 161.415 284.563 161.266 283.06 160.939C277.095 159.66 272.082 156.016 268.572 150.394C263.841 142.809 262.562 132.726 265.046 122.701C269.524 104.735 284.86 92.6141 299.245 95.6927C305.21 96.9718 310.223 100.616 313.734 106.237C318.465 113.822 319.744 123.906 317.26 133.93C313.258 150.022 300.539 161.415 287.598 161.415ZM266.489 123.058C264.094 132.681 265.314 142.363 269.836 149.606C273.124 154.886 277.809 158.292 283.373 159.481C296.999 162.397 311.547 150.766 315.817 133.573C318.212 123.951 316.992 114.269 312.485 107.026C309.197 101.746 304.511 98.34 298.948 97.1354C285.322 94.2352 270.773 105.866 266.489 123.058Z" fill="#333333"/>
<path d="M272.884 126.197C273.524 123.877 274.878 122.226 275.889 122.509C276.916 122.792 277.228 124.904 276.588 127.224C275.949 129.544 274.595 131.195 273.584 130.912C272.542 130.629 272.245 128.532 272.884 126.197Z" fill="#333333"/>
<path d="M295.57 130.391C296.21 128.071 297.564 126.42 298.575 126.702C299.602 126.985 299.914 129.097 299.274 131.417C298.635 133.737 297.281 135.388 296.269 135.105C295.243 134.823 294.931 132.711 295.57 130.391Z" fill="#333333"/>
<path d="M278.402 121.036C278.358 121.036 278.313 121.036 278.269 121.036L270.89 120.411C270.013 120.337 269.373 119.578 269.447 118.701C269.522 117.823 270.265 117.183 271.158 117.258L278.536 117.882C279.414 117.957 280.054 118.715 279.979 119.593C279.92 120.411 279.221 121.036 278.402 121.036Z" fill="#333333"/>
<path d="M302.934 126.152C302.785 126.152 302.636 126.137 302.488 126.093L295.823 124.1C294.99 123.847 294.514 122.969 294.767 122.137C295.02 121.304 295.898 120.828 296.731 121.081L303.395 123.074C304.228 123.326 304.704 124.204 304.451 125.037C304.243 125.721 303.618 126.152 302.934 126.152Z" fill="#333333"/>
<path d="M308.289 147.241C309.657 145.591 318.999 135.953 316.352 131.209C314.358 127.639 308.036 133.068 308.036 133.068C308.036 133.068 302.993 127.044 303.454 121.78C303.915 116.515 302.026 117.511 302.026 117.511C302.026 117.511 297.162 119.608 292.982 118.329C288.802 117.05 286.912 114.18 286.912 114.18C286.912 114.18 277.868 120.456 274.804 116.321C271.754 112.202 274.729 111.384 274.729 111.384C274.729 111.384 263.558 115.399 265.03 108.29C266.503 101.181 269.017 100.705 269.017 100.705L319.133 121.601C319.133 121.601 323.016 119.995 323.075 124.635C323.135 129.275 319.044 130.376 319.044 130.376C319.044 130.376 322.391 126.301 322.198 132.443C322.004 138.586 308.125 150.856 308.125 150.856L308.289 147.241Z" fill="#333333"/>
<path d="M264.153 130.079C264.153 130.079 264.822 124.665 265.953 120.991C267.083 117.303 270.014 112.35 270.014 112.35L266.786 111.979C266.786 111.979 265.581 111.22 263.707 116.559C261.817 121.884 264.153 130.079 264.153 130.079Z" fill="#333333"/>
<path d="M283.595 140.757C283.535 140.757 283.461 140.757 283.401 140.742C282.375 140.505 277.198 139.181 276.202 137.084C275.949 136.548 275.949 135.998 276.216 135.478C277.406 133.068 281.587 134.199 283.386 134.808L286.376 124.546C286.495 124.16 286.897 123.922 287.284 124.041C287.671 124.16 287.894 124.561 287.79 124.948L284.577 135.983C284.517 136.177 284.383 136.355 284.19 136.444C283.996 136.534 283.788 136.548 283.595 136.459C281.899 135.775 278.195 134.808 277.54 136.132C277.481 136.251 277.481 136.34 277.54 136.459C278.046 137.545 281.468 138.779 283.743 139.315C284.145 139.404 284.383 139.805 284.294 140.207C284.22 140.519 283.922 140.757 283.595 140.757Z" fill="#333333"/>
<path d="M246.035 92.2274L322.496 124.932C322.496 124.932 329.934 102.192 308.855 91.3499C289.175 81.2216 275.444 95.0234 275.444 95.0234C275.444 95.0234 266.207 87.4384 257.281 87.8251C248.356 88.2266 246.035 92.2274 246.035 92.2274Z" fill="#FAB70C"/>
<path d="M307.142 139.374C307.023 139.374 306.904 139.344 306.8 139.285C306.443 139.091 306.294 138.645 306.488 138.288C306.889 137.5 310.564 130.703 314.491 131.938C314.877 132.056 315.101 132.473 314.982 132.86C314.863 133.246 314.446 133.469 314.059 133.336C311.694 132.607 308.689 137.262 307.812 138.957C307.663 139.24 307.41 139.374 307.142 139.374Z" fill="#333333"/>
<path d="M217.295 251.558C217.295 251.558 186.056 169.61 196.008 166.145C205.96 162.694 217.726 182.653 221.267 189.197C224.807 195.756 241.468 247.171 241.468 247.171L217.295 251.558Z" fill="white"/>
<path d="M216.892 252.272L216.699 251.781C216.625 251.602 209.663 233.309 203.43 213.885C195.01 187.68 191.886 171.974 194.118 167.185C194.505 166.338 195.07 165.787 195.799 165.534C200.336 163.958 205.617 166.635 211.522 173.491C216.164 178.875 219.972 185.449 221.816 188.884C225.342 195.414 241.378 244.865 242.062 246.962L242.285 247.646L216.892 252.272ZM198.402 166.382C197.643 166.382 196.914 166.501 196.215 166.754C195.828 166.888 195.516 167.215 195.278 167.736C193.835 170.814 194.296 181.255 204.65 213.514C210.303 231.123 216.55 247.81 217.711 250.859L240.649 246.709C238.656 240.567 223.973 195.547 220.715 189.524C218.886 186.133 215.122 179.649 210.57 174.354C206.003 169.044 201.927 166.382 198.402 166.382Z" fill="#333333"/>
<path d="M239.193 244.85C239.193 244.85 228.096 157.846 238.568 156.834C249.041 155.823 255.794 177.983 257.698 185.181C259.602 192.38 263.708 246.278 263.708 246.278L239.193 244.85Z" fill="white"/>
<path d="M264.407 246.963L238.642 245.46L238.583 244.94C238.553 244.747 236.099 225.338 234.596 204.992C232.573 177.537 233.228 161.534 236.515 157.415C237.095 156.686 237.765 156.284 238.523 156.21C243.298 155.749 247.806 159.586 251.926 167.647C255.169 173.968 257.326 181.255 258.323 185.033C260.212 192.202 264.184 244.048 264.348 246.249L264.407 246.963ZM239.758 244.256L263.024 245.609C262.533 239.169 258.844 191.964 257.088 185.345C256.106 181.612 253.979 174.444 250.796 168.212C246.928 160.672 242.837 157.058 238.642 157.459C238.241 157.504 237.854 157.742 237.497 158.188C235.37 160.85 233.376 171.097 235.846 204.873C237.199 223.345 239.356 241.028 239.758 244.256Z" fill="#333333"/>
<path d="M258.917 308.044C243.877 308.044 224.004 305.174 223.765 305.144C223.364 305.085 223.081 304.713 223.141 304.311C223.2 303.91 223.572 303.627 223.974 303.687C224.227 303.731 250.021 307.449 264.912 306.379C265.313 306.334 265.67 306.661 265.7 307.063C265.73 307.464 265.417 307.821 265.016 307.851C263.127 307.985 261.074 308.044 258.917 308.044Z" fill="white"/>
<path d="M247.463 352.722C235.979 353.361 221.966 346.297 221.311 345.97C220.954 345.791 220.805 345.345 220.984 344.973C221.177 344.616 221.609 344.467 221.981 344.646C222.159 344.735 239.162 353.302 250.527 350.833C250.929 350.758 251.315 350.996 251.405 351.398C251.494 351.8 251.241 352.186 250.839 352.275C249.753 352.513 248.623 352.647 247.463 352.722Z" fill="white"/>
<path d="M254.2 248.45C241.169 248.45 225.876 244.524 225.043 244.316C224.642 244.212 224.419 243.81 224.508 243.409C224.612 243.022 225.014 242.784 225.415 242.873C225.683 242.948 252.385 249.789 265 245.595C265.386 245.461 265.803 245.669 265.937 246.056C266.071 246.443 265.862 246.859 265.476 246.993C262.307 248.049 258.365 248.45 254.2 248.45Z" fill="white"/>
<path d="M279.341 213.931C279.327 213.931 279.297 213.931 279.282 213.931C278.88 213.901 278.568 213.544 278.598 213.143L280.77 185.168C280.799 184.766 281.186 184.454 281.558 184.483C281.96 184.513 282.272 184.87 282.242 185.272L280.07 213.247C280.041 213.634 279.713 213.931 279.341 213.931Z" fill="#333333"/>
<path d="M417.656 163.498C413.194 164.836 408.374 165.253 403.777 165.506C403.376 165.521 402.989 165.521 402.587 165.491C402.468 165.476 402.334 165.461 402.215 165.446C401.486 165.372 397.812 164.896 394.837 164.494C396.057 174.637 396.949 184.186 396.161 185.494C394.406 188.41 385.004 187.547 385.004 187.547L378.146 232.804C378.146 232.804 424.648 234.039 433.484 215.061C437.694 206.004 432.993 183.814 426.002 160.271C423.428 161.713 420.646 162.784 417.656 163.498Z" fill="white"/>
<path d="M425.331 160.642C432.263 183.962 436.934 205.9 432.814 214.749C424.929 231.689 385.33 232.075 379.023 232.075L385.643 188.35C388.023 188.513 395.104 188.722 396.814 185.881C397.692 184.423 396.844 174.86 395.624 164.598C395.089 164.524 394.583 164.449 394.092 164.39C395.371 174.979 396.19 183.918 395.55 185.122C394.449 186.952 388.558 187.13 385.092 186.818C384.691 186.788 384.349 187.056 384.289 187.443L377.431 232.7C377.402 232.908 377.461 233.131 377.595 233.295C377.729 233.459 377.937 233.548 378.145 233.563C378.354 233.563 379.083 233.578 380.213 233.578C389.496 233.578 426.209 232.477 434.167 215.373C438.466 206.123 433.706 183.635 426.655 159.898C426.209 160.151 425.777 160.404 425.331 160.642Z" fill="#333333"/>
<path d="M391.5 139.5L387.5 135V69.5L407 101.5L427 163.5L395.5 171.5L391.5 139.5Z" fill="white"/>
<path d="M394.895 170.071L394.791 169.164C393.377 156.522 391.325 141.947 391.042 139.984C389.019 137.708 370.275 116.604 366.393 110.164C366.051 109.599 365.143 108.097 366.036 107.205C366.735 106.506 368.193 106.282 374.099 109.287C375.69 110.105 377.252 110.967 378.398 111.622C377.356 108.766 375.318 103.174 373.355 97.5076C367.613 80.9246 368.059 79.9877 368.312 79.4671C368.461 79.1548 368.743 78.9615 369.085 78.9615C369.77 78.9466 370.618 78.9317 378.888 93.492C380.748 96.7491 382.563 100.036 383.991 102.624C383.143 99.1287 382.012 94.3844 380.941 89.6103C376.627 70.4246 377.401 69.3538 377.788 68.8332C377.966 68.5953 378.204 68.4465 378.487 68.4317C379.201 68.3722 379.96 68.7737 382.563 74.2468C383.946 77.147 385.702 81.2072 387.784 86.3085C389.525 90.5621 391.206 94.8454 392.47 98.1174C392.143 95.3957 391.756 92.0642 391.414 88.703C389.763 72.6109 390.67 71.6293 391.101 71.1682C391.31 70.9451 391.592 70.8262 391.89 70.841C392.604 70.8856 393.318 71.3169 394.924 76.3588C395.772 79.0061 396.784 82.6796 397.929 87.2753C398.182 88.3163 398.435 89.3425 398.688 90.3687C398.554 88.6435 398.48 87.186 398.48 86.0111C398.45 83.1704 398.762 82.0847 399.64 81.8914C400.562 81.6831 401.217 82.6945 401.976 84.3751C402.704 86.0111 403.627 88.6138 404.728 92.1237C406.185 96.8086 408.327 103.1 410.782 110.402C415.884 125.468 422.221 144.222 427.383 162.441L427.621 163.274L426.758 163.378C424.363 163.676 421.998 164.092 419.722 164.598C416.926 165.223 414.084 165.743 411.317 166.249C406.706 167.097 401.931 167.989 397.349 169.313C396.948 169.432 396.546 169.565 396.144 169.684L394.895 170.071ZM367.152 108.275C367.181 108.424 367.271 108.766 367.657 109.406C371.614 115.95 392.098 138.943 392.306 139.166L392.455 139.329L392.485 139.552C392.5 139.701 394.672 154.767 396.174 168.093C396.427 168.019 396.68 167.929 396.933 167.855C401.589 166.502 406.394 165.609 411.035 164.762C413.772 164.256 416.613 163.735 419.38 163.111C421.433 162.65 423.545 162.278 425.687 161.98C420.57 144.059 414.352 125.661 409.339 110.848C406.87 103.546 404.742 97.2399 403.27 92.5401C401.5 86.9034 400.518 84.6874 400.012 83.8099C399.878 84.8361 399.819 87.3794 400.443 93.6853C400.919 98.4595 401.559 103.055 401.559 103.1L400.101 103.353C400.086 103.278 398.495 95.8568 396.635 88.3163C394.032 77.7717 392.663 74.1279 392.009 72.8637C391.83 74.2766 391.786 78.1435 392.887 88.8369C393.675 96.5111 394.672 103.962 394.686 104.037L395.564 110.521L393.258 104.408C393.229 104.319 390.105 96.0352 386.683 87.6322C381.998 76.1208 379.87 72.0457 378.948 70.6179C379.008 72.358 379.632 77.0578 382.474 89.6846C384.541 98.861 386.787 107.77 386.817 107.859L388.29 113.689L385.449 108.394C385.419 108.32 381.804 101.612 377.936 94.8008C373.34 86.6952 371.049 83.1258 369.918 81.579C370.365 83.5422 371.599 87.8553 374.917 97.4184C377.654 105.316 380.495 112.975 380.525 113.049L381.269 115.057L379.439 113.942C379.409 113.927 376.672 112.261 373.727 110.744C368.966 108.335 367.509 108.231 367.152 108.275Z" fill="#333333"/>
<path d="M284.831 189.927C284.831 189.927 282.377 192.574 281.038 192.753C279.684 192.931 283.18 196.709 283.18 196.709C283.18 196.709 287.152 210.362 281.142 219.003C275.118 227.659 261.625 241.505 260.703 242.442C259.781 243.379 258.204 246.339 258.204 246.339L256.939 247.618L258.561 249.209L259.751 249.373C259.751 249.373 261.12 251.217 263.901 251.113C266.683 251.009 286.468 241.505 293.385 228.551C300.302 215.597 300.124 201.156 296.137 197.556C292.15 193.957 289.19 194.225 288.089 193.481C286.988 192.738 284.831 189.927 284.831 189.927Z" fill="white"/>
<path d="M263.632 251.737C261.267 251.737 259.868 250.473 259.378 249.952L258.232 249.789L256.016 247.602L257.652 245.937C257.92 245.431 259.318 242.888 260.225 241.966C260.359 241.817 274.387 227.539 280.605 218.616C286.065 210.778 282.985 198.448 282.598 196.991C280.694 194.909 279.876 193.466 280.144 192.708C280.263 192.365 280.561 192.142 280.947 192.098C281.721 191.994 283.417 190.492 284.369 189.465L284.889 188.915L285.351 189.525C285.916 190.283 287.582 192.365 288.415 192.931C288.653 193.094 289.114 193.213 289.679 193.377C291.241 193.793 293.607 194.433 296.522 197.065C298.679 199.014 299.78 203.684 299.453 209.558C299.096 215.968 297.117 222.81 293.919 228.833C290.14 235.912 282.851 241.624 277.422 245.163C271.605 248.956 265.625 251.663 263.915 251.722C263.796 251.737 263.706 251.737 263.632 251.737ZM258.812 248.599L260.047 248.762L260.211 248.971C260.255 249.03 261.43 250.547 263.825 250.458C266.072 250.369 285.767 241.356 292.773 228.223C295.897 222.378 297.816 215.715 298.158 209.484C298.471 204.07 297.504 199.668 295.644 198.002C292.952 195.578 290.765 194.983 289.307 194.596C288.623 194.418 288.073 194.269 287.656 193.987C286.793 193.392 285.455 191.771 284.755 190.893C283.967 191.681 282.524 192.99 281.394 193.317C281.646 193.897 282.569 195.162 283.61 196.277L283.714 196.381L283.759 196.53C283.922 197.095 287.745 210.57 281.632 219.359C275.354 228.372 261.267 242.739 261.118 242.873C260.419 243.587 259.154 245.818 258.723 246.621L258.678 246.695L257.801 247.587L258.812 248.599Z" fill="#333333"/>
<path d="M263.855 251.112C261.073 251.216 259.705 249.372 259.705 249.372L258.515 249.208L257.756 248.465C258.41 248.792 259.273 249.045 260.359 249C263.141 248.896 282.926 239.393 289.843 226.438C296.76 213.484 296.581 199.043 292.595 195.444C292.327 195.191 292.044 194.968 291.791 194.76C293.011 195.265 294.469 196.098 296.076 197.556C300.062 201.155 300.256 215.596 293.324 228.55C286.406 241.504 266.637 251.008 263.855 251.112Z" fill="#333333"/>
<path d="M282.704 188.454C282.704 188.454 279.431 190.001 278.122 189.659C276.798 189.317 278.628 194.121 278.628 194.121C278.628 194.121 277.2 208.264 268.363 214.02C259.542 219.776 241.825 227.554 240.62 228.075C239.415 228.595 236.827 230.752 236.827 230.752L235.176 231.466L236.068 233.548L237.11 234.143C237.11 234.143 237.675 236.374 240.308 237.311C242.926 238.263 264.823 236.865 276.099 227.45C287.375 218.036 292.626 204.576 290.275 199.742C287.925 194.909 285.084 194.046 284.34 192.946C283.611 191.83 282.704 188.454 282.704 188.454Z" fill="white"/>
<path d="M243.119 238.203C241.691 238.203 240.62 238.099 240.099 237.905C237.734 237.043 236.857 235.258 236.604 234.574L235.592 233.994L234.357 231.138L236.5 230.216C236.931 229.859 239.192 228.015 240.367 227.509C240.546 227.435 258.902 219.448 268.006 213.499C276.009 208.279 277.78 195.697 277.958 194.21C276.976 191.562 276.753 189.926 277.289 189.317C277.527 189.049 277.884 188.96 278.256 189.049C279.014 189.242 281.141 188.484 282.406 187.889L283.09 187.562L283.284 188.29C283.522 189.198 284.295 191.756 284.846 192.588C285.009 192.826 285.381 193.109 285.857 193.466C287.151 194.448 289.1 195.92 290.826 199.46C292.105 202.077 291.361 206.822 288.847 212.146C286.11 217.961 281.722 223.568 276.485 227.926C270.327 233.072 261.431 235.645 255.064 236.879C250.512 237.786 246.05 238.203 243.119 238.203ZM236.589 233.102L237.675 233.726L237.734 233.979C237.749 234.053 238.27 235.898 240.531 236.716C242.643 237.474 264.272 236.507 275.697 226.959C280.784 222.706 285.054 217.247 287.731 211.611C290.037 206.718 290.796 202.271 289.71 200.025C288.133 196.768 286.318 195.399 285.113 194.492C284.548 194.061 284.102 193.719 283.819 193.302C283.239 192.425 282.599 190.432 282.287 189.331C281.26 189.763 279.431 190.447 278.256 190.328C278.27 190.967 278.657 192.484 279.193 193.897L279.252 194.031L279.237 194.18C279.178 194.775 277.675 208.696 268.691 214.555C259.482 220.564 241.037 228.58 240.858 228.67C239.936 229.071 237.928 230.662 237.228 231.243L237.154 231.302L236.009 231.793L236.589 233.102Z" fill="#333333"/>
<path d="M240.306 237.31C237.688 236.358 237.108 234.142 237.108 234.142L236.067 233.547L235.65 232.58C236.141 233.131 236.84 233.696 237.852 234.053C240.47 235.005 262.367 233.607 273.643 224.192C284.919 214.778 290.17 201.333 287.819 196.485C287.656 196.158 287.492 195.845 287.329 195.548C288.266 196.485 289.307 197.794 290.259 199.757C292.609 204.59 287.358 218.035 276.083 227.464C264.822 236.864 242.925 238.262 240.306 237.31Z" fill="#333333"/>
<path d="M276.23 185.731C276.23 185.731 272.794 186.817 271.529 186.311C270.265 185.791 271.425 190.803 271.425 190.803C271.425 190.803 268.123 204.62 258.602 209.156C249.082 213.692 230.502 219.031 229.238 219.388C227.973 219.745 225.132 221.53 225.132 221.53L223.406 222.021L224.016 224.207L224.968 224.936C224.968 224.936 225.236 227.211 227.705 228.505C230.175 229.799 252.057 231.331 264.493 223.508C276.929 215.685 283.921 203.058 282.24 197.942C280.559 192.841 277.851 191.606 277.271 190.416C276.676 189.197 276.23 185.731 276.23 185.731Z" fill="white"/>
<path d="M237.896 230.172C232.809 230.172 228.599 229.666 227.409 229.041C225.178 227.881 224.553 225.978 224.389 225.264L223.467 224.55L222.619 221.56L224.865 220.936C225.341 220.638 227.826 219.106 229.06 218.764C229.254 218.705 248.503 213.247 258.321 208.577C266.949 204.472 270.385 192.232 270.772 190.789C270.147 188.038 270.147 186.387 270.772 185.851C271.04 185.613 271.411 185.569 271.769 185.717C272.497 186.015 274.699 185.554 276.038 185.123L276.752 184.899L276.856 185.643C276.975 186.58 277.392 189.212 277.838 190.12C277.972 190.387 278.299 190.715 278.715 191.131C279.861 192.276 281.601 194.001 282.836 197.734C283.743 200.501 282.39 205.096 279.191 210.034C275.696 215.433 270.593 220.4 264.836 224.029C258.038 228.313 248.89 229.666 242.404 230.038C240.857 230.127 239.339 230.172 237.896 230.172ZM224.568 223.821L225.565 224.58L225.594 224.847C225.609 224.922 225.877 226.825 228.004 227.926C229.997 228.967 251.567 230.886 264.167 222.958C269.775 219.419 274.744 214.585 278.135 209.35C281.081 204.799 282.419 200.501 281.646 198.136C280.515 194.7 278.909 193.094 277.838 192.038C277.332 191.533 276.93 191.146 276.707 190.685C276.246 189.748 275.889 187.681 275.725 186.55C274.654 186.848 272.75 187.264 271.605 186.996C271.53 187.621 271.724 189.183 272.066 190.67L272.096 190.819L272.066 190.967C271.932 191.547 268.57 205.141 258.901 209.752C248.979 214.481 229.626 219.969 229.432 220.014C228.465 220.281 226.264 221.605 225.49 222.081L225.416 222.126L224.211 222.468L224.568 223.821Z" fill="#333333"/>
<path d="M227.693 228.49C225.223 227.197 224.955 224.921 224.955 224.921L224.003 224.192L223.721 223.166C224.137 223.776 224.747 224.43 225.714 224.921C228.183 226.215 250.066 227.747 262.502 219.924C274.938 212.101 281.929 199.474 280.248 194.358C280.129 194.001 280.01 193.674 279.891 193.361C280.709 194.417 281.557 195.845 282.227 197.912C283.908 203.014 276.916 215.641 264.48 223.478C252.044 231.316 230.162 229.769 227.693 228.49Z" fill="#333333"/>
<path d="M174.438 295.283L174.676 310.587L174.438 295.283Z" fill="#FFD03A"/>
<path d="M273.599 392.045C273.227 392.045 272.9 391.763 272.855 391.376L271.68 379.433C271.636 379.032 271.933 378.66 272.35 378.615C272.751 378.586 273.123 378.868 273.168 379.285L274.343 391.227C274.388 391.629 274.09 392.001 273.674 392.045C273.659 392.045 273.629 392.045 273.599 392.045Z" fill="white"/>
<path d="M312.812 135.983C312.708 135.983 312.618 135.968 312.514 135.923L310.506 135.046C310.134 134.882 309.956 134.451 310.134 134.079C310.298 133.707 310.729 133.529 311.101 133.707L313.109 134.585C313.481 134.748 313.66 135.18 313.481 135.552C313.362 135.819 313.094 135.983 312.812 135.983Z" fill="#333333"/>
<path d="M278.314 222.81C278.314 222.81 273.569 220.059 269.627 224.639C265.685 229.235 271.62 241.386 271.62 241.386C271.62 241.386 274.655 247.305 280.323 247.335C285.99 247.365 287.463 248.629 289.858 247.127C292.253 245.625 303.916 223.836 294.321 221.546C284.726 219.256 283.104 222.468 282.123 222.126C281.141 221.784 278.314 222.81 278.314 222.81Z" fill="#333333"/>
<path d="M282.435 222.602C282.435 222.602 283.566 215.374 281.781 214.779C279.981 214.169 280.502 215.448 280.502 215.448C280.502 215.448 281.617 218.884 281.692 220.222C281.766 221.561 281.751 223.018 281.751 223.018L282.435 222.602Z" fill="#333333"/>
<path d="M278.821 224.862C278.375 224.862 277.958 224.803 277.586 224.639C277.08 224.431 276.828 224.149 276.842 223.806C276.842 223.137 277.884 222.646 278.211 222.527C278.375 222.468 278.553 222.542 278.628 222.706C278.687 222.869 278.613 223.048 278.449 223.122C277.958 223.331 277.467 223.673 277.467 223.821C277.467 223.836 277.527 223.94 277.824 224.074C279.014 224.58 280.963 223.881 282.257 223.42C282.51 223.331 282.748 223.241 282.956 223.182L285.976 222.2L286.169 222.795L283.15 223.777C282.956 223.836 282.718 223.925 282.465 224.015C281.454 224.372 280.041 224.862 278.821 224.862Z" fill="white"/>
<path d="M282.954 225.964C282.82 225.964 282.687 225.875 282.657 225.726C282.612 225.562 282.716 225.384 282.88 225.339L285.439 224.64C285.602 224.596 285.781 224.7 285.825 224.863C285.87 225.027 285.766 225.205 285.602 225.25L283.044 225.949C283.014 225.964 282.984 225.964 282.954 225.964Z" fill="white"/>
<path d="M295.109 230.96C295.094 230.96 295.094 230.96 295.079 230.96C294.901 230.945 294.782 230.782 294.797 230.618C294.797 230.574 295.198 226.142 293.101 224.476C291.033 222.84 287.597 224.625 287.552 224.639C287.403 224.714 287.21 224.669 287.121 224.506C287.046 224.357 287.091 224.163 287.255 224.074C287.403 223.985 291.093 222.081 293.488 223.97C295.853 225.844 295.436 230.47 295.406 230.663C295.406 230.841 295.273 230.96 295.109 230.96Z" fill="white"/>
<path d="M294.454 235.348C294.439 235.348 294.424 235.348 294.395 235.348C294.216 235.318 294.112 235.155 294.142 234.976L294.543 232.611C294.573 232.433 294.737 232.329 294.915 232.359C295.094 232.388 295.198 232.552 295.168 232.73L294.767 235.095C294.737 235.229 294.603 235.348 294.454 235.348Z" fill="white"/>
<path d="M213.768 204.858C213.069 204.858 212.414 204.754 211.834 204.516C211.001 204.174 210.763 203.564 210.704 203.118C210.242 199.772 219.822 192.112 221.756 190.61C222.039 190.402 222.426 190.447 222.649 190.714C222.857 190.997 222.812 191.384 222.545 191.607C217.993 195.161 211.715 201.021 211.968 202.955C211.983 203.088 212.042 203.222 212.34 203.356C215.494 204.665 222.812 200.56 225.356 198.865C225.654 198.671 226.04 198.746 226.234 199.043C226.427 199.34 226.353 199.727 226.055 199.921C225.698 200.144 218.543 204.858 213.768 204.858Z" fill="#333333"/>
<path d="M219.808 219.895C218.544 219.895 217.755 219.523 217.383 218.794C216.64 217.292 218.261 215.254 222.515 212.369C225.401 210.406 228.481 208.77 228.525 208.755C228.838 208.591 229.21 208.71 229.373 209.023C229.537 209.335 229.418 209.707 229.105 209.87C229.076 209.885 226.041 211.506 223.215 213.425C218.053 216.935 218.44 218.11 218.514 218.229C218.797 218.779 220.611 218.943 224.791 217.545C227.811 216.533 230.712 215.18 230.742 215.165C231.054 215.016 231.441 215.15 231.59 215.463C231.738 215.775 231.605 216.162 231.292 216.31C231.262 216.325 228.302 217.708 225.193 218.749C222.887 219.508 221.102 219.895 219.808 219.895Z" fill="#333333"/>
<path d="M250.215 224.133C245.335 224.817 239.043 228.03 239.251 232.551C239.757 243.824 257.518 251.751 265.953 244.746C273.956 238.083 275.533 210.048 258.872 215.908C253.859 217.663 254.647 223.508 250.215 224.133Z" fill="#FFD03A"/>
<path d="M251.509 222.631C252.015 220.966 249.07 217.589 248.787 215.433C248.608 214.005 249.07 206.39 251.197 206.108C253.711 205.781 254.797 215.373 254.514 216.801C254.202 218.378 253.83 219.88 252.833 221.174C252.565 221.531 251.45 222.825 251.509 222.631Z" fill="#333333"/>
<path d="M250.719 223.032C252.073 222.779 248.502 221.367 247.402 220.519C246.063 219.478 243.876 211.417 241.035 215.105C240.707 215.536 239.83 217.723 240.529 218.124C241.094 218.466 242.582 218.005 243.445 218.422C246.405 219.82 246.747 223.791 250.719 223.032Z" fill="#333333"/>
<path d="M223.483 224.297C226.711 226.647 228.734 232.789 228.065 236.314C226.443 244.955 219.615 251.663 206.301 245.803C201.392 242.248 189.536 228.119 193.568 223.077C196.469 219.463 206.822 221.04 210.377 221.709C211.582 221.917 218.931 220.936 223.483 224.297Z" fill="#333333"/>
<path d="M202.271 239.526C202.167 239.705 202.375 240.032 202.747 240.255C203.119 240.478 203.506 240.508 203.61 240.315C203.714 240.136 203.506 239.809 203.134 239.586C202.762 239.363 202.39 239.348 202.271 239.526Z" fill="white"/>
<path d="M200.751 228.655C200.647 228.834 200.856 229.161 201.227 229.384C201.599 229.607 201.986 229.637 202.09 229.443C202.194 229.265 201.986 228.938 201.614 228.715C201.257 228.507 200.87 228.477 200.751 228.655Z" fill="white"/>
<path d="M212.593 241.148C212.489 241.326 212.697 241.653 213.069 241.876C213.441 242.1 213.828 242.129 213.932 241.936C214.036 241.757 213.828 241.43 213.456 241.207C213.099 240.984 212.712 240.954 212.593 241.148Z" fill="white"/>
<path d="M201.882 237.652C201.778 237.831 201.986 238.158 202.358 238.381C202.73 238.604 203.117 238.634 203.221 238.441C203.325 238.262 203.117 237.935 202.745 237.712C202.388 237.504 202.001 237.474 201.882 237.652Z" fill="white"/>
<path d="M206.107 240.181C206.003 240.359 206.211 240.687 206.583 240.91C206.955 241.133 207.342 241.163 207.446 240.969C207.55 240.791 207.342 240.464 206.97 240.24C206.598 240.017 206.211 239.988 206.107 240.181Z" fill="white"/>
<path d="M205.453 242.322C205.348 242.501 205.557 242.828 205.929 243.051C206.3 243.274 206.687 243.304 206.791 243.111C206.895 242.932 206.687 242.605 206.315 242.382C205.943 242.159 205.557 242.144 205.453 242.322Z" fill="white"/>
<path d="M198.372 232.656C198.268 232.834 198.477 233.161 198.849 233.384C199.22 233.607 199.607 233.637 199.711 233.444C199.815 233.265 199.607 232.938 199.235 232.715C198.863 232.492 198.477 232.462 198.372 232.656Z" fill="white"/>
<path d="M205.497 236.12C205.303 236.224 205.333 236.611 205.541 236.983C205.75 237.355 206.077 237.578 206.255 237.474C206.449 237.37 206.419 236.983 206.211 236.611C206.003 236.239 205.69 236.016 205.497 236.12Z" fill="white"/>
<path d="M213.01 244.36C212.89 244.538 213.069 244.88 213.411 245.133C213.753 245.386 214.14 245.446 214.274 245.267C214.393 245.089 214.214 244.747 213.872 244.494C213.515 244.256 213.129 244.196 213.01 244.36Z" fill="white"/>
<path d="M200.797 232.12C200.633 232.254 200.723 232.641 200.99 232.968C201.258 233.295 201.615 233.459 201.779 233.325C201.942 233.191 201.853 232.804 201.585 232.477C201.318 232.135 200.961 231.986 200.797 232.12Z" fill="white"/>
<path d="M195.949 230.9C195.786 231.034 195.875 231.421 196.143 231.748C196.41 232.075 196.767 232.239 196.931 232.105C197.095 231.971 197.005 231.585 196.738 231.257C196.47 230.93 196.128 230.766 195.949 230.9Z" fill="white"/>
<path d="M167.759 216.89C167.03 217.306 171.418 217.113 172.579 217.068C176.312 216.949 180.299 216.607 184.048 217.306C195.844 219.507 206.51 223.166 215.986 230.35C226.295 238.158 231.248 252.673 236.574 263.858C239.013 268.974 239.727 274.729 242.524 279.578C242.613 279.727 243.327 281.006 243.536 280.946C243.893 280.842 241.691 273.793 241.527 273.227C239.132 264.884 235.904 257.12 232.2 249.357C221.073 225.932 195.353 201.036 167.759 216.89Z" fill="#333333"/>
<path d="M194.757 181.895C200.246 187.889 204.412 196.842 207.848 204.07C214.958 219.017 225.699 232.462 233.032 247.87C236.335 254.801 237.808 263.293 241.616 269.882C242.077 270.685 244.204 280.129 244.71 279.98C245.29 279.816 244.516 276.396 244.383 275.935C242.226 268.394 239.503 261.077 237.331 253.477C231.366 232.611 221.325 207.684 206.554 191.577C203.073 187.784 191.633 178.489 194.757 181.895Z" fill="#333333"/>
<path d="M241.973 264.587C242.538 247.915 226.205 175.842 222.129 157.236C220.998 152.061 219.987 146.156 220.18 140.862C220.195 140.579 220.477 139.642 220.12 139.434C220.016 139.374 218.663 146.989 218.588 147.644C217.577 155.363 218.93 162.531 220.18 170.072C221.668 179.159 230.786 228.521 235.368 244.003C237.689 251.856 239.191 259.962 241.497 267.785C241.869 269.049 244.353 279.4 244.665 279.103L241.973 264.587Z" fill="#333333"/>
<path d="M177.323 173.537C185.014 178.817 227.365 233.518 235.933 255.559C239.875 265.703 242.062 276.366 245.766 286.554C246.733 289.231 251.865 297.946 250.571 300.415C250.467 300.623 249.247 301.769 249.187 301.754C248.429 301.486 242.151 279.861 241.348 277.72C233.657 257.106 221.995 237.207 208.383 219.91C200.589 210.005 182.693 182.327 179.941 179.025C178.662 177.463 175.657 172.392 177.323 173.537Z" fill="#333333"/>
<path d="M210.795 181.478C210.78 180.779 220.271 202.91 222.934 210.257C230.014 229.784 234.819 249.937 241.082 269.762C243.075 276.083 244.935 282.538 247.032 288.799C247.3 289.587 250.587 298.079 250.007 298.154C248.921 298.288 246.898 289.572 246.556 288.516C243.12 277.644 238.836 266.981 235.176 256.079C231.755 245.877 225.745 236.061 223.067 225.62C220.643 216.087 210.944 186.565 210.795 181.478Z" fill="#333333"/>
<path d="M199.248 244.285L303.512 237.414C303.512 237.414 308.793 343.426 305.104 361.348C303.259 361.318 201.896 364.858 201.896 364.858L206.641 302.155L199.248 244.285Z" fill="white"/>
<path d="M201.228 365.512L206.018 302.17L198.535 243.691L304.123 236.73L304.153 237.37C304.361 241.698 309.389 343.665 305.729 361.467L305.625 361.988L305.105 361.973C305.09 361.973 305.09 361.973 305.075 361.973C302.397 361.973 202.938 365.438 201.942 365.483L201.228 365.512ZM199.963 244.866L207.282 302.125V302.185L202.596 364.189C211.983 363.862 296.878 360.902 304.584 360.723C307.886 342.49 303.349 246.888 302.918 238.084L199.963 244.866Z" fill="#333333"/>
<path d="M231.084 348.959H229.819L230.027 292.964L223.244 249.045L224.494 248.852L231.307 292.86V292.919L231.084 348.959Z" fill="#333333"/>
<path d="M229.627 317.474C229.701 315.749 229.805 314.024 229.909 312.298C230.117 308.967 230.385 305.621 230.713 302.304C230.995 299.508 231.025 296.637 231.739 293.916C231.843 293.529 231.962 293.128 232.096 292.741C227.38 290.569 217.905 283.877 214.186 281.482C208.905 278.076 203.044 275.444 203.044 275.444L200.307 252.451L172.712 244.301C172.712 244.301 152.585 286.361 163.742 300.192C174.899 314.024 224.494 320.969 224.494 320.969L229.567 319.928C229.582 319.095 229.582 318.277 229.627 317.474Z" fill="white"/>
<path d="M224.509 321.608L224.405 321.594C224.286 321.579 211.82 319.809 198.149 316.388C179.703 311.763 167.966 306.438 163.251 300.593C158.49 294.689 158.55 283.341 163.429 266.877C167.044 254.726 172.087 244.137 172.131 244.033L172.37 243.542L200.886 251.96L203.638 275.012C204.947 275.622 209.975 278.002 214.527 280.947C215.42 281.527 216.64 282.345 218.038 283.282C222.59 286.345 228.823 290.525 232.348 292.161L232.869 292.399L232.676 292.949C232.542 293.321 232.423 293.707 232.333 294.064C231.828 296.013 231.664 298.11 231.515 300.132C231.456 300.861 231.396 301.62 231.322 302.363C231.01 305.546 230.742 308.907 230.519 312.343C230.414 314.053 230.325 315.793 230.236 317.518C230.221 317.965 230.206 318.441 230.191 318.902C230.176 319.259 230.176 319.615 230.162 319.958L230.147 320.448L224.509 321.608ZM173.039 245.059C170.852 249.774 154.072 287.223 164.218 299.79C174.854 312.967 221.861 319.943 224.449 320.314L228.912 319.392C228.912 319.214 228.927 319.021 228.927 318.842C228.942 318.381 228.942 317.905 228.972 317.429C229.046 315.689 229.15 313.949 229.254 312.239C229.462 308.788 229.745 305.427 230.057 302.215C230.132 301.486 230.191 300.742 230.236 300.013C230.4 297.931 230.563 295.79 231.099 293.722C231.158 293.499 231.218 293.276 231.292 293.038C227.603 291.224 221.682 287.253 217.309 284.308C215.911 283.371 214.691 282.553 213.813 281.973C208.636 278.627 202.82 276.009 202.761 275.979L202.433 275.83L199.696 252.897L173.039 245.059Z" fill="#333333"/>
<path d="M247.909 191.592C246.853 191.592 246.124 191.279 245.723 190.655C245.544 190.387 245.366 189.941 245.529 189.301C246.288 186.208 255.213 181.077 256.24 180.497C256.537 180.318 256.924 180.437 257.103 180.735C257.281 181.032 257.162 181.419 256.865 181.598C253.205 183.665 247.24 187.665 246.764 189.599C246.705 189.837 246.764 189.926 246.794 189.956C247.612 191.205 253.161 189.227 257.846 186.684C258.159 186.52 258.531 186.624 258.709 186.937C258.873 187.249 258.769 187.621 258.456 187.799C258.352 187.859 255.823 189.227 253.056 190.298C250.84 191.175 249.144 191.592 247.909 191.592Z" fill="#333333"/>
<path d="M249.113 204.368C247.655 204.368 246.45 204.085 245.87 203.312C245.572 202.925 245.498 202.479 245.647 202.003C246.495 199.162 256.878 195.266 258.946 194.522C259.273 194.403 259.63 194.567 259.749 194.909C259.868 195.236 259.704 195.593 259.362 195.712C254.453 197.482 247.328 200.724 246.852 202.36C246.822 202.464 246.837 202.509 246.881 202.553C247.997 204.025 254.87 202.404 259.392 200.768C259.719 200.649 260.076 200.828 260.195 201.155C260.314 201.482 260.136 201.839 259.808 201.958C258.395 202.464 252.876 204.368 249.113 204.368Z" fill="#333333"/>
<path d="M235.325 291.714C235.325 291.714 219.11 283.549 206.555 277.272C206.391 277.838 204.681 282.463 204.502 283.028C202.033 290.777 198.418 298.064 195.473 305.62C194.535 308.044 192.631 311.584 191.516 313.829C219.155 322.113 250.795 327.676 265.492 331.632C293.489 339.187 258.055 322.753 258.055 322.753C258.055 322.753 288.862 334.324 290.275 332.375C291.689 330.427 261.268 316.105 261.268 316.105C261.268 316.105 298.918 323.898 300.064 321.846C301.194 319.793 262.532 306.914 262.532 306.914C262.532 306.914 297.669 309.293 296.583 307.434C295.497 305.575 261.699 298.392 261.699 298.392C261.699 298.392 280.205 289.111 272.172 288.977C264.109 288.858 235.325 291.714 235.325 291.714Z" fill="white"/>
<path d="M275.161 334.369C274.685 334.369 274.12 334.309 273.51 334.22C271.695 333.967 268.928 333.328 265.299 332.361C259.914 330.904 252.223 329.238 243.312 327.304C227.946 323.958 208.816 319.809 191.307 314.559L190.459 314.306L190.846 313.518C191.128 312.952 191.456 312.283 191.813 311.599C192.824 309.621 194.074 307.152 194.773 305.367C195.874 302.542 197.079 299.701 198.254 296.964C200.217 292.384 202.241 287.639 203.788 282.806C203.877 282.538 204.234 281.541 204.665 280.366C205.156 279.028 205.751 277.362 205.84 277.065L206.093 276.202L206.897 276.604C218.574 282.434 233.613 290.004 235.488 290.956C238.344 290.673 264.48 288.115 272.186 288.234C272.855 288.249 274.626 288.279 274.908 289.528C275.131 290.51 274.522 291.922 268.512 295.507C266.831 296.518 265.12 297.455 263.871 298.11C266.89 298.764 272.9 300.088 278.91 301.5C296.389 305.635 296.939 306.557 297.237 307.063C297.415 307.36 297.4 307.702 297.237 307.985C296.88 308.55 296.404 309.338 279.178 308.595C275.161 308.416 271.16 308.208 268.08 308.015C271.576 309.219 276.381 310.885 281.201 312.625C300.033 319.467 300.539 320.761 300.777 321.385C300.881 321.668 300.866 321.965 300.733 322.218C300.39 322.843 299.602 323.304 293.458 322.56C290.186 322.173 285.693 321.474 280.13 320.478C275.34 319.63 270.535 318.708 266.965 318.009C269.523 319.244 272.707 320.82 275.89 322.456C290.543 329.952 290.885 331.305 291.048 331.945C291.123 332.257 291.078 332.569 290.9 332.807C290.483 333.373 289.68 333.774 284.473 332.406C281.721 331.692 278.002 330.532 273.421 329C272.201 328.584 270.981 328.167 269.791 327.766C271.561 328.717 273.004 329.565 274.105 330.264C276.5 331.796 277.288 332.688 276.976 333.551C276.723 334.161 276.083 334.369 275.161 334.369ZM192.571 313.384C209.797 318.5 228.526 322.575 243.625 325.847C252.55 327.795 260.256 329.461 265.685 330.919C271.814 332.569 274.224 332.882 275.176 332.882C274.462 332.227 272.409 330.755 266.429 327.676C262.071 325.431 257.786 323.438 257.742 323.423L258.322 322.054C258.396 322.084 265.656 324.806 273.198 327.364C284.072 331.052 287.865 331.781 289.189 331.856C288.207 330.978 285.054 328.792 274.968 323.646C267.961 320.076 261.029 316.804 260.955 316.775L255.258 314.098L261.416 315.377C261.505 315.392 270.416 317.236 279.579 318.872C292.521 321.192 297.103 321.504 298.724 321.445C297.326 320.567 293.072 318.515 280.293 313.874C271.279 310.603 262.368 307.628 262.279 307.598L256.76 305.754L262.561 306.141C262.636 306.141 270.49 306.676 278.553 307.033C288.49 307.479 292.819 307.39 294.693 307.241C292.863 306.557 288.49 305.248 278.107 302.794C269.776 300.831 261.595 299.091 261.52 299.076L259.452 298.63L261.342 297.678C261.371 297.663 264.421 296.131 267.441 294.332C272.424 291.387 273.257 290.168 273.391 289.84C273.257 289.781 272.9 289.677 272.127 289.662C264.228 289.543 235.666 292.369 235.384 292.398L235.175 292.413L234.982 292.309C234.818 292.235 219.273 284.397 206.971 278.255C206.763 278.849 206.435 279.727 206.049 280.813C205.662 281.869 205.275 282.954 205.201 283.192C203.639 288.085 201.601 292.859 199.622 297.485C198.462 300.207 197.242 303.032 196.156 305.843C195.442 307.687 194.223 310.097 193.137 312.209C192.943 312.655 192.75 313.027 192.571 313.384Z" fill="#333333"/>
<path d="M202.314 272.722L198.535 243.69L202.998 243.408L299.571 237.161L299.645 238.425L203.072 244.657L199.963 244.865L203.578 272.573L202.314 272.722Z" fill="#333333"/>
<path d="M253.769 226.111C253.68 226.111 253.591 226.067 253.531 225.992C253.427 225.859 253.442 225.665 253.576 225.546C253.606 225.517 256.997 222.706 258.202 220.832C259.824 218.303 261.713 217.723 263.007 217.679C264.777 217.619 266.533 218.526 267.693 220.118C269.701 222.81 269.88 223.895 269.895 224C269.924 224.178 269.79 224.327 269.627 224.356C269.448 224.371 269.3 224.252 269.27 224.089C269.27 224.089 269.091 223.063 267.187 220.49C266.131 219.077 264.584 218.259 263.022 218.318C261.386 218.378 259.898 219.359 258.738 221.174C257.488 223.122 254.126 225.918 253.977 226.037C253.903 226.097 253.829 226.111 253.769 226.111Z" fill="white"/>
<path d="M243.818 229.621C243.699 229.621 243.595 229.562 243.536 229.458C243.446 229.309 243.506 229.116 243.669 229.026C243.759 228.982 245.752 227.911 249.962 226.796C250.126 226.751 250.304 226.855 250.349 227.019C250.393 227.182 250.289 227.361 250.126 227.405C245.99 228.506 243.982 229.577 243.967 229.592C243.922 229.607 243.878 229.621 243.818 229.621Z" fill="white"/>
<path d="M321.795 123.133L288.89 109.153L288.816 109.079C288.652 108.9 271.947 91.4396 258.96 89.6549C252.698 88.7923 249.574 91.514 249.544 91.5437L248.904 90.8298C249.038 90.7109 252.4 87.7958 259.079 88.7031C272.096 90.4878 288.072 106.937 289.426 108.335L322.152 122.241L321.795 123.133Z" fill="#333333"/>
<path d="M225.402 243.199C225.358 243.199 225.298 243.184 225.253 243.169C225.105 243.095 225.03 242.902 225.12 242.738C230.133 232.997 226.667 228.639 223.885 225.129L223.632 224.802C221.282 221.827 214.335 221.946 211.374 222.006C210.958 222.006 210.631 222.021 210.393 222.021C209.128 221.991 208.905 221.961 207.864 221.738C207.298 221.619 206.51 221.47 205.186 221.232C201.497 220.578 197.168 221.515 197.124 221.53C196.96 221.574 196.781 221.455 196.752 221.292C196.707 221.128 196.826 220.95 196.99 220.92C197.168 220.875 201.482 219.953 205.29 220.623C206.629 220.861 207.418 221.024 207.983 221.128C209.009 221.337 209.188 221.366 210.393 221.396C210.616 221.396 210.943 221.396 211.36 221.381C214.424 221.322 221.579 221.203 224.123 224.415L224.376 224.742C227.113 228.208 230.876 232.937 225.685 243.036C225.625 243.14 225.521 243.199 225.402 243.199Z" fill="white"/>
<path d="M347.575 246.308L346.623 246.264C346.787 243.007 350.238 212.696 350.387 211.402L351.324 211.506C351.309 211.819 347.739 243.066 347.575 246.308Z" fill="#333333"/>
<path d="M306.639 299.374L306.223 298.526C317.335 293.009 323.464 284.606 326.632 278.508C330.083 271.904 330.916 266.52 330.916 266.461L331.853 266.595C331.824 266.818 331.006 272.157 327.48 278.894C324.237 285.141 317.989 293.737 306.639 299.374Z" fill="#333333"/>
<path d="M305.731 273.064L305.27 272.231C319.535 264.364 327.658 244.315 327.732 244.122L328.61 244.479C328.595 244.524 326.527 249.67 322.704 255.723C319.178 261.3 313.362 268.855 305.731 273.064Z" fill="#333333"/>
<path d="M360.581 218.905L348.701 228.953L349.316 229.68L361.196 219.632L360.581 218.905Z" fill="#333333"/>
<path d="M284.904 150.171C284.086 150.171 283.223 150.127 282.346 150.023C277.199 149.428 272.751 145.754 271.918 144.445L273.182 143.657C273.644 144.386 277.541 147.985 282.524 148.55C287.255 149.086 291.866 147.807 292.402 147.435C292.402 147.435 292.372 147.465 292.327 147.509L293.473 148.461C292.922 149.13 290.319 149.636 289.546 149.77C288.341 149.978 286.719 150.171 284.904 150.171Z" fill="#333333"/>
<path d="M114.01 249C106.299 249 100 255.502 100 263.501C100 271.234 112.922 288.939 113.475 289.678C113.628 289.886 113.876 290 114.124 290C114.391 290 114.639 289.867 114.792 289.678C115.327 288.92 128 271.234 128 263.501C128.019 255.502 121.74 249 114.01 249ZM107.234 262.667C107.234 259.027 110.307 256.07 114.105 256.07C117.903 256.07 120.976 259.027 120.976 262.667C120.976 266.306 117.903 269.263 114.105 269.263C110.307 269.263 107.234 266.306 107.234 262.667Z" fill="#051928"/>
<path d="M465.012 153.54C465.012 139.996 475.968 129.015 489.481 129.015C502.994 129.015 513.95 139.996 513.95 153.54C513.95 167.084 502.994 178.065 489.481 178.065C475.968 178.065 465.012 167.084 465.012 153.54Z" fill="white"/>
<path d="M489.481 179.078C475.433 179.078 464 167.619 464 153.539C464 139.459 475.433 128 489.481 128C503.529 128 514.962 139.459 514.962 153.539C514.962 167.619 503.529 179.078 489.481 179.078ZM489.481 130.047C476.559 130.047 466.023 140.588 466.023 153.539C466.023 166.49 476.54 177.031 489.481 177.031C502.422 177.031 512.939 166.49 512.939 153.539C512.939 140.588 502.403 130.047 489.481 130.047Z" fill="#061C2D"/>
<path d="M489.63 147.893C489.63 147.893 484.869 139.709 478.39 143.887C464.204 153.049 489.533 170.662 489.533 170.662C489.533 170.662 514.452 152.608 501.182 143.887C494.684 139.613 489.63 147.893 489.63 147.893Z" fill="#333333"/>
<path d="M3.67418 185.541C18.831 178.964 29.9702 195.33 30.2748 194.537C30.7699 193.183 14.6419 163.39 37.3391 164.01C49.4113 164.338 72.2418 190.687 72.2418 190.687C72.2418 190.687 68.1098 179.602 75.9358 177.668C83.7617 175.733 116.246 211.019 115.999 211C111.505 210.71 20.4114 207.673 11.3859 207.556C10.7766 207.537 -7.65538 190.474 3.67418 185.541Z" fill="#FAB70C"/>
<path d="M484.819 258.5C496.448 253.462 504.994 265.997 505.228 265.39C505.608 264.353 493.234 241.533 510.648 242.007C519.91 242.259 537.427 262.441 537.427 262.441C537.427 262.441 534.257 253.951 540.261 252.469C546.265 250.987 571.189 278.015 570.999 278C567.551 277.778 497.661 275.451 490.736 275.362C490.268 275.348 476.126 262.278 484.819 258.5Z" fill="#FAB70C"/>
</svg>
