<svg width="12" height="13" viewBox="0 0 12 13" fill="none" xmlns="http://www.w3.org/2000/svg">
<path d="M7.31452 6.00409L11.5558 1.71409C11.7415 1.52579 11.8459 1.27039 11.8459 1.00409C11.8459 0.73779 11.7415 0.482395 11.5558 0.294092C11.3701 0.105788 11.1182 0 10.8555 0C10.5928 0 10.3409 0.105788 10.1552 0.294092L5.92378 4.59409L1.69237 0.294092C1.50663 0.105788 1.25473 -1.9841e-09 0.992063 0C0.729398 1.9841e-09 0.477491 0.105788 0.291759 0.294092C0.106027 0.482395 0.0016833 0.73779 0.00168329 1.00409C0.00168329 1.27039 0.106027 1.52579 0.291759 1.71409L4.53304 6.00409L0.291759 10.2941C0.19931 10.3871 0.125932 10.4977 0.0758569 10.6195C0.0257815 10.7414 0 10.8721 0 11.0041C0 11.1361 0.0257815 11.2668 0.0758569 11.3887C0.125932 11.5105 0.19931 11.6211 0.291759 11.7141C0.383452 11.8078 0.492543 11.8822 0.612738 11.933C0.732933 11.9838 0.861853 12.0099 0.992063 12.0099C1.12227 12.0099 1.25119 11.9838 1.37139 11.933C1.49158 11.8822 1.60067 11.8078 1.69237 11.7141L5.92378 7.41409L10.1552 11.7141C10.2469 11.8078 10.356 11.8822 10.4762 11.933C10.5964 11.9838 10.7253 12.0099 10.8555 12.0099C10.9857 12.0099 11.1146 11.9838 11.2348 11.933C11.355 11.8822 11.4641 11.8078 11.5558 11.7141C11.6482 11.6211 11.7216 11.5105 11.7717 11.3887C11.8218 11.2668 11.8476 11.1361 11.8476 11.0041C11.8476 10.8721 11.8218 10.7414 11.7717 10.6195C11.7216 10.4977 11.6482 10.3871 11.5558 10.2941L7.31452 6.00409Z" fill="#9A9494"/>
</svg>
