<svg width="18" height="20" viewBox="0 0 18 20" fill="none" xmlns="http://www.w3.org/2000/svg">
<path d="M4 2C4 1.46957 4.21071 0.960859 4.58579 0.585786C4.96086 0.210714 5.46957 0 6 0H12C12.5304 0 13.0391 0.210714 13.4142 0.585786C13.7893 0.960859 14 1.46957 14 2V4H17C17.2652 4 17.5196 4.10536 17.7071 4.29289C17.8946 4.48043 18 4.73478 18 5C18 5.26522 17.8946 5.51957 17.7071 5.70711C17.5196 5.89464 17.2652 6 17 6H16.931L16.064 18.142C16.0281 18.6466 15.8023 19.1188 15.4321 19.4636C15.0619 19.8083 14.5749 20 14.069 20H3.93C3.42414 20 2.93707 19.8083 2.56688 19.4636C2.1967 19.1188 1.97092 18.6466 1.935 18.142L1.07 6H1C0.734784 6 0.48043 5.89464 0.292893 5.70711C0.105357 5.51957 0 5.26522 0 5C0 4.73478 0.105357 4.48043 0.292893 4.29289C0.48043 4.10536 0.734784 4 1 4H4V2ZM6 4H12V2H6V4ZM3.074 6L3.931 18H14.07L14.927 6H3.074Z" fill="#9A9494"/>
</svg>
