<svg width="323" height="168" viewBox="0 0 323 168" fill="none" xmlns="http://www.w3.org/2000/svg">
<g clip-path="url(#clip0)">
<path d="M306.872 167.022C306.762 167.022 306.652 166.978 306.579 166.883C305.391 165.493 304.129 164.126 302.816 162.817C302.662 162.663 302.662 162.421 302.816 162.266C302.97 162.112 303.212 162.112 303.366 162.266C304.687 163.582 305.97 164.964 307.173 166.375C307.312 166.537 307.29 166.787 307.129 166.927C307.048 166.986 306.96 167.022 306.872 167.022ZM63.632 165.28C63.5293 165.28 63.4193 165.236 63.346 165.155C63.1993 164.993 63.2066 164.751 63.368 164.604C64.9815 163.112 66.6611 161.641 68.3479 160.237C68.5166 160.098 68.7587 160.12 68.898 160.289C69.0374 160.458 69.0154 160.7 68.8467 160.84C67.1671 162.237 65.5023 163.692 63.8961 165.177C63.8227 165.251 63.7274 165.28 63.632 165.28ZM202.058 162.215C201.956 162.215 201.86 162.178 201.78 162.097C200.306 160.612 198.67 159.252 196.763 157.929C196.587 157.804 196.543 157.562 196.668 157.385C196.793 157.209 197.035 157.165 197.211 157.29C199.154 158.642 200.834 160.039 202.337 161.553C202.491 161.707 202.491 161.95 202.337 162.104C202.257 162.178 202.154 162.215 202.058 162.215ZM206.921 158.583C206.811 158.583 206.701 158.532 206.62 158.444C206.481 158.275 206.503 158.032 206.672 157.892C208.359 156.488 210.141 155.143 211.974 153.893C212.15 153.776 212.392 153.82 212.517 153.996C212.634 154.173 212.59 154.415 212.414 154.54C210.603 155.775 208.843 157.106 207.17 158.495C207.097 158.554 207.009 158.583 206.921 158.583ZM298.196 158.495C298.108 158.495 298.02 158.466 297.946 158.407C296.267 157.025 294.499 155.694 292.695 154.467C292.519 154.349 292.468 154.099 292.592 153.923C292.71 153.746 292.952 153.695 293.135 153.82C294.961 155.062 296.751 156.407 298.445 157.804C298.614 157.944 298.636 158.186 298.496 158.355C298.423 158.451 298.313 158.495 298.196 158.495ZM73.7973 156.848C73.6799 156.848 73.5626 156.797 73.4819 156.687C73.3572 156.51 73.3866 156.268 73.5626 156.143C75.3375 154.82 77.1637 153.54 78.9899 152.335C79.1659 152.217 79.408 152.269 79.5327 152.445C79.65 152.622 79.5987 152.864 79.4226 152.989C77.6111 154.187 75.7995 155.459 74.032 156.768C73.9586 156.819 73.878 156.848 73.7973 156.848ZM191.329 154.599C191.27 154.599 191.204 154.584 191.145 154.555C189.458 153.665 187.573 152.754 185.219 151.695C185.021 151.607 184.933 151.372 185.021 151.181C185.109 150.982 185.344 150.894 185.534 150.982C187.903 152.048 189.796 152.967 191.505 153.864C191.695 153.967 191.769 154.202 191.666 154.393C191.6 154.518 191.468 154.599 191.329 154.599ZM217.812 151.137C217.673 151.137 217.541 151.063 217.468 150.938C217.365 150.747 217.431 150.512 217.622 150.409C219.543 149.336 221.538 148.343 223.562 147.447C223.761 147.358 223.988 147.447 224.076 147.645C224.164 147.843 224.076 148.071 223.878 148.16C221.883 149.042 219.903 150.034 218.003 151.085C217.937 151.122 217.871 151.137 217.812 151.137ZM287.297 151.071C287.231 151.071 287.165 151.056 287.106 151.019C285.199 149.961 283.219 148.976 281.232 148.093C281.034 148.005 280.946 147.777 281.034 147.579C281.122 147.38 281.349 147.292 281.547 147.38C283.564 148.27 285.559 149.27 287.488 150.343C287.678 150.446 287.744 150.688 287.642 150.872C287.561 150.997 287.429 151.071 287.297 151.071ZM84.8133 149.571C84.6813 149.571 84.5493 149.497 84.4759 149.372C84.3659 149.189 84.4319 148.946 84.6153 148.836C86.5369 147.718 88.4951 146.66 90.4387 145.675C90.6294 145.579 90.8641 145.653 90.9594 145.851C91.0547 146.042 90.9814 146.278 90.7834 146.373C88.8545 147.344 86.9036 148.402 84.9967 149.512C84.9453 149.549 84.8793 149.571 84.8133 149.571ZM179.337 149.071C179.286 149.071 179.234 149.064 179.183 149.042C176.88 148.042 174.951 147.219 173.11 146.454C172.912 146.373 172.817 146.145 172.898 145.947C172.978 145.748 173.206 145.653 173.404 145.734C175.245 146.498 177.181 147.322 179.484 148.321C179.682 148.409 179.77 148.637 179.689 148.836C179.63 148.983 179.484 149.071 179.337 149.071ZM229.863 145.793C229.701 145.793 229.547 145.69 229.496 145.528C229.43 145.322 229.533 145.102 229.738 145.035C231.821 144.33 233.97 143.705 236.111 143.19C236.317 143.139 236.529 143.271 236.581 143.477C236.632 143.69 236.5 143.896 236.295 143.947C234.175 144.462 232.056 145.072 229.987 145.77C229.951 145.785 229.907 145.793 229.863 145.793ZM275.24 145.726C275.196 145.726 275.159 145.719 275.115 145.704C273.047 145.006 270.927 144.388 268.807 143.889C268.602 143.837 268.47 143.624 268.521 143.418C268.573 143.212 268.785 143.08 268.991 143.131C271.132 143.646 273.274 144.264 275.364 144.969C275.57 145.035 275.68 145.263 275.606 145.462C275.555 145.623 275.401 145.726 275.24 145.726ZM167.133 144.021C167.089 144.021 167.037 144.014 166.993 143.992C164.823 143.154 162.798 142.418 160.803 141.735C160.598 141.669 160.488 141.441 160.561 141.242C160.627 141.036 160.855 140.926 161.053 141C163.055 141.683 165.087 142.426 167.272 143.264C167.47 143.337 167.573 143.565 167.5 143.771C167.441 143.925 167.287 144.021 167.133 144.021ZM96.6068 143.631C96.4528 143.631 96.3134 143.543 96.2474 143.396C96.1667 143.198 96.2547 142.97 96.4528 142.882C98.4917 142.007 100.567 141.198 102.628 140.478C102.834 140.404 103.054 140.514 103.127 140.72C103.2 140.926 103.09 141.147 102.885 141.22C100.846 141.941 98.7777 142.742 96.7535 143.609C96.7094 143.617 96.6581 143.631 96.6068 143.631ZM242.683 142.712C242.492 142.712 242.324 142.573 242.294 142.374C242.265 142.161 242.412 141.963 242.624 141.933C244.817 141.617 247.039 141.397 249.225 141.286C249.438 141.286 249.621 141.441 249.636 141.654C249.643 141.867 249.482 142.051 249.269 142.066C247.105 142.176 244.905 142.389 242.742 142.705C242.72 142.705 242.705 142.712 242.683 142.712ZM262.419 142.661C262.405 142.661 262.383 142.661 262.361 142.654C260.197 142.345 257.997 142.139 255.826 142.044C255.613 142.036 255.444 141.852 255.452 141.632C255.459 141.419 255.664 141.264 255.863 141.257C258.055 141.36 260.278 141.566 262.471 141.874C262.683 141.904 262.83 142.102 262.801 142.315C262.779 142.521 262.61 142.661 262.419 142.661ZM154.635 139.779C154.599 139.779 154.562 139.772 154.525 139.765C152.354 139.14 150.205 138.603 148.152 138.147C147.939 138.103 147.807 137.89 147.851 137.684C147.895 137.471 148.108 137.346 148.313 137.383C150.389 137.839 152.545 138.383 154.731 139.008C154.936 139.066 155.061 139.287 155.002 139.493C154.958 139.669 154.804 139.779 154.635 139.779ZM109.053 139.265C108.884 139.265 108.723 139.147 108.679 138.978C108.62 138.772 108.745 138.552 108.95 138.5C111.092 137.912 113.27 137.405 115.404 136.986C115.617 136.949 115.822 137.082 115.859 137.295C115.903 137.508 115.764 137.714 115.551 137.751C113.432 138.162 111.283 138.669 109.156 139.25C109.126 139.257 109.09 139.265 109.053 139.265ZM141.742 136.986C141.727 136.986 141.705 136.986 141.683 136.979C140.451 136.802 139.211 136.655 137.994 136.545C137.055 136.457 136.094 136.383 135.148 136.332C134.936 136.317 134.767 136.133 134.782 135.92C134.796 135.707 134.972 135.545 135.192 135.553C136.153 135.604 137.114 135.678 138.067 135.766C139.292 135.883 140.546 136.03 141.793 136.207C142.006 136.236 142.152 136.435 142.123 136.648C142.101 136.839 141.932 136.986 141.742 136.986ZM121.998 136.743C121.8 136.743 121.631 136.596 121.609 136.398C121.587 136.185 121.741 135.986 121.954 135.964C124.154 135.714 126.384 135.545 128.562 135.479C128.767 135.442 128.958 135.641 128.965 135.854C128.973 136.067 128.804 136.251 128.591 136.258C126.428 136.324 124.228 136.486 122.042 136.736C122.035 136.736 122.013 136.743 121.998 136.743Z" fill="#061C2D"/>
<path d="M259.082 167.574C258.943 167.574 258.811 167.5 258.737 167.368C258.723 167.346 257.425 164.949 255.496 161.597C255.386 161.413 255.452 161.171 255.635 161.061C255.818 160.95 256.06 161.017 256.17 161.2C258.107 164.56 259.412 166.964 259.427 166.986C259.53 167.177 259.464 167.412 259.273 167.515C259.214 167.559 259.148 167.574 259.082 167.574ZM252.474 156.091C252.342 156.091 252.21 156.025 252.144 155.9C250.919 153.879 249.738 151.99 248.638 150.299C248.521 150.115 248.572 149.88 248.756 149.755C248.939 149.637 249.181 149.689 249.298 149.872C250.406 151.571 251.587 153.46 252.819 155.489C252.929 155.672 252.87 155.915 252.687 156.025C252.613 156.077 252.54 156.091 252.474 156.091ZM159.527 147.939C159.432 147.939 159.329 147.902 159.256 147.829C159.102 147.674 159.102 147.432 159.248 147.278C160.855 145.624 162.446 144.058 163.972 142.632C164.126 142.485 164.375 142.492 164.522 142.654C164.668 142.815 164.661 143.058 164.5 143.205C162.982 144.624 161.397 146.175 159.799 147.821C159.725 147.895 159.623 147.939 159.527 147.939ZM245.206 145.035C245.088 145.035 244.971 144.984 244.898 144.881C243.636 143.227 242.169 141.58 240.549 139.985C240.394 139.831 240.394 139.588 240.541 139.434C240.695 139.28 240.937 139.28 241.091 139.427C242.741 141.044 244.23 142.72 245.521 144.403C245.653 144.572 245.616 144.822 245.448 144.947C245.374 145.013 245.286 145.035 245.206 145.035ZM156.351 143.977C156.212 143.977 156.073 143.896 156.007 143.764C154.973 141.735 153.902 139.794 152.824 138.008C152.714 137.824 152.772 137.582 152.956 137.471C153.139 137.361 153.381 137.42 153.491 137.604C154.584 139.405 155.662 141.36 156.703 143.411C156.799 143.602 156.725 143.837 156.535 143.933C156.476 143.962 156.41 143.977 156.351 143.977ZM169.201 138.949C169.091 138.949 168.974 138.897 168.9 138.809C168.761 138.64 168.79 138.398 168.952 138.258C170.719 136.81 172.501 135.464 174.24 134.252C174.416 134.127 174.658 134.171 174.782 134.347C174.907 134.524 174.863 134.766 174.687 134.891C172.963 136.089 171.196 137.42 169.45 138.861C169.377 138.919 169.289 138.949 169.201 138.949ZM235.825 135.773C235.745 135.773 235.657 135.744 235.591 135.692C233.86 134.369 232.033 133.127 230.163 132.017C229.98 131.907 229.914 131.664 230.024 131.48C230.134 131.296 230.369 131.23 230.559 131.341C232.459 132.473 234.307 133.722 236.06 135.068C236.229 135.2 236.265 135.442 236.133 135.611C236.06 135.722 235.943 135.773 235.825 135.773ZM149.479 132.708C149.362 132.708 149.245 132.656 149.164 132.553C147.829 130.76 146.414 129.069 144.954 127.525C144.807 127.371 144.815 127.121 144.969 126.974C145.123 126.827 145.372 126.834 145.519 126.989C146.993 128.555 148.43 130.267 149.787 132.083C149.919 132.259 149.883 132.502 149.707 132.627C149.641 132.686 149.56 132.708 149.479 132.708ZM180.063 131.466C179.924 131.466 179.792 131.392 179.718 131.267C179.616 131.076 179.682 130.841 179.872 130.738C181.845 129.642 183.855 128.672 185.85 127.841C186.048 127.761 186.275 127.856 186.356 128.055C186.436 128.253 186.341 128.481 186.143 128.562C184.178 129.378 182.19 130.333 180.246 131.414C180.195 131.451 180.129 131.466 180.063 131.466ZM224.494 129.04C224.443 129.04 224.384 129.032 224.34 129.003C222.33 128.113 220.262 127.356 218.194 126.739C217.988 126.68 217.871 126.459 217.93 126.254C217.988 126.048 218.208 125.93 218.414 125.989C220.511 126.607 222.609 127.386 224.655 128.283C224.853 128.371 224.941 128.599 224.853 128.797C224.787 128.951 224.641 129.04 224.494 129.04ZM68.4579 127.746C68.3405 127.746 68.2379 127.694 68.1645 127.606C66.9324 126.151 65.6782 124.725 64.4461 123.365C64.2994 123.203 64.314 122.96 64.4754 122.813C64.6368 122.666 64.8788 122.681 65.0255 122.843C66.1623 124.1 67.3211 125.416 68.4652 126.754C68.5752 126.629 68.6926 126.496 68.8026 126.371C68.9493 126.21 69.1913 126.195 69.3527 126.342C69.514 126.489 69.5287 126.731 69.382 126.893C69.1693 127.128 68.964 127.364 68.7513 127.606C68.6779 127.694 68.5679 127.746 68.4579 127.746ZM192.245 126.467C192.077 126.467 191.915 126.349 191.871 126.18C191.812 125.974 191.937 125.761 192.15 125.702C194.284 125.129 196.477 124.688 198.67 124.401C198.89 124.379 199.081 124.526 199.11 124.739C199.139 124.953 198.985 125.151 198.773 125.18C196.616 125.467 194.453 125.893 192.355 126.459C192.311 126.467 192.282 126.467 192.245 126.467ZM211.872 125.32C211.85 125.32 211.835 125.32 211.813 125.313C209.657 124.982 207.464 124.798 205.293 124.776C205.08 124.776 204.904 124.6 204.904 124.379C204.904 124.166 205.08 123.99 205.293 123.99C205.293 123.99 205.293 123.99 205.3 123.99C207.5 124.012 209.73 124.195 211.923 124.534C212.136 124.563 212.282 124.769 212.246 124.982C212.224 125.18 212.055 125.32 211.872 125.32ZM140.407 123.152C140.319 123.152 140.231 123.122 140.157 123.063C138.485 121.696 136.688 120.424 134.825 119.278C134.642 119.167 134.583 118.925 134.701 118.741C134.811 118.557 135.053 118.498 135.236 118.616C137.128 119.785 138.955 121.079 140.656 122.468C140.825 122.608 140.847 122.85 140.715 123.019C140.634 123.1 140.524 123.152 140.407 123.152ZM73.8046 122.409C73.6945 122.409 73.5845 122.365 73.5112 122.277C73.3718 122.115 73.3865 121.865 73.5552 121.725C75.2274 120.285 77.0023 118.925 78.8432 117.697C79.0192 117.579 79.2612 117.624 79.3859 117.807C79.5033 117.984 79.4593 118.226 79.2759 118.351C77.4643 119.564 75.7115 120.895 74.0613 122.321C73.9806 122.372 73.8926 122.409 73.8046 122.409ZM60.1995 118.689C60.0969 118.689 60.0015 118.653 59.9208 118.572C58.3513 116.977 56.7671 115.433 55.1976 113.985C55.0362 113.838 55.0289 113.588 55.1756 113.433C55.3223 113.272 55.5716 113.264 55.7256 113.411C57.3025 114.867 58.9014 116.425 60.4782 118.028C60.6323 118.182 60.6249 118.432 60.4709 118.579C60.3976 118.653 60.3022 118.689 60.1995 118.689ZM129.215 116.22C129.163 116.22 129.105 116.205 129.053 116.183C127.146 115.301 125.093 114.485 122.966 113.75C122.761 113.676 122.658 113.456 122.724 113.25C122.797 113.044 123.017 112.934 123.223 113.007C125.379 113.75 127.447 114.58 129.383 115.47C129.581 115.558 129.662 115.793 129.574 115.992C129.508 116.139 129.361 116.22 129.215 116.22ZM84.7546 115.095C84.6079 115.095 84.4759 115.014 84.4025 114.882C84.3072 114.691 84.3879 114.455 84.5786 114.36C86.5735 113.36 88.6344 112.493 90.7026 111.78C90.908 111.706 91.128 111.816 91.2014 112.022C91.2747 112.228 91.1647 112.448 90.9593 112.522C88.9204 113.228 86.8962 114.08 84.9306 115.065C84.8719 115.08 84.8132 115.095 84.7546 115.095ZM116.776 111.882C116.747 111.882 116.71 111.875 116.681 111.868C115.14 111.471 113.505 111.089 111.825 110.743C111.319 110.64 110.798 110.545 110.278 110.464C110.065 110.427 109.918 110.228 109.955 110.015C109.992 109.802 110.19 109.655 110.402 109.692C110.938 109.773 111.473 109.876 111.987 109.979C113.681 110.331 115.324 110.714 116.879 111.118C117.084 111.169 117.216 111.383 117.157 111.596C117.106 111.765 116.952 111.882 116.776 111.882ZM97.2008 110.817C97.0174 110.817 96.8561 110.684 96.8194 110.5C96.7754 110.287 96.9147 110.081 97.1274 110.045C99.357 109.611 101.579 109.361 103.743 109.295C103.963 109.28 104.139 109.457 104.146 109.67C104.154 109.883 103.985 110.067 103.772 110.074C101.653 110.14 99.4671 110.39 97.2815 110.809C97.2521 110.817 97.2228 110.817 97.2008 110.817ZM50.5037 109.736C50.4157 109.736 50.3277 109.707 50.2543 109.648C48.5234 108.214 46.7705 106.854 45.0617 105.612C44.8856 105.487 44.849 105.244 44.9737 105.068C45.0983 104.892 45.3404 104.855 45.5164 104.98C47.2473 106.23 49.0075 107.597 50.753 109.045C50.9217 109.185 50.9437 109.427 50.8044 109.596C50.7237 109.684 50.6137 109.736 50.5037 109.736ZM39.7957 102.017C39.7297 102.017 39.6563 102.003 39.5903 101.959C37.6614 100.782 35.7252 99.7165 33.8403 98.805C33.6496 98.7094 33.5616 98.4742 33.6569 98.2831C33.7523 98.0919 33.9796 98.0037 34.1777 98.0993C36.0919 99.0255 38.0428 100.099 39.9937 101.29C40.1771 101.4 40.2357 101.642 40.1257 101.826C40.0597 101.951 39.9277 102.017 39.7957 102.017ZM27.9215 96.3204C27.8775 96.3204 27.8409 96.313 27.7969 96.2983C25.6259 95.5558 23.499 95.0119 21.4747 94.6737C21.2621 94.637 21.1154 94.4385 21.152 94.2253C21.1887 94.0121 21.3941 93.8651 21.5994 93.9019C23.6677 94.2474 25.8313 94.806 28.0462 95.5632C28.2516 95.6294 28.3616 95.8572 28.2883 96.0557C28.2369 96.2174 28.0829 96.3204 27.9215 96.3204ZM14.1405 94.5047C13.9645 94.5047 13.8031 94.3797 13.7591 94.2033C13.7078 93.9901 13.8398 93.7843 14.0525 93.7328C14.1038 93.7181 14.3972 93.6593 14.9179 93.6005C15.1306 93.5784 15.3213 93.7328 15.3507 93.946C15.3727 94.1592 15.2186 94.3503 15.0059 94.3797C14.5146 94.4385 14.2579 94.49 14.2285 94.4973C14.1992 94.4973 14.1698 94.5047 14.1405 94.5047Z" fill="#061C2D"/>
<path d="M45.5088 168C45.4428 168 45.3768 167.985 45.3182 167.949C35.7616 162.656 28.7134 153.621 25.9924 143.176C23.9022 135.17 24.7529 127.261 28.3247 121.483C36.3264 108.538 47.6284 105.634 55.7034 105.48C62.495 105.355 68.1937 107.097 70.4306 107.891C67.5409 102.51 53.9506 75.2597 64.3065 56.5072C70.7093 44.9074 84.9231 38.6811 106.544 38.0048C124.44 37.4387 142.988 45.4734 161.654 61.8735C176.667 75.0686 187.573 89.9691 192.81 97.1363C194.247 99.099 195.384 100.657 195.707 100.9C195.956 100.863 196.748 99.7753 197.379 98.8932C199.733 95.6367 204.119 89.5868 211.791 90.4983C228.381 92.4905 240.468 113.25 247.685 130.311C255.474 148.726 259.434 166.919 259.471 167.096C259.515 167.309 259.383 167.515 259.17 167.559C258.957 167.603 258.752 167.471 258.708 167.258C258.671 167.074 254.725 148.954 246.958 130.598C239.822 113.728 227.911 93.2109 211.695 91.2702C204.471 90.4028 200.43 96.0042 198.01 99.3489C197.005 100.731 196.404 101.569 195.787 101.657C195.589 101.687 195.399 101.635 195.237 101.517C194.841 101.216 194.013 100.099 192.179 97.5921C162.996 57.6981 134.172 37.9092 106.566 38.784C85.2311 39.4529 71.2447 45.5469 64.9813 56.8822C53.7232 77.2812 71.4354 108.126 71.6187 108.435C71.7068 108.582 71.6848 108.766 71.5747 108.891C71.4647 109.016 71.2814 109.06 71.1273 108.993C71.0613 108.964 64.2405 106.09 55.6888 106.259C47.8191 106.413 36.7958 109.251 28.9848 121.887C25.5304 127.481 24.7089 135.17 26.7479 142.97C29.4175 153.21 36.3264 162.068 45.6995 167.258C45.8902 167.36 45.9562 167.603 45.8536 167.787C45.7802 167.927 45.6409 168 45.5088 168Z" fill="#061C2D"/>
<path d="M322.611 167.588L0.388715 167.588C0.176022 167.588 -5.26977e-08 167.412 -3.40608e-08 167.199C-1.54239e-08 166.986 0.176022 166.809 0.388715 166.809L322.611 166.809C322.824 166.809 323 166.986 323 167.199C323 167.412 322.824 167.588 322.611 167.588Z" fill="#061C2D"/>
<path d="M53.2831 56.9187C60.4559 53.846 65.7293 61.491 65.8686 61.1161C66.1033 60.484 58.4684 46.5685 69.213 46.8625C74.9264 47.0169 85.737 59.3225 85.737 59.3225C85.737 59.3225 83.7788 54.1474 87.4826 53.2432C91.1864 52.339 106.566 68.8127 106.442 68.8053C104.315 68.6656 61.1967 67.2542 56.9208 67.2028C56.6495 67.1881 47.9217 59.2196 53.2831 56.9187Z" fill="#7ABC2F"/>
<path d="M10.6273 120.858C15.9226 118.587 19.8171 124.232 19.9197 123.96C20.0958 123.497 14.4557 113.22 22.3914 113.433C26.6086 113.551 34.5956 122.63 34.5956 122.63C34.5956 122.63 33.1507 118.807 35.8864 118.138C38.6221 117.469 49.9755 129.635 49.8875 129.628C48.3179 129.525 16.48 128.481 13.3189 128.444C13.1136 128.437 6.66677 122.556 10.6273 120.858Z" fill="#7ABC2F"/>
<path d="M261.202 88.4839C258.239 88.4839 255.818 91.0053 255.818 94.1075C255.818 97.1067 260.784 103.973 260.996 104.259C261.055 104.34 261.15 104.384 261.246 104.384C261.348 104.384 261.444 104.333 261.502 104.259C261.708 103.965 266.578 97.1067 266.578 94.1075C266.585 91.0053 264.172 88.4839 261.202 88.4839ZM258.598 93.784C258.598 92.3726 259.779 91.2258 261.238 91.2258C262.698 91.2258 263.879 92.3726 263.879 93.784C263.879 95.1954 262.698 96.3422 261.238 96.3422C259.779 96.3422 258.598 95.1954 258.598 93.784Z" fill="#051928"/>
<path d="M153.946 24.4202C150.983 24.4202 148.562 26.9416 148.562 30.0437C148.562 33.0429 153.528 39.9087 153.741 40.1954C153.799 40.2763 153.895 40.3204 153.99 40.3204C154.093 40.3204 154.188 40.2689 154.247 40.1954C154.452 39.9014 159.322 33.0429 159.322 30.0437C159.329 26.9416 156.916 24.4202 153.946 24.4202ZM151.342 29.7202C151.342 28.3088 152.523 27.1621 153.983 27.1621C155.442 27.1621 156.623 28.3088 156.623 29.7202C156.623 31.1316 155.442 32.2784 153.983 32.2784C152.523 32.2784 151.342 31.1316 151.342 29.7202Z" fill="#051928"/>
<path d="M34.9991 27.3972C32.036 27.3972 29.6157 29.9186 29.6157 33.0207C29.6157 36.02 34.581 42.8858 34.7937 43.1725C34.8524 43.2534 34.9477 43.2975 35.0431 43.2975C35.1457 43.2975 35.2411 43.246 35.2998 43.1725C35.5051 42.8785 40.3751 36.02 40.3751 33.0207C40.3751 29.9186 37.9694 27.3972 34.9991 27.3972ZM32.3881 32.69C32.3881 31.2786 33.5689 30.1318 35.0284 30.1318C36.4879 30.1318 37.6687 31.2786 37.6687 32.69C37.6687 34.1013 36.4879 35.2481 35.0284 35.2481C33.5689 35.2555 32.3881 34.1087 32.3881 32.69Z" fill="#051928"/>
<path d="M192.517 70.6799C187.764 70.6799 183.899 66.8059 183.899 62.0425C183.899 57.279 187.764 53.405 192.517 53.405C197.269 53.405 201.134 57.279 201.134 62.0425C201.134 66.8059 197.269 70.6799 192.517 70.6799ZM192.517 54.1842C188.197 54.1842 184.684 57.7054 184.684 62.0351C184.684 66.3649 188.197 69.886 192.517 69.886C196.837 69.886 200.35 66.3649 200.35 62.0351C200.357 57.7127 196.837 54.1842 192.517 54.1842Z" fill="#061C2D"/>
<path d="M34.5372 86.9478C28.8091 86.9478 24.1445 82.2725 24.1445 76.5314C24.1445 70.7902 28.8091 66.115 34.5372 66.115C35.0946 66.115 35.652 66.1591 36.202 66.2473C36.5174 66.2988 36.7374 66.6002 36.6861 66.9162C36.6348 67.2397 36.3341 67.4529 36.0187 67.4014C35.5273 67.3206 35.0286 67.2838 34.5372 67.2838C29.4545 67.2838 25.3107 71.4298 25.3107 76.524C25.3107 81.6183 29.4472 85.7716 34.5372 85.7716C38.1163 85.7716 41.3947 83.6692 42.8982 80.4201C43.0376 80.126 43.3823 80.0011 43.6756 80.1334C43.969 80.273 44.0937 80.6185 43.9617 80.9126C42.2675 84.5807 38.571 86.9478 34.5372 86.9478Z" fill="#061C2D"/>
<path d="M195.985 64.1082C195.927 64.1082 195.868 64.0935 195.817 64.0714L192.348 62.3954C192.252 62.3513 192.172 62.2631 192.142 62.1528C192.113 62.0499 192.128 61.9323 192.179 61.8367L195.56 56.1764C195.67 55.9926 195.912 55.9338 196.095 56.0441C196.279 56.1544 196.337 56.3969 196.227 56.5807L193.066 61.8735L196.154 63.3657C196.345 63.4613 196.433 63.6965 196.337 63.8877C196.271 64.0273 196.132 64.1082 195.985 64.1082Z" fill="#061C2D"/>
<path d="M192.517 69.7244C192.304 69.7244 192.128 69.548 192.128 69.3348L192.128 67.4089C192.128 67.1957 192.304 67.0193 192.517 67.0193C192.729 67.0193 192.905 67.1957 192.905 67.4089L192.905 69.3348C192.905 69.5554 192.737 69.7244 192.517 69.7244Z" fill="#061C2D"/>
<path d="M192.517 57.0145C192.304 57.0145 192.128 56.8381 192.128 56.6249L192.128 54.6916C192.128 54.4784 192.304 54.302 192.517 54.302C192.729 54.302 192.905 54.4784 192.905 54.6916L192.905 56.6176C192.905 56.8381 192.737 57.0145 192.517 57.0145Z" fill="#061C2D"/>
<path d="M187.133 62.7116L185.211 62.7116C184.999 62.7116 184.823 62.5352 184.823 62.322C184.823 62.1088 184.999 61.9324 185.211 61.9324L187.133 61.9324C187.346 61.9324 187.522 62.1088 187.522 62.322C187.522 62.5425 187.346 62.7116 187.133 62.7116Z" fill="#061C2D"/>
<path d="M199.528 62.5939L197.606 62.5939C197.394 62.5939 197.218 62.4175 197.218 62.2043C197.218 61.9911 197.394 61.8147 197.606 61.8147L199.528 61.8147C199.741 61.8147 199.917 61.9911 199.917 62.2043C199.917 62.4175 199.741 62.5939 199.528 62.5939Z" fill="#061C2D"/>
<path d="M32.1532 70.643C31.9772 70.643 31.8012 70.5622 31.6838 70.4152C31.4858 70.1579 31.5372 69.7903 31.7939 69.5919L35.4023 66.8426L32.1972 63.7699C31.9625 63.5493 31.9552 63.1744 32.1752 62.9392C32.3953 62.704 32.7693 62.6966 33.004 62.9171L36.7225 66.4603C36.8471 66.5779 36.9131 66.747 36.9058 66.9161C36.8985 67.0852 36.8105 67.2469 36.6785 67.3498L32.5199 70.5181C32.4026 70.5989 32.2779 70.643 32.1532 70.643Z" fill="#061C2D"/>
<path d="M28.5962 72.5765C29.4543 72.2089 30.3124 72.0251 31.1558 72.0251C31.9406 72.0251 32.5713 72.2236 33.0554 72.6279C33.5321 73.0249 33.7741 73.5174 33.7741 74.0981C33.7741 74.3701 33.7228 74.6347 33.6128 74.8773C33.5028 75.1199 33.3634 75.3404 33.1801 75.5389C32.9967 75.7374 32.7914 75.9285 32.5713 76.127C32.344 76.3181 32.1093 76.5239 31.8526 76.7371C31.6032 76.9503 31.3612 77.1782 31.1338 77.406C30.9065 77.6339 30.6864 77.9133 30.4737 78.2367C30.2684 78.5602 30.0997 78.9056 29.975 79.2732L33.9208 79.2732L33.9208 80.1186L28.8015 80.1186L28.8015 79.5966C28.9482 79.1335 29.1316 78.7072 29.3663 78.3029C29.5936 77.8986 29.8283 77.5604 30.0704 77.2884C30.3124 77.0091 30.5618 76.7518 30.8258 76.5092C31.0825 76.2667 31.3318 76.0535 31.5592 75.8697C31.7866 75.6859 31.9919 75.5095 32.1826 75.3404C32.366 75.1714 32.5127 74.9949 32.6227 74.8185C32.7327 74.6421 32.784 74.4583 32.784 74.2745C32.784 73.8923 32.608 73.5615 32.256 73.2822C31.9039 73.0028 31.4785 72.8632 30.9871 72.8632C30.4517 72.8632 29.7477 73.0175 28.8822 73.3263L28.5962 72.5765Z" fill="black"/>
<path d="M38.7832 72.084L40.1254 72.084L40.1254 77.3253L41.5262 77.3253L41.5262 78.1706L40.1254 78.1706L40.1254 80.1186L39.2013 80.1186L39.2013 78.1706L35.5488 78.1706L35.5488 77.5384L38.7832 72.084ZM39.2013 73.0029L36.649 77.3253L39.2013 77.3253L39.2013 73.0029Z" fill="black"/>
<path d="M36.3926 47.2889C36.3046 47.2889 36.224 47.2595 36.1506 47.2007C35.9819 47.0683 35.9526 46.8184 36.0919 46.6493C36.7667 45.7966 37.4634 44.9366 38.1675 44.0765C38.3069 43.9074 38.5489 43.8854 38.7176 44.025C38.8863 44.1647 38.9083 44.4073 38.7689 44.5764C38.0648 45.4364 37.3754 46.2965 36.7007 47.1418C36.62 47.2374 36.5027 47.2889 36.3926 47.2889Z" fill="#061C2D"/>
<path d="M42.8982 39.519C42.8029 39.519 42.7149 39.4896 42.6342 39.4161C42.4728 39.2691 42.4582 39.0265 42.6049 38.8648C44.2257 37.0564 45.7732 35.4392 47.3428 33.9102C47.4968 33.7632 47.7462 33.7632 47.8928 33.9175C48.0395 34.0719 48.0395 34.3218 47.8855 34.4689C46.3306 35.9832 44.7905 37.593 43.1843 39.3867C43.1109 39.4749 43.0009 39.519 42.8982 39.519ZM145.607 38.7325C145.512 38.7325 145.424 38.6957 145.343 38.6296C143.458 36.9315 141.786 35.4613 140.216 34.1381C140.055 33.9984 140.033 33.7558 140.172 33.5868C140.312 33.425 140.554 33.403 140.722 33.5426C142.299 34.8732 143.979 36.3434 145.871 38.0488C146.032 38.1958 146.047 38.4384 145.9 38.6001C145.82 38.6884 145.717 38.7325 145.607 38.7325ZM52.7041 30.0289C52.5941 30.0289 52.4767 29.9774 52.4034 29.8818C52.264 29.7128 52.2934 29.4702 52.4621 29.3305C54.2736 27.8529 56.1365 26.4857 57.9994 25.2654C58.1828 25.1478 58.4248 25.1992 58.5422 25.3757C58.6595 25.5594 58.6082 25.7947 58.4321 25.9196C56.5913 27.1252 54.7504 28.4778 52.9608 29.9406C52.8801 29.9994 52.7921 30.0289 52.7041 30.0289ZM135.134 29.9701C135.053 29.9701 134.972 29.948 134.899 29.8892C132.985 28.4557 131.158 27.1914 129.31 26.0226C129.127 25.9049 129.076 25.6697 129.186 25.4859C129.303 25.3022 129.538 25.2507 129.721 25.361C131.584 26.5371 133.425 27.8162 135.361 29.2644C135.537 29.3967 135.566 29.6393 135.442 29.8083C135.368 29.9112 135.251 29.9701 135.134 29.9701ZM123.59 22.7219C123.531 22.7219 123.472 22.7072 123.414 22.6778C121.375 21.656 119.284 20.7445 117.194 19.98C116.989 19.9065 116.886 19.6786 116.959 19.4801C117.033 19.2743 117.26 19.1714 117.458 19.2449C119.57 20.0241 121.69 20.943 123.751 21.9795C123.942 22.0751 124.022 22.3103 123.927 22.5014C123.868 22.6411 123.729 22.7219 123.59 22.7219ZM64.1235 22.5823C63.9768 22.5823 63.8448 22.5014 63.7715 22.3691C63.6761 22.178 63.7568 21.9427 63.9475 21.8472C66.0011 20.8254 68.128 19.9212 70.2696 19.164C70.475 19.0905 70.695 19.2008 70.7683 19.3993C70.8417 19.6051 70.7317 19.8256 70.5336 19.8991C68.4214 20.649 66.3238 21.5384 64.2995 22.5455C64.2409 22.5676 64.1822 22.5823 64.1235 22.5823ZM76.9585 18.0467C76.7824 18.0467 76.6211 17.9217 76.5771 17.7379C76.5331 17.5248 76.6651 17.3189 76.8778 17.2748C78.0879 17.0102 79.3274 16.775 80.5669 16.5912C81.601 16.4295 82.6352 16.2898 83.6473 16.1648C83.86 16.1428 84.058 16.2898 84.08 16.503C84.1093 16.7162 83.9553 16.9146 83.7426 16.9367C82.7378 17.0617 81.711 17.2087 80.6842 17.363C79.4594 17.5542 78.2346 17.7821 77.0465 18.0393C77.0171 18.0467 76.9878 18.0467 76.9585 18.0467ZM110.806 18.0173C110.777 18.0173 110.747 18.0099 110.711 18.0026C108.554 17.4807 106.31 17.069 104.051 16.775C103.838 16.7456 103.684 16.5544 103.714 16.3339C103.743 16.1207 103.934 15.9664 104.154 15.9958C106.449 16.2898 108.716 16.7088 110.901 17.2381C111.114 17.2895 111.239 17.5027 111.187 17.7085C111.143 17.8997 110.982 18.0173 110.806 18.0173ZM90.4901 16.3266C90.2848 16.3266 90.1087 16.1648 90.1014 15.959C90.0867 15.7458 90.2554 15.562 90.4681 15.5473C92.8004 15.4224 95.096 15.393 97.3183 15.4665C97.531 15.4738 97.6997 15.6503 97.6923 15.8708C97.685 16.084 97.5017 16.2383 97.289 16.2457C95.0887 16.1795 92.8077 16.2089 90.5048 16.3266C90.4975 16.3266 90.4901 16.3266 90.4901 16.3266Z" fill="#061C2D"/>
<path d="M153.095 45.6349C153 45.6349 152.905 45.5982 152.831 45.532L150.411 43.2826C150.25 43.1356 150.242 42.8857 150.389 42.7313C150.536 42.5696 150.785 42.5622 150.939 42.7093L153.095 44.7087C153.814 44.0398 154.569 43.3856 155.34 42.7607C155.508 42.6284 155.75 42.6505 155.89 42.8195C156.022 42.9886 156 43.2312 155.831 43.3709C154.98 44.0545 154.151 44.7822 153.367 45.5247C153.286 45.5982 153.191 45.6349 153.095 45.6349Z" fill="#061C2D"/>
<path d="M258.62 94.9602C258.459 94.9602 258.305 94.8573 258.253 94.6955C257.579 92.7034 256.772 90.6084 255.87 88.4693C255.789 88.2708 255.877 88.0429 256.075 87.9547C256.273 87.8738 256.501 87.962 256.589 88.1605C257.498 90.3144 258.312 92.4314 258.994 94.4383C259.06 94.6441 258.958 94.8646 258.752 94.9308C258.701 94.9528 258.664 94.9602 258.62 94.9602ZM253.435 82.6325C253.288 82.6325 253.156 82.5517 253.083 82.412C252.1 80.4199 251.051 78.4351 249.958 76.5165C249.848 76.3254 249.914 76.0902 250.105 75.9872C250.296 75.8843 250.531 75.9505 250.641 76.1343C251.733 78.0676 252.797 80.0597 253.787 82.0665C253.882 82.2577 253.802 82.4929 253.611 82.5884C253.552 82.6179 253.494 82.6325 253.435 82.6325ZM246.827 71.0033C246.702 71.0033 246.577 70.9445 246.497 70.8268C245.243 68.9009 243.952 67.0705 242.668 65.3871C242.536 65.218 242.573 64.9681 242.742 64.8358C242.91 64.7035 243.16 64.7402 243.284 64.9093C244.582 66.6074 245.881 68.4598 247.149 70.4005C247.267 70.5843 247.215 70.8268 247.039 70.9445C246.973 70.9812 246.9 71.0033 246.827 71.0033ZM238.686 60.4105C238.583 60.4105 238.473 60.3664 238.4 60.2855C236.889 58.6315 235.327 57.029 233.757 55.5074C233.603 55.3603 233.596 55.1104 233.75 54.956C233.896 54.8017 234.146 54.7943 234.3 54.9487C235.884 56.4777 237.454 58.0949 238.972 59.7636C239.118 59.9253 239.104 60.1679 238.95 60.3149C238.869 60.3811 238.774 60.4105 238.686 60.4105ZM229.071 51.1262C228.983 51.1262 228.894 51.0968 228.821 51.0306C227.112 49.5824 225.352 48.2005 223.592 46.914C223.416 46.7891 223.379 46.5465 223.504 46.3701C223.628 46.1936 223.871 46.1569 224.047 46.2818C225.821 47.5756 227.596 48.9723 229.32 50.4352C229.481 50.5748 229.503 50.8174 229.364 50.9865C229.298 51.0821 229.188 51.1262 229.071 51.1262ZM218.275 43.2826C218.208 43.2826 218.135 43.2606 218.069 43.2238C216.155 42.055 214.204 40.9744 212.253 40.0041C212.062 39.9085 211.982 39.6733 212.077 39.4822C212.172 39.291 212.407 39.2102 212.598 39.3057C214.563 40.2834 216.536 41.3714 218.473 42.5549C218.656 42.6652 218.715 42.9077 218.605 43.0915C218.531 43.2165 218.407 43.2826 218.275 43.2826ZM161.104 39.71C160.972 39.71 160.84 39.6365 160.767 39.5116C160.657 39.3204 160.723 39.0852 160.913 38.9823C162.835 37.887 164.881 36.924 167.001 36.1007C167.199 36.0272 167.426 36.1228 167.507 36.3212C167.587 36.5197 167.485 36.7476 167.287 36.8285C165.204 37.6297 163.194 38.5853 161.309 39.6586C161.236 39.6953 161.17 39.71 161.104 39.71ZM206.312 37.3724C206.268 37.3724 206.217 37.3651 206.173 37.3504C204.09 36.5565 201.963 35.8728 199.858 35.3215C199.653 35.27 199.528 35.0495 199.579 34.8437C199.631 34.6379 199.851 34.5129 200.056 34.5643C202.19 35.1304 204.339 35.8214 206.452 36.6153C206.65 36.6888 206.752 36.9167 206.679 37.1225C206.62 37.2769 206.466 37.3724 206.312 37.3724ZM173.514 34.8878C173.338 34.8878 173.176 34.7628 173.132 34.5864C173.081 34.3732 173.213 34.1674 173.426 34.1159C175.582 33.6087 177.811 33.2338 180.056 32.9986C180.276 32.9765 180.459 33.1309 180.481 33.3441C180.503 33.5573 180.349 33.7484 180.136 33.7704C177.921 33.9983 175.729 34.3732 173.609 34.8731C173.572 34.8804 173.543 34.8878 173.514 34.8878ZM193.411 34.013C193.397 34.013 193.375 34.013 193.36 34.0057C191.182 33.7043 188.959 33.5279 186.752 33.4911C186.539 33.4837 186.363 33.3073 186.371 33.0941C186.378 32.881 186.561 32.7045 186.767 32.7119C189.003 32.756 191.255 32.9324 193.463 33.2338C193.675 33.2632 193.822 33.4617 193.793 33.6749C193.771 33.8734 193.602 34.013 193.411 34.013Z" fill="#061C2D"/>
<path d="M261.004 104.657C260.806 104.657 260.637 104.509 260.615 104.311C260.505 103.341 260.322 102.26 260.072 101.091C260.028 100.878 260.16 100.672 260.373 100.628C260.579 100.584 260.791 100.716 260.835 100.929C261.092 102.12 261.283 103.23 261.393 104.23C261.415 104.443 261.261 104.634 261.048 104.664C261.033 104.657 261.019 104.657 261.004 104.657Z" fill="#061C2D"/>
<path d="M94.4723 16.9734C95.5092 16.9734 96.3499 16.1309 96.3499 15.0916C96.3499 14.0523 95.5092 13.2097 94.4723 13.2097C93.4353 13.2097 92.5947 14.0523 92.5947 15.0916C92.5947 16.1309 93.4353 16.9734 94.4723 16.9734Z" fill="#7ABC2F"/>
<path d="M94.4722 15.4813C94.2595 15.4813 94.0835 15.3048 94.0835 15.0916L94.0835 7.01289C94.0835 7.00554 94.0835 6.99819 94.0835 6.99819L94.0835 0.389628C94.0835 0.25731 94.1568 0.124991 94.2669 0.0588323C94.3842 -0.0146778 94.5235 -0.0220288 94.6482 0.0441303L101.909 3.71229C102.049 3.77844 102.129 3.92546 102.122 4.07984C102.115 4.23421 102.019 4.36652 101.88 4.42533L94.8609 7.27017L94.8609 15.099C94.8609 15.3122 94.6922 15.4813 94.4722 15.4813ZM94.8609 1.02181L94.8609 6.41746L100.787 4.01368L94.8609 1.02181Z" fill="#061C2D"/>
<path d="M214.666 42.1434C215.703 42.1434 216.544 41.3008 216.544 40.2615C216.544 39.2222 215.703 38.3796 214.666 38.3796C213.629 38.3796 212.789 39.2222 212.789 40.2615C212.789 41.3008 213.629 42.1434 214.666 42.1434Z" fill="#7ABC2F"/>
<path d="M214.666 40.6511C214.453 40.6511 214.277 40.4747 214.277 40.2615L214.277 32.1828C214.277 32.1754 214.277 32.1681 214.277 32.1681L214.277 25.5669C214.277 25.4346 214.351 25.3022 214.461 25.2361C214.578 25.1626 214.717 25.1626 214.842 25.2214L222.103 28.8895C222.242 28.9557 222.323 29.1027 222.316 29.2571C222.308 29.4114 222.213 29.5438 222.074 29.6026L215.055 32.4474L215.055 40.2762C215.055 40.4747 214.879 40.6511 214.666 40.6511ZM215.055 26.1917L215.055 31.5873L220.981 29.1836L215.055 26.1917Z" fill="#061C2D"/>
<path d="M229.041 84.8895C231.431 84.8895 233.369 82.9477 233.369 80.5524C233.369 78.1571 231.431 76.2153 229.041 76.2153C226.651 76.2153 224.714 78.1571 224.714 80.5524C224.714 82.9477 226.651 84.8895 229.041 84.8895Z" fill="white"/>
<path d="M229.041 85.2864C226.437 85.2864 224.318 83.162 224.318 80.5524C224.318 77.9428 226.437 75.8257 229.041 75.8257C231.645 75.8257 233.764 77.9501 233.764 80.5524C233.764 83.162 231.645 85.2864 229.041 85.2864ZM229.041 76.6049C226.87 76.6049 225.103 78.3765 225.103 80.5524C225.103 82.7283 226.87 84.4999 229.041 84.4999C231.212 84.4999 232.98 82.7283 232.98 80.5524C232.987 78.3765 231.219 76.6049 229.041 76.6049Z" fill="#061C2D"/>
<path d="M231.285 80.1995L229.356 80.1995L229.356 78.2368C229.356 78.0603 229.217 77.9207 229.041 77.9207C228.865 77.9207 228.725 78.0603 228.725 78.2368L228.725 80.1995L226.811 80.1995C226.635 80.1995 226.496 80.3391 226.496 80.5156C226.496 80.692 226.635 80.8317 226.811 80.8317L228.725 80.8317L228.725 82.8164C228.725 82.9929 228.865 83.1325 229.041 83.1325C229.217 83.1325 229.356 82.9929 229.356 82.8164L229.356 80.8317L231.285 80.8317C231.461 80.8317 231.6 80.692 231.6 80.5156C231.6 80.3391 231.461 80.1995 231.285 80.1995Z" fill="#050E28"/>
<path d="M113.585 32.7634L130.748 32.7634C131.136 32.7634 131.444 33.3515 131.444 34.0719L131.444 50.2147C131.444 50.9351 131.129 51.5231 130.748 51.5231L113.585 51.5231C113.197 51.5231 112.889 50.9351 112.889 50.2147L112.889 34.0719C112.889 33.3515 113.197 32.7634 113.585 32.7634Z" fill="white"/>
<path d="M130.747 51.9127L113.585 51.9127C112.962 51.9127 112.493 51.185 112.493 50.2146L112.493 34.0719C112.493 33.1015 112.962 32.3738 113.585 32.3738L130.747 32.3738C131.371 32.3738 131.84 33.1015 131.84 34.0719L131.84 50.2146C131.84 51.185 131.371 51.9127 130.747 51.9127ZM113.585 33.1603C113.512 33.175 113.277 33.4838 113.277 34.0792L113.277 50.222C113.277 50.8174 113.519 51.1262 113.585 51.1409L130.747 51.1409C130.821 51.1262 131.056 50.8174 131.056 50.222L131.056 34.0719C131.056 33.4764 130.813 33.1677 130.747 33.153L113.585 33.153L113.585 33.1603Z" fill="#061C2D"/>
<path d="M116.791 40.7025L116.791 46.0173L119.981 46.0173L124.477 46.0173C125.144 46.0173 125.738 45.6056 125.966 44.9734L127.506 40.776C127.66 40.1659 127.198 39.5778 126.574 39.5778L123.34 39.5778L123.274 37.1079C123.259 36.5786 122.973 36.0934 122.519 35.8215L122.343 35.7185C121.969 35.498 121.492 35.7773 121.499 36.2111L121.528 37.9826L119.548 40.6143L116.791 40.7025Z" fill="#7ABC2F"/>
<path d="M228.25 113.603C228.25 108.398 232.459 104.179 237.652 104.179C242.845 104.179 247.055 108.398 247.055 113.603C247.055 118.807 242.845 123.027 237.652 123.027C232.459 123.027 228.25 118.807 228.25 113.603Z" fill="white"/>
<path d="M237.652 123.416C232.254 123.416 227.86 119.013 227.86 113.603C227.86 108.192 232.254 103.789 237.652 103.789C243.05 103.789 247.443 108.192 247.443 113.603C247.443 119.013 243.05 123.416 237.652 123.416ZM237.652 104.576C232.686 104.576 228.638 108.626 228.638 113.603C228.638 118.579 232.679 122.63 237.652 122.63C242.624 122.63 246.665 118.579 246.665 113.603C246.665 108.626 242.617 104.576 237.652 104.576Z" fill="#061C2D"/>
<path d="M237.666 111.316C237.666 111.316 235.877 108.177 233.442 109.78C228.109 113.294 237.629 120.049 237.629 120.049C237.629 120.049 246.995 113.125 242.008 109.78C239.566 108.141 237.666 111.316 237.666 111.316Z" fill="#7ABC2F"/>
<path d="M169.443 77.7002L183.532 77.7002C183.847 77.7002 184.104 78.178 184.104 78.7734L184.104 92.02C184.104 92.6154 183.847 93.0932 183.532 93.0932L169.443 93.0932C169.127 93.0932 168.871 92.6154 168.871 92.02L168.871 78.7734C168.871 78.178 169.127 77.7002 169.443 77.7002Z" fill="white"/>
<path d="M183.524 93.4828L169.435 93.4828C168.885 93.4828 168.475 92.8506 168.475 92.0199L168.475 78.7734C168.475 77.9427 168.893 77.3105 169.435 77.3105L183.524 77.3105C184.074 77.3105 184.485 77.9427 184.485 78.7734L184.485 92.0199C184.492 92.8506 184.074 93.4828 183.524 93.4828ZM169.457 78.0898C169.391 78.1339 169.252 78.3764 169.252 78.7734L169.252 92.0199C169.252 92.4316 169.399 92.6742 169.465 92.7036L183.524 92.6962C183.561 92.6668 183.708 92.4242 183.708 92.0126L183.708 78.7661C183.708 78.3544 183.561 78.1118 183.495 78.0824L169.457 78.0898Z" fill="#061C2D"/>
<path d="M205.124 121.527L219.213 121.527C219.528 121.527 219.785 122.005 219.785 122.6L219.785 135.847C219.785 136.442 219.528 136.92 219.213 136.92L205.124 136.92C204.808 136.92 204.552 136.442 204.552 135.847L204.552 122.6C204.552 122.005 204.808 121.527 205.124 121.527Z" fill="white"/>
<path d="M219.206 137.31L205.117 137.31C204.566 137.31 204.156 136.677 204.156 135.847L204.156 122.6C204.156 121.77 204.574 121.137 205.117 121.137L219.206 121.137C219.756 121.137 220.166 121.77 220.166 122.6L220.166 135.847C220.174 136.677 219.756 137.31 219.206 137.31ZM205.139 121.917C205.073 121.961 204.941 122.203 204.941 122.6L204.941 135.847C204.941 136.258 205.087 136.501 205.153 136.53L219.213 136.523C219.25 136.494 219.396 136.251 219.396 135.839L219.396 122.593C219.396 122.181 219.25 121.939 219.184 121.909L205.139 121.917Z" fill="#061C2D"/>
<path d="M176.484 79.8025L178.171 83.2207L181.933 83.772L179.205 86.4331L179.85 90.1895L176.484 88.4179L173.118 90.1895L173.763 86.4331L171.042 83.772L174.804 83.2207L176.484 79.8025Z" fill="#7ABC2F"/>
<path d="M210.595 134.604C210.573 134.604 210.559 134.604 210.537 134.604C210.287 134.589 210.06 134.442 209.928 134.229L206.569 128.642L207.904 127.834L210.691 132.472L217.651 123.982L218.854 124.974L211.189 134.317C211.05 134.501 210.83 134.604 210.595 134.604Z" fill="#7ABC2F"/>
<path d="M226.122 60.4106C231.96 57.9113 236.251 64.1303 236.368 63.8289C236.559 63.3143 230.347 51.9937 239.089 52.229C243.739 52.3539 252.533 62.366 252.533 62.366C252.533 62.366 250.941 58.1539 253.956 57.4188C256.97 56.6837 269.482 70.0919 269.387 70.0846C267.656 69.9743 232.569 68.8202 229.093 68.7761C228.858 68.7688 221.758 62.2852 226.122 60.4106Z" fill="#7ABC2F"/>
<path d="M152.397 114.611C152.52 114.089 152.198 113.567 151.678 113.444C151.157 113.32 150.636 113.643 150.513 114.165C150.39 114.686 150.712 115.209 151.233 115.332C151.753 115.455 152.274 115.132 152.397 114.611Z" fill="black"/>
<path d="M110.608 127.966C110.608 127.966 105.723 129.437 102.701 132.678C99.6797 135.92 97.1421 143.323 97.1421 143.323L122.027 143.874L131.782 158.216L160.422 157.966C160.422 157.966 161.603 159.01 164.654 154.761C167.705 150.505 169.978 145.322 172.641 144.087C175.296 142.852 186.803 142.492 186.803 142.492C186.803 142.492 187.676 140.294 183.51 138.045C179.344 135.795 172.633 134.384 172.633 134.384C172.633 134.384 173.499 128.952 171.394 125.35C169.282 121.748 164.676 117.469 164.676 117.469L161.595 119.3C161.595 119.3 161.155 123.835 162.094 126.188C163.033 128.54 165.6 147.211 165.6 147.211L160.906 152.423L137.59 153.136L127.733 132.12C127.733 132.12 117.781 131.113 115.683 130.547C113.571 129.981 110.608 127.966 110.608 127.966Z" fill="#7ABC2F"/>
<path d="M164.28 116.977L155.772 120.366C155.772 120.366 155.582 124.004 157.173 130.128C158.765 136.251 160.782 139.147 160.782 139.147L158.361 149.843L142.835 150.181L145.673 136.42L129.369 135.766L137.892 153.276L161.031 152.276L165.366 147.167L164.214 135.119C164.214 135.119 161.347 125.239 161.383 122.887C161.449 119.035 164.28 116.977 164.28 116.977Z" fill="white"/>
<path d="M137.899 153.665C137.752 153.665 137.613 153.577 137.547 153.445L129.024 135.935C128.966 135.81 128.973 135.663 129.046 135.553C129.12 135.435 129.244 135.369 129.391 135.376L145.695 136.03C145.813 136.038 145.915 136.089 145.989 136.177C146.062 136.266 146.084 136.383 146.062 136.501L143.326 149.784L158.061 149.461L160.378 139.221C159.953 138.552 158.222 135.656 156.814 130.223C155.222 124.114 155.391 120.498 155.398 120.343C155.406 120.189 155.501 120.057 155.64 119.998L164.148 116.609C164.331 116.536 164.537 116.609 164.632 116.786C164.728 116.955 164.676 117.175 164.522 117.293C164.493 117.315 161.845 119.292 161.786 122.887C161.75 125.151 164.574 134.906 164.603 135.009C164.61 135.031 164.618 135.053 164.618 135.082L165.769 147.13C165.776 147.233 165.747 147.344 165.681 147.417L161.346 152.526C161.273 152.607 161.178 152.658 161.068 152.666L137.928 153.665C137.914 153.665 137.906 153.665 137.899 153.665ZM130.015 136.185L138.141 152.872L160.855 151.887L164.977 147.035L163.84 135.192C163.62 134.443 160.965 125.217 161.002 122.88C161.031 120.696 161.904 119.072 162.711 118.028L156.161 120.637C156.154 121.549 156.234 124.938 157.555 130.032C159.109 136.001 161.082 138.897 161.104 138.927C161.17 139.015 161.192 139.133 161.163 139.235L158.743 149.931C158.706 150.108 158.552 150.233 158.369 150.233L142.842 150.578C142.717 150.593 142.607 150.527 142.534 150.438C142.461 150.35 142.424 150.225 142.453 150.108L145.196 136.795L130.015 136.185Z" fill="black"/>
<path d="M126.501 83.1843C126.589 80.2586 129.046 77.9577 131.995 78.0459C134.943 78.1341 137.261 80.582 137.173 83.5004C137.165 83.6253 138.251 83.2284 138.339 83.4416C138.662 84.2281 137.092 84.3678 137.055 84.5369C136.549 87.0142 134.312 88.7122 131.672 88.6314C128.731 88.5505 126.413 86.1026 126.501 83.1843Z" fill="white"/>
<path d="M131.863 88.9181C131.797 88.9181 131.738 88.9181 131.672 88.9181C130.176 88.874 128.782 88.2491 127.756 87.1685C126.729 86.0806 126.186 84.6692 126.23 83.177C126.274 81.6847 126.897 80.3027 127.99 79.2883C129.083 78.2665 130.506 77.7299 132.002 77.774C133.498 77.8181 134.892 78.4429 135.919 79.5235C136.879 80.538 137.415 81.8391 137.444 83.2211C137.473 83.2137 137.503 83.2064 137.532 83.2064C138.009 83.1035 138.449 83.0079 138.588 83.346C138.698 83.6033 138.647 83.8092 138.588 83.9415C138.405 84.3458 137.877 84.5222 137.488 84.6472C137.429 84.6692 137.349 84.6913 137.297 84.7133C136.74 87.2127 134.532 88.9181 131.863 88.9181ZM126.501 83.1843L126.78 83.1917C126.743 84.5295 127.227 85.8086 128.152 86.7863C129.076 87.764 130.337 88.3226 131.687 88.3668C134.21 88.4403 136.307 86.8451 136.791 84.4928C136.835 84.287 137.033 84.2208 137.327 84.1252C137.569 84.0444 138.016 83.8974 138.104 83.7136C138.112 83.7062 138.112 83.6915 138.119 83.6695C137.994 83.6768 137.781 83.7209 137.657 83.7503C137.319 83.8239 137.151 83.8606 137.011 83.743C136.945 83.6915 136.901 83.596 136.909 83.5078C136.945 82.1699 136.461 80.8908 135.537 79.9131C134.613 78.9355 133.352 78.3768 132.002 78.3327C130.66 78.2959 129.362 78.7737 128.379 79.6926C127.396 80.6115 126.831 81.8538 126.795 83.199L126.501 83.1843Z" fill="black"/>
<path d="M134.488 86.3672C134.444 86.3672 134.407 86.3599 134.363 86.3378C134.327 86.3158 133.425 85.8526 133.08 84.7867C133.036 84.6397 133.117 84.4853 133.256 84.4412C133.403 84.3971 133.557 84.4706 133.601 84.6176C133.872 85.4557 134.598 85.8379 134.605 85.8453C134.737 85.9114 134.796 86.0805 134.723 86.2129C134.686 86.3084 134.591 86.3672 134.488 86.3672Z" fill="#000102"/>
<path d="M122.614 80.8613C122.834 80.8246 125.343 81.4788 125.343 81.4788L132.266 79.7293C132.266 79.7293 137.767 80.5673 138.485 80.1042C139.204 79.641 135.148 77.8915 135.148 77.8915C135.148 77.8915 133.726 72.2386 127.961 73.3118C121.719 74.363 122.394 80.9054 122.614 80.8613Z" fill="#7ABC2F"/>
<path d="M109.603 126.018C109.603 126.018 108.32 129.231 113.982 130.275C119.644 131.319 127.851 132.039 127.851 132.039L129.237 136.045L138.882 136.582L144.881 136.913C144.881 136.913 146.641 133.075 147.903 131.135C149.172 129.194 149.942 129.135 149.942 129.135C149.942 129.135 135.823 129.385 129.692 128.466C126.039 127.922 121.69 125.048 121.69 125.048L109.603 126.018Z" fill="white"/>
<path d="M144.881 137.31C144.874 137.31 144.866 137.31 144.859 137.31L129.222 136.442C129.061 136.435 128.929 136.332 128.878 136.178L127.58 132.407C126.157 132.274 118.984 131.591 113.923 130.657C111.628 130.238 110.124 129.407 109.457 128.202C108.804 127.018 109.229 125.923 109.244 125.871C109.303 125.732 109.427 125.636 109.574 125.629L121.653 124.666C121.741 124.659 121.829 124.681 121.895 124.732C121.939 124.761 126.223 127.562 129.743 128.091C135.772 128.996 149.788 128.76 149.927 128.753L149.934 128.753C150.14 128.753 150.316 128.915 150.323 129.128C150.33 129.341 150.169 129.518 149.964 129.532C149.971 129.532 149.311 129.687 148.225 131.355C146.993 133.252 145.248 137.045 145.233 137.082C145.167 137.221 145.028 137.31 144.881 137.31ZM129.523 135.678L144.639 136.516C145.05 135.634 146.48 132.612 147.58 130.929C147.983 130.311 148.343 129.863 148.658 129.547C145.02 129.584 134.635 129.606 129.64 128.863C126.23 128.349 122.321 125.923 121.595 125.46L109.911 126.393C109.853 126.695 109.816 127.253 110.146 127.842C110.689 128.812 112.046 129.525 114.063 129.892C119.644 130.922 127.814 131.649 127.895 131.657C128.049 131.671 128.181 131.774 128.232 131.921L129.523 135.678Z" fill="black"/>
<path d="M126.516 82.2214L130.659 80.7366L131.613 80.8615C131.613 80.8615 131.151 82.7875 131.576 84.2135C131.994 85.6396 133.557 88.7564 133.557 88.7564L133.043 88.9622L132.024 87.1907L130.087 86.9481C130.087 86.9481 128.943 86.1615 128.07 84.8384C127.19 83.5226 126.516 82.2214 126.516 82.2214Z" fill="#051928"/>
<path d="M134.114 79.979C134.114 79.979 133.953 80.2657 133.989 81.2875C134.026 82.3019 134.327 83.0885 134.327 83.0885L137.517 82.9194C137.517 82.9194 137.62 82.0373 137.378 81.3022C137.136 80.5744 136.842 80.2289 136.842 80.2289L134.114 79.979Z" fill="#051928"/>
<path d="M122.658 80.8539L125.328 81.4935L132.281 79.7292C132.281 79.7292 132.017 80.1189 131.877 80.4055C131.738 80.6922 131.547 80.9201 131.547 80.9201L130.631 80.8319L126.626 82.2653C126.626 82.2653 125.863 82.427 125.034 82.3682C124.206 82.3094 123.304 82.0227 123.304 82.0227L122.658 80.8539Z" fill="#051928"/>
<path d="M134.121 80.0012C134.121 80.0012 133.909 80.8171 133.989 81.3317C134.063 81.8463 134.341 83.096 134.341 83.096C134.341 83.096 133.579 83.1327 132.882 82.7431C132.192 82.3535 131.43 81.8904 131.43 81.8904C131.43 81.8904 131.393 81.1847 131.65 80.6701C131.906 80.1555 132.266 79.7512 132.266 79.7512L134.121 80.0012Z" fill="#051928"/>
<path d="M134.151 83.1769C134.107 83.1769 134.056 83.1549 134.026 83.1181C133.909 82.9564 133.425 81.0745 133.968 80.0674C134.004 80.0013 134.085 79.9792 134.151 80.0086C134.217 80.0454 134.246 80.1262 134.21 80.1924C133.748 81.0598 134.151 82.7212 134.246 82.9344C134.261 82.9491 134.276 82.9711 134.283 83.0005C134.298 83.074 134.254 83.1475 134.18 83.1622C134.173 83.1769 134.166 83.1769 134.151 83.1769Z" fill="white"/>
<path d="M126.685 82.339C126.633 82.339 126.589 82.3096 126.56 82.2655C126.523 82.1993 126.553 82.1111 126.619 82.0817C126.648 82.067 129.714 80.4718 131.797 80.9276C131.87 80.9423 131.921 81.0158 131.899 81.0893C131.885 81.1628 131.811 81.2143 131.738 81.1922C129.743 80.7585 126.773 82.3023 126.743 82.317C126.729 82.339 126.707 82.339 126.685 82.339Z" fill="white"/>
<path d="M131.606 82.0449C131.525 82.0449 131.466 81.9787 131.466 81.9052C131.488 81.2951 131.98 79.6411 132.258 79.6411C132.332 79.6411 132.39 79.7073 132.39 79.7808C132.39 79.8249 132.368 79.8616 132.332 79.8837C132.222 80.0381 131.76 81.1628 131.738 81.9052C131.738 81.9861 131.679 82.0449 131.606 82.0449Z" fill="white"/>
<path d="M121.485 125.474C121.485 125.474 126.589 128.275 131.225 128.907C135.867 129.54 149.861 129.356 149.861 129.356C149.861 129.356 148.761 128.334 146.047 134.193C143.326 140.059 141.038 145.793 141.038 145.793L149.047 147.167C149.047 147.167 162.608 130.73 159.674 124.842C156.748 118.947 138.926 115.154 138.926 115.154C138.926 115.154 135.765 119.233 133.322 120.718C130.88 122.211 121.485 125.474 121.485 125.474Z" fill="#051928"/>
<path d="M123.311 82.0522L124.748 85.9336L127.564 86.7422L128.254 84.9412L126.501 82.1919C126.501 82.1919 125.591 82.5374 124.858 82.2948C124.125 82.0522 123.311 82.0522 123.311 82.0522Z" fill="#051928"/>
<path d="M121.939 88.2051L117.047 91.8732L121.052 125.842C121.052 125.842 126.692 125.842 131.826 122.424C136.953 119.006 138.889 115.323 138.889 115.323C138.889 115.323 127.315 110.817 127.235 103.672C127.154 96.5264 130.828 91.1602 130.828 91.1602L130.007 89.3224L121.939 88.2051Z" fill="#7ABC2F"/>
<path d="M121.844 88.3079L124.719 85.9409C124.719 85.9409 125.35 85.985 127.454 86.4849C131.723 87.4993 134.327 92.645 134.327 92.645C134.327 92.645 131.65 90.9028 128.628 89.734C125.614 88.5726 121.844 88.3079 121.844 88.3079Z" fill="#7ABC2F"/>
<path d="M128.767 90.2999C136.057 88.5798 138.456 103.715 138.522 104.796C138.588 105.869 148.57 109.699 148.57 109.699L146.091 115.903C146.091 115.903 133.527 116.852 129.787 114.132C126.046 111.419 121.484 92.0274 128.767 90.2999Z" fill="#7ABC2F"/>
<path d="M151.768 109.574L155.575 120.27L164.698 116.903L162.175 107.788C162.175 107.788 159.689 106.663 157.371 107.009C155.054 107.362 151.768 109.574 151.768 109.574Z" fill="#7ABC2F"/>
<path d="M121 118.785L127.477 111.567C127.477 111.567 128.093 111.986 128.518 112.963C128.943 113.948 129.501 114.25 129.501 114.25L121.58 122.218L121 118.785Z" fill="#051928"/>
<path d="M148.372 110.096L146.12 115.948C146.12 115.948 148.98 116.543 149.963 115.881C150.939 115.22 150.169 112.985 151.811 113.169C153.462 113.353 152.105 115.506 152.692 116.278C153.278 117.05 154.496 112.86 154.496 112.86C154.496 112.86 153.872 115.83 154.378 116.124C154.885 116.418 156.073 112.809 156.073 112.809C156.073 112.809 155.853 114.985 156.219 115.11C156.586 115.234 158.082 112.64 156.571 111.375C155.053 110.111 153.286 109.684 152.259 109.773C151.217 109.861 148.372 110.096 148.372 110.096Z" fill="white"/>
<path d="M152.853 116.646C152.706 116.646 152.574 116.572 152.471 116.44C152.171 116.051 152.251 115.462 152.325 114.896C152.391 114.404 152.457 113.897 152.259 113.647C152.171 113.529 152.009 113.463 151.782 113.434C151.129 113.36 151.012 113.691 150.843 114.573C150.741 115.132 150.616 115.764 150.117 116.102C149.076 116.808 146.369 116.278 146.069 116.212C145.988 116.198 145.922 116.146 145.885 116.073C145.849 115.999 145.841 115.918 145.871 115.845L148.122 109.993C148.159 109.898 148.254 109.824 148.357 109.817C148.357 109.817 151.203 109.582 152.237 109.494C153.366 109.391 155.207 109.868 156.755 111.162C157.957 112.169 157.488 113.845 157.019 114.676C156.806 115.058 156.476 115.485 156.138 115.367C156.036 115.33 155.816 115.257 155.757 114.507C155.398 115.389 154.965 116.249 154.606 116.381C154.488 116.425 154.356 116.418 154.254 116.352C154.026 116.22 153.931 115.845 153.924 115.352C153.615 116.036 153.278 116.572 152.955 116.631C152.904 116.646 152.882 116.646 152.853 116.646ZM151.628 112.875C151.694 112.875 151.767 112.882 151.841 112.89C152.222 112.934 152.508 113.073 152.691 113.309C153.029 113.742 152.948 114.367 152.867 114.97C152.809 115.389 152.757 115.83 152.875 116.058C153.175 115.786 153.77 114.352 154.224 112.779C154.268 112.64 154.415 112.551 154.554 112.588C154.701 112.625 154.789 112.765 154.76 112.912C154.503 114.139 154.393 115.382 154.481 115.786C154.796 115.404 155.39 113.985 155.808 112.721C155.852 112.588 155.992 112.507 156.124 112.537C156.263 112.566 156.351 112.691 156.336 112.831C156.256 113.603 156.256 114.375 156.314 114.72C156.52 114.47 156.85 113.867 156.931 113.162C157.011 112.485 156.821 111.949 156.38 111.581C154.958 110.39 153.285 109.949 152.266 110.045C151.386 110.118 149.186 110.302 148.555 110.354L146.487 115.734C147.411 115.896 149.156 116.08 149.794 115.646C150.102 115.433 150.198 114.963 150.286 114.47C150.425 113.786 150.601 112.875 151.628 112.875Z" fill="black"/>
<path d="M138.97 116.234L138.962 116.234C138.882 116.234 138.258 116.22 137.547 116.205C136.586 116.183 135.442 116.161 135.215 116.154C133.044 116.087 131.239 115.735 129.472 114.228C125.944 111.221 123.494 101.069 124.015 96.6513C124.609 91.6085 127.345 90.4911 129.156 89.756C129.296 89.6972 129.457 89.7633 129.516 89.9104C129.574 90.05 129.508 90.2118 129.362 90.2706C127.572 90.9983 125.115 91.9981 124.558 96.7248C124.066 100.93 126.479 110.964 129.824 113.816C131.467 115.22 133.176 115.551 135.222 115.61C135.449 115.617 136.586 115.639 137.547 115.661C138.266 115.676 138.889 115.69 138.97 115.69C139.124 115.698 139.241 115.823 139.234 115.977C139.241 116.117 139.116 116.234 138.97 116.234Z" fill="white"/>
<path d="M132.728 91.2778C132.699 91.2778 132.669 91.2705 132.633 91.2631C132.589 91.2484 127.887 89.5798 126.068 89.0872C124.257 88.5947 122.299 88.3007 122.284 88.3007C122.137 88.2786 122.027 88.139 122.049 87.9846C122.071 87.8376 122.211 87.7273 122.365 87.7567C122.387 87.7567 124.374 88.0581 126.215 88.558C128.049 89.0578 132.625 90.6824 132.823 90.7486C132.97 90.8 133.043 90.9544 132.992 91.1014C132.948 91.2117 132.838 91.2778 132.728 91.2778Z" fill="white"/>
<path d="M143.825 116.205C143.795 116.205 143.766 116.198 143.737 116.19C143.59 116.146 143.517 115.984 143.561 115.845L145.827 108.898C145.871 108.751 146.025 108.678 146.172 108.722C146.318 108.766 146.392 108.928 146.348 109.067L144.081 116.014C144.052 116.131 143.942 116.205 143.825 116.205Z" fill="white"/>
<path d="M116.27 88.8594L93.7539 90.9397L103.288 126.621L122.167 125.85L116.27 88.8594Z" fill="#051928"/>
<path d="M100.78 158.135C98.6602 152.115 101.675 145.859 107.505 144.154C113.336 142.448 119.783 145.947 121.902 151.968C124.022 157.988 121.008 164.244 115.177 165.949C109.339 167.648 102.892 164.148 100.78 158.135Z" fill="#051928"/>
<path d="M169.003 158.135C166.884 152.115 169.898 145.859 175.729 144.154C181.56 142.448 188.007 145.947 190.126 151.968C192.246 157.988 189.231 164.244 183.401 165.949C177.57 167.648 171.123 164.148 169.003 158.135Z" fill="#051928"/>
<path d="M117.047 91.6674C117.047 91.6674 129.303 90.0796 131.305 90.8367C127.425 89.1975 123.12 88.4477 123.12 88.4477C120.685 88.3006 116.644 88.7858 116.644 88.7858L117.047 91.6674Z" fill="#051928"/>
<path d="M105.899 156.04C104.762 152.806 106.376 149.439 109.515 148.52C112.654 147.601 116.116 149.483 117.26 152.725C118.397 155.959 116.783 159.326 113.644 160.245C110.505 161.164 107.036 159.282 105.899 156.04Z" fill="#F0ECE3"/>
<path d="M105.899 156.04C104.762 152.806 106.376 149.439 109.515 148.52C112.654 147.601 116.116 149.483 117.26 152.725C118.397 155.959 116.783 159.326 113.644 160.245C110.505 161.164 107.036 159.282 105.899 156.04Z" fill="#F0ECE3"/>
<path d="M174.13 156.04C172.993 152.806 174.606 149.439 177.745 148.52C180.884 147.601 184.346 149.483 185.49 152.725C186.627 155.959 185.014 159.326 181.875 160.245C178.736 161.164 175.266 159.282 174.13 156.04Z" fill="#F0ECE3"/>
<path d="M141.184 145.807L139.952 151.504L155.361 153.313L148.841 146.961L141.184 145.807Z" fill="#7ABC2F"/>
<path d="M121.991 125.468C121.859 125.468 121.741 125.372 121.719 125.232L115.984 88.9109C115.962 88.7639 116.065 88.6168 116.211 88.5948C116.358 88.5727 116.505 88.6756 116.527 88.8227L122.262 125.144C122.284 125.291 122.181 125.438 122.035 125.46C122.02 125.468 122.005 125.468 121.991 125.468Z" fill="white"/>
<path d="M144.052 144.146C144.008 144.146 143.971 144.139 143.935 144.117C143.795 144.051 143.744 143.881 143.81 143.749C143.854 143.661 148.13 134.935 149.663 132.061C150.998 129.562 152.054 128.959 152.413 128.819L152.904 128.047L152.428 128.297C152.325 128.349 152.2 128.334 152.12 128.261C152.032 128.187 152.002 128.062 152.046 127.959L152.398 127.018C150.91 126.776 139.6 124.901 137.701 124.445C135.706 123.968 132.354 122.799 132.317 122.791C132.171 122.74 132.097 122.586 132.149 122.439C132.2 122.292 132.354 122.218 132.501 122.27C132.537 122.284 135.86 123.446 137.825 123.909C139.666 124.35 150.829 126.195 152.442 126.46L152.963 125.511C153.029 125.386 153.19 125.335 153.315 125.394C153.447 125.453 153.506 125.607 153.462 125.739L152.816 127.474L153.572 127.084C153.682 127.026 153.814 127.055 153.902 127.143C153.983 127.239 153.997 127.371 153.931 127.474L152.846 129.187C152.809 129.246 152.743 129.29 152.67 129.312C152.662 129.312 151.614 129.613 150.169 132.311C148.636 135.171 144.367 143.889 144.323 143.977C144.25 144.087 144.155 144.146 144.052 144.146Z" fill="white"/>
<path d="M150.205 145.675C150.191 145.675 150.169 145.675 150.154 145.668L141.895 144.072C141.749 144.043 141.646 143.896 141.675 143.749C141.705 143.602 141.844 143.506 141.998 143.529L150.257 145.124C150.403 145.153 150.506 145.3 150.477 145.447C150.447 145.579 150.33 145.675 150.205 145.675Z" fill="white"/>
<path d="M97.6114 98.9817C97.4941 98.9817 97.3841 98.9008 97.3474 98.7832L95.6385 92.9979C95.6165 92.917 95.6312 92.8362 95.6752 92.77C95.7192 92.7039 95.7925 92.6598 95.8732 92.6524L116.336 90.425C116.49 90.403 116.622 90.5206 116.636 90.6676C116.651 90.822 116.541 90.9543 116.394 90.969L96.2619 93.167L97.8828 98.6362C97.9268 98.7832 97.8461 98.9376 97.6994 98.9817C97.6628 98.9743 97.6334 98.9817 97.6114 98.9817Z" fill="white"/>
<path d="M101.998 101.172L105.459 115.984L116.908 114.867L114.59 100.422L101.998 101.172Z" fill="#7ABC2F"/>
<path d="M95.8293 101.474C95.6826 101.474 95.5653 101.356 95.5579 101.209C95.5506 101.055 95.668 100.93 95.822 100.922L117.935 99.8344C118.081 99.8124 118.213 99.9447 118.221 100.099C118.228 100.253 118.111 100.378 117.957 100.386L95.844 101.474C95.8366 101.474 95.8366 101.474 95.8293 101.474Z" fill="white"/>
<path d="M101.279 119.02C101.139 119.02 101.022 118.91 101.007 118.77C100.993 118.616 101.103 118.484 101.257 118.469L120.025 116.675C120.179 116.668 120.311 116.771 120.326 116.925C120.34 117.08 120.23 117.212 120.076 117.227L101.308 119.02C101.301 119.02 101.293 119.02 101.279 119.02Z" fill="white"/>
<path d="M162.314 108.097L164.353 116.543C164.353 116.543 167.485 114.426 166.818 111.603C166.011 108.163 162.314 108.097 162.314 108.097Z" fill="white"/>
<path d="M164.353 116.933C164.309 116.933 164.258 116.925 164.214 116.903C164.097 116.859 164.009 116.756 163.979 116.631L161.94 108.185C161.911 108.067 161.94 107.942 162.014 107.847C162.087 107.751 162.204 107.692 162.322 107.7C162.358 107.7 166.334 107.817 167.199 111.508C167.918 114.551 164.705 116.764 164.573 116.859C164.507 116.911 164.434 116.933 164.353 116.933ZM162.821 108.545L164.588 115.859C165.38 115.176 166.884 113.588 166.436 111.691C165.886 109.332 163.803 108.707 162.821 108.545Z" fill="black"/>
<path d="M92.5513 134.928L97.0178 143.176C97.0178 143.176 98.3893 139.706 99.3574 137.736C100.326 135.766 101.389 134.347 101.389 134.347C101.389 134.347 99.7755 133.877 97.5312 134.046C95.2869 134.222 92.5513 134.928 92.5513 134.928Z" fill="white"/>
<path d="M97.0101 143.565C96.8708 143.565 96.7388 143.485 96.6654 143.36L92.1989 135.112C92.1402 135.009 92.1329 134.877 92.1842 134.766C92.2356 134.656 92.3309 134.575 92.4409 134.546C92.5509 134.516 95.2353 133.833 97.4869 133.656C99.7751 133.48 101.411 133.95 101.484 133.965C101.609 134.002 101.704 134.097 101.748 134.215C101.792 134.34 101.77 134.472 101.689 134.575C101.682 134.59 100.626 135.994 99.6945 137.898C98.7484 139.831 97.3842 143.271 97.3695 143.308C97.3108 143.448 97.1788 143.543 97.0321 143.551C97.0248 143.565 97.0175 143.565 97.0101 143.565ZM93.1304 135.185L96.9588 142.257C97.4209 141.11 98.3156 138.956 98.9977 137.56C99.6431 136.244 100.325 135.178 100.721 134.597C100.083 134.48 98.939 134.333 97.5529 134.435C95.932 134.56 94.0105 134.979 93.1304 135.185Z" fill="black"/>
<path d="M128.254 85.25C128.21 85.25 128.159 85.228 128.137 85.1839L126.487 82.4346L125.819 82.6331C125.797 82.6404 125.775 82.6404 125.753 82.6331L123.281 82.1847C123.208 82.17 123.157 82.0964 123.171 82.0229C123.186 81.9494 123.259 81.898 123.333 81.9127L125.775 82.3537L126.509 82.1332C126.567 82.1185 126.633 82.1405 126.663 82.192L128.364 85.0295C128.401 85.0957 128.379 85.1765 128.32 85.2206C128.305 85.2427 128.283 85.25 128.254 85.25Z" fill="white"/>
<path d="M158.603 148.174C158.412 148.174 158.229 148.071 158.141 147.888L153.021 137.832C152.889 137.574 152.992 137.258 153.249 137.133C153.506 137.001 153.821 137.104 153.946 137.361L159.065 147.417C159.197 147.675 159.094 147.991 158.838 148.116C158.764 148.16 158.684 148.174 158.603 148.174Z" fill="#051928"/>
</g>
<defs>
<clipPath id="clip0">
<rect width="323" height="168" fill="white"/>
</clipPath>
</defs>
</svg>
