<svg width="47" height="35" viewBox="0 0 47 35" fill="none" xmlns="http://www.w3.org/2000/svg">
<path d="M16.8985 34.1895C16.3092 34.1895 15.7425 34.0995 15.1759 33.897C14.9946 33.8295 14.8132 33.762 14.6546 33.6945C14.1333 33.492 13.5666 33.3796 13 33.3796C12.4107 33.3796 11.8441 33.492 11.3001 33.717C11.1414 33.7845 10.9828 33.8295 10.8241 33.897C10.2575 34.0995 9.66816 34.1895 9.07886 34.1895C7.49227 34.1895 5.99634 33.492 4.93106 32.2997C2.16586 29.1276 1.30457 25.5055 1.05525 23.0308C0.896587 21.2986 1.07791 19.7013 1.62189 18.2614C2.6645 15.4718 4.50041 14.1895 7.44694 14.1895C8.78421 14.1895 10.0535 14.4819 10.8694 14.7069C11.5721 14.9094 12.2747 15.0218 13 15.0218C13.7253 15.0218 14.4279 14.9094 15.1306 14.7069C15.9465 14.4594 17.2158 14.1895 18.5531 14.1895C21.4996 14.1895 23.3355 15.4943 24.3781 18.2614C24.9221 19.7013 25.1034 21.2986 24.9448 23.0084C24.6954 25.483 23.8568 29.1051 21.0916 32.2772C20.0037 33.492 18.4851 34.1895 16.8985 34.1895Z" fill="#FF6161"/>
<path d="M13.7846 33.6748C13.959 33.7496 14.1527 33.8057 14.3271 33.8618C16.8068 34.6845 19.5191 33.9179 21.2433 32.0106C23.9168 29.0189 24.7305 25.597 24.9436 23.3719C25.0986 21.7825 24.9436 20.1744 24.3624 18.6785C22.2701 13.1811 16.8456 13.9852 14.3271 14.6957C13.4553 14.9388 12.5447 14.9388 11.6729 14.6957C9.15442 13.9852 3.7493 13.1811 1.63762 18.6785C1.05642 20.1744 0.901435 21.8012 1.05642 23.3906C1.30827 25.6157 2.12195 29.0376 4.79545 32.0293C6.50029 33.9366 9.23191 34.6658 11.7117 33.8431C11.8667 33.787 12.041 33.7309 12.196 33.6748C12.7191 33.4878 13.2809 33.4691 13.7846 33.6748Z" stroke="#3F4042" stroke-width="1.6" stroke-miterlimit="10" stroke-linecap="round" stroke-linejoin="round"/>
<path d="M6.61832 12.8844C4.14641 11.5519 2.7472 8.76743 2.33289 7.38399C3.78539 7.20025 6.91509 6.95391 9.16229 8.16532C11.4095 9.37673 12.924 12.1267 13.5689 13.441C12.4505 13.9016 9.49473 14.435 6.61832 12.8844Z" stroke="#3F4042" stroke-width="1.4"/>
<path d="M28.2236 23.4722C29.6636 24.8656 30.8464 26.2087 31.4463 27.5517C32.7662 24.6978 38.2174 20.4169 38.2174 20.4169C39.863 19.0906 41.4058 17.6972 42.6057 16.4885" stroke="#3F4042" stroke-width="1.6" stroke-miterlimit="10" stroke-linecap="round" stroke-linejoin="round"/>
<path d="M27.8003 12.2503H30.7434L32.0245 15.3821L32.9247 12.2503L33.825 9.11851L35.1061 12.2503H36.0755H37.045L38.3261 15.3821L39.2264 12.2503L40.1266 9.11851L41.4077 12.2503H41.4423C44.3334 12.2503 46.5321 9.69847 45.8742 6.99751C45.7357 6.41754 45.5107 5.83758 45.2164 5.27419C44.0391 2.88806 41.5462 1.29731 38.7589 1.0819C33.5307 0.700778 31.1762 5.73816 31.1762 5.73816C31.1762 5.73816 28.891 0.684208 23.6454 1.01561C20.8582 1.19789 18.3479 2.7555 17.0668 5.14163C15.9177 7.28206 15.9334 9.63121 16.0546 10.9568" stroke="#3F4042" stroke-width="1.6" stroke-miterlimit="10" stroke-linecap="round" stroke-linejoin="round"/>
</svg>
