<svg width="629" height="331" viewBox="0 0 629 331" fill="none" xmlns="http://www.w3.org/2000/svg">
<g clip-path="url(#clip0)">
<path d="M298.511 155.999H183.131V49.7115H130.396V89.2681H80.9136V88.3454H129.471V48.7888H184.057V155.077H297.585V116.175H343.845V117.098H298.511V155.999Z" fill="black"/>
<path d="M111.743 89.2685H91.3296L92.9114 40.2468H110.132L111.743 89.2685ZM92.2846 88.3458H110.788L109.266 41.1695H93.8067L92.2846 88.3458Z" fill="black"/>
<path d="M89.9361 7.99993L89.0493 8.26318L98.7731 40.8433L99.6599 40.5801L89.9361 7.99993Z" fill="black"/>
<path d="M107.882 16.405L104.382 40.6511L105.298 40.7826L108.798 16.5365L107.882 16.405Z" fill="black"/>
<path d="M88.6431 18.2805C87.3896 18.2805 86.1063 17.8043 85.1513 16.8518C84.2261 15.9291 83.7188 14.679 83.7188 13.3694C83.7188 12.0598 84.2261 10.8097 85.1513 9.88698L85.4796 9.55957L92.4631 16.5244L92.1348 16.8518C91.1798 17.8043 89.8965 18.2805 88.6431 18.2805ZM85.5094 10.8692C84.9424 11.5835 84.644 12.4467 84.644 13.3396C84.644 14.4111 85.0617 15.4231 85.8078 16.1672C87.2702 17.6257 89.5682 17.715 91.1201 16.4649L85.5094 10.8692Z" fill="black"/>
<path d="M93.3288 31.377C92.2842 31.377 91.2396 30.99 90.4338 30.1864C88.8222 28.5791 88.8222 25.9896 90.4338 24.4121L90.7621 24.0847L96.552 29.859L96.2237 30.1864C95.4179 30.99 94.3734 31.377 93.3288 31.377ZM90.792 25.3943C90.3741 25.9301 90.1652 26.5849 90.1652 27.2695C90.1652 28.1029 90.4935 28.9065 91.0904 29.5018C92.2245 30.6329 93.9854 30.7221 95.209 29.7995L90.792 25.3943Z" fill="black"/>
<path d="M95.9549 20.7512C94.6417 20.7512 93.3882 20.2452 92.463 19.3225L92.1348 18.9951L99.1184 12.0303L99.4467 12.3577C100.372 13.2804 100.879 14.5305 100.879 15.8401C100.879 17.1497 100.372 18.3998 99.4467 19.3225C98.5215 20.2452 97.268 20.7512 95.9549 20.7512ZM93.4778 18.9653C94.194 19.5309 95.0595 19.8285 95.9549 19.8285C97.0293 19.8285 98.044 19.4118 98.7901 18.6677C99.5362 17.9236 99.954 16.9116 99.954 15.8401C99.954 14.9174 99.6556 14.0542 99.0885 13.3697L93.4778 18.9653Z" fill="black"/>
<path d="M109.028 37.9846C107.715 37.9846 106.461 37.4786 105.536 36.5559L105.208 36.2285L112.191 29.2637L112.52 29.5911C114.43 31.496 114.43 34.6212 112.52 36.5559C111.594 37.4786 110.371 37.9846 109.028 37.9846ZM106.551 36.1987C107.267 36.7643 108.132 37.0619 109.028 37.0619C110.102 37.0619 111.117 36.6452 111.863 35.9011C113.325 34.4426 113.415 32.1508 112.161 30.6031L106.551 36.1987Z" fill="black"/>
<path d="M103.297 31.0791C102.253 31.0791 101.208 30.6922 100.402 29.8885C98.8204 28.2813 98.8204 25.6918 100.402 24.1143L100.73 23.7869L106.52 29.5611L106.192 29.8885C105.416 30.6624 104.372 31.0791 103.297 31.0791ZM100.76 25.0965C99.8351 26.3466 99.9247 28.1027 101.059 29.2337C102.193 30.3648 103.954 30.4541 105.177 29.5314L100.76 25.0965Z" fill="black"/>
<path d="M110.161 23.1321C109.117 23.1321 108.072 22.7451 107.266 21.9415L106.938 21.6141L112.728 15.8398L113.056 16.1673C114.668 17.7745 114.668 20.364 113.056 21.9415C112.25 22.7154 111.206 23.1321 110.161 23.1321ZM108.281 21.5843C109.535 22.507 111.295 22.388 112.4 21.2867C113.534 20.1557 113.623 18.3996 112.698 17.1495L108.281 21.5843Z" fill="black"/>
<path d="M96.3128 63.195L92.4629 59.147L93.1195 58.522L96.3128 61.8556L99.8046 58.1648L103.326 61.8556L106.818 58.1648L110.668 62.2127L110.011 62.8378L106.818 59.5042L103.326 63.195L99.8046 59.5042L96.3128 63.195Z" fill="black"/>
<path d="M192.95 156H183.012V110.074H192.95V156ZM183.937 155.077H192.025V110.996H183.937V155.077Z" fill="black"/>
<path d="M201.933 155.791H191.995V114.955H201.933V155.791ZM192.95 154.869H201.038V115.878H192.95V154.869Z" fill="black"/>
<path d="M210.947 155.791H201.009V114.955H210.947V155.791ZM201.934 154.869H210.022V115.878H201.934V154.869Z" fill="black"/>
<path d="M230.644 155.524L210.17 120.164L218.766 115.223L239.239 150.583L230.644 155.524ZM211.454 120.491L231.002 154.244L237.986 150.226L218.437 116.473L211.454 120.491Z" fill="black"/>
<path d="M323.55 94.2687C323.341 94.2687 323.162 94.1198 323.103 93.9115C321.461 87.7205 319.521 79.6247 319.641 76.3804C319.641 76.172 319.79 75.9934 319.999 75.9637C320.208 75.9042 320.417 75.9934 320.506 76.172C320.536 76.2316 323.461 81.2617 325.281 89.179C325.281 89.2088 325.281 89.2385 325.281 89.298L325.311 89.4171L325.55 90.5184C325.58 90.697 325.639 90.8755 325.669 91.0839L325.699 91.1732C325.729 91.3815 325.788 91.6197 325.818 91.8578C325.938 92.4828 326.057 93.1376 326.147 93.7924C326.176 94.0306 325.997 94.2687 325.759 94.3282C325.49 94.358 325.281 94.1794 325.221 93.9413C325.132 93.2865 325.013 92.6614 324.893 92.0661C324.833 91.828 324.804 91.5899 324.774 91.3815L324.744 91.2923C324.714 91.1137 324.684 90.9351 324.625 90.7863L324.326 89.5064C324.326 89.4766 324.326 89.4469 324.326 89.4171C323.192 84.5953 321.64 80.845 320.655 78.702C321.013 81.8272 322.177 87.036 323.968 93.7924C324.028 94.0306 323.878 94.2984 323.64 94.358C323.64 94.2687 323.61 94.2687 323.55 94.2687Z" fill="black"/>
<path d="M325.669 94.2687C325.43 94.2687 325.251 94.0901 325.221 93.8817C325.132 93.2567 325.012 92.6316 324.923 91.9768C324.893 91.7685 324.833 91.5304 324.803 91.2923L324.774 91.203C324.744 91.0244 324.714 90.8458 324.654 90.697C324.594 90.31 324.505 89.9529 324.415 89.6255L324.356 89.4171C324.356 89.3873 324.356 89.3576 324.356 89.3278C324.326 87.7205 324.177 73.6123 325.669 69.2072C325.729 68.9988 325.938 68.8798 326.146 68.9096C326.355 68.9393 326.534 69.0881 326.564 69.3263C326.564 69.4453 327.877 80.3688 328.086 89.9826C328.116 91.322 328.116 92.6019 328.116 93.852C328.116 94.1199 327.907 94.2984 327.669 94.2984C327.4 94.2984 327.221 94.0901 327.221 93.8222C327.251 92.6019 327.221 91.322 327.191 90.0124C327.072 83.375 326.385 76.1423 325.997 72.2432C325.191 77.9579 325.281 87.9587 325.311 89.2683L325.341 89.4171C325.43 89.7445 325.52 90.1315 325.579 90.5184C325.609 90.697 325.669 90.8756 325.699 91.0541L325.729 91.1434C325.758 91.3518 325.818 91.5899 325.848 91.828C325.967 92.4828 326.057 93.1376 326.146 93.7627C326.176 94.0008 325.997 94.2389 325.758 94.2984C325.729 94.2687 325.699 94.2687 325.669 94.2687Z" fill="black"/>
<path d="M329.937 94.2686H327.639C327.37 94.2686 327.191 94.0603 327.191 93.8221V90.0123V89.9825C327.281 88.8217 328.236 78.4935 329.28 76.7077C329.37 76.5291 329.579 76.4398 329.788 76.4993C329.997 76.5589 330.116 76.7077 330.146 76.916C330.146 77.0351 330.773 88.3157 330.385 93.8817C330.385 94.0602 330.176 94.2686 329.937 94.2686ZM328.117 93.3459H329.519C329.728 89.5658 329.549 83.4939 329.37 79.8924C328.803 83.0177 328.326 87.8097 328.117 90.0123V93.3459Z" fill="black"/>
<path d="M333.936 94.2688C333.668 94.2688 333.459 94.0605 333.489 93.7926C333.548 91.1733 333.698 79.1188 332.205 73.4636C331.758 77.2139 330.773 85.4884 330.534 89.328V93.7926C330.534 94.0605 330.325 94.2391 330.086 94.2391C329.818 94.2391 329.639 94.0307 329.639 93.7926V89.2982C329.967 84.1788 331.549 71.529 331.549 71.4099C331.579 71.2016 331.728 71.0527 331.937 71.023C332.146 70.9932 332.325 71.0825 332.414 71.2611C334.623 75.6662 334.503 89.6554 334.444 93.8224C334.384 94.0605 334.175 94.2688 333.936 94.2688Z" fill="black"/>
<path d="M335.667 94.2686H333.936C333.817 94.2686 333.698 94.2091 333.608 94.1198C333.519 94.0305 333.489 93.9115 333.489 93.7924C333.519 93.1971 334.145 79.1782 337.16 73.4337C337.249 73.2254 337.488 73.1361 337.697 73.1956C337.906 73.2551 338.055 73.4635 338.025 73.6718L336.115 93.8222C336.115 94.09 335.906 94.2686 335.667 94.2686ZM334.414 93.3459H335.22L336.772 76.9161C335.1 82.6308 334.533 91.2327 334.414 93.3459Z" fill="black"/>
<path d="M339.308 116.83H320.536V97.0068H339.308V116.83ZM321.461 115.907H338.383V97.9295H321.461V115.907Z" fill="black"/>
<path d="M336.712 97.9297H322.625V93.3162H336.712V97.9297ZM323.55 97.007H335.787V94.2389H323.55V97.007Z" fill="black"/>
<path d="M338.86 101.412H321.013V102.335H338.86V101.412Z" fill="black"/>
<path d="M296.093 96.0843H226.555V12.2087H296.093V96.0843ZM227.48 95.1914H295.168V13.1314H227.48V95.1914Z" fill="black"/>
<path d="M288.304 88.3454H234.345V19.9771H288.304V88.3454ZM235.27 87.4228H287.379V20.8997H235.27V87.4228Z" fill="black"/>
<path d="M259.145 87.9289L258.22 87.8396C258.279 87.2443 264.517 27.3587 261.204 20.632L262.04 20.2153C265.472 27.1802 259.414 85.4585 259.145 87.9289Z" fill="black"/>
<path d="M262.637 35.5438L262.518 34.6212C262.727 34.5914 283.29 31.6447 287.408 22.5667L288.244 22.9536C283.917 32.5079 263.503 35.4248 262.637 35.5438Z" fill="black"/>
<path d="M262.19 43.5207C261.205 43.3422 237.777 38.7585 234.375 32.508L235.18 32.0615C238.374 37.9251 262.1 42.5385 262.339 42.5981L262.19 43.5207Z" fill="black"/>
<path d="M261.861 52.2415L261.682 51.3486C261.921 51.2891 284.424 46.8542 287.408 40.5442L288.244 40.9311C285.08 47.6578 262.816 52.0629 261.861 52.2415Z" fill="black"/>
<path d="M260.907 62.3018C260.041 62.0042 239.508 54.8607 234.405 45.7826L235.211 45.3362C240.165 54.0869 260.996 61.3493 261.205 61.4386L260.907 62.3018Z" fill="black"/>
<path d="M260.519 70.6658L260.22 69.8027C260.459 69.7134 284.603 61.8258 287.439 55.7837L288.274 56.1706C285.29 62.5402 261.504 70.3384 260.519 70.6658Z" fill="black"/>
<path d="M259.504 78.702C258.638 78.4639 238.433 72.7194 234.375 64.2961L235.21 63.9092C239.09 71.9753 259.534 77.7793 259.742 77.8388L259.504 78.702Z" fill="black"/>
<path d="M259.086 85.1907C259.056 85.1907 259.026 85.1907 259.026 85.1907V84.268C259.504 84.268 279.948 84.1489 287.468 72.2729L288.244 72.7789C280.544 84.9525 260.578 85.1907 259.086 85.1907Z" fill="black"/>
<path d="M59.9313 113.75H16V69.9373H59.9313V113.75ZM16.8953 112.857H59.036V70.8302H16.8953V112.857Z" fill="black"/>
<path d="M53.4544 107.291H22.4458V76.3665H53.4544V107.291ZM23.3411 106.399H52.559V77.2594H23.3411V106.399Z" fill="black"/>
<path d="M37.5484 50.6245L28.1431 70.1897L28.9504 70.5757L38.3557 51.0105L37.5484 50.6245Z" fill="black"/>
<path d="M38.382 50.6701L37.5747 51.0564L46.9867 70.6194L47.794 70.2331L38.382 50.6701Z" fill="black"/>
<path d="M216.212 327.485L175.973 326.775C175.833 326.775 175.716 326.658 175.716 326.507C175.716 326.367 175.833 326.251 175.973 326.251L216.212 326.961C216.352 326.961 216.469 327.077 216.469 327.229C216.469 327.368 216.352 327.485 216.212 327.485Z" fill="white"/>
<path d="M271.442 327.392C271.442 327.392 271.43 327.392 271.442 327.392L231.202 326.682C231.062 326.682 230.946 326.565 230.946 326.414C230.946 326.274 231.086 326.17 231.214 326.158L271.453 326.868C271.593 326.868 271.71 326.984 271.71 327.136C271.698 327.275 271.582 327.392 271.442 327.392Z" fill="white"/>
<path d="M628.267 331H605.159C604.752 331 604.425 330.674 604.425 330.267V1.46661H473.387V330.174C473.387 330.581 473.061 330.907 472.653 330.907H0.733752C0.326112 330.907 0 330.581 0 330.174C0 329.766 0.326112 329.44 0.733752 329.44H471.919V0.733305C471.919 0.325913 472.245 0 472.653 0H605.171C605.579 0 605.905 0.325913 605.905 0.733305V329.533H628.278C628.686 329.533 629.012 329.859 629.012 330.267C629.012 330.674 628.674 331 628.267 331Z" fill="black"/>
<path d="M540.973 331L472.641 330.907C472.233 330.907 471.907 330.581 471.907 330.174V0.73344C471.907 0.454085 472.07 0.19801 472.326 0.069973C472.583 -0.0580644 472.886 -0.0115054 473.107 0.163091L541.439 55.5917C541.613 55.7313 541.707 55.9408 541.707 56.162V330.267C541.707 330.465 541.625 330.651 541.497 330.791C541.357 330.93 541.171 331 540.973 331ZM473.386 329.44L540.251 329.534V56.5112L473.386 2.26989V329.44Z" fill="black"/>
<path d="M158.351 256.238H69.4155V328.556H158.351V256.238Z" fill="black"/>
<path d="M158.351 329.068H69.4153C69.1241 329.068 68.9028 328.835 68.9028 328.556V256.249C68.9028 255.958 69.1358 255.737 69.4153 255.737H158.351C158.642 255.737 158.863 255.97 158.863 256.249V328.556C158.863 328.835 158.642 329.068 158.351 329.068ZM69.9278 328.032H157.827V256.75H69.9278V328.032Z" fill="black"/>
<path d="M161.099 287.84H66.5386V298.06H161.099V287.84Z" fill="#FAB70C"/>
<path d="M121.407 253.409H78.8726V277.527H121.407V253.409Z" fill="#FAB70C"/>
<path d="M142.674 253.409H100.14V256.273H142.674V253.409Z" fill="#FAB70C"/>
<path d="M132.355 324.482C132.064 324.482 131.843 324.249 131.843 323.97V258.333C131.843 258.042 132.076 257.821 132.355 257.821C132.646 257.821 132.868 258.054 132.868 258.333V323.97C132.868 324.249 132.635 324.482 132.355 324.482Z" fill="white"/>
<path d="M288.574 149.641C282.122 145.742 273.701 144.368 266.783 147.348V147.29L258.793 135.755C258.793 135.755 242.464 89.5912 226.799 83.783C211.134 77.9747 222.944 129.411 238.597 145.928C253.47 161.607 267.12 163.457 267.12 163.457C267.12 163.457 273.654 164.063 276.019 165.18C281.842 167.95 282.913 169.37 283.705 167.973C284.742 166.169 274.027 158.836 274.05 158.836C274.528 158.638 281.667 163.76 284.113 165.611C284.742 166.088 286.955 167.578 287.642 166.449C288.143 165.611 287.269 164.482 286.885 163.795C285.394 161.118 277.568 154.623 277.568 154.623C277.568 154.623 280.223 156.078 281.132 156.695C283.379 158.231 285.348 159.779 287.386 161.572C287.922 162.037 291.159 164.959 291.812 163.446C292.883 160.92 286.431 155.03 284.672 153.47C283.787 152.69 281.248 150.875 280.433 150.363C281.842 151.038 288.97 154.134 291.451 155.181C291.94 155.391 294.456 155.752 294.304 154.727C293.99 152.609 290.169 150.607 288.574 149.641Z" fill="white"/>
<path d="M282.995 169.265C282.226 169.265 281.236 168.73 279.897 168.008C278.895 167.461 277.521 166.716 275.692 165.855C273.48 164.807 267.109 164.202 267.05 164.202C266.456 164.121 252.934 162.142 238.061 146.452C225.227 132.915 214.244 94.352 220.51 84.8656C221.523 83.3408 223.48 81.7927 227.044 83.1196C242.65 88.9046 258.397 132.507 259.445 135.44L267.074 146.452C273.689 143.868 282.005 144.834 288.946 149.036L289.54 149.385C291.602 150.595 294.7 152.411 295.015 154.658C295.073 155.1 294.91 155.519 294.549 155.787C293.605 156.508 291.497 156.031 291.136 155.88C289.983 155.391 287.933 154.506 285.895 153.622C289.645 157.032 293.512 161.316 292.475 163.76C292.289 164.202 291.94 164.493 291.497 164.598C290.868 164.738 289.715 164.645 286.932 162.177C286.454 161.758 285.977 161.339 285.499 160.955C286.408 161.909 287.141 162.794 287.514 163.469C287.572 163.574 287.642 163.69 287.712 163.806C288.189 164.586 288.912 165.774 288.259 166.856C288.026 167.252 287.654 167.496 287.199 167.589C286.186 167.787 284.928 167.1 284.136 166.565C284.777 167.601 284.509 168.067 284.334 168.369C283.962 168.998 283.531 169.265 282.995 169.265ZM224.539 84.0741C223.363 84.0741 222.431 84.5979 221.733 85.6687C216.317 93.8631 225.972 131.564 239.121 145.439C253.645 160.757 267.085 162.724 267.214 162.747C267.458 162.77 273.875 163.376 276.321 164.54C278.173 165.424 279.571 166.181 280.596 166.728C281.667 167.31 282.692 167.845 282.937 167.799C282.937 167.799 282.983 167.764 283.053 167.624C283.03 167.624 282.89 166.006 273.852 159.616C273.526 159.383 273.258 159.197 273.316 158.766C273.351 158.499 273.526 158.266 273.771 158.161C273.91 158.103 274.155 158.15 274.481 158.278L274.493 158.266L274.539 158.301C276.415 159.046 280.84 162.235 284.544 165.029C285.464 165.727 286.501 166.193 286.92 166.123C287.199 165.75 286.734 164.994 286.466 164.54C286.384 164.4 286.303 164.272 286.233 164.144C285.068 162.049 279.233 156.962 277.09 155.181C276.799 154.937 276.741 154.518 276.95 154.204C277.16 153.889 277.579 153.796 277.905 153.971C278.01 154.029 280.607 155.449 281.527 156.078C283.752 157.602 285.767 159.162 287.852 161.013C290.426 163.283 291.148 163.131 291.159 163.131C291.672 161.851 288.877 158.173 284.16 154.017C283.286 153.249 280.782 151.468 280.013 150.979C279.687 150.77 279.571 150.339 279.757 150.002C279.944 149.664 280.363 149.524 280.712 149.699C282.087 150.363 289.214 153.447 291.695 154.506C291.998 154.634 293.046 154.751 293.5 154.646C293.081 153.144 290.193 151.457 288.772 150.619L288.166 150.258C281.411 146.172 273.316 145.311 267.039 148.011C266.818 148.104 266.561 148.081 266.352 147.953C266.212 147.86 266.107 147.72 266.049 147.569L258.152 136.162C258.117 136.104 258.082 136.046 258.059 135.987C257.896 135.533 241.672 90.0802 226.496 84.4582C225.809 84.2021 225.145 84.0741 224.539 84.0741Z" fill="black"/>
<path d="M223.875 132.554L252.375 115.979C252.375 115.979 237.572 80.0235 223.608 85.8551C203.412 94.3055 223.875 132.554 223.875 132.554Z" fill="white"/>
<path d="M223.876 133.287C223.806 133.287 223.736 133.276 223.678 133.264C223.491 133.206 223.328 133.078 223.235 132.903C222.699 131.89 210.098 108.052 215.176 93.7817C216.62 89.7311 219.368 86.8444 223.34 85.18C225.669 84.2022 228.15 84.2488 230.724 85.3196C242.441 90.1618 252.644 114.664 253.063 115.699C253.203 116.037 253.075 116.433 252.748 116.607L224.248 133.182C224.132 133.252 224.004 133.287 223.876 133.287ZM226.764 85.9482C225.786 85.9482 224.831 86.1461 223.887 86.5418C220.312 88.0433 217.843 90.639 216.538 94.2823C212.136 106.655 222.14 127.525 224.167 131.541L251.444 115.676C249.802 111.882 240.333 90.8834 230.142 86.6815C228.977 86.181 227.847 85.9482 226.764 85.9482Z" fill="black"/>
<path d="M227.265 74.2617H199.51V84.2021H227.265V74.2617Z" fill="#7ABC2F"/>
<path d="M207.803 80.8034C214.745 81.3156 232.984 85.1102 234.335 89.2423C235.697 93.386 237.386 154.204 237.386 154.204H183.357C183.357 154.204 174.726 98.5075 176.869 91.9194C179.024 85.3313 199.161 80.1632 207.803 80.8034Z" fill="white"/>
<path d="M237.386 154.937H183.368C183.007 154.937 182.692 154.67 182.646 154.32C182.296 152.039 174.016 98.3796 176.194 91.6983C178.523 84.5166 199.126 79.43 207.861 80.0819C213.65 80.5125 233.438 84.1325 235.045 89.0212C236.419 93.2115 238.062 151.701 238.131 154.192C238.131 154.39 238.062 154.576 237.922 154.728C237.77 154.856 237.584 154.937 237.386 154.937ZM183.997 153.471H236.641C236.047 132.275 234.684 92.6295 233.647 89.4751C232.541 86.0996 215.816 82.1305 207.756 81.5368C198.684 80.8734 179.501 86.2509 177.591 92.1523C175.949 97.1807 181.004 134.09 183.997 153.471Z" fill="black"/>
<path d="M202.934 71.6663L202.352 85.7038C202.352 85.7038 211.949 93.4326 216.025 93.7469C220.102 94.0728 220.451 91.5935 220.451 91.5935L219.997 79.9538L202.934 71.6663Z" fill="white"/>
<path d="M216.724 94.5035C216.48 94.5035 216.235 94.4918 215.967 94.4685C211.716 94.131 202.294 86.5768 201.886 86.2625C201.7 86.1228 201.607 85.89 201.618 85.6572L202.201 71.6197C202.212 71.3752 202.34 71.1424 202.562 71.026C202.771 70.898 203.039 70.8864 203.26 70.9911L220.323 79.2786C220.568 79.395 220.719 79.6395 220.731 79.9072L221.185 91.547C221.185 91.5935 221.185 91.6401 221.173 91.675C221.173 91.7332 220.731 94.5035 216.724 94.5035ZM203.097 85.3546C205.939 87.6127 213.032 92.7691 216.084 93.0136C219.088 93.2464 219.636 91.8379 219.717 91.5353L219.275 80.431L203.61 72.8186L203.097 85.3546Z" fill="black"/>
<path d="M201.246 66.8823C201.246 59.1885 207.337 52.9612 214.861 52.9612C222.373 52.9612 228.476 59.2001 228.476 66.8823C228.476 74.5762 222.385 80.8035 214.861 80.8035C207.337 80.8035 201.246 74.5762 201.246 66.8823Z" fill="white"/>
<path d="M214.849 81.5367C206.941 81.5367 200.5 74.9603 200.5 66.8823C200.5 58.8043 206.93 52.2278 214.849 52.2278C222.769 52.2278 229.198 58.8043 229.198 66.8823C229.198 74.9603 222.758 81.5367 214.849 81.5367ZM214.849 53.6944C207.745 53.6944 201.968 59.6074 201.968 66.8823C201.968 74.1571 207.745 80.0701 214.849 80.0701C221.954 80.0701 227.731 74.1571 227.731 66.8823C227.731 59.6074 221.954 53.6944 214.849 53.6944Z" fill="black"/>
<path d="M198.462 68.2675C196.901 65.5671 196.971 62.436 198.625 61.2837C200.279 60.1197 202.876 61.3651 204.437 64.0656C205.997 66.766 205.927 69.8971 204.274 71.0494C202.62 72.2134 200.023 70.968 198.462 68.2675Z" fill="white"/>
<path d="M202.864 72.2134C202.597 72.2134 202.317 72.1784 202.038 72.1202C200.454 71.771 198.881 70.4674 197.821 68.6283C196.051 65.567 196.214 62.0634 198.194 60.6667C198.939 60.1429 199.86 59.9683 200.85 60.1894C202.422 60.5386 204.006 61.8423 205.066 63.6814C206.836 66.7426 206.673 70.2462 204.693 71.643C204.157 72.0271 203.54 72.2134 202.864 72.2134ZM200.023 61.5746C199.65 61.5746 199.324 61.6793 199.044 61.8772C197.728 62.8084 197.752 65.567 199.103 67.895C199.953 69.3616 201.199 70.4325 202.364 70.6885C202.946 70.8166 203.447 70.7351 203.854 70.4441C205.171 69.5129 205.147 66.7543 203.796 64.4263C202.946 62.9597 201.7 61.8888 200.523 61.6328C200.349 61.5979 200.186 61.5746 200.023 61.5746Z" fill="black"/>
<path d="M203.901 68.4652C203.68 68.4652 203.459 68.372 203.319 68.1742L199.417 63.0876C199.173 62.7617 199.231 62.3077 199.557 62.0633C199.883 61.8189 200.337 61.8771 200.582 62.203L204.484 67.2895C204.728 67.6155 204.67 68.0694 204.344 68.3138C204.216 68.407 204.053 68.4652 203.901 68.4652Z" fill="black"/>
<path d="M203.901 68.2441C203.75 68.2441 203.598 68.1743 203.494 68.0463L199.592 62.9597C199.417 62.7385 199.464 62.4126 199.685 62.238C199.906 62.0634 200.232 62.11 200.407 62.3311L204.309 67.4177C204.484 67.6389 204.437 67.9648 204.216 68.1394C204.123 68.2092 204.006 68.2441 203.901 68.2441Z" fill="black"/>
<path d="M201.875 65.8927C201.863 65.8927 201.84 65.8927 201.828 65.8927L199.266 65.6367C198.986 65.6134 198.777 65.3573 198.8 65.0779C198.823 64.7986 199.08 64.5891 199.359 64.6124L201.921 64.8684C202.201 64.8917 202.411 65.1478 202.387 65.4271C202.352 65.6948 202.131 65.8927 201.875 65.8927Z" fill="black"/>
<path d="M215.117 68.9192C215.117 68.116 215.408 67.4758 215.769 67.4758C216.13 67.4758 216.422 68.1277 216.422 68.9192C216.422 69.7223 216.13 70.3625 215.769 70.3625C215.408 70.3625 215.117 69.7107 215.117 68.9192Z" fill="#0A0202"/>
<path d="M215.769 70.8747C215.082 70.8747 214.604 70.0715 214.604 68.9076C214.604 67.7552 215.082 66.9404 215.769 66.9404C216.456 66.9404 216.934 67.7436 216.934 68.9076C216.934 70.0715 216.456 70.8747 215.769 70.8747ZM215.769 68.1393C215.699 68.3023 215.641 68.5584 215.641 68.9192C215.641 69.28 215.711 69.5361 215.769 69.6991C215.839 69.5361 215.897 69.28 215.897 68.9192C215.897 68.5584 215.827 68.3023 215.769 68.1393Z" fill="#0A0202"/>
<path d="M224.912 68.9426C224.912 68.1394 225.203 67.4993 225.564 67.4993C225.925 67.4993 226.217 68.1511 226.217 68.9426C226.217 69.7457 225.925 70.3859 225.564 70.3859C225.203 70.3859 224.912 69.7457 224.912 68.9426Z" fill="#0A0202"/>
<path d="M225.565 70.9096C224.877 70.9096 224.4 70.1064 224.4 68.9425C224.4 67.7901 224.877 66.9753 225.565 66.9753C226.252 66.9753 226.729 67.7785 226.729 68.9425C226.729 70.0948 226.252 70.9096 225.565 70.9096ZM225.565 68.1626C225.495 68.3255 225.436 68.5816 225.436 68.9425C225.436 69.3033 225.506 69.5594 225.565 69.7223C225.634 69.5594 225.693 69.3033 225.693 68.9425C225.693 68.5816 225.623 68.3255 225.565 68.1626Z" fill="#0A0202"/>
<path d="M217.144 78.0797C216.037 78.0797 214.372 77.5791 213.754 75.5888C213.673 75.321 213.824 75.03 214.092 74.9486C214.36 74.8671 214.651 75.0184 214.733 75.2861C215.373 77.3114 217.4 77.0437 217.481 77.0321C217.761 76.9855 218.029 77.1834 218.064 77.4627C218.11 77.7421 217.912 77.9982 217.633 78.0447C217.493 78.068 217.318 78.0797 217.144 78.0797Z" fill="black"/>
<path d="M213.16 76.4967C213.102 76.4967 213.055 76.485 212.997 76.4734C212.729 76.3803 212.578 76.0893 212.671 75.8216C212.694 75.7517 213.265 74.0872 214.57 74.064C214.884 74.064 215.082 74.2851 215.094 74.5645C215.094 74.8438 214.872 75.0766 214.593 75.0883C214.092 75.0999 213.719 75.9263 213.649 76.1475C213.58 76.357 213.382 76.4967 213.16 76.4967Z" fill="black"/>
<path d="M213.533 65.6017C213.522 65.4853 214.395 65.2758 215.502 65.1129C216.596 64.9616 217.505 64.9267 217.528 65.0314C217.54 65.1478 216.666 65.3573 215.56 65.5203C214.465 65.6832 213.557 65.7181 213.533 65.6017Z" fill="white"/>
<path d="M213.976 66.4049C213.37 66.4049 213.219 66.2885 213.114 66.2071C212.963 66.0907 212.846 65.8928 212.811 65.7066C212.788 65.5203 212.846 65.2992 212.963 65.1479C213.102 64.9733 213.3 64.6939 215.397 64.4029C217.493 64.1119 217.773 64.3098 217.947 64.4495C218.099 64.5659 218.215 64.7637 218.25 64.95C218.273 65.1362 218.215 65.3574 218.099 65.5087C217.959 65.6833 217.761 65.9626 215.665 66.2536C214.873 66.3584 214.337 66.4049 213.976 66.4049Z" fill="black"/>
<path d="M224.877 64.5193C224.912 64.4145 225.798 64.5659 226.869 64.8569C227.941 65.1595 228.779 65.4854 228.756 65.6018C228.721 65.7066 227.836 65.5553 226.764 65.2643C225.693 64.95 224.854 64.6241 224.877 64.5193Z" fill="white"/>
<path d="M228.593 66.3586C228.127 66.3586 227.474 66.2072 226.566 65.9512C224.703 65.4274 223.957 65.0898 224.178 64.3099C224.225 64.1237 224.376 63.9491 224.539 63.8443C224.737 63.7279 225.029 63.565 227.078 64.1353C228.942 64.6591 229.687 64.9967 229.466 65.7766C229.35 66.1956 229.082 66.3586 228.593 66.3586Z" fill="black"/>
<path d="M202.725 61.9238C202.748 61.9122 203.354 62.5756 203.563 62.7735C204.076 63.2507 204.856 63.9026 205.101 64.6009C205.345 65.311 205.718 66.1607 205.718 66.9405C205.718 67.1733 205.462 67.5807 205.695 67.6273C205.776 67.6506 205.8 67.4992 205.858 67.4294C206.627 66.4633 208.49 65.8697 209.596 65.4274C213.498 63.8676 217.586 62.8433 221.453 61.2953C222.571 60.8529 223.503 60.1895 224.539 59.6191C224.947 59.398 225.261 58.4202 225.599 58.7345C226.263 59.3631 227.055 59.9218 227.439 60.7482C227.533 60.9461 227.789 62.4476 227.894 62.4709C228.185 62.5291 228.371 59.8985 228.36 59.7239C228.278 58.9789 227.463 55.7547 226.612 55.5801C225.11 55.2659 223.247 55.6965 221.698 55.7082C220.94 55.7198 219.764 55.3706 219.054 55.5569C216.189 56.3134 213.393 58.1874 210.458 59.0953C208.606 59.6657 206.883 60.7598 204.973 61.1439C204.402 61.2487 202.317 62.145 202.725 61.9238Z" fill="#0A0202"/>
<path d="M197.787 67.5458C197.798 67.3945 197.892 68.4304 197.95 68.6865C198.171 69.5478 198.241 70.5139 198.614 71.3287C199.289 72.7837 200.466 73.5752 201.747 74.4249C202.306 74.7974 202.9 75.0185 203.575 75.1582C203.61 75.1698 203.692 75.2164 203.692 75.1815C203.435 74.1805 202.69 72.3181 202.143 71.4917C201.98 71.2472 201.304 71.3869 201.025 71.2589C199.965 70.7351 197.717 68.7563 197.787 67.5458Z" fill="#0A0202"/>
<path d="M197.204 82.0606L198.078 75.7867C198.264 74.4598 199.767 73.7731 200.896 74.5064L214.197 83.2246C214.814 83.6319 215.129 84.3653 214.989 85.0869L213.953 90.6042C213.755 91.6285 212.753 92.2919 211.74 92.0475C209.83 91.5819 206.72 90.6274 203.773 88.7767C200.384 86.6583 198.439 84.5049 197.6 83.4574C197.286 83.0732 197.134 82.5611 197.204 82.0606Z" fill="#7ABC2F"/>
<path d="M202.003 62.3775L228.092 55.1958C228.092 55.1958 235.15 48.7357 229.897 47.0945C224.644 45.4533 202.003 62.3775 202.003 62.3775Z" fill="#7ABC2F"/>
<path d="M220.37 73.7729C220.207 73.7729 220.044 73.7496 219.892 73.703C219.625 73.6216 219.462 73.3422 219.543 73.0628C219.625 72.7951 219.904 72.6322 220.184 72.7137C220.568 72.8301 221.22 72.5623 221.698 72.0968C222.07 71.7359 222.257 71.3402 222.222 71.0143C222.175 71.0375 222.117 71.0492 222.082 71.0725C221.768 71.2005 221.022 71.5031 220.615 70.7815C219.788 69.2916 220.335 67.3943 220.743 66.0092C220.824 65.7415 221.104 65.5785 221.383 65.66C221.651 65.7415 221.814 66.0208 221.733 66.3002C221.395 67.4874 220.929 69.0937 221.476 70.2111C221.546 70.1878 221.628 70.1529 221.698 70.1296C221.977 70.0132 222.373 69.8619 222.734 70.0365C222.967 70.1529 223.119 70.3624 223.2 70.6651C223.386 71.3751 223.107 72.1666 222.42 72.8301C221.896 73.3422 221.115 73.7729 220.37 73.7729Z" fill="black"/>
<path d="M196.482 65.3807C196.482 65.3807 192.93 52.2627 204.53 47.4787C216.142 42.6948 223.386 51.2733 223.386 51.2733L196.482 65.3807Z" fill="#7ABC2F"/>
<path d="M203.773 61.4349C203.656 61.4349 203.54 61.4117 203.424 61.3535C203.062 61.1672 202.934 60.7133 203.121 60.3641C204.076 58.5832 212.659 52.9728 221.313 48.992C221.686 48.8174 222.117 48.9804 222.291 49.3528C222.466 49.7253 222.303 50.156 221.93 50.3306C212.904 54.4976 205.066 59.8636 204.425 61.0741C204.285 61.2836 204.041 61.4349 203.773 61.4349Z" fill="black"/>
<path d="M239.89 179.928L246.761 233.983L253.586 313.238L227.987 315.915C227.987 315.915 213.405 225.078 212.019 211.111C211.914 210.017 197.821 316.427 197.821 316.427L173.84 314.123L179.198 174.527L180.817 161.618L237.292 163.236L239.89 179.928Z" fill="white"/>
<path d="M197.821 317.172C197.798 317.172 197.775 317.172 197.752 317.172L173.771 314.856C173.386 314.821 173.095 314.483 173.107 314.099L178.464 174.504L180.083 161.525C180.13 161.153 180.444 160.885 180.805 160.885C180.817 160.885 180.817 160.885 180.829 160.885L237.304 162.503C237.654 162.515 237.957 162.771 238.003 163.12L240.612 179.823C240.612 179.835 240.612 179.835 240.612 179.846L247.484 233.901L254.309 313.191C254.344 313.587 254.053 313.936 253.657 313.983L228.057 316.66C227.672 316.695 227.323 316.427 227.253 316.043C227.125 315.217 215.105 240.315 211.938 216.558C209.585 233.389 202.527 286.443 198.544 316.532C198.497 316.893 198.183 317.172 197.821 317.172ZM174.598 313.459L197.181 315.636C197.752 311.294 200.908 287.479 204.088 263.664C205.846 250.5 207.617 237.335 208.956 227.453C209.631 222.518 210.19 218.397 210.598 215.522C211.32 210.354 211.332 210.366 212.019 210.366C212.392 210.377 212.706 210.668 212.741 211.029C214.046 224.182 227.253 306.696 228.593 315.1L252.783 312.574L246.016 234.041L239.156 180.021L236.652 163.935L181.446 162.352L179.909 174.608L174.598 313.459Z" fill="black"/>
<path d="M192.22 186.574C191.963 186.574 191.719 186.446 191.591 186.213C191.381 185.864 191.498 185.41 191.847 185.212C201.129 179.741 202.422 169.952 202.434 169.848C202.48 169.44 202.842 169.149 203.249 169.207C203.657 169.254 203.936 169.626 203.89 170.022C203.831 170.453 202.492 180.638 192.592 186.469C192.476 186.551 192.348 186.574 192.22 186.574Z" fill="black"/>
<path d="M228.674 307.732C228.546 307.732 228.43 307.639 228.418 307.499C228.406 307.36 228.499 307.232 228.651 307.208L250.78 304.717C250.92 304.694 251.048 304.799 251.071 304.95C251.083 305.09 250.99 305.218 250.838 305.241L228.709 307.732C228.686 307.732 228.674 307.732 228.674 307.732Z" fill="white"/>
<path d="M200.465 247.205C197.402 247.205 193.291 245.064 191.113 243.504C190.787 243.271 190.705 242.806 190.95 242.48C191.183 242.154 191.649 242.084 191.975 242.317C194.223 243.935 198.509 246.041 201.036 245.716C202.55 245.506 203.889 243.644 204.274 242.934C204.472 242.584 204.914 242.445 205.264 242.643C205.625 242.841 205.753 243.283 205.555 243.632C205.485 243.76 203.796 246.81 201.222 247.159C200.989 247.194 200.733 247.205 200.465 247.205Z" fill="black"/>
<path d="M198.416 311.806C198.416 311.806 216.829 318.755 217.645 327.788C217.703 328.405 217.645 330.267 217.645 330.267L173.934 329.615L173.503 314.891L173.48 313.878C173.457 312.947 174.516 312.388 175.273 312.947L177.615 314.67L190.496 313.96L195.423 308.675C196.657 307.476 198.719 308.466 198.567 310.177L198.416 311.806Z" fill="black"/>
<path d="M183.368 326.775C183.24 326.775 183.123 326.67 183.112 326.542C183.112 326.495 182.681 322.247 179.466 320.385C176.356 318.58 174.015 319.162 173.992 319.174C173.852 319.209 173.712 319.127 173.678 318.988C173.643 318.848 173.724 318.708 173.864 318.673C173.969 318.65 176.426 318.022 179.734 319.942C183.181 321.944 183.612 326.309 183.636 326.495C183.647 326.635 183.542 326.763 183.403 326.775C183.379 326.775 183.368 326.775 183.368 326.775Z" fill="white"/>
<path d="M198.229 317.847C198.171 317.847 198.124 317.836 198.078 317.801C197.961 317.719 197.938 317.556 198.019 317.44L202.084 311.853C202.166 311.736 202.329 311.713 202.445 311.794C202.562 311.876 202.585 312.039 202.504 312.155L198.439 317.742C198.392 317.801 198.311 317.847 198.229 317.847Z" fill="white"/>
<path d="M201.921 319.174C201.863 319.174 201.817 319.163 201.77 319.128C201.654 319.046 201.63 318.883 201.712 318.767L205.776 313.18C205.858 313.063 206.021 313.04 206.137 313.121C206.254 313.203 206.277 313.366 206.196 313.482L202.131 319.069C202.073 319.139 202.003 319.174 201.921 319.174Z" fill="white"/>
<path d="M205.765 321.316C205.707 321.316 205.66 321.305 205.613 321.27C205.497 321.188 205.474 321.025 205.555 320.909L209.62 315.322C209.702 315.205 209.865 315.182 209.981 315.263C210.098 315.345 210.121 315.508 210.039 315.624L205.974 321.211C205.928 321.281 205.846 321.316 205.765 321.316Z" fill="white"/>
<path d="M209.596 326.775C209.573 326.775 209.55 326.775 209.527 326.763C209.387 326.728 209.317 326.577 209.352 326.437C209.387 326.333 210.051 323.923 207.116 322.666V322.654C206.755 322.503 204.914 321.549 193.955 315.74L173.934 316.788C173.794 316.788 173.666 316.683 173.666 316.544C173.654 316.404 173.771 316.276 173.91 316.276L194.001 315.228C194.048 315.228 194.094 315.24 194.141 315.263C197.67 317.137 206.859 322.003 207.302 322.201C207.314 322.201 207.314 322.2 207.325 322.212C210.703 323.655 209.864 326.577 209.864 326.612C209.806 326.705 209.713 326.775 209.596 326.775Z" fill="white"/>
<path d="M253.633 311.713C253.633 311.713 272.047 318.662 272.862 327.695C272.92 328.312 272.862 330.174 272.862 330.174L229.151 329.522L228.72 314.798L228.697 313.785C228.674 312.854 229.734 312.295 230.491 312.854L232.832 314.577L245.713 313.867L250.64 308.582C251.874 307.383 253.936 308.373 253.784 310.084L253.633 311.713Z" fill="black"/>
<path d="M238.585 326.682C238.457 326.682 238.341 326.577 238.329 326.449C238.329 326.402 237.898 322.154 234.684 320.292C231.574 318.487 229.233 319.069 229.21 319.081C229.07 319.116 228.93 319.034 228.895 318.895C228.86 318.755 228.942 318.615 229.082 318.58C229.186 318.557 231.644 317.929 234.952 319.849C238.399 321.851 238.83 326.216 238.853 326.402C238.865 326.542 238.76 326.67 238.62 326.682C238.609 326.682 238.597 326.682 238.585 326.682Z" fill="white"/>
<path d="M253.459 317.742C253.4 317.742 253.354 317.731 253.307 317.696C253.191 317.614 253.167 317.451 253.249 317.335L257.314 311.748C257.395 311.631 257.558 311.608 257.675 311.69C257.791 311.771 257.814 311.934 257.733 312.05L253.668 317.637C253.622 317.707 253.54 317.742 253.459 317.742Z" fill="white"/>
<path d="M264.826 326.682C264.803 326.682 264.78 326.682 264.756 326.67C264.617 326.635 264.547 326.484 264.582 326.344C264.617 326.239 265.281 323.83 262.346 322.573V322.561C261.985 322.41 260.144 321.455 249.185 315.647L229.164 316.695C229.024 316.695 228.896 316.59 228.896 316.45C228.884 316.311 229.001 316.183 229.14 316.183L249.231 315.135C249.278 315.135 249.324 315.147 249.371 315.17C252.9 317.044 262.089 321.909 262.532 322.107C262.544 322.107 262.544 322.107 262.555 322.119C265.933 323.562 265.094 326.484 265.083 326.519C265.036 326.612 264.931 326.682 264.826 326.682Z" fill="white"/>
<path d="M257.151 319.081C257.093 319.081 257.046 319.069 257 319.034C256.883 318.953 256.86 318.79 256.941 318.674L261.006 313.086C261.088 312.97 261.251 312.947 261.367 313.028C261.484 313.11 261.507 313.273 261.425 313.389L257.361 318.976C257.302 319.046 257.221 319.081 257.151 319.081Z" fill="white"/>
<path d="M260.994 321.223C260.936 321.223 260.889 321.211 260.843 321.176C260.726 321.095 260.703 320.932 260.785 320.815L264.849 315.228C264.931 315.112 265.094 315.089 265.21 315.17C265.327 315.252 265.35 315.415 265.269 315.531L261.204 321.118C261.157 321.188 261.076 321.223 260.994 321.223Z" fill="white"/>
<path d="M183.368 299.794C183.356 299.794 183.333 299.794 183.321 299.794C182.914 299.771 182.611 299.421 182.634 299.014L186.338 245.471L183.135 244.412C182.832 244.307 182.622 244.028 182.634 243.702C182.634 243.388 182.855 243.108 183.158 243.015L186.641 241.968L184.777 240.187C184.614 240.035 184.532 239.814 184.556 239.593L191.078 167.776C191.113 167.368 191.486 167.077 191.87 167.112C192.278 167.147 192.569 167.508 192.534 167.904L186.047 239.372L188.574 241.781C188.76 241.956 188.842 242.224 188.784 242.48C188.725 242.736 188.527 242.934 188.283 243.015L185.814 243.76L187.351 244.272C187.665 244.377 187.875 244.691 187.852 245.017L184.113 299.13C184.067 299.491 183.741 299.794 183.368 299.794Z" fill="black"/>
<path d="M200.256 299.794H174.423C174.016 299.794 173.689 299.468 173.689 299.06C173.689 298.653 174.016 298.327 174.423 298.327H200.256C200.664 298.327 200.99 298.653 200.99 299.06C200.99 299.468 200.664 299.794 200.256 299.794Z" fill="black"/>
<path d="M198.823 305.719H174.19C173.783 305.719 173.457 305.393 173.457 304.985C173.457 304.578 173.783 304.252 174.19 304.252H198.823C199.231 304.252 199.557 304.578 199.557 304.985C199.557 305.393 199.231 305.719 198.823 305.719Z" fill="black"/>
<path d="M241.567 245.18C238.726 245.18 235.255 244.051 233.205 243.085C232.844 242.91 232.681 242.468 232.856 242.107C233.03 241.746 233.473 241.583 233.834 241.758C236.326 242.945 240.938 244.26 243.361 243.469C244.817 242.992 245.795 240.92 246.051 240.152C246.18 239.768 246.599 239.558 246.983 239.686C247.368 239.814 247.577 240.222 247.449 240.606C247.402 240.745 246.284 244.051 243.827 244.854C243.163 245.087 242.394 245.18 241.567 245.18Z" fill="black"/>
<path d="M233.158 300.306C232.797 300.306 232.482 300.038 232.436 299.666L225.401 247.543L222.047 247.066C221.732 247.019 221.476 246.775 221.43 246.461C221.371 246.146 221.534 245.832 221.826 245.692L225.063 244.039L222.909 242.619C222.734 242.503 222.618 242.328 222.583 242.131L214.302 192.254C214.232 191.858 214.511 191.474 214.907 191.416C215.315 191.346 215.688 191.626 215.746 192.021L223.98 241.583L226.927 243.516C227.148 243.655 227.276 243.911 227.253 244.167C227.241 244.424 227.09 244.656 226.857 244.784L224.551 245.948L226.147 246.17C226.473 246.216 226.729 246.472 226.775 246.798L233.88 299.48C233.938 299.875 233.647 300.248 233.251 300.306C233.228 300.306 233.193 300.306 233.158 300.306Z" fill="black"/>
<path d="M226.741 301.47C226.391 301.47 226.089 301.226 226.019 300.865C225.949 300.469 226.205 300.085 226.613 300.015L252.026 295.394C252.422 295.324 252.807 295.58 252.877 295.988C252.946 296.383 252.69 296.767 252.283 296.837L226.869 301.458C226.834 301.47 226.787 301.47 226.741 301.47Z" fill="black"/>
<path d="M227.591 307.348C227.242 307.348 226.939 307.104 226.869 306.743C226.799 306.347 227.055 305.963 227.463 305.893L251.7 301.482C252.096 301.412 252.48 301.668 252.55 302.075C252.62 302.471 252.364 302.855 251.956 302.925L227.719 307.336C227.673 307.348 227.626 307.348 227.591 307.348Z" fill="black"/>
<path d="M228.185 85.3196C227.742 86.2624 226.706 88.1946 224.901 90.1036C223.328 91.768 221.686 92.6294 220.661 93.0484C220.125 93.2696 219.59 92.6759 219.485 91.7448L218.937 86.7862C218.867 86.1344 219.031 85.4709 219.357 85.1101L226.426 77.2649C227.02 76.6014 227.824 77.2184 227.917 78.4172L228.383 84.0625C228.43 84.5048 228.36 84.9588 228.185 85.3196Z" fill="#7ABC2F"/>
<path d="M242.173 179.555H220.952L219.694 90.7321C219.694 90.7321 223.538 90.3946 226.019 86.763C228.499 83.143 228.138 80.687 228.138 80.687C228.138 80.687 230.549 80.8267 234.707 84.6562C238.318 87.9968 239.797 130.121 239.797 130.121L242.173 179.555Z" fill="#7ABC2F"/>
<path d="M220.952 92.6525C220.684 92.6525 220.416 92.5012 220.288 92.2334C220.113 91.8726 220.265 91.4303 220.638 91.2557C220.649 91.2441 222.21 90.4875 224.539 88.4273C226.822 86.4136 227.928 83.5851 227.94 83.5502C228.091 83.1778 228.511 82.9799 228.883 83.1312C229.256 83.2709 229.454 83.7015 229.303 84.074C229.256 84.202 228.068 87.2633 225.494 89.5214C222.99 91.7329 221.325 92.5361 221.255 92.571C221.162 92.6292 221.057 92.6525 220.952 92.6525Z" fill="black"/>
<path d="M222.676 118.179C221.313 118.179 220.521 118.051 220.475 118.039C220.079 117.969 219.811 117.597 219.881 117.189C219.951 116.794 220.323 116.514 220.731 116.596C220.743 116.596 222.362 116.863 225.017 116.584C230.188 116.049 230.98 113.686 230.98 113.662C231.097 113.278 231.504 113.057 231.889 113.162C232.273 113.267 232.494 113.662 232.401 114.047C232.366 114.186 231.446 117.387 225.168 118.039C224.202 118.155 223.375 118.179 222.676 118.179Z" fill="black"/>
<path d="M222.292 142.343C221.721 142.343 221.406 142.296 221.372 142.296C220.976 142.238 220.696 141.866 220.754 141.458C220.812 141.063 221.185 140.783 221.593 140.841C221.604 140.841 223.258 141.063 226.182 140.341C229.175 139.608 233.88 136.989 233.927 136.965C234.276 136.767 234.731 136.896 234.929 137.245C235.127 137.594 234.998 138.048 234.649 138.246C234.451 138.362 229.722 140.981 226.531 141.761C224.586 142.25 223.154 142.343 222.292 142.343Z" fill="black"/>
<path d="M240.81 173.444H223.142C222.734 173.444 222.408 173.118 222.408 172.711C222.408 172.303 222.734 171.978 223.142 171.978H240.81C241.218 171.978 241.544 172.303 241.544 172.711C241.544 173.118 241.218 173.444 240.81 173.444Z" fill="black"/>
<path d="M233.17 86.7746C233.018 86.7746 232.855 86.728 232.727 86.6233C232.657 86.5767 231.854 86.0995 228.5 85.2847C228.104 85.1916 227.859 84.7959 227.964 84.4001C228.057 84.0044 228.453 83.7716 228.849 83.8647C232.599 84.7726 233.473 85.3429 233.647 85.4942C233.962 85.7503 233.997 86.2159 233.729 86.5302C233.589 86.6815 233.38 86.7746 233.17 86.7746Z" fill="black"/>
<path d="M173.468 179.729H211.39L213.65 89.7193C213.65 89.7193 206.778 89.3701 202.341 85.7036C197.903 82.037 198.556 79.5461 198.556 79.5461C198.556 79.5461 187.142 81.1524 179.723 85.0517C173.27 88.4389 173.911 88.0897 173.911 88.0897C173.911 88.0897 178.08 86.2739 183.356 89.7309C188.632 93.1763 187.479 115.257 186.501 120.076C185.523 124.906 183.356 127.514 183.356 127.514H173.468V179.729Z" fill="#7ABC2F"/>
<path d="M211.402 91.6517C211.344 91.6517 211.274 91.64 211.216 91.6284C211.099 91.5935 208.211 90.8136 203.808 88.6021C199.289 86.3439 197.181 83.2594 197.088 83.1314C196.867 82.7938 196.948 82.3399 197.286 82.1187C197.624 81.8975 198.078 81.979 198.299 82.3166C198.323 82.3399 200.314 85.2265 204.461 87.2984C208.723 89.4285 211.565 90.2083 211.6 90.22C211.996 90.3247 212.217 90.7321 212.113 91.1163C212.019 91.4422 211.728 91.6517 211.402 91.6517Z" fill="black"/>
<path d="M208.304 117.445C207.116 117.445 205.66 117.434 203.983 117.387C198.847 117.259 192.173 113.953 191.893 113.814C191.532 113.628 191.381 113.197 191.567 112.836C191.742 112.475 192.185 112.324 192.546 112.51C192.616 112.545 199.208 115.804 204.029 115.921C208.979 116.049 211.961 115.921 211.996 115.921C212.392 115.897 212.741 116.212 212.765 116.619C212.788 117.026 212.473 117.364 212.066 117.387C212.031 117.387 210.68 117.445 208.304 117.445Z" fill="black"/>
<path d="M209.003 142.005C207.547 142.005 205.054 141.912 201.665 141.435C196.075 140.655 187.724 138.025 187.363 137.92C186.978 137.792 186.757 137.384 186.885 137C187.013 136.616 187.421 136.395 187.805 136.523C187.887 136.546 196.389 139.235 201.863 139.992C207.302 140.748 210.377 140.504 210.4 140.504C210.819 140.469 211.157 140.772 211.192 141.179C211.227 141.586 210.924 141.936 210.517 141.97C210.47 141.97 209.958 142.005 209.003 142.005Z" fill="black"/>
<path d="M207.489 173.526H175.914C175.506 173.526 175.18 173.2 175.18 172.792C175.18 172.385 175.506 172.059 175.914 172.059H207.489C207.896 172.059 208.222 172.385 208.222 172.792C208.222 173.188 207.896 173.526 207.489 173.526Z" fill="black"/>
<path d="M186.14 86.5998C185.826 86.5998 185.546 86.402 185.441 86.0877C185.313 85.7036 185.534 85.2846 185.919 85.1682C186.105 85.11 190.612 83.6899 197.507 82.7354C197.903 82.6773 198.276 82.9566 198.334 83.364C198.393 83.7597 198.113 84.1322 197.705 84.1904C190.939 85.1216 186.408 86.5533 186.361 86.5649C186.28 86.5882 186.21 86.5998 186.14 86.5998Z" fill="black"/>
<path d="M210.715 220.806C210.68 220.806 210.645 220.806 210.598 220.795C210.202 220.737 209.923 220.364 209.981 219.957L217.388 171.908C217.446 171.512 217.831 171.233 218.227 171.291C218.623 171.349 218.902 171.722 218.844 172.129L211.437 220.178C211.378 220.55 211.076 220.806 210.715 220.806Z" fill="black"/>
<path d="M280.409 151.317H242.161V175.155H280.409V151.317Z" fill="#0A0202"/>
<path d="M241.975 151.317H224.33V175.155H241.975V151.317Z" fill="#0A0202"/>
<path d="M241.987 175.667C241.695 175.667 241.474 175.435 241.474 175.155V151.317C241.474 151.026 241.707 150.805 241.987 150.805C242.278 150.805 242.499 151.038 242.499 151.317V175.155C242.499 175.435 242.266 175.667 241.987 175.667Z" fill="white"/>
<path d="M223.666 162.701C223.386 162.701 223.153 162.48 223.153 162.2C223.142 161.921 223.375 161.677 223.654 161.677L281.632 160.385H281.644C281.923 160.385 282.156 160.606 282.156 160.885C282.168 161.164 281.935 161.409 281.655 161.409L223.666 162.701C223.666 162.701 223.677 162.701 223.666 162.701Z" fill="white"/>
<path d="M258.537 178.531C243.477 178.531 226.123 177.891 222.758 175.772C216.515 171.849 218.798 158.231 223.037 150.944C227.3 143.623 252.399 139.072 253.459 138.886C253.517 138.874 253.563 138.874 253.622 138.874C254.192 138.897 267.679 139.572 282.052 149.28C289.086 154.029 289.89 160.175 289.331 164.505C288.481 171.058 283.985 177.018 281.889 177.739C280.759 178.135 270.347 178.531 258.537 178.531ZM253.633 140.352C252.026 140.643 228.115 145.148 224.295 151.689C220.382 158.406 218.297 171.244 223.526 174.538C229.058 178.019 279 177.204 281.388 176.366C282.622 175.935 287.013 170.825 287.863 164.319C288.609 158.627 286.373 153.982 281.225 150.502C267.773 141.411 254.751 140.422 253.633 140.352Z" fill="black"/>
<path d="M252.364 140.76C252.305 140.76 252.247 140.76 252.177 140.76C250.85 140.678 249.475 139.782 248.078 138.094C244.77 134.102 245.69 130.133 245.725 129.97C245.795 129.69 246.016 129.481 246.284 129.423C246.564 129.365 246.843 129.469 247.018 129.702L254.169 139.189C254.39 139.491 254.355 139.899 254.087 140.155C254.029 140.213 253.424 140.76 252.364 140.76ZM247.076 132.193C247.192 133.497 247.682 135.301 249.207 137.152C250.593 138.816 251.607 139.235 252.224 139.293C252.294 139.305 252.364 139.305 252.434 139.293L247.076 132.193Z" fill="black"/>
<path d="M254.716 139.98C254.565 139.98 254.414 139.933 254.285 139.84C254.006 139.642 253.924 139.282 254.041 138.979C253.68 138.897 253.435 138.572 253.47 138.199C253.598 136.872 254.786 125.186 258.432 122.858C259.165 122.392 259.981 122.288 260.796 122.579C261.588 122.858 262.135 123.428 262.38 124.22C263.638 128.317 256.172 138.548 255.322 139.701C255.171 139.875 254.949 139.98 254.716 139.98ZM259.876 123.871C259.655 123.871 259.433 123.94 259.212 124.08C256.801 125.628 255.427 133.776 254.996 137.605C257.977 133.357 261.669 126.955 260.959 124.639C260.854 124.29 260.645 124.08 260.295 123.952C260.155 123.894 260.016 123.871 259.876 123.871Z" fill="black"/>
<path d="M260.679 149.07C260.481 149.07 260.283 148.989 260.144 148.838L253.668 141.761C253.389 141.458 253.412 141.004 253.715 140.725C254.017 140.445 254.472 140.469 254.751 140.771L261.227 147.848C261.506 148.151 261.483 148.605 261.18 148.884C261.029 149.012 260.854 149.07 260.679 149.07Z" fill="black"/>
<path d="M244.758 158.522C244.7 158.522 244.642 158.51 244.584 158.499C244.188 158.406 243.955 158.01 244.048 157.614C246.133 149.152 251.56 141.994 251.793 141.691C252.037 141.365 252.503 141.307 252.818 141.551C253.144 141.796 253.202 142.261 252.957 142.576C252.899 142.645 247.484 149.804 245.469 157.952C245.387 158.289 245.084 158.522 244.758 158.522Z" fill="black"/>
<path d="M261.285 178.601C260.959 178.601 260.668 178.391 260.575 178.065C260.47 177.669 260.703 177.274 261.087 177.169C261.39 177.087 268.565 174.969 266.422 165.331C266.328 164.936 266.585 164.54 266.981 164.458C267.377 164.365 267.773 164.621 267.854 165.017C270.312 176.052 261.565 178.566 261.472 178.589C261.414 178.589 261.355 178.601 261.285 178.601Z" fill="black"/>
<path d="M251.094 177.402C251.036 177.402 250.978 177.39 250.919 177.378C250.523 177.285 250.279 176.89 250.384 176.494C250.407 176.412 252.259 168.59 251.641 159.383C251.618 158.976 251.921 158.627 252.329 158.603C252.725 158.569 253.086 158.883 253.109 159.29C253.738 168.73 251.898 176.517 251.816 176.843C251.735 177.181 251.432 177.402 251.094 177.402Z" fill="black"/>
<path d="M239.506 178.17C239.354 178.17 239.203 178.123 239.075 178.03C238.702 177.763 229.885 171.349 230.957 162.095C231.004 161.688 231.365 161.409 231.772 161.455C232.18 161.502 232.459 161.863 232.413 162.27C231.434 170.674 239.844 176.785 239.925 176.843C240.251 177.076 240.333 177.541 240.1 177.867C239.96 178.065 239.739 178.17 239.506 178.17Z" fill="black"/>
<path d="M256.848 155.67C256.486 155.67 256.172 155.403 256.125 155.03C255.427 149.618 252.923 142.971 252.899 142.913C252.76 142.529 252.946 142.11 253.33 141.97C253.703 141.831 254.134 142.017 254.274 142.401C254.378 142.68 256.859 149.268 257.581 154.856C257.628 155.263 257.348 155.624 256.952 155.682C256.917 155.67 256.882 155.67 256.848 155.67Z" fill="black"/>
<path d="M272.583 152.958C272.35 152.958 272.129 152.853 271.989 152.656C266.014 144.263 256.778 142.017 256.697 141.993C256.301 141.9 256.056 141.505 256.149 141.109C256.242 140.713 256.627 140.469 257.034 140.562C257.43 140.655 266.888 142.948 273.189 151.806C273.421 152.132 273.352 152.597 273.014 152.83C272.874 152.912 272.723 152.958 272.583 152.958Z" fill="black"/>
<path d="M244.549 153.144C238.096 149.245 229.676 147.872 222.757 150.851V150.793L184.183 144.345C184.183 144.345 198.439 93.0949 182.774 87.2867C167.109 81.4784 145.609 155.554 166.212 165.227C186.815 174.899 223.095 166.949 223.095 166.949C223.095 166.949 229.629 167.554 231.993 168.672C237.817 171.442 238.888 172.862 239.68 171.465C240.717 169.661 230.002 162.328 230.025 162.328C230.503 162.13 237.642 167.252 240.088 169.103C240.717 169.58 242.93 171.07 243.617 169.941C244.118 169.103 243.244 167.974 242.86 167.287C241.369 164.61 233.542 158.115 233.542 158.115C233.542 158.115 236.198 159.57 237.106 160.187C239.354 161.723 241.334 163.271 243.361 165.064C243.896 165.529 247.134 168.451 247.786 166.938C248.858 164.412 242.406 158.522 240.647 156.962C239.762 156.182 237.223 154.367 236.407 153.854C237.817 154.53 244.945 157.626 247.425 158.673C247.915 158.883 250.43 159.244 250.279 158.219C249.964 156.113 246.144 154.111 244.549 153.144Z" fill="white"/>
<path d="M238.97 172.769C238.201 172.769 237.211 172.234 235.872 171.512C234.87 170.965 233.496 170.22 231.667 169.359C229.618 168.381 223.992 167.799 223.13 167.717C220.486 168.288 186.105 175.411 165.886 165.913C151.747 159.267 156.569 125.465 165.315 104.642C170.987 91.1279 177.44 84.5514 183.019 86.6233C198.229 92.2686 186.909 137.012 185.092 143.774L222.746 150.072C229.408 147.336 237.864 148.267 244.922 152.528L245.504 152.877C247.565 154.087 250.675 155.903 250.978 158.15C251.036 158.592 250.873 159.011 250.512 159.279C249.569 160 247.461 159.523 247.1 159.372C245.947 158.883 243.897 157.998 241.858 157.114C245.609 160.524 249.476 164.808 248.439 167.252C248.253 167.694 247.903 167.985 247.461 168.09C246.832 168.23 245.679 168.137 242.895 165.669C242.418 165.25 241.94 164.831 241.474 164.447C242.371 165.401 243.116 166.286 243.489 166.961C243.547 167.066 243.617 167.182 243.687 167.298C244.165 168.078 244.887 169.266 244.234 170.348C244.001 170.744 243.629 171 243.175 171.081C242.161 171.279 240.903 170.592 240.111 170.057C240.752 171.093 240.484 171.559 240.309 171.861C239.937 172.501 239.506 172.769 238.97 172.769ZM223.095 166.239C223.119 166.239 223.142 166.239 223.165 166.239C223.433 166.263 229.851 166.868 232.308 168.032C234.16 168.916 235.558 169.673 236.582 170.22C237.654 170.802 238.656 171.372 238.935 171.303C238.935 171.303 238.982 171.268 239.052 171.128C239.028 171.128 238.889 169.51 229.839 163.108C229.524 162.887 229.245 162.689 229.303 162.247C229.338 161.991 229.513 161.758 229.757 161.665C229.897 161.607 230.142 161.653 230.468 161.781L230.479 161.77L230.538 161.804C232.413 162.549 236.839 165.739 240.542 168.532C241.462 169.231 242.511 169.708 242.918 169.626C243.198 169.254 242.732 168.497 242.452 168.043C242.371 167.904 242.289 167.776 242.22 167.659C241.055 165.564 235.22 160.478 233.077 158.697C232.786 158.452 232.727 158.033 232.937 157.719C233.147 157.405 233.566 157.312 233.892 157.486C233.997 157.544 236.594 158.964 237.514 159.593C239.739 161.118 241.754 162.689 243.838 164.528C246.412 166.798 247.134 166.658 247.146 166.647C247.659 165.366 244.863 161.688 240.146 157.533C239.273 156.753 236.769 154.972 236 154.495C235.674 154.285 235.558 153.855 235.744 153.517C235.93 153.179 236.35 153.04 236.711 153.214C238.085 153.878 245.213 156.962 247.694 158.022C247.996 158.15 249.045 158.266 249.499 158.161C249.08 156.66 246.191 154.972 244.77 154.134L244.165 153.773C237.409 149.688 229.315 148.826 223.037 151.527C222.816 151.62 222.571 151.596 222.373 151.48L184.055 145.078C183.845 145.043 183.671 144.927 183.554 144.752C183.438 144.578 183.415 144.356 183.461 144.159C183.601 143.658 197.356 93.4908 182.494 87.9852C177.894 86.2741 171.826 92.8739 166.655 105.2C157.955 125.931 153.68 158.557 166.492 164.575C186.629 174.038 222.548 166.332 222.909 166.251C222.991 166.239 223.037 166.239 223.095 166.239Z" fill="black"/>
<path d="M156.417 124.336L189.238 127.502C189.238 127.502 198.217 89.6728 183.473 86.2624C162.147 81.3388 156.417 124.336 156.417 124.336Z" fill="#7ABC2F"/>
<path d="M220.952 92.2452C220.568 92.2452 220.242 91.9425 220.218 91.5584L219.869 85.5872C219.846 85.1798 220.16 84.8306 220.556 84.8074C220.975 84.7841 221.302 85.0984 221.336 85.4941L221.686 91.4653C221.709 91.8727 221.395 92.2219 220.999 92.2452C220.987 92.2452 220.964 92.2452 220.952 92.2452Z" fill="black"/>
<path d="M222.303 150.689C221.907 150.689 221.581 150.363 221.569 149.967L220.754 93.095C220.743 92.6876 221.069 92.3617 221.476 92.3501C221.884 92.3151 222.21 92.6643 222.222 93.0717L223.037 149.944C223.037 150.351 222.711 150.689 222.303 150.689Z" fill="black"/>
<path d="M222.304 172.769C221.896 172.769 221.57 172.443 221.57 172.036V168.008C221.57 167.601 221.896 167.275 222.304 167.275C222.711 167.275 223.037 167.601 223.037 168.008V172.036C223.037 172.443 222.711 172.769 222.304 172.769Z" fill="black"/>
<path d="M190.088 128.736C190.042 128.736 189.995 128.736 189.948 128.724C189.552 128.643 189.296 128.259 189.366 127.863C190.298 123.137 192.802 105.468 191.812 98.9963C190.973 93.5722 187.712 89.0792 183.31 87.2751C180.316 86.0529 177.242 86.3555 174.877 88.1131C174.551 88.3576 174.097 88.2877 173.852 87.9618C173.608 87.6359 173.678 87.182 174.004 86.9375C176.787 84.8657 180.386 84.4815 183.869 85.9132C188.749 87.9036 192.348 92.8389 193.268 98.7635C194.351 105.794 191.614 124.092 190.81 128.142C190.74 128.491 190.438 128.736 190.088 128.736Z" fill="black"/>
<path d="M274.586 159.116C279.454 156.171 285.813 155.135 291.043 157.381V157.347L320.172 152.481C320.172 152.481 309.41 113.779 321.243 109.391C333.076 105.002 349.312 160.943 333.752 168.253C318.192 175.563 290.787 169.557 290.787 169.557C290.787 169.557 285.848 170.011 284.066 170.86C279.664 172.955 278.86 174.026 278.255 172.979C277.474 171.617 285.557 166.076 285.546 166.076C285.185 165.925 279.792 169.801 277.952 171.186C277.486 171.547 275.797 172.676 275.285 171.815C274.9 171.186 275.564 170.337 275.855 169.813C276.985 167.799 282.89 162.887 282.89 162.887C282.89 162.887 280.875 163.981 280.2 164.447C278.499 165.611 277.008 166.775 275.471 168.137C275.075 168.486 272.618 170.697 272.128 169.557C271.313 167.648 276.193 163.201 277.521 162.026C278.196 161.432 280.106 160.07 280.724 159.674C279.664 160.187 274.271 162.515 272.408 163.318C272.035 163.469 270.148 163.748 270.253 162.98C270.486 161.362 273.375 159.849 274.586 159.116Z" fill="white"/>
<path d="M278.779 174.108C278.313 174.108 277.94 173.887 277.614 173.328C277.498 173.118 277.335 172.839 277.498 172.339C276.915 172.664 276.193 172.944 275.576 172.816C275.18 172.734 274.866 172.525 274.656 172.176C274.109 171.268 274.703 170.278 275.064 169.685C275.122 169.592 275.168 169.51 275.215 169.44C275.262 169.347 275.331 169.254 275.39 169.149C273.619 170.604 272.827 170.674 272.327 170.558C271.931 170.465 271.628 170.208 271.465 169.824C270.836 168.346 272.257 165.948 275.704 162.689C274.505 163.213 273.398 163.69 272.711 163.981C272.408 164.109 270.743 164.482 269.962 163.888C269.636 163.644 269.485 163.271 269.543 162.864C269.776 161.223 271.756 159.931 273.771 158.755L274.213 158.499C279.571 155.263 286 154.553 291.066 156.613L319.252 151.899C317.738 146.172 309.48 112.976 320.987 108.716C325.285 107.121 330.258 112.114 334.579 122.427C341.206 138.222 344.84 163.865 334.055 168.928C318.797 176.098 292.942 170.779 290.74 170.302C289.319 170.441 285.709 170.895 284.381 171.524C283.007 172.176 281.97 172.734 281.213 173.142C280.223 173.677 279.431 174.108 278.779 174.108ZM278.895 172.606C278.907 172.618 278.907 172.63 278.907 172.641C278.907 172.63 278.907 172.618 278.895 172.606ZM285.627 165.343C285.72 165.343 285.779 165.366 285.814 165.378C286.07 165.483 286.245 165.716 286.268 165.983C286.314 166.414 286.047 166.6 285.779 166.786C280.375 170.604 279.233 172.152 278.989 172.606C279.291 172.502 279.885 172.187 280.503 171.85C281.271 171.431 282.331 170.86 283.74 170.197C285.616 169.301 290.496 168.847 290.705 168.823C290.775 168.812 290.857 168.823 290.927 168.835C291.194 168.893 318.273 174.701 333.414 167.59C343 163.085 339.75 138.572 333.205 122.986C329.338 113.779 324.842 108.832 321.476 110.089C312.287 113.5 317.912 141.703 320.859 152.295C320.917 152.493 320.882 152.714 320.766 152.889C320.649 153.063 320.475 153.18 320.265 153.214L291.311 158.057C291.125 158.138 290.915 158.15 290.729 158.08C286.047 156.066 279.99 156.706 274.947 159.768L274.493 160.035C273.503 160.617 271.558 161.758 271.08 162.771C271.418 162.794 271.942 162.724 272.129 162.654C274.05 161.839 279.361 159.535 280.41 159.034C280.759 158.871 281.178 158.999 281.376 159.337C281.563 159.674 281.458 160.105 281.12 160.315C280.538 160.676 278.639 162.037 278.01 162.584C274.388 165.785 272.688 168.218 272.769 169.126C273.025 169.045 273.678 168.754 274.947 167.624C276.566 166.204 278.08 165.006 279.769 163.853C280.468 163.376 282.436 162.293 282.518 162.247C282.855 162.072 283.263 162.165 283.473 162.48C283.682 162.794 283.624 163.213 283.333 163.457C281.714 164.796 277.335 168.625 276.473 170.185C276.426 170.278 276.356 170.371 276.298 170.488C276.17 170.686 275.797 171.303 275.891 171.454C275.995 171.454 276.741 171.186 277.486 170.616C283.694 165.925 285.161 165.343 285.627 165.343Z" fill="black"/>
<path d="M318.692 161.863L312.124 289.912L338.888 293.159L343.058 231.771L354.821 294.195H379.838C379.838 294.195 365.839 170.93 365.338 165.774C364.826 160.617 362.158 154.46 362.158 154.46L318.692 161.863Z" fill="black"/>
<path d="M314.081 141.261C314.081 141.261 307.908 116.27 318.914 108.739C324.295 105.061 330.98 104.607 330.98 104.607C330.98 104.607 331.889 101.872 341.323 102.605C346.412 103.001 355.322 103.711 362.252 108.099C374.749 116.014 375.856 136.151 375.856 136.151L356.836 146.161L353.773 139.212L355.963 155.764L318.693 161.863L316.154 141.202L314.081 141.261Z" fill="#7ABC2F"/>
<path d="M329.269 95.5278L328.174 102.186L326.159 102.5C326.159 102.5 325.751 113.104 334.137 113.57C344.84 114.175 349.767 104.037 349.767 104.037L343.291 102.779L344.2 97.0061L329.269 95.5278Z" fill="white"/>
<path d="M335.022 114.326C334.707 114.326 334.393 114.314 334.078 114.303C325.087 113.802 325.413 102.581 325.413 102.465C325.425 102.116 325.693 101.825 326.03 101.767L327.521 101.534L328.523 95.4113C328.581 95.0272 328.942 94.7595 329.315 94.806L344.234 96.2727C344.432 96.2959 344.619 96.3891 344.747 96.552C344.875 96.715 344.922 96.9128 344.887 97.1107L344.095 102.186L349.872 103.303C350.093 103.35 350.291 103.489 350.384 103.699C350.477 103.908 350.489 104.141 350.384 104.351C350.361 104.444 345.446 114.326 335.022 114.326ZM326.881 103.117C326.939 105.282 327.614 112.464 334.16 112.824C342.441 113.278 347.169 106.9 348.614 104.549L343.14 103.489C342.755 103.419 342.487 103.047 342.557 102.651L343.349 97.6462L329.885 96.3192L328.907 102.29C328.861 102.605 328.604 102.849 328.29 102.896L326.881 103.117Z" fill="black"/>
<path d="M323.55 92.1755C322.431 85.7038 326.543 79.5929 332.727 78.5337C338.912 77.4745 344.817 81.8627 345.935 88.3344C347.053 94.8061 342.942 100.917 336.757 101.976C330.584 103.035 324.668 98.6472 323.55 92.1755Z" fill="white"/>
<path d="M334.893 102.872C332.378 102.872 329.92 102.058 327.824 100.498C325.18 98.5308 323.41 95.6325 322.839 92.3151C321.663 85.4593 326.042 78.9527 332.611 77.8236C335.79 77.2765 339.016 78.0564 341.672 80.0352C344.316 82.0023 346.086 84.9006 346.657 88.2179C347.833 95.0738 343.454 101.58 336.885 102.709C336.221 102.814 335.557 102.872 334.893 102.872ZM334.591 79.1156C334.02 79.1156 333.438 79.1622 332.855 79.267C327.09 80.2563 323.235 85.9947 324.283 92.0591C324.784 95.0039 326.356 97.5763 328.697 99.3223C331.027 101.057 333.845 101.743 336.64 101.266C342.406 100.277 346.261 94.5383 345.213 88.474C344.712 85.5291 343.139 82.9568 340.798 81.2108C338.947 79.8257 336.792 79.1156 334.591 79.1156Z" fill="black"/>
<path d="M335.464 78.4404C335.464 78.4404 335.161 82.9683 337.7 85.3661C340.239 87.7639 345.294 89.9172 345.294 89.9172L345.678 94.8292C345.678 94.8292 344.91 95.2249 344.397 96.2725C343.885 97.3201 343.058 98.3211 343.058 98.3211V102.279C343.058 106.422 346.808 109.542 350.884 108.797L360.947 106.946C360.947 106.946 363.44 102.162 361.588 99.0079C359.643 95.7255 356.685 96.6101 356.685 96.6101C356.685 96.6101 357.43 92.7806 355.124 89.1839C352.818 85.5756 350.186 85.9946 350.186 85.9946C350.186 85.9946 350.081 79.6626 346.517 76.8341C341.346 72.7369 339.098 74.0755 339.098 74.0755L335.464 78.4404Z" fill="black"/>
<path d="M344.234 90.9185C345.643 89.2307 347.763 88.6371 348.962 89.5799C350.162 90.5227 349.987 92.6528 348.566 94.3405C347.157 96.0283 345.037 96.6219 343.838 95.6791C342.638 94.7363 342.813 92.6062 344.234 90.9185Z" fill="white"/>
<path d="M345.236 96.8663C344.548 96.8663 343.908 96.6684 343.384 96.2493C342.778 95.7721 342.417 95.0737 342.336 94.2356C342.208 93.0135 342.708 91.5934 343.675 90.4527C345.364 88.439 347.891 87.8105 349.417 89.0094C350.022 89.4866 350.383 90.185 350.465 91.0231C350.593 92.2452 350.092 93.6653 349.126 94.806C348.019 96.1446 346.54 96.8663 345.236 96.8663ZM347.565 89.8707C346.691 89.8707 345.597 90.4294 344.793 91.3955C344.083 92.2452 343.71 93.2579 343.791 94.0843C343.826 94.387 343.931 94.8176 344.292 95.097C345.166 95.7838 346.866 95.225 347.996 93.8632C348.706 93.0135 349.079 92.0008 348.997 91.1627C348.963 90.8601 348.858 90.4294 348.497 90.1501C348.252 89.9638 347.926 89.8707 347.565 89.8707Z" fill="black"/>
<path d="M343.99 94.317C343.85 94.317 343.71 94.2588 343.605 94.1424C343.419 93.9329 343.442 93.607 343.652 93.4208L347.391 90.1034C347.6 89.9172 347.926 89.9288 348.113 90.15C348.299 90.3595 348.276 90.6854 348.066 90.8717L344.327 94.189C344.234 94.2705 344.106 94.317 343.99 94.317Z" fill="black"/>
<path d="M345.48 93.0368C345.247 93.0368 345.026 92.8739 344.979 92.6294C344.921 92.3501 345.096 92.0824 345.375 92.0242L348.287 91.4189C348.555 91.3607 348.835 91.5353 348.893 91.8146C348.951 92.094 348.776 92.3617 348.497 92.4199L345.585 93.0252C345.55 93.0252 345.515 93.0368 345.48 93.0368Z" fill="black"/>
<path d="M331.26 94.6198C330.421 94.6198 329.606 93.9447 329.163 93.2696C328.663 92.5014 328.558 91.6866 328.884 91.0581C329.024 90.7904 329.222 90.6158 329.466 90.5576C329.874 90.4644 330.2 90.6972 330.444 90.8602C330.491 90.8951 330.561 90.9417 330.619 90.9766C331.353 90.0454 331.26 88.4624 331.19 87.2868C331.178 87.0074 331.388 86.763 331.667 86.7397C331.947 86.7281 332.191 86.9376 332.215 87.2169C332.296 88.5206 332.413 90.4994 331.33 91.7332C330.794 92.3384 330.118 91.8729 329.874 91.6983C329.85 91.675 329.816 91.6517 329.781 91.6284C329.699 91.9311 329.792 92.3268 330.037 92.6993C330.386 93.2231 330.91 93.5955 331.306 93.5839C331.597 93.5723 331.83 93.7818 331.854 94.0611C331.865 94.3405 331.656 94.5849 331.376 94.6082C331.318 94.6198 331.283 94.6198 331.26 94.6198Z" fill="black"/>
<path d="M336.21 89.5681C336.279 88.9629 336.582 88.509 336.873 88.5439C337.176 88.5788 337.351 89.0909 337.281 89.6962C337.211 90.3014 336.908 90.7554 336.617 90.7205C336.326 90.6855 336.14 90.1618 336.21 89.5681Z" fill="black"/>
<path d="M336.652 91.2326C336.617 91.2326 336.594 91.2326 336.559 91.2326C335.942 91.1628 335.581 90.4295 335.697 89.5099C335.802 88.5788 336.338 87.9735 336.943 88.0317C337.549 88.1015 337.922 88.8348 337.805 89.7544C337.7 90.6274 337.223 91.2326 336.652 91.2326ZM336.78 89.3353C336.757 89.4168 336.734 89.5099 336.722 89.6263C336.71 89.7427 336.71 89.8359 336.71 89.9173C336.734 89.8359 336.757 89.7427 336.769 89.6263C336.792 89.5216 336.792 89.4168 336.78 89.3353Z" fill="black"/>
<path d="M327.067 88.6368C327.137 88.0315 327.44 87.5776 327.731 87.6125C328.033 87.6474 328.208 88.1596 328.138 88.7648C328.068 89.3701 327.766 89.8241 327.474 89.7892C327.183 89.7542 326.997 89.2421 327.067 88.6368Z" fill="black"/>
<path d="M327.509 90.313C327.474 90.313 327.451 90.313 327.416 90.313C326.799 90.2431 326.438 89.5098 326.554 88.5902C326.624 88.0315 326.846 87.5543 327.16 87.2982C327.358 87.1469 327.579 87.0771 327.801 87.1003C328.15 87.1353 328.429 87.3913 328.569 87.7987C328.674 88.0897 328.709 88.4506 328.662 88.823C328.558 89.7077 328.08 90.313 327.509 90.313ZM327.638 88.4156C327.614 88.4971 327.591 88.5902 327.579 88.7066C327.568 88.8114 327.568 88.9162 327.568 88.9976C327.591 88.9162 327.614 88.823 327.626 88.7066C327.649 88.5902 327.649 88.4971 327.638 88.4156Z" fill="black"/>
<path d="M332.751 99.0779C332.658 99.0779 332.564 99.0779 332.471 99.0662C332.192 99.0313 331.982 98.7869 332.017 98.5075C332.052 98.2282 332.308 98.0187 332.576 98.0536C332.658 98.0652 334.684 98.2165 335.639 95.9351C335.744 95.6791 336.047 95.551 336.314 95.6558C336.571 95.7605 336.699 96.0632 336.594 96.3309C335.674 98.5192 333.811 99.0779 332.751 99.0779Z" fill="black"/>
<path d="M326.379 85.5989C326.379 85.4011 327.101 85.2497 327.975 85.2614C328.86 85.273 329.571 85.4476 329.571 85.6455C329.571 85.8434 328.849 85.9947 327.975 85.983C327.09 85.9598 326.379 85.7968 326.379 85.5989Z" fill="black"/>
<path d="M328.092 86.4952C328.045 86.4952 328.01 86.4952 327.964 86.4952C327.404 86.4835 326.415 86.4137 326.042 86.0412C325.949 85.9481 325.855 85.7386 325.855 85.5989C325.855 85.4593 325.949 85.2498 326.053 85.1566C326.426 84.7842 327.428 84.7493 327.987 84.7493C329.384 84.7725 330.095 85.0752 330.095 85.6455C330.083 86.2042 329.408 86.4952 328.092 86.4952Z" fill="black"/>
<path d="M336.512 86.4137C336.559 86.2275 337.292 86.2391 338.143 86.4486C339.005 86.6581 339.657 86.984 339.61 87.1703C339.564 87.3565 338.83 87.3449 337.98 87.1354C337.118 86.9375 336.466 86.6116 336.512 86.4137Z" fill="black"/>
<path d="M339.133 87.8221C338.69 87.8221 338.19 87.7173 337.863 87.6359C336.501 87.2983 335.884 86.8444 336.012 86.2856C336.151 85.7269 336.908 85.6105 338.271 85.9365C338.818 86.0645 339.762 86.3555 340.041 86.8094C340.111 86.9258 340.158 87.1586 340.123 87.2867C340.088 87.438 339.983 87.5777 339.832 87.6708C339.657 87.7872 339.401 87.8221 339.133 87.8221Z" fill="black"/>
<path d="M338.329 93.3745C338.096 92.8158 338.679 92.0359 339.634 91.6285C340.589 91.2211 341.555 91.3491 341.788 91.9078C342.021 92.4666 341.439 93.2464 340.484 93.6538C339.529 94.0496 338.562 93.9332 338.329 93.3745Z" fill="#F46F60"/>
<path d="M323.305 86.0996C323.305 86.0996 325.052 86.2975 328.511 84.7145C331.97 83.1198 335.953 78.3242 335.953 78.3242L339.063 74.4016C339.063 74.4016 339.61 73.4355 337.164 73.6217C334.719 73.808 329.373 75.519 326.775 78.6385C324.178 81.758 323.305 86.0996 323.305 86.0996Z" fill="black"/>
<path d="M323.305 86.0994C323.305 86.0994 323.235 87.2983 322.152 89.7194C321.441 91.2907 320.044 95.4461 320.032 98.3794C320.02 101.65 320.498 104.548 321.01 106.69C321.511 108.774 323.677 109.996 325.716 109.344C328.092 108.587 329.617 106.259 329.361 103.769L329.012 100.405C329.012 100.405 324.667 96.4122 323.957 93.7817C323.456 91.9542 323.468 87.7406 323.841 86.2158C323.992 85.5174 323.305 86.0994 323.305 86.0994Z" fill="black"/>
<path d="M337.63 70.1181C337.141 67.2547 339.051 64.5427 341.905 64.0538C344.758 63.5649 347.472 65.4855 347.961 68.3489C348.451 71.2123 346.54 73.9243 343.687 74.4132C340.833 74.8904 338.119 72.9699 337.63 70.1181Z" fill="black"/>
<path d="M345.62 89.5681C342.149 89.5681 335.883 88.3576 334.975 83.6434C334.754 82.4911 334.823 81.4668 334.882 80.4658C334.917 79.9187 334.952 79.36 334.94 78.7896C334.928 78.3822 335.254 78.0447 335.65 78.0447C335.662 78.0447 335.662 78.0447 335.662 78.0447C336.058 78.0447 336.384 78.359 336.396 78.7663C336.407 79.3949 336.372 79.9885 336.338 80.5705C336.279 81.5133 336.221 82.398 336.407 83.3757C337.106 86.9957 342.452 88.183 345.911 88.1131C346.319 88.1248 346.657 88.4274 346.657 88.8232C346.668 89.2305 346.342 89.5681 345.946 89.5681C345.842 89.5681 345.737 89.5681 345.62 89.5681Z" fill="black"/>
<path d="M325.168 86.5882C324.807 86.5882 324.283 86.4951 323.759 86.3904C323.712 86.3904 323.666 86.3787 323.607 86.3671C323.223 86.2623 322.897 85.8549 322.99 85.4708C323.013 85.3544 323.211 84.7841 323.98 84.947C324.865 85.1216 325.122 85.1333 325.191 85.1333C326.286 85.0634 327.451 84.7841 328.569 84.3301C331.469 83.1429 333.146 80.8382 335.033 77.9515C335.254 77.614 335.709 77.5209 336.046 77.742C336.384 77.9632 336.477 78.4171 336.256 78.7547C334.229 81.8625 332.424 84.3418 329.128 85.692C327.847 86.2158 326.554 86.5184 325.296 86.5999C325.25 86.5882 325.203 86.5882 325.168 86.5882Z" fill="black"/>
<path d="M320.859 105.119C320.731 105.119 320.603 105.072 320.51 104.979C320.405 104.874 317.901 102.407 318.506 95.2832C318.786 92.0473 320.684 89.3236 322.525 86.6814C322.944 86.0762 323.352 85.4942 323.748 84.9005C324.435 83.8413 324.936 82.7356 325.413 81.6763C326.531 79.1854 327.591 76.8342 330.829 75.6586C331.097 75.5655 331.388 75.7051 331.493 75.9612C331.586 76.2289 331.446 76.5199 331.19 76.613C328.36 77.6373 327.428 79.6976 326.357 82.0837C325.856 83.1895 325.343 84.3302 324.61 85.4593C324.214 86.0529 323.794 86.6581 323.375 87.2634C321.616 89.7892 319.788 92.4082 319.543 95.3647C318.984 102.011 321.209 104.211 321.232 104.234C321.442 104.432 321.442 104.758 321.255 104.956C321.127 105.061 320.987 105.119 320.859 105.119Z" fill="black"/>
<path d="M351.77 88.7998C351.502 88.7998 351.269 88.5903 351.257 88.3109C351.106 84.9703 350.093 81.7694 348.474 79.5229C346.575 76.8923 343.897 75.577 340.74 75.7283C340.426 75.7516 340.216 75.5188 340.205 75.2395C340.193 74.9601 340.414 74.7157 340.694 74.704C344.199 74.5295 347.193 76.0077 349.301 78.9293C351.059 81.3736 352.119 84.6909 352.282 88.2643C352.294 88.5437 352.073 88.7881 351.793 88.7998C351.781 88.7998 351.77 88.7998 351.77 88.7998Z" fill="black"/>
<path d="M358.385 99.0428C358.117 99.0428 357.896 98.8333 357.873 98.5656C357.418 92.7457 357.139 91.2326 352.678 87.4264C352.469 87.2401 352.434 86.9142 352.62 86.7047C352.806 86.4952 353.132 86.4603 353.342 86.6465C358.082 90.6855 358.42 92.5711 358.886 98.4841C358.909 98.7635 358.7 99.0195 358.42 99.0312C358.42 99.0428 358.408 99.0428 358.385 99.0428Z" fill="black"/>
<path d="M343.966 74.1106C343.023 74.1106 342.08 73.8894 341.229 73.4355C339.354 72.4228 338.364 70.5371 338.516 68.2441C338.516 68.2208 338.749 65.5437 340.717 63.9723C341.835 63.076 343.256 62.7501 344.933 63.0178C347.262 63.3787 348.974 64.9035 349.522 67.0685C350.081 69.2568 349.242 71.5847 347.39 72.9815C346.412 73.7264 345.189 74.1106 343.966 74.1106ZM343.85 63.949C342.872 63.949 342.033 64.2284 341.357 64.7638C339.96 65.8696 339.564 67.8367 339.529 68.3023C339.401 70.1647 340.193 71.7011 341.707 72.5159C343.314 73.3773 345.352 73.2376 346.773 72.1551C348.311 70.9911 348.986 69.1287 348.532 67.3129C348.089 65.5553 346.68 64.3215 344.77 64.0188C344.455 63.9723 344.153 63.949 343.85 63.949Z" fill="black"/>
<path d="M320.801 149.734C320.836 148.523 321.837 147.569 323.049 147.604C324.26 147.639 325.215 148.64 325.18 149.85C325.145 151.061 324.143 152.015 322.932 151.98C321.721 151.946 320.766 150.945 320.801 149.734Z" fill="black"/>
<path d="M324.609 127.002C324.644 125.791 325.646 124.837 326.857 124.872C328.068 124.906 329.023 125.907 328.989 127.118C328.954 128.328 327.952 129.283 326.741 129.248C325.541 129.225 324.586 128.212 324.609 127.002Z" fill="black"/>
<path d="M337.665 119.459C337.7 118.248 338.702 117.294 339.913 117.329C341.124 117.364 342.079 118.365 342.044 119.575C342.009 120.786 341.008 121.74 339.796 121.705C338.585 121.67 337.63 120.669 337.665 119.459Z" fill="black"/>
<path d="M330.502 136.977C330.537 135.766 331.539 134.812 332.75 134.847C333.961 134.882 334.916 135.883 334.882 137.093C334.847 138.304 333.845 139.258 332.634 139.223C331.422 139.188 330.467 138.176 330.502 136.977Z" fill="black"/>
<path d="M345.119 133.31C345.154 132.1 346.156 131.145 347.367 131.18C348.578 131.215 349.533 132.216 349.498 133.427C349.463 134.637 348.462 135.592 347.251 135.557C346.039 135.522 345.084 134.521 345.119 133.31Z" fill="black"/>
<path d="M338.877 151.725C338.912 150.514 339.913 149.56 341.125 149.594C342.336 149.629 343.291 150.63 343.256 151.841C343.221 153.051 342.22 154.006 341.008 153.971C339.797 153.936 338.842 152.935 338.877 151.725Z" fill="black"/>
<path d="M353.773 144.217C353.808 143.006 354.81 142.052 356.021 142.087C357.232 142.122 358.187 143.123 358.152 144.333C358.117 145.544 357.116 146.498 355.904 146.463C354.693 146.44 353.738 145.427 353.773 144.217Z" fill="black"/>
<path d="M353.994 120.693C354.029 119.482 355.031 118.528 356.242 118.563C357.453 118.598 358.408 119.599 358.373 120.809C358.338 122.02 357.337 122.974 356.126 122.939C354.914 122.916 353.959 121.903 353.994 120.693Z" fill="black"/>
<path d="M354.646 108.681C354.681 107.47 355.683 106.516 356.894 106.55C358.106 106.585 359.061 107.586 359.026 108.797C358.991 110.008 357.989 110.962 356.778 110.927C355.567 110.892 354.611 109.891 354.646 108.681Z" fill="black"/>
<path d="M360.936 130.156C360.971 128.945 361.973 127.991 363.184 128.026C364.395 128.061 365.35 129.062 365.315 130.272C365.28 131.483 364.279 132.437 363.067 132.402C361.856 132.367 360.901 131.366 360.936 130.156Z" fill="black"/>
<path d="M312.112 126.664C312.147 125.453 313.148 124.499 314.36 124.534C315.571 124.569 316.526 125.57 316.491 126.78C316.456 127.991 315.454 128.945 314.243 128.91C313.043 128.887 312.088 127.874 312.112 126.664Z" fill="black"/>
<path d="M331.481 159.337L324.912 143.553L331.481 159.337Z" fill="white"/>
<path d="M331.481 160.07C331.19 160.07 330.922 159.896 330.805 159.616L324.237 143.833C324.085 143.46 324.26 143.03 324.633 142.878C325.005 142.727 325.436 142.902 325.588 143.274L332.156 159.046C332.308 159.419 332.133 159.849 331.76 160.001C331.667 160.047 331.574 160.07 331.481 160.07Z" fill="black"/>
<path d="M348.765 156.392L349.324 139.479L348.765 156.392Z" fill="white"/>
<path d="M348.765 157.125C348.753 157.125 348.753 157.125 348.742 157.125C348.334 157.114 348.019 156.776 348.031 156.369L348.59 139.456C348.602 139.049 348.951 138.746 349.347 138.746C349.755 138.758 350.069 139.095 350.058 139.503L349.499 156.415C349.487 156.811 349.161 157.125 348.765 157.125Z" fill="black"/>
<path d="M320.801 168.707C320.556 168.707 320.346 168.532 320.3 168.288C320.241 168.008 320.428 167.741 320.707 167.683L348.113 162.293C348.392 162.235 348.66 162.421 348.718 162.701C348.777 162.98 348.59 163.248 348.311 163.306L320.905 168.695C320.87 168.707 320.835 168.707 320.801 168.707Z" fill="white"/>
<path d="M320.684 177.088C319.997 177.088 319.531 176.936 319.52 176.925C319.252 176.831 319.112 176.529 319.205 176.261C319.298 175.993 319.601 175.854 319.857 175.947C319.962 175.982 322.28 176.715 324.085 173.945C326.065 170.895 326.496 168.73 326.496 168.707C326.555 168.428 326.822 168.241 327.102 168.299C327.381 168.358 327.568 168.625 327.51 168.905C327.498 168.998 327.044 171.279 324.947 174.515C323.55 176.669 321.802 177.088 320.684 177.088Z" fill="white"/>
<path d="M321.977 90.6739C322.082 90.1152 322.886 89.9289 323.759 90.2549C324.633 90.5691 325.262 91.2791 325.157 91.8378C325.052 92.3965 324.248 92.5828 323.375 92.2568C322.501 91.9309 321.872 91.2326 321.977 90.6739Z" fill="#F46F60"/>
<path d="M309.526 160.745C314.395 157.801 320.754 156.765 325.983 159.011V158.976L356.183 153.924C356.183 153.924 347.192 114.664 359.025 110.275C370.858 105.887 384.229 162.573 368.68 169.871C353.12 177.181 325.715 171.175 325.715 171.175C325.715 171.175 320.777 171.629 318.995 172.478C314.593 174.573 313.789 175.644 313.183 174.597C312.403 173.235 320.486 167.694 320.474 167.694C320.113 167.543 314.721 171.419 312.88 172.804C312.415 173.165 310.726 174.294 310.213 173.433C309.829 172.804 310.493 171.954 310.784 171.431C311.914 169.417 317.819 164.505 317.819 164.505C317.819 164.505 315.804 165.599 315.128 166.065C313.428 167.229 311.937 168.393 310.4 169.755C310.004 170.104 307.546 172.315 307.057 171.175C306.242 169.266 311.122 164.819 312.45 163.644C313.125 163.05 315.035 161.688 315.652 161.292C314.593 161.805 309.2 164.133 307.337 164.936C306.964 165.087 305.077 165.366 305.182 164.598C305.427 162.98 308.315 161.479 309.526 160.745Z" fill="white"/>
<path d="M313.719 175.737C313.265 175.737 312.881 175.516 312.555 174.958C312.427 174.748 312.275 174.469 312.438 173.968C311.856 174.294 311.134 174.562 310.516 174.445C310.12 174.364 309.806 174.143 309.596 173.805C309.049 172.897 309.643 171.908 310.004 171.314C310.062 171.221 310.109 171.14 310.155 171.07C310.214 170.977 310.272 170.884 310.342 170.779C308.571 172.234 307.779 172.304 307.279 172.187C306.883 172.094 306.58 171.838 306.405 171.454C305.776 169.976 307.197 167.578 310.645 164.319C309.445 164.843 308.338 165.32 307.651 165.611C307.348 165.739 305.671 166.111 304.891 165.518C304.565 165.273 304.413 164.901 304.472 164.493C304.705 162.852 306.685 161.56 308.7 160.385L309.142 160.128C314.5 156.893 320.929 156.183 325.995 158.243L355.299 153.342C354.064 147.651 347.274 113.86 358.769 109.6C362.683 108.145 366.829 112.103 370.451 120.716C377.311 137.058 380.234 165.273 368.995 170.546C353.738 177.716 327.882 172.397 325.681 171.92C324.26 172.059 320.649 172.513 319.321 173.142C317.947 173.794 316.911 174.352 316.153 174.771C315.164 175.307 314.372 175.737 313.719 175.737ZM313.836 174.236C313.847 174.247 313.847 174.259 313.847 174.271C313.847 174.259 313.836 174.247 313.836 174.236ZM320.568 166.973C320.661 166.973 320.719 166.996 320.754 167.008C320.999 167.112 321.173 167.333 321.208 167.59C321.266 168.032 320.975 168.241 320.731 168.404C315.315 172.234 314.174 173.77 313.929 174.236C314.232 174.131 314.826 173.817 315.443 173.479C316.212 173.06 317.272 172.49 318.681 171.815C320.556 170.919 325.436 170.465 325.646 170.441C325.716 170.43 325.797 170.441 325.867 170.453C326.135 170.511 353.214 176.319 368.355 169.207C378.289 164.54 375.646 136.907 369.077 121.263C365.909 113.709 362.24 109.845 359.258 110.95C348.159 115.059 356.789 153.366 356.871 153.75C356.917 153.948 356.883 154.157 356.766 154.32C356.65 154.483 356.475 154.6 356.277 154.634L326.24 159.651C326.053 159.733 325.844 159.756 325.657 159.674C320.975 157.661 314.919 158.301 309.876 161.362L309.422 161.63C308.432 162.212 306.487 163.353 306.009 164.365C306.347 164.389 306.859 164.319 307.057 164.249C308.921 163.457 314.29 161.129 315.338 160.629C315.688 160.454 316.107 160.594 316.293 160.932C316.48 161.269 316.375 161.7 316.037 161.909C315.466 162.27 313.568 163.62 312.927 164.179C309.305 167.38 307.605 169.824 307.686 170.721C307.942 170.639 308.595 170.348 309.876 169.219C311.483 167.799 313.009 166.612 314.698 165.448C315.396 164.971 317.365 163.888 317.446 163.842C317.784 163.655 318.192 163.76 318.401 164.074C318.611 164.389 318.553 164.808 318.262 165.052C316.643 166.391 312.263 170.22 311.402 171.78C311.355 171.873 311.285 171.966 311.227 172.082C311.099 172.28 310.726 172.897 310.819 173.049C310.959 173.049 311.669 172.769 312.415 172.211C318.634 167.555 320.09 166.973 320.568 166.973Z" fill="black"/>
<path d="M314.721 290.983L313.044 310.34L315.606 315.345L321.5 325.32H330.013V315.345L333.519 292.321L314.721 290.983Z" fill="white"/>
<path d="M330.014 325.832H321.5C321.313 325.832 321.15 325.739 321.057 325.576L315.152 315.601L312.578 310.572C312.532 310.491 312.52 310.386 312.52 310.293L314.197 290.924C314.22 290.645 314.488 290.436 314.745 290.459L333.543 291.797C333.682 291.809 333.822 291.879 333.904 291.984C333.997 292.1 334.032 292.24 334.008 292.379L330.514 315.403L330.526 325.297C330.538 325.599 330.305 325.832 330.014 325.832ZM321.791 324.796H329.501V315.333L332.914 292.787L315.176 291.518L313.557 310.235L316.049 315.1L321.791 324.796Z" fill="black"/>
<path d="M309.748 312.027C309.748 312.027 293.116 318.301 292.37 326.461V326.472C292.266 327.671 293.256 328.684 294.467 328.661L331.865 328.102L331.178 325.308H321.499L315.094 314.344L312.461 309.187C311.343 308.105 309.48 309.001 309.62 310.549L309.748 312.027Z" fill="white"/>
<path d="M294.444 329.185C293.722 329.185 293.034 328.882 292.545 328.358C292.056 327.834 291.812 327.136 291.87 326.438C292.58 318.616 306.685 312.691 309.212 311.69L309.119 310.607C309.037 309.688 309.526 308.838 310.353 308.431C311.18 308.023 312.159 308.186 312.823 308.826C312.869 308.861 312.904 308.908 312.927 308.966L315.56 314.123L321.802 324.808H331.19C331.423 324.808 331.632 324.971 331.69 325.204L332.378 327.997C332.413 328.149 332.378 328.312 332.284 328.428C332.191 328.556 332.04 328.626 331.888 328.626L294.49 329.185C294.467 329.185 294.455 329.185 294.444 329.185ZM311.308 309.234C311.122 309.234 310.936 309.28 310.796 309.35C310.447 309.513 310.086 309.909 310.132 310.503L310.26 311.969C310.283 312.202 310.144 312.412 309.934 312.493C309.771 312.551 293.594 318.744 292.895 326.496C292.86 326.926 293 327.334 293.291 327.648C293.594 327.974 294.013 328.125 294.467 328.149L331.225 327.601L330.782 325.821H321.511C321.325 325.821 321.162 325.727 321.069 325.565L314.663 314.6L312.054 309.502C311.809 309.315 311.553 309.234 311.308 309.234Z" fill="black"/>
<path d="M292.44 325.983L330.013 325.32L292.44 325.983Z" fill="white"/>
<path d="M292.441 326.496C292.161 326.496 291.928 326.274 291.928 325.995C291.928 325.716 292.15 325.483 292.429 325.471L330.002 324.808C330.27 324.796 330.514 325.029 330.526 325.308C330.526 325.588 330.305 325.82 330.025 325.832L292.441 326.496C292.452 326.496 292.452 326.496 292.441 326.496Z" fill="black"/>
<path d="M357.268 294.195L359.085 310.34L361.635 315.345L367.54 325.32H376.054V315.345L377.207 292.519L357.268 294.195Z" fill="white"/>
<path d="M376.054 325.832H367.54C367.354 325.832 367.191 325.739 367.097 325.576L361.192 315.601L358.619 310.572C358.595 310.514 358.572 310.456 358.56 310.398L356.743 294.253C356.732 294.114 356.767 293.974 356.86 293.869C356.953 293.764 357.081 293.695 357.209 293.683L377.149 292.007C377.3 291.995 377.44 292.042 377.545 292.147C377.649 292.251 377.708 292.391 377.696 292.542L376.543 315.368V325.32C376.566 325.599 376.333 325.832 376.054 325.832ZM367.831 324.796H375.541V315.333L376.659 293.066L357.838 294.649L359.585 310.177L362.101 315.088L367.831 324.796Z" fill="black"/>
<path d="M355.788 312.027C355.788 312.027 339.156 318.301 338.411 326.461V326.472C338.306 327.671 339.296 328.684 340.507 328.661L377.905 328.102L377.218 325.308H367.54L361.134 314.344L358.502 309.187C357.384 308.105 355.52 309.001 355.66 310.549L355.788 312.027Z" fill="white"/>
<path d="M340.472 329.185C339.75 329.185 339.063 328.882 338.574 328.358C338.084 327.834 337.84 327.136 337.898 326.438C338.609 318.616 352.713 312.691 355.24 311.69L355.147 310.607C355.066 309.688 355.555 308.838 356.382 308.431C357.22 308.035 358.187 308.186 358.851 308.826C358.897 308.861 358.932 308.908 358.956 308.966L361.588 314.123L367.831 324.808H377.218C377.451 324.808 377.661 324.971 377.719 325.204L378.406 327.997C378.441 328.149 378.406 328.312 378.313 328.428C378.22 328.556 378.068 328.626 377.917 328.626L340.519 329.185C340.495 329.185 340.484 329.185 340.472 329.185ZM357.348 309.234C357.162 309.234 356.976 309.28 356.836 309.35C356.487 309.513 356.126 309.909 356.172 310.503L356.3 311.969C356.324 312.202 356.184 312.412 355.974 312.493C355.811 312.551 339.634 318.744 338.935 326.496C338.9 326.926 339.04 327.334 339.331 327.648C339.633 327.962 340.041 328.149 340.484 328.149C340.495 328.149 340.495 328.149 340.507 328.149L377.265 327.602L376.822 325.821H367.551C367.365 325.821 367.202 325.728 367.109 325.565L360.703 314.6L358.094 309.502C357.849 309.315 357.581 309.234 357.348 309.234Z" fill="black"/>
<path d="M338.481 325.983L376.054 325.32L338.481 325.983Z" fill="white"/>
<path d="M338.481 326.496C338.201 326.496 337.968 326.274 337.968 325.995C337.968 325.716 338.19 325.483 338.469 325.471L376.042 324.808C376.321 324.796 376.554 325.029 376.566 325.308C376.566 325.588 376.345 325.82 376.065 325.832L338.481 326.496Z" fill="black"/>
<path d="M380.246 137.233L353.051 146.452C353.051 146.452 349.533 134.23 349.289 123.323C349.254 121.927 349.289 120.541 349.37 119.203C349.813 112.859 351.84 107.656 356.987 106.748C363.463 105.596 365.932 107.61 369.624 112.475C371.86 115.42 375.18 123.603 377.358 129.225C377.94 130.726 378.464 132.123 378.895 133.322C379.722 135.661 380.246 137.233 380.246 137.233Z" fill="#7ABC2F"/>
<path d="M343.046 232.295C342.79 232.295 342.568 232.109 342.534 231.853L335.685 181.557C335.65 181.278 335.848 181.01 336.128 180.975C336.407 180.929 336.675 181.138 336.71 181.418L343.558 231.713C343.593 231.992 343.395 232.26 343.116 232.295C343.093 232.295 343.069 232.295 343.046 232.295Z" fill="white"/>
<path d="M355.939 178.938C355.089 178.938 353.925 178.682 352.445 177.786C349.219 175.819 348.253 173.107 348.206 172.99C348.113 172.722 348.253 172.431 348.521 172.327C348.788 172.234 349.091 172.373 349.184 172.641C349.196 172.664 350.093 175.12 352.981 176.89C355.695 178.542 356.976 177.681 357.023 177.646C357.255 177.483 357.57 177.53 357.745 177.763C357.908 177.995 357.873 178.31 357.651 178.473C357.617 178.519 357.034 178.938 355.939 178.938Z" fill="white"/>
<path d="M334.742 283.335C334.73 283.335 334.719 283.335 334.695 283.335C334.416 283.312 334.195 283.068 334.218 282.777L336.571 252.793C335.744 252.129 334.602 251.047 334.707 250.255C334.742 249.953 334.94 249.708 335.243 249.58C335.557 249.452 335.825 249.336 336.07 249.254L333.181 246.891C333.018 246.763 332.948 246.542 333.007 246.344C333.065 246.146 333.24 245.995 333.438 245.972L336.827 245.541L340.193 214.603C340.228 214.323 340.496 214.114 340.763 214.149C341.043 214.184 341.253 214.44 341.218 214.719L337.805 246.065C337.782 246.298 337.596 246.495 337.351 246.519L334.754 246.845L337.421 249.033C337.572 249.149 337.642 249.347 337.596 249.533C337.561 249.72 337.421 249.871 337.234 249.929C337.223 249.929 336.64 250.104 335.755 250.476C335.942 250.825 336.652 251.559 337.398 252.141C337.537 252.246 337.607 252.42 337.596 252.595L335.231 282.858C335.243 283.126 335.01 283.335 334.742 283.335Z" fill="white"/>
<path d="M374.586 284.813C374.33 284.813 374.109 284.616 374.074 284.36L369.578 244.668C368.635 244.167 367.319 243.329 367.272 242.538C367.249 242.235 367.4 241.956 367.668 241.781C367.947 241.595 368.192 241.432 368.413 241.304L365.129 239.535C364.943 239.442 364.838 239.244 364.861 239.034C364.884 238.825 365.024 238.65 365.21 238.592L368.448 237.533L362.054 175.167C362.019 174.888 362.229 174.631 362.52 174.597C362.8 174.562 363.056 174.771 363.091 175.062L369.531 237.835C369.555 238.08 369.403 238.301 369.182 238.382L366.701 239.197L369.741 240.838C369.904 240.932 370.009 241.106 370.009 241.292C370.009 241.479 369.904 241.653 369.729 241.746C369.729 241.746 369.182 242.037 368.378 242.561C368.623 242.875 369.462 243.457 370.312 243.876C370.463 243.958 370.568 244.109 370.591 244.284L375.122 284.255C375.157 284.534 374.947 284.79 374.668 284.825C374.621 284.813 374.61 284.813 374.586 284.813Z" fill="white"/>
<path d="M360.376 127.968C360.411 126.757 361.413 125.803 362.624 125.838C363.836 125.873 364.791 126.874 364.756 128.084C364.721 129.295 363.719 130.249 362.508 130.214C361.297 130.18 360.341 129.179 360.376 127.968Z" fill="black"/>
<path d="M359.026 113.534C359.061 112.324 360.062 111.369 361.274 111.404C362.485 111.439 363.44 112.44 363.405 113.651C363.37 114.861 362.369 115.816 361.157 115.781C359.958 115.746 359.003 114.745 359.026 113.534Z" fill="black"/>
<path d="M349.51 121.1C349.487 122.055 348.858 122.835 348.008 123.114C347.973 121.717 348.008 120.332 348.089 118.994C348.939 119.308 349.533 120.146 349.51 121.1Z" fill="black"/>
<path d="M353.994 138.606C354.029 137.396 355.031 136.441 356.242 136.476C357.453 136.511 358.408 137.512 358.373 138.723C358.338 139.933 357.337 140.888 356.126 140.853C354.914 140.83 353.959 139.817 353.994 138.606Z" fill="black"/>
<path d="M377.602 133.113C377.335 133.229 377.032 133.287 376.717 133.276C375.506 133.241 374.539 132.24 374.574 131.029C374.609 130.086 375.226 129.306 376.065 129.015C376.647 130.517 377.183 131.914 377.602 133.113Z" fill="black"/>
<path d="M316.154 141.936C315.758 141.936 315.432 141.621 315.42 141.226L314.954 124.557C314.943 124.15 315.257 123.812 315.665 123.801C315.676 123.801 315.676 123.801 315.688 123.801C316.084 123.801 316.41 124.115 316.422 124.511L316.888 141.179C316.899 141.586 316.585 141.924 316.177 141.936C316.166 141.936 316.166 141.936 316.154 141.936Z" fill="black"/>
<path d="M352.433 146.859C352.107 146.859 351.804 146.638 351.723 146.3C351.7 146.207 349.382 136.5 348.159 125.605C346.901 114.442 350.861 109.647 351.036 109.449C351.292 109.146 351.758 109.1 352.072 109.367C352.375 109.635 352.422 110.089 352.154 110.403C352.096 110.473 348.45 115.013 349.626 125.442C350.849 136.244 353.144 145.87 353.167 145.963C353.26 146.359 353.016 146.754 352.62 146.848C352.55 146.848 352.492 146.859 352.433 146.859Z" fill="black"/>
<path d="M316.154 121.042C316.107 121.042 316.061 121.042 316.014 121.03C315.618 120.949 315.35 120.565 315.432 120.169C315.49 119.89 316.748 113.36 317.866 111.078C319.194 108.366 320.451 108.052 320.696 108.017C321.104 107.959 321.465 108.238 321.535 108.634C321.593 109.03 321.325 109.402 320.917 109.472C320.941 109.472 320.16 109.751 319.194 111.73C318.157 113.848 316.887 120.39 316.876 120.46C316.806 120.797 316.503 121.042 316.154 121.042Z" fill="black"/>
<path d="M389.331 316.078L393.396 327.962C393.396 327.962 394.06 330.046 396.401 330.046C398.73 330.046 398.334 327.718 398.334 327.718L397.903 317.428C397.903 317.428 393.279 315.147 391.742 313.552C390.205 311.946 388.225 310.898 388.225 310.898L389.331 316.078Z" fill="black"/>
<path d="M369.077 266.015L372.012 274.792C372.012 274.792 369.356 274.489 368.145 278.377C366.934 282.264 365.641 284.418 365.641 284.418C365.641 284.418 361.145 288.515 360.645 291.239C360.144 293.962 364.185 288.759 366.794 289.446C369.403 290.121 366.351 291.692 369.019 293.532C371.686 295.371 372.583 293.357 373.887 295.429C375.191 297.489 385.988 327.485 385.988 327.485C385.988 327.485 386 330.511 388.946 330.255C391.893 330.011 391.02 327.089 391.02 327.089L388.527 310.991C388.527 310.991 396.296 318.58 406.405 320.012C416.503 321.444 430.351 320.326 430.351 320.326C430.351 320.326 437.386 322.573 440.74 322.666C444.083 322.759 447.076 321.106 447.367 323.539C447.67 325.972 444.549 327.112 444.549 327.112C443.675 327.357 442.825 328.334 444.292 329.01C444.362 328.975 453.715 328.975 453.715 328.975C453.715 328.975 456.999 325.925 457.651 324.621C458.304 323.318 458.187 318.324 457.814 317.603C457.442 316.881 451.63 311.829 449.836 308.675C448.043 305.52 446.214 303.414 445.434 299.025C447.74 295.673 456.545 294.812 460.854 290.203C470.661 282.253 474.108 254.713 452.981 253.339C441.695 253.258 438.201 254.503 434.882 257.506C431.644 260.428 429.536 263.559 431.725 268.82C433.915 274.07 441.928 269.519 444.141 269.263C446.354 269.007 452.585 268.238 451.711 276.095C450.838 283.952 441.998 287.013 441.998 287.013L435.301 289.271L419.578 288.142L399.102 285.721L381.434 272.254L375.867 271.206L369.077 266.015Z" fill="#FFB800"/>
<path d="M445.283 298.211C445.283 298.211 442.919 298.595 442.383 301.47C441.847 304.345 442.604 306.149 444.607 308.686C445.9 310.316 447.845 313.366 449.382 314.96C451.129 316.753 452.958 317.835 453.564 318.476C454.204 319.139 453.773 323.481 453.773 323.481C453.773 323.481 453.727 325.878 452.376 326.751C451.036 327.636 449.522 328.788 449.522 328.788L453.808 328.905C453.808 328.905 456.871 326.507 457.803 324.412C458.141 323.655 458.444 319.232 458.176 317.894C457.908 316.555 454.274 314.017 451.677 310.77C447.601 305.683 445.283 298.211 445.283 298.211Z" fill="black"/>
<path d="M430.363 320.85C430.317 320.85 430.27 320.838 430.223 320.827C429.897 320.734 422.094 318.58 418.577 314.064C415.828 310.537 417.261 309.071 417.424 308.919C417.633 308.733 417.959 308.745 418.146 308.954C418.332 309.164 418.32 309.49 418.111 309.676C418.111 309.676 417.237 310.677 419.38 313.436C422.688 317.684 430.41 319.814 430.48 319.837C430.759 319.907 430.911 320.198 430.841 320.466C430.794 320.699 430.596 320.85 430.363 320.85Z" fill="black"/>
<path d="M373.515 284.138C373.433 283.882 375.134 282.299 375.471 282.253C375.774 282.218 376.135 284.406 376.031 284.592C375.879 284.848 373.608 284.441 373.515 284.138Z" fill="black"/>
<path d="M375.681 285.046C375.541 285.046 375.378 285.035 375.192 285.011C374.633 284.941 373.317 284.744 373.165 284.243C373.107 284.045 373.2 283.871 373.282 283.743C373.573 283.3 374.936 281.95 375.436 281.892C375.541 281.88 375.739 281.903 375.902 282.148C376.17 282.567 376.554 284.418 376.345 284.79C376.24 284.965 376.054 285.046 375.681 285.046ZM373.992 284.01C374.411 284.162 375.343 284.313 375.704 284.313C375.669 283.987 375.506 283.114 375.355 282.707C375.017 282.963 374.295 283.638 373.992 284.01Z" fill="black"/>
<path d="M377.824 285.559C377.172 285.559 376.485 285.396 375.832 285.046C375.658 284.953 375.588 284.732 375.681 284.557C375.774 284.383 375.996 284.313 376.17 284.406C377.393 285.046 378.663 284.976 379.548 284.232C380.41 283.51 380.689 282.311 380.281 281.042C380.223 280.844 380.328 280.646 380.514 280.577C380.712 280.518 380.91 280.623 380.98 280.809C381.469 282.346 381.097 283.871 380.014 284.779C379.408 285.302 378.639 285.559 377.824 285.559Z" fill="black"/>
<path d="M373.724 289.749C373.712 289.749 373.701 289.749 373.689 289.749C373.491 289.749 373.328 289.574 373.328 289.376C373.328 289.178 373.491 289.004 373.701 289.015C374.877 289.062 376.717 287.898 377.02 286.664C377.195 285.977 376.822 285.395 375.937 284.941C375.762 284.848 375.692 284.627 375.786 284.452C375.879 284.278 376.1 284.196 376.275 284.301C377.894 285.139 377.882 286.257 377.731 286.85C377.335 288.422 375.215 289.749 373.724 289.749Z" fill="black"/>
<path d="M370.428 286.92C370.335 286.92 370.242 286.885 370.172 286.816C369.531 286.199 369.403 285.302 369.846 284.534C370.335 283.708 371.29 283.312 372.163 283.58C372.361 283.638 372.466 283.847 372.408 284.034C372.35 284.231 372.14 284.336 371.954 284.278C371.313 284.08 370.731 284.464 370.475 284.895C370.37 285.081 370.067 285.71 370.661 286.28C370.812 286.42 370.813 286.653 370.673 286.804C370.615 286.885 370.521 286.92 370.428 286.92Z" fill="black"/>
<path d="M375.238 280.577C375.145 280.577 375.052 280.542 374.982 280.472C374.341 279.855 374.213 278.959 374.656 278.19C375.145 277.364 376.1 276.968 376.985 277.236C377.183 277.294 377.288 277.504 377.23 277.69C377.172 277.888 376.962 277.992 376.776 277.934C376.124 277.736 375.553 278.121 375.297 278.551C375.192 278.737 374.889 279.366 375.483 279.936C375.634 280.076 375.634 280.309 375.495 280.46C375.436 280.53 375.343 280.577 375.238 280.577Z" fill="black"/>
<path d="M388.749 312.888C388.504 312.888 388.283 312.702 388.248 312.446L387.712 308.85C387.678 308.582 387.852 308.326 388.12 308.268L389.727 307.942L388.015 307.173C387.817 307.08 387.689 306.871 387.712 306.661C387.736 306.44 387.887 306.266 388.108 306.207L390.974 305.521L389.623 304.915C389.366 304.799 389.25 304.496 389.366 304.24C389.483 303.984 389.786 303.868 390.042 303.984L392.755 305.218C392.953 305.311 393.082 305.521 393.058 305.73C393.035 305.951 392.884 306.126 392.662 306.184L389.797 306.871L391.591 307.674C391.789 307.767 391.917 307.977 391.894 308.198C391.87 308.419 391.707 308.605 391.486 308.64L388.796 309.187L389.261 312.295C389.308 312.574 389.11 312.842 388.831 312.877C388.807 312.877 388.772 312.888 388.749 312.888Z" fill="black"/>
<path d="M449.231 329.254C449.056 329.254 448.881 329.161 448.777 328.986C448.637 328.742 448.73 328.428 448.975 328.288C450.337 327.531 452.364 326.193 452.608 325.576C452.981 324.656 453.365 319.384 453.237 318.674C453.179 318.383 452.189 317.649 451.455 317.102C450.92 316.706 450.326 316.276 449.767 315.799C448.159 314.46 442.685 308.233 441.742 303.588C440.764 298.793 445.667 297.256 445.713 297.245C445.981 297.163 446.272 297.315 446.354 297.582C446.436 297.85 446.284 298.141 446.016 298.222C445.853 298.269 441.963 299.503 442.755 303.379C443.64 307.709 448.951 313.762 450.442 315.007C450.99 315.473 451.56 315.892 452.084 316.276C453.284 317.16 454.146 317.789 454.262 318.487C454.402 319.244 454.053 324.784 453.575 325.96C453.098 327.124 450.081 328.847 449.487 329.184C449.406 329.231 449.312 329.254 449.231 329.254Z" fill="black"/>
</g>
<defs>
<clipPath id="clip0">
<rect width="629" height="331" fill="white"/>
</clipPath>
</defs>
</svg>
