<svg width="47" height="36" viewBox="0 0 47 36" fill="none" xmlns="http://www.w3.org/2000/svg">
<path d="M45.4178 4.13251C36.729 5.61081 31.2239 8.23143 27.8744 11.356C26.7137 10.0793 25.155 8.601 25.155 8.601L25.1218 8.5674C21.706 5.30843 15.6039 1.3775 5.12429 0C5.12429 0 -4.29412 29.8683 21.9713 33.7321L24.6575 34.2024C25.3871 34.3368 26.8463 34.1016 26.8463 34.1016C55.0352 32.3545 45.4178 4.13251 45.4178 4.13251Z" fill="#7ABC2F"/>
<path d="M24.5282 35.122C24.5282 35.122 8.76835 11.0583 42.8384 5.26834C42.8384 5.23487 52.2878 33.3482 24.5282 35.122Z" stroke="#3F4042" stroke-width="1.6" stroke-miterlimit="10" stroke-linecap="round" stroke-linejoin="round"/>
<path d="M19.3452 35.1221C-6.92852 31.1997 2.52603 0.878174 2.52603 0.878174C13.1085 2.27658 19.2456 6.36948 22.6294 9.6779" stroke="#3F4042" stroke-width="1.6" stroke-miterlimit="10" stroke-linecap="round" stroke-linejoin="round"/>
<path d="M24.3701 35.122C24.3701 35.122 26.9642 27.2956 34.8146 17.561" stroke="#3F4042" stroke-width="1.6" stroke-miterlimit="10" stroke-linecap="round" stroke-linejoin="round"/>
<path d="M10.4443 13.1709C10.4443 13.1709 18.1269 17.089 20.8888 27.2197" stroke="#3F4042" stroke-width="1.6" stroke-miterlimit="10" stroke-linecap="round" stroke-linejoin="round"/>
</svg>
