<svg width="17" height="18" viewBox="0 0 17 18" fill="none" xmlns="http://www.w3.org/2000/svg">
<path d="M1.54318 17.0938C1.59396 17.0938 1.64474 17.0887 1.69552 17.0811L5.96623 16.332C6.01701 16.3219 6.06525 16.299 6.1008 16.2609L16.8639 5.49785C16.8874 5.47436 16.9061 5.44646 16.9188 5.41574C16.9316 5.38503 16.9381 5.3521 16.9381 5.31885C16.9381 5.28559 16.9316 5.25267 16.9188 5.22195C16.9061 5.19123 16.8874 5.16333 16.8639 5.13984L12.644 0.917383C12.5957 0.869141 12.5322 0.84375 12.4637 0.84375C12.3951 0.84375 12.3317 0.869141 12.2834 0.917383L1.52033 11.6805C1.48224 11.7186 1.45939 11.7643 1.44923 11.815L0.70021 16.0857C0.67551 16.2218 0.684336 16.3618 0.725923 16.4936C0.767511 16.6254 0.840606 16.7452 0.938882 16.8424C1.10646 17.0049 1.3172 17.0938 1.54318 17.0938ZM3.25451 12.6656L12.4637 3.45898L14.3248 5.32012L5.11564 14.5268L2.85841 14.9254L3.25451 12.6656Z" fill="#3F4042"/>
</svg>
