<svg width="16" height="16" viewBox="0 0 16 16" fill="none" xmlns="http://www.w3.org/2000/svg">
<path d="M7.62839 1C9.32251 1 10.7052 2.33432 10.7829 4.00926L10.7863 4.1579V4.82224C10.7863 5.11718 10.5472 5.35627 10.2523 5.35627C9.98191 5.35627 9.75847 5.15536 9.72311 4.8947L9.71824 4.82224V4.1579C9.71824 3.04505 8.84811 2.13518 7.75118 2.07161L7.62839 2.06806H4.15719C3.04494 2.06806 2.13517 2.93827 2.07161 4.03513L2.06806 4.1579V12.0829C2.06806 13.1957 2.93811 14.1056 4.03447 14.1692L4.15719 14.1728H7.63551C8.74442 14.1728 9.65133 13.3058 9.7147 12.2131L9.71824 12.0908V11.4193C9.71824 11.1244 9.95733 10.8853 10.2523 10.8853C10.5226 10.8853 10.7461 11.0862 10.7814 11.3468L10.7863 11.4193V12.0908C10.7863 13.7792 9.45706 15.1576 7.78814 15.2372L7.63551 15.2408H4.15719C2.46364 15.2408 1.08106 13.9064 1.00344 12.2316L1 12.0829V4.1579C1 2.46392 2.33419 1.08107 4.00859 1.00344L4.15719 1H7.62839ZM13.3212 5.61464L13.3812 5.66621L15.4661 7.74182C15.4849 7.76044 15.5013 7.7794 15.5164 7.79945L15.4661 7.74182C15.4878 7.76347 15.5073 7.78653 15.5246 7.81071C15.5367 7.82762 15.548 7.84549 15.5581 7.86403C15.56 7.86764 15.5619 7.87118 15.5637 7.87473C15.5727 7.8918 15.5807 7.90951 15.5878 7.9277C15.5906 7.93567 15.5935 7.94373 15.5962 7.95183C15.6014 7.9668 15.6058 7.98222 15.6094 7.99789C15.6112 8.00627 15.6129 8.01458 15.6144 8.02293C15.6174 8.03748 15.6195 8.0525 15.621 8.0677C15.6218 8.07828 15.6225 8.08875 15.6229 8.09923C15.6234 8.10626 15.6236 8.11329 15.6236 8.12034L15.623 8.14051C15.6225 8.15147 15.6218 8.16242 15.6207 8.17334L15.6236 8.12034C15.6236 8.1537 15.6205 8.18634 15.6146 8.218C15.6129 8.2259 15.6112 8.23425 15.6092 8.24256C15.6056 8.25907 15.6011 8.27506 15.5958 8.29072C15.5931 8.29801 15.5904 8.30538 15.5876 8.3127C15.581 8.33042 15.5733 8.34757 15.5647 8.36421C15.5626 8.36797 15.5604 8.37218 15.5581 8.37638C15.5336 8.42146 15.5029 8.46223 15.4671 8.49796L15.4661 8.49866L13.3813 10.575C13.1723 10.7831 12.8342 10.7824 12.6261 10.5734C12.4369 10.3834 12.4202 10.0867 12.5758 9.87798L12.6276 9.81819L13.7947 8.65373L6.51583 8.65437C6.22089 8.65437 5.9818 8.41528 5.9818 8.12034C5.9818 7.84998 6.1827 7.62655 6.44336 7.59119L6.51583 7.58631L13.7961 7.58567L12.6277 6.42313C12.4377 6.23396 12.4198 5.93731 12.5744 5.72791L12.626 5.66789C12.8152 5.47788 13.1118 5.45998 13.3212 5.61464Z" fill="#3F4042" stroke="#3F4042" stroke-width="0.3"/>
</svg>
