<svg width="17" height="11" viewBox="0 0 17 11" fill="none" xmlns="http://www.w3.org/2000/svg">
<path d="M10.75 9C10.9489 9 11.1397 9.07902 11.2803 9.21967C11.421 9.36032 11.5 9.55109 11.5 9.75C11.5 9.94891 11.421 10.1397 11.2803 10.2803C11.1397 10.421 10.9489 10.5 10.75 10.5H6.25C6.05109 10.5 5.86032 10.421 5.71967 10.2803C5.57902 10.1397 5.5 9.94891 5.5 9.75C5.5 9.55109 5.57902 9.36032 5.71967 9.21967C5.86032 9.07902 6.05109 9 6.25 9H10.75ZM13.75 4.5C13.9489 4.5 14.1397 4.57902 14.2803 4.71967C14.421 4.86032 14.5 5.05109 14.5 5.25C14.5 5.44891 14.421 5.63968 14.2803 5.78033C14.1397 5.92098 13.9489 6 13.75 6H3.25C3.05109 6 2.86032 5.92098 2.71967 5.78033C2.57902 5.63968 2.5 5.44891 2.5 5.25C2.5 5.05109 2.57902 4.86032 2.71967 4.71967C2.86032 4.57902 3.05109 4.5 3.25 4.5H13.75ZM16 0C16.1989 0 16.3897 0.0790178 16.5303 0.21967C16.671 0.360322 16.75 0.551088 16.75 0.75C16.75 0.948912 16.671 1.13968 16.5303 1.28033C16.3897 1.42098 16.1989 1.5 16 1.5H1C0.801088 1.5 0.610322 1.42098 0.46967 1.28033C0.329018 1.13968 0.25 0.948912 0.25 0.75C0.25 0.551088 0.329018 0.360322 0.46967 0.21967C0.610322 0.0790178 0.801088 0 1 0H16Z" fill="#3F4042"/>
</svg>
