<svg width="50" height="49" viewBox="0 0 50 49" fill="none" xmlns="http://www.w3.org/2000/svg">
<path d="M44 29C42.0771 37.5829 34.3654 44 25.1154 44C16.837 44 9.77298 38.8463 7 31.5869C7.36433 32.369 7.70842 33.0107 8.57877 33.2513C9.16576 33.4118 9.79322 33.3316 10.3195 33.0307C10.7648 32.7701 11.1493 32.3289 11.6554 32.1885C12.2019 32.0281 12.8293 32.2888 13.2746 32.6096C13.8211 33.0107 14.1854 33.5922 14.57 34.1337C14.9344 34.6952 15.3189 35.2567 15.8654 35.6578C16.4119 36.0588 17.1406 36.2594 17.7681 35.9987C18.3146 35.7781 18.6586 35.2567 19.023 34.7754C19.3671 34.3142 19.8326 33.8329 20.4196 33.7727C22.14 33.6123 22.0591 35.7981 22.221 36.9412C22.3425 37.7433 22.6663 38.6257 23.4152 38.9866C24.2248 39.3676 25.2166 38.9866 25.8036 38.3249C26.4716 37.5829 26.5728 36.5201 27.1395 35.7179C27.9694 34.5348 29.1636 34.9559 30.1756 35.6377C31.39 36.4599 33.5153 37.0815 34.7095 35.8984C35.5596 35.0361 35.4179 33.7326 35.8228 32.6698C35.9644 32.2687 36.1669 31.8476 36.43 31.5067C36.6324 31.246 36.9562 31.0254 37.2801 30.9853C37.6039 30.9652 37.9278 31.1056 38.1909 31.3061C39.0005 31.9479 39.3649 32.9906 40.5996 32.8302C41.2068 32.75 42.0164 32.3088 42.4415 31.8676C43.2511 31.0455 43.6762 30.2233 44 29Z" fill="#FAB70C"/>
<path d="M26.903 44.1253C37.4606 43.0799 45.1717 33.6738 44.1262 23.1162C43.0808 12.5586 33.6747 4.84752 23.1171 5.89296C12.5596 6.93839 4.84847 16.3445 5.89391 26.9021C6.93935 37.4596 16.3454 45.1707 26.903 44.1253Z" stroke="#3F4042" stroke-width="1.6" stroke-miterlimit="10" stroke-linecap="round" stroke-linejoin="round"/>
<path d="M47.5757 42.9776C46.2935 42.7088 45.2912 41.7065 45.0225 40.4243C44.9707 40.1771 44.7527 40 44.5 40C44.2474 40 44.0294 40.177 43.9776 40.4243C43.7088 41.7065 42.7066 42.7088 41.4243 42.9775C41.1771 43.0293 41 43.2474 41 43.5C41 43.7526 41.1771 43.9706 41.4243 44.0224C42.7065 44.2912 43.7088 45.2934 43.9775 46.5757C44.0293 46.8229 44.2473 47 44.5 47C44.7526 47 44.9706 46.823 45.0224 46.5757C45.2912 45.2934 46.2935 44.2912 47.5757 44.0225C47.8229 43.9706 48 43.7526 48 43.5C48 43.2474 47.8229 43.0294 47.5757 42.9776Z" fill="#FFB800"/>
<path d="M48.8182 37.2761C48.2686 37.1609 47.8391 36.7314 47.7239 36.1818C47.7017 36.0759 47.6083 36 47.5 36C47.3918 36 47.2983 36.0759 47.2761 36.1818C47.1609 36.7314 46.7314 37.1609 46.1818 37.2761C46.0759 37.2983 46 37.3917 46 37.5C46 37.6082 46.0759 37.7017 46.1818 37.7239C46.7314 37.8391 47.1609 38.2686 47.2761 38.8182C47.2983 38.9241 47.3917 39 47.5 39C47.6082 39 47.7017 38.9241 47.7239 38.8182C47.8391 38.2686 48.2686 37.8391 48.8182 37.7239C48.9241 37.7017 49 37.6083 49 37.5C49 37.3918 48.9241 37.2983 48.8182 37.2761Z" fill="#FFB800"/>
<path d="M32 25C32 21.1277 28.8723 18 25 18C21.1277 18 18 21.1277 18 25C18 28.8723 21.1277 32 25 32C28.8723 32 32 28.8723 32 25Z" stroke="#3F4042" stroke-width="1.6" stroke-miterlimit="10" stroke-linecap="round" stroke-linejoin="round"/>
<path d="M28 22.9999C27.3793 21.8183 26.2884 21.0231 25.047 21.0004C23.768 20.9776 22.6395 21.7729 22 22.9772" stroke="#3F4042" stroke-width="1.6" stroke-miterlimit="10" stroke-linecap="round" stroke-linejoin="round"/>
<path d="M9.63634 6.55223C8.53725 6.32182 7.67821 5.46275 7.44783 4.36369C7.40342 4.1518 7.21656 4 7.00003 4C6.78352 4 6.59663 4.15174 6.55223 4.36366C6.32182 5.46275 5.46278 6.32179 4.36369 6.55217C4.1518 6.59658 4 6.78347 4 6.99997C4 7.21648 4.15177 7.40334 4.36369 7.44777C5.46275 7.67818 6.32179 8.53722 6.55217 9.63631C6.59658 9.8482 6.78344 10 6.99997 10C7.21648 10 7.40337 9.84826 7.44777 9.63631C7.67821 8.53722 8.53725 7.67818 9.63631 7.44783C9.8482 7.40339 10 7.21653 10 7.00003C10 6.78352 9.84823 6.59663 9.63634 6.55223Z" fill="#FFB800"/>
</svg>
