<svg width="27" height="25" viewBox="0 0 27 25" fill="none" xmlns="http://www.w3.org/2000/svg">
<path d="M18.1589 0.000203503C17.3362 0.0250767 16.5393 0.166306 15.7669 0.424092C15.7461 0.431019 15.7244 0.434617 15.7025 0.434617C15.6728 0.434617 15.6432 0.44068 15.6174 0.455341C15.6097 0.459743 15.6023 0.464179 15.5954 0.468625C15.5554 0.49404 15.5149 0.519625 15.4699 0.534422C15.2026 0.622392 14.9485 0.72226 14.7045 0.855663L14.2016 1.07934C14.003 1.1846 13.7648 1.38065 13.6325 1.46092C13.3935 1.60106 13.0839 1.59156 12.8545 1.43637C11.4616 0.49425 9.82346 -0.0116455 8.13987 0.000203503C7.30473 0.000203503 6.47092 0.117517 5.67813 0.381986C0.793036 1.96091 -0.967241 7.28977 0.503185 11.9476C1.337 14.3278 2.70022 16.5001 4.48564 18.2751C7.04135 20.7356 9.84588 22.9198 12.8648 24.8013C13.0681 24.9234 13.3224 24.922 13.5244 24.7977L13.5398 24.7882C16.5693 22.9198 19.3898 20.7356 21.9693 18.262C23.7428 16.487 25.1073 14.3278 25.9544 11.9476C27.45 7.28977 25.6897 1.96091 20.7516 0.354355C20.3678 0.222778 19.9721 0.130675 19.575 0.0793597C19.4693 0.0793597 19.3638 0.0711903 19.2588 0.0582148C18.94 0.018796 18.6227 0.000203503 18.3045 0.000203503H18.1589ZM6.36636 4.15824C6.909 3.97272 7.50458 4.2635 7.70311 4.81612C7.8884 5.36875 7.59723 5.974 7.04135 6.17005C6.19298 6.48583 5.62519 7.31608 5.62519 8.2358V8.27659C5.65034 8.5779 5.55901 8.86869 5.37372 9.09237C5.18843 9.31605 4.91049 9.44631 4.61932 9.47394C4.07668 9.45947 3.61345 9.02658 3.57374 8.47264V8.31606C3.53403 6.47267 4.6577 4.80297 6.36636 4.15824Z" fill="#7ABC2F"/>
</svg>
