<svg width="50" height="49" viewBox="0 0 50 49" fill="none" xmlns="http://www.w3.org/2000/svg">
<g clip-path="url(#clip0)">
<path d="M33.7113 48C32.5567 45.7883 30.2474 44.1244 28.2887 42.562C26.3299 40.9996 24.2887 39.4574 22.9072 37.3877C21.5258 35.318 20.9072 32.5584 22.0206 30.3264C23.0516 28.2973 25.4021 27.0798 27.7113 27.1204C30.0206 27.161 32.2062 28.9263 33.732 30.6308C35.2577 28.9263 37.4433 27.1813 39.7526 27.1204C42.0619 27.0798 44.4124 28.2973 45.4433 30.3264C46.5567 32.5584 45.9382 35.2978 44.5567 37.3877C43.1753 39.4574 41.134 40.9996 39.1753 42.562C37.1753 44.1447 34.866 45.8086 33.7113 48Z" fill="#FF7373"/>
<path d="M31.4849 14.403C32.9503 14.0958 34.0957 12.9503 34.4029 11.4849C34.4621 11.2024 34.7113 11 35 11C35.2886 11 35.5378 11.2023 35.597 11.4849C35.9042 12.9503 37.0496 14.0957 38.5151 14.4029C38.7976 14.4621 39 14.7113 39 15C39 15.2886 38.7976 15.5378 38.5151 15.597C37.0497 15.9042 35.9043 17.0496 35.5971 18.5151C35.5379 18.7976 35.2887 19 35 19C34.7114 19 34.4622 18.7977 34.403 18.5151C34.0957 17.0496 32.9503 15.9042 31.4849 15.5971C31.2024 15.5379 31 15.2887 31 15C31 14.7114 31.2024 14.4622 31.4849 14.403Z" fill="#FFB800"/>
<path d="M42.1818 9.27611C42.7314 9.16091 43.1609 8.73138 43.2761 8.18184C43.2983 8.0759 43.3917 8 43.5 8C43.6082 8 43.7017 8.07587 43.7239 8.18183C43.8391 8.73138 44.2686 9.1609 44.8182 9.27609C44.9241 9.29829 45 9.39173 45 9.49999C45 9.60824 44.9241 9.70167 44.8182 9.72389C44.2686 9.83909 43.8391 10.2686 43.7239 10.8182C43.7017 10.9241 43.6083 11 43.5 11C43.3918 11 43.2983 10.9241 43.2761 10.8182C43.1609 10.2686 42.7314 9.83909 42.1818 9.72391C42.0759 9.7017 42 9.60827 42 9.50001C42 9.39176 42.0759 9.29832 42.1818 9.27611Z" fill="#FFB800"/>
<path d="M21.8801 6.04854L22.1687 3.6339C22.2306 3.32953 22.0038 3.04545 21.6739 3.04545H18.7873H14.21C13.9007 3.04545 13.6533 3.32953 13.7151 3.6339L14.0038 6.04854" stroke="#3F4042" stroke-width="1.6" stroke-miterlimit="10" stroke-linecap="round" stroke-linejoin="round"/>
<path d="M26.6639 43.6683C26.5402 43.8509 26.3546 44.0133 26.1484 44.1147C25.0144 44.622 22.4371 45.4539 17.9629 45.4539C13.4887 45.4539 10.9113 44.622 9.77731 44.1147C9.34432 43.9118 9.05566 43.506 9.05566 43.019V23.8033C9.05566 20.7393 10.6639 17.8986 10.6639 17.8986C13.5093 12.9272 13.901 8.6661 13.901 8.6661H21.9835C21.9835 8.6661 22.3959 12.9272 25.2206 17.9189C25.2206 17.9189 26.8289 20.7596 26.8289 23.8236V25.0613" stroke="#3F4042" stroke-width="1.6" stroke-miterlimit="10" stroke-linecap="round" stroke-linejoin="round"/>
<path d="M9.05566 26.6846C13.8804 27.4354 18.767 27.5774 23.6124 27.0905" stroke="#3F4042" stroke-width="1.6" stroke-miterlimit="10" stroke-linecap="round" stroke-linejoin="round"/>
<path d="M20.8701 36.7084C16.9319 36.9114 12.9732 36.7084 9.05566 36.0997" stroke="#3F4042" stroke-width="1.6" stroke-miterlimit="10" stroke-linecap="round" stroke-linejoin="round"/>
</g>
<defs>
<clipPath id="clip0">
<rect width="38" height="46" fill="white" transform="translate(8 2)"/>
</clipPath>
</defs>
</svg>
