<svg width="26" height="27" viewBox="0 0 26 27" fill="none" xmlns="http://www.w3.org/2000/svg">
<path fill-rule="evenodd" clip-rule="evenodd" d="M25.6854 15.7491C25.2425 17.7879 24.315 19.6899 22.9814 21.2944L23.0018 21.3093C22.9672 21.3514 22.9296 21.39 22.8921 21.4286C22.8593 21.4624 22.8265 21.4962 22.7957 21.5321C22.7411 21.594 22.6845 21.6535 22.628 21.7129C22.5971 21.7454 22.5662 21.7779 22.5357 21.8107C22.2757 22.093 22.0083 22.3632 21.7278 22.6186C21.6674 22.6731 21.6055 22.7258 21.5439 22.7783C21.5184 22.7999 21.4931 22.8216 21.4678 22.8433C21.1707 23.0996 20.8642 23.3419 20.5485 23.5694C20.5262 23.5843 20.5054 23.6016 20.4847 23.6189C20.4667 23.6339 20.4487 23.6489 20.4297 23.6623V23.6511C18.2548 25.1816 15.6604 26.003 13.001 26.003C10.3417 26.003 7.74724 25.1816 5.57241 23.6511V23.6623C5.55284 23.6485 5.53413 23.633 5.51545 23.6176C5.49512 23.6007 5.47484 23.5839 5.45355 23.5694C5.1369 23.3429 4.8314 23.0996 4.53426 22.8433C4.50817 22.8208 4.48192 22.7986 4.45562 22.7763C4.39486 22.7247 4.33388 22.673 4.27425 22.6186C3.99382 22.3641 3.72639 22.093 3.46639 21.8107C3.43613 21.7782 3.40541 21.746 3.37468 21.7138C3.31771 21.654 3.26068 21.5943 3.20639 21.5321C3.17542 21.4964 3.14286 21.4629 3.11037 21.4295C3.07271 21.3907 3.03514 21.3521 3.00024 21.3102L3.01882 21.2944C1.06949 18.9709 0.000706223 16.0351 4.98428e-06 13.0022C-0.00182242 10.9159 0.498868 8.85981 1.45972 7.00792C2.42057 5.15603 3.81332 3.5628 5.52014 2.36301C7.22696 1.16322 9.19765 0.392172 11.2655 0.115084C13.3333 -0.162003 15.4375 0.0630239 17.4 0.771131C19.3624 1.47924 21.1255 2.64959 22.54 4.18319C23.9545 5.71678 24.9788 7.5685 25.5263 9.5817C26.0738 11.5949 26.1284 13.7104 25.6854 15.7491Z" fill="#FAB70C"/>
</svg>
