<svg width="47" height="37" viewBox="0 0 47 37" fill="none" xmlns="http://www.w3.org/2000/svg">
<path d="M10.7642 10.0457C13.9012 7.22917 20.2358 8.2482 23.7056 9.19978C26.7508 8.15051 31.5145 6.7831 35.7338 10.0457C41.0078 14.1239 38.5096 21.6006 37.6769 23.0959C36.8441 24.5912 34.4847 29.621 33.0967 31.7961C31.7088 33.9711 29.627 35.8743 27.6839 35.8743C26.1294 35.8743 24.4454 35.3305 23.7977 35.0586C23.15 35.5118 21.4105 36.3093 19.634 35.8743C17.4133 35.3305 16.0254 33.6992 15.3315 32.3398C14.6375 30.9804 12.0858 27.8539 9.58772 23.0959C8.08576 20.2352 6.47174 13.8996 10.7642 10.0457Z" fill="#FF6161"/>
<path d="M1 25.8047L5.12966 24.5349" stroke="black" stroke-width="1.4"/>
<path d="M46.6738 13.7085L42.5442 14.9783" stroke="black" stroke-width="1.4"/>
<path d="M23.9727 9.14355L24.0095 0.999878" stroke="black" stroke-width="1.4"/>
<path d="M18.3554 8.72754C16.3984 7.6726 15.2907 5.46825 14.9627 4.37302C16.1126 4.22756 18.5903 4.03254 20.3693 4.99158C22.1484 5.95061 23.3473 8.12763 23.8579 9.16819C22.9725 9.53279 20.6325 9.9551 18.3554 8.72754Z" stroke="black" stroke-width="1.4"/>
<path d="M8.44971 35.9194L10.8874 32.3523" stroke="black" stroke-width="1.4"/>
<path d="M39.2241 3.59375L36.7864 7.16085" stroke="black" stroke-width="1.4"/>
<path d="M3.71094 31.6816L7.30694 29.1802" stroke="black" stroke-width="1.4"/>
<path d="M43.9634 7.83203L40.3674 10.3335" stroke="black" stroke-width="1.4"/>
<path d="M33 14C34.4218 14.3846 36 17 34.7062 19" stroke="white" stroke-width="1.5"/>
</svg>
