<svg width="29" height="35" viewBox="0 0 29 35" fill="none" xmlns="http://www.w3.org/2000/svg">
<path d="M16.3345 3.17416C17.3463 3.38628 18.1372 4.17716 18.3493 5.18898C18.3902 5.38405 18.5622 5.5238 18.7615 5.5238C18.9609 5.5238 19.1329 5.38411 19.1738 5.18901C19.3859 4.17716 20.1768 3.3863 21.1886 3.17421C21.3837 3.13333 21.5234 2.96127 21.5234 2.76195C21.5234 2.56263 21.3837 2.3906 21.1886 2.34969C20.1768 2.13757 19.3859 1.34672 19.1738 0.334865C19.133 0.139795 18.9609 4.57764e-05 18.7616 4.57764e-05C18.5623 4.57764e-05 18.3902 0.139744 18.3493 0.334865C18.1372 1.34672 17.3463 2.13757 16.3345 2.34964C16.1394 2.39055 15.9997 2.56258 15.9997 2.7619C15.9997 2.96122 16.1394 3.13327 16.3345 3.17416Z" fill="#FFB800"/>
<path d="M11.2131 8.02495C11.8586 8.16027 12.3631 8.66482 12.4985 9.31033C12.5245 9.43477 12.6343 9.52393 12.7615 9.52393C12.8886 9.52393 12.9984 9.4348 13.0245 9.31034C13.1598 8.66482 13.6643 8.16029 14.3098 8.02498C14.4343 7.9989 14.5234 7.88914 14.5234 7.76198C14.5234 7.63482 14.4343 7.52507 14.3098 7.49898C13.6643 7.36365 13.1598 6.85912 13.0245 6.2136C12.9984 6.08915 12.8887 6 12.7615 6C12.6343 6 12.5246 6.08912 12.4985 6.2136C12.3631 6.85912 11.8586 7.36365 11.2131 7.49894C11.0887 7.52504 10.9995 7.63479 10.9995 7.76195C10.9995 7.8891 11.0886 7.99887 11.2131 8.02495Z" fill="#FFB800"/>
<path d="M7.67659 30.2725C8.84987 30.2725 9.81112 31.2543 9.81112 32.467C9.81112 33.6653 8.84987 34.647 7.67659 34.647C6.48917 34.647 5.52793 33.6653 5.52793 32.467C5.52793 31.2543 6.48917 30.2725 7.67659 30.2725ZM23.5795 30.2725C24.7528 30.2725 25.7141 31.2543 25.7141 32.467C25.7141 33.6653 24.7528 34.647 23.5795 34.647C22.3921 34.647 21.4309 33.6653 21.4309 32.467C21.4309 31.2543 22.3921 30.2725 23.5795 30.2725ZM1.10095 6.3532L1.24501 6.36539L4.61644 6.88368C5.09706 6.97175 5.45046 7.37454 5.49287 7.86541L5.76145 11.0993C5.80386 11.5628 6.17139 11.9092 6.62374 11.9092H25.7144C26.5766 11.9092 27.1421 12.2124 27.7075 12.8765C28.273 13.5406 28.3719 14.4935 28.2447 15.3583L26.9018 24.829C26.6473 26.6495 25.1206 27.9907 23.3254 27.9907H7.90305C6.02297 27.9907 4.46801 26.5196 4.31252 24.6139L3.01201 8.876L0.877478 8.50064C0.31204 8.39958 -0.0837666 7.83653 0.015185 7.25905C0.114137 6.66857 0.665439 6.27732 1.24501 6.36539L1.10095 6.3532ZM21.0636 17.2495H17.148C16.5543 17.2495 16.0878 17.726 16.0878 18.3323C16.0878 18.9242 16.5543 19.4151 17.148 19.4151H21.0636C21.6573 19.4151 22.1238 18.9242 22.1238 18.3323C22.1238 17.726 21.6573 17.2495 21.0636 17.2495Z" fill="#FFB800"/>
</svg>
