<svg width="29" height="29" viewBox="0 0 29 29" fill="none" xmlns="http://www.w3.org/2000/svg">
<path d="M7.67659 24.2723C8.84987 24.2723 9.81112 25.254 9.81112 26.4667C9.81112 27.665 8.84987 28.6467 7.67659 28.6467C6.48917 28.6467 5.52793 27.665 5.52793 26.4667C5.52793 25.254 6.48917 24.2723 7.67659 24.2723ZM23.5795 24.2723C24.7528 24.2723 25.7141 25.254 25.7141 26.4667C25.7141 27.665 24.7528 28.6467 23.5795 28.6467C22.3921 28.6467 21.4309 27.665 21.4309 26.4667C21.4309 25.254 22.3921 24.2723 23.5795 24.2723ZM1.10095 0.352952L1.24501 0.365145L4.61644 0.883438C5.09706 0.971504 5.45046 1.3743 5.49287 1.86516L5.76145 5.09907C5.80386 5.56251 6.17139 5.909 6.62374 5.909H25.7144C26.5766 5.909 27.1421 6.21218 27.7075 6.87628C28.273 7.54039 28.3719 8.49324 28.2447 9.35802L26.9018 18.8288C26.6473 20.6493 25.1206 21.9905 23.3254 21.9905H7.90305C6.02297 21.9905 4.46801 20.5194 4.31252 18.6137L3.01201 2.87576L0.877478 2.50039C0.31204 2.39933 -0.0837666 1.83629 0.015185 1.2588C0.114137 0.668325 0.665439 0.277079 1.24501 0.365145L1.10095 0.352952ZM21.0636 11.2493H17.148C16.5543 11.2493 16.0878 11.7257 16.0878 12.3321C16.0878 12.924 16.5543 13.4149 17.148 13.4149H21.0636C21.6573 13.4149 22.1238 12.924 22.1238 12.3321C22.1238 11.7257 21.6573 11.2493 21.0636 11.2493Z" fill="#FFB800"/>
</svg>
