<svg width="50" height="49" viewBox="0 0 50 49" fill="none" xmlns="http://www.w3.org/2000/svg">
<path d="M36 11L39 8" stroke="#3F4042" stroke-width="1.6" stroke-miterlimit="10" stroke-linecap="round"/>
<path d="M12.5 43C15.621 43.9079 18.8449 44 23 44C27.1551 44 31.379 44.3812 34.5 43.5C37.339 42.6722 38.4924 42.8491 39 42.3418C38.2667 39.7517 36.3678 32.7557 35.2773 26C31.141 27.0414 26.5535 27.4152 23 27.4152C19.4465 27.4152 14.859 27.0414 10.7227 26C9.6322 32.7557 7.73325 37.9099 7 40.5C7.50764 41.034 9.66099 42.1989 12.5 43Z" fill="#FAB70C"/>
<path d="M15.05 30L13.8586 33.9472" stroke="white" stroke-width="1.6" stroke-miterlimit="10" stroke-linecap="round"/>
<path d="M38 13L42 12" stroke="#3F4042" stroke-width="1.6" stroke-miterlimit="10" stroke-linecap="round"/>
<path d="M34 9L35 4" stroke="#3F4042" stroke-width="1.6" stroke-miterlimit="10" stroke-linecap="round"/>
<path d="M11.4205 26C10.2326 32.26 7 39.7378 7 39.7378C7 42.0973 15.2763 44 25.5 44C35.7237 44 44 42.0973 44 39.7378C44 39.7378 40.7674 32.26 39.5795 26" stroke="#3F4042" stroke-width="1.6" stroke-miterlimit="10" stroke-linecap="round"/>
<path d="M20 13.7848C20 13.7848 25.3162 11.7658 32.0949 14.2046C32.0949 14.2046 39.1897 16.8634 40 24" stroke="#3F4042" stroke-width="1.6" stroke-miterlimit="10" stroke-linecap="round"/>
<path d="M10.5118 17.683C8.73761 18.708 8 16.9192 8 16.9192L9.67457 14.3867C11.1099 12.216 13.3825 10.7287 15.9542 10.387C16.3529 10.3267 16.5722 10.3267 16.5722 10.3267C16.5722 10.3267 19.5625 4.61857 25.4833 3.07093C26.3405 2.84984 27.2575 3.15133 27.736 3.895C28.2343 4.67886 28.2343 5.86471 25.862 7.39224C25.862 7.39224 23.6093 8.65849 20.938 10.2664" stroke="#3F4042" stroke-width="1.6" stroke-miterlimit="10" stroke-linecap="round"/>
<path d="M9.00359 18C9.00359 18 8.79529 20.902 11.5513 20.2549C11.5513 20.2549 11.343 22 12 24" stroke="#3F4042" stroke-width="1.6" stroke-miterlimit="10" stroke-linecap="round"/>
<path d="M25.4756 7.50029C25.4756 7.50029 28.6465 5.93959 29.9149 8.33132C29.9149 8.33132 30.8464 10.7028 26.5458 11.6149C26.0305 11.7162 25.5153 11.8581 25 12" stroke="#3F4042" stroke-width="1.6" stroke-miterlimit="10" stroke-linecap="round"/>
<path d="M38.4226 17C44.2168 17.9926 48 19.6471 48 21.5037C48 24.5368 37.9248 27 25.5 27C13.0752 27 3 24.5368 3 21.5037C3 20.4007 4.31416 19.3897 6.58407 18.5257" stroke="#3F4042" stroke-width="1.6" stroke-miterlimit="10" stroke-linecap="round"/>
</svg>
