<svg width="28" height="28" viewBox="0 0 28 28" fill="none" xmlns="http://www.w3.org/2000/svg">
<path d="M19.6351 3.0002C18.8124 3.02508 18.0155 3.16631 17.2431 3.42409C17.2223 3.43102 17.2006 3.43462 17.1787 3.43462C17.149 3.43462 17.1194 3.44068 17.0936 3.45534C17.0859 3.45974 17.0785 3.46418 17.0716 3.46862C17.0316 3.49404 16.9911 3.51963 16.9461 3.53442C16.6788 3.62239 16.4247 3.72226 16.1807 3.85566L15.6778 4.07934C15.4792 4.1846 15.241 4.38065 15.1087 4.46092C14.8697 4.60106 14.5601 4.59156 14.3307 4.43637C12.9378 3.49425 11.2997 2.98835 9.61607 3.0002C8.78093 3.0002 7.94711 3.11752 7.15433 3.38199C2.26923 4.96091 0.508955 10.2898 1.97938 14.9476C2.8132 17.3278 4.17642 19.5001 5.96184 21.2751C8.51755 23.7356 11.3221 25.9198 14.341 27.8013C14.5443 27.9234 14.7986 27.922 15.0006 27.7977L15.016 27.7882C18.0455 25.9198 20.8659 23.7356 23.4455 21.262C25.219 19.487 26.5835 17.3278 27.4306 14.9476C28.9262 10.2898 27.1659 4.96091 22.2278 3.35436C21.844 3.22278 21.4483 3.13067 21.0512 3.07936C20.9455 3.07936 20.84 3.07119 20.735 3.05821C20.4162 3.0188 20.0989 3.0002 19.7807 3.0002H19.6351ZM7.84255 7.15824C8.38519 6.97272 8.98078 7.2635 9.17931 7.81612C9.3646 8.36875 9.07342 8.974 8.51755 9.17005C7.66917 9.48583 7.10139 10.3161 7.10139 11.2358V11.2766C7.12653 11.5779 7.03521 11.8687 6.84992 12.0924C6.66463 12.316 6.38669 12.4463 6.09551 12.4739C5.55287 12.4595 5.08964 12.0266 5.04994 11.4726V11.3161C5.01023 9.47267 6.1339 7.80297 7.84255 7.15824Z" fill="white"/>
<path fill-rule="evenodd" clip-rule="evenodd" d="M27.91 15.4616C28.8495 8.04472 22.2732 1.01484 15.5091 0.111919C8.68225 -0.855495 1.04124 4.56203 0.101774 11.9789C-0.837694 19.4602 4.86175 26.9415 11.6259 27.909C18.4527 28.8119 26.9706 22.8784 27.91 15.4616ZM11.1125 16.3864L19.25 7.43754H20.5625L11.1125 20.5625L7.43753 14.597H8.75003L11.1125 16.3864Z" fill="#7ABC2F"/>
</svg>
