<svg width="50" height="49" viewBox="0 0 50 49" fill="none" xmlns="http://www.w3.org/2000/svg">
<path d="M35.0586 31.4706C35.0586 31.4706 30.0336 36.5475 30.0336 44.8823H26.5526H21.3591C21.3591 38.2579 18.8887 34.1855 17.1763 32.1222" stroke="#3F4042" stroke-width="1.6" stroke-miterlimit="10" stroke-linecap="round" stroke-linejoin="round"/>
<path d="M31.4925 27.8897C31.128 27.0861 30.9316 26.1964 30.9316 25.2492C30.9316 23.9864 31.2962 22.781 31.9132 21.7764" stroke="#3F4042" stroke-width="1.6" stroke-miterlimit="10" stroke-linecap="round" stroke-linejoin="round"/>
<path d="M39.0222 19.4845C39.1571 19.0422 39.2381 18.5723 39.2381 18.0746C39.2381 15.6419 37.3217 13.6791 34.9464 13.6791C34.3526 13.6791 33.8127 13.7897 33.2999 14.0108C31.4644 11.0805 28.2254 9.11768 24.5275 9.11768C21.6663 9.11768 19.0751 10.3064 17.2127 12.1863C16.8348 12.1033 16.4299 12.048 15.998 12.048C12.786 12.048 10.1678 14.7296 10.1678 18.0194C10.1678 18.3235 10.1948 18.6275 10.2218 18.9316C8.33231 20.2862 7.11768 22.5255 7.11768 25.0688C7.11768 29.2156 10.4107 32.5883 14.4595 32.5883C16.8618 32.5883 18.7242 31.6207 20.0738 29.7685C21.3424 30.349 22.692 30.4596 24.5005 30.4596C27.0917 30.4596 29.44 29.492 31.2485 27.9163C32.2202 30.0449 34.3256 31.5378 36.7819 31.5378C40.1559 31.5378 42.882 28.7456 42.882 25.29C42.909 22.6637 41.3165 20.3968 39.0222 19.4845Z" stroke="#3F4042" stroke-width="1.6" stroke-miterlimit="10" stroke-linecap="round" stroke-linejoin="round"/>
<path d="M14.3316 30.353C11.5961 30.353 9.35303 28.0276 9.35303 25.1918C9.35303 23.5186 10.1463 21.9306 11.4594 20.9664L12.6903 20.0589L12.4715 18.4992C12.4441 18.3291 12.4441 18.1306 12.4441 17.9604C12.4441 16.0037 13.976 14.3873 15.8909 14.3873C16.1371 14.3873 16.3559 14.4157 16.6021 14.4724L17.8878 14.756L18.8179 13.7918C20.3497 12.2321 22.374 11.353 24.5077 11.353C27.2705 11.353 29.8146 12.7992 31.3191 15.2097L32.4406 16.9962L34.3555 16.1739C34.5743 16.0604 34.8205 16.0321 35.0941 16.0321C36.1336 16.0321 36.9816 16.9112 36.9816 17.9888C36.9816 18.1873 36.9542 18.4142 36.8722 18.6127L36.1062 20.9097L38.2946 21.7888C39.7444 22.356 40.6471 23.7739 40.6471 25.3619C40.6471 27.4888 38.9785 29.2186 36.9269 29.2186C35.477 29.2186 34.164 28.3395 33.5622 26.9783L32.1944 23.9157L29.7325 26.0992C28.2553 27.4037 26.3952 28.1127 24.4803 28.1127C22.6749 28.1127 21.7722 27.9992 20.9789 27.6306L19.2008 26.8082L18.0246 28.4246C17.1492 29.7574 15.9456 30.353 14.3316 30.353Z" fill="#7ABC2F"/>
<path d="M14.5763 27.7032L12.3326 24.244" stroke="white" stroke-width="1.6" stroke-miterlimit="10" stroke-linecap="round"/>
<path d="M46.5757 42.9776C45.2935 42.7088 44.2912 41.7065 44.0225 40.4243C43.9707 40.1771 43.7527 40 43.5 40C43.2474 40 43.0294 40.177 42.9776 40.4243C42.7088 41.7065 41.7066 42.7088 40.4243 42.9775C40.1771 43.0293 40 43.2474 40 43.5C40 43.7526 40.1771 43.9706 40.4243 44.0224C41.7065 44.2912 42.7088 45.2934 42.9775 46.5757C43.0293 46.8229 43.2473 47 43.5 47C43.7526 47 43.9706 46.823 44.0224 46.5757C44.2912 45.2934 45.2935 44.2912 46.5757 44.0225C46.8229 43.9706 47 43.7526 47 43.5C47 43.2474 46.8229 43.0294 46.5757 42.9776Z" fill="#FFB800"/>
<path d="M47.8182 37.2761C47.2686 37.1609 46.8391 36.7314 46.7239 36.1818C46.7017 36.0759 46.6083 36 46.5 36C46.3918 36 46.2983 36.0759 46.2761 36.1818C46.1609 36.7314 45.7314 37.1609 45.1818 37.2761C45.0759 37.2983 45 37.3917 45 37.5C45 37.6082 45.0759 37.7017 45.1818 37.7239C45.7314 37.8391 46.1609 38.2686 46.2761 38.8182C46.2983 38.9241 46.3917 39 46.5 39C46.6082 39 46.7017 38.9241 46.7239 38.8182C46.8391 38.2686 47.2686 37.8391 47.8182 37.7239C47.9241 37.7017 48 37.6083 48 37.5C48 37.3918 47.9241 37.2983 47.8182 37.2761Z" fill="#FFB800"/>
<path d="M7.63634 9.55223C6.53725 9.32182 5.67821 8.46275 5.44783 7.36369C5.40342 7.1518 5.21656 7 5.00003 7C4.78352 7 4.59663 7.15174 4.55223 7.36366C4.32182 8.46275 3.46278 9.32179 2.36369 9.55217C2.1518 9.59658 2 9.78347 2 9.99997C2 10.2165 2.15177 10.4033 2.36369 10.4478C3.46275 10.6782 4.32179 11.5372 4.55217 12.6363C4.59658 12.8482 4.78344 13 4.99997 13C5.21648 13 5.40337 12.8483 5.44777 12.6363C5.67821 11.5372 6.53725 10.6782 7.63631 10.4478C7.8482 10.4034 8 10.2165 8 10C8 9.78352 7.84823 9.59663 7.63634 9.55223Z" fill="#FFB800"/>
</svg>
