<svg width="34" height="29" viewBox="0 0 34 29" fill="none" xmlns="http://www.w3.org/2000/svg">
<path d="M25.6356 0.000203503C24.8129 0.0250767 24.016 0.166306 23.2435 0.424092C23.2228 0.431019 23.201 0.434617 23.1792 0.434617C23.1495 0.434617 23.1199 0.44068 23.0941 0.455341C23.0864 0.459743 23.079 0.464179 23.072 0.468625C23.0321 0.49404 22.9916 0.519625 22.9466 0.534422C22.6793 0.622392 22.4252 0.72226 22.1812 0.855663L21.6783 1.07934C21.4797 1.1846 21.2415 1.38065 21.1091 1.46092C20.8702 1.60106 20.5606 1.59156 20.3312 1.43637C18.9383 0.49425 17.3001 -0.0116455 15.6166 0.000203503C14.7814 0.000203503 13.9476 0.117517 13.1548 0.381986C8.26972 1.96091 6.50944 7.28977 7.97987 11.9476C8.81368 14.3278 10.1769 16.5001 11.9623 18.2751C14.518 20.7356 17.3226 22.9198 20.3415 24.8013C20.5448 24.9234 20.7991 24.922 21.001 24.7977L21.0165 24.7882C24.046 22.9198 26.8664 20.7356 29.446 18.262C31.2195 16.487 32.584 14.3278 33.4311 11.9476C34.9266 7.28977 33.1664 1.96091 28.2283 0.354355C27.8445 0.222778 27.4488 0.130675 27.0517 0.0793597C26.946 0.0793597 26.8404 0.0711903 26.7355 0.0582148C26.4167 0.018796 26.0994 0.000203503 25.7812 0.000203503H25.6356ZM13.843 4.15824C14.3857 3.97272 14.9813 4.2635 15.1798 4.81612C15.3651 5.36875 15.0739 5.974 14.518 6.17005C13.6697 6.48583 13.1019 7.31608 13.1019 8.2358V8.27659C13.127 8.5779 13.0357 8.86869 12.8504 9.09237C12.6651 9.31605 12.3872 9.44631 12.096 9.47394C11.5534 9.45947 11.0901 9.02658 11.0504 8.47264V8.31606C11.0107 6.47267 12.1344 4.80297 13.843 4.15824Z" fill="#FFB800"/>
<path d="M7.81104 26.1742C8.82289 26.3863 9.61374 27.1772 9.82584 28.189C9.86672 28.3841 10.0388 28.5238 10.2381 28.5238C10.4374 28.5238 10.6095 28.3841 10.6504 28.189C10.8625 27.1772 11.6533 26.3863 12.6652 26.1742C12.8603 26.1333 13 25.9613 13 25.762C13 25.5626 12.8603 25.3906 12.6652 25.3497C11.6534 25.1376 10.8625 24.3467 10.6504 23.3349C10.6095 23.1398 10.4375 23 10.2381 23C10.0388 23 9.86677 23.1397 9.82589 23.3349C9.61374 24.3467 8.82289 25.1376 7.81106 25.3496C7.61599 25.3905 7.47624 25.5626 7.47624 25.7619C7.47624 25.9612 7.61596 26.1333 7.81104 26.1742Z" fill="#FFB800"/>
<path d="M4.68966 19.0249C5.33518 19.1603 5.83971 19.6648 5.97502 20.3103C6.0011 20.4348 6.11085 20.5239 6.23802 20.5239C6.36518 20.5239 6.47494 20.4348 6.50102 20.3103C6.63635 19.6648 7.14088 19.1603 7.7864 19.025C7.91085 18.9989 8 18.8891 8 18.762C8 18.6348 7.91086 18.5251 7.7864 18.499C7.14089 18.3637 6.63636 17.8591 6.50106 17.2136C6.47498 17.0892 6.36523 17 6.23805 17C6.1109 17 6.00113 17.0891 5.97505 17.2136C5.83971 17.8591 5.33518 18.3637 4.68967 18.4989C4.56523 18.525 4.47607 18.6348 4.47607 18.7619C4.47607 18.8891 4.56521 18.9989 4.68966 19.0249Z" fill="#FFB800"/>
<path d="M0.150562 24.9467C0.604136 25.0418 0.958642 25.3964 1.05372 25.8499C1.07204 25.9374 1.14916 26 1.23851 26C1.32786 26 1.40499 25.9374 1.42331 25.8499C1.5184 25.3964 1.8729 25.0418 2.32648 24.9468C2.41392 24.9284 2.47656 24.8513 2.47656 24.762C2.47656 24.6726 2.41393 24.5955 2.32648 24.5772C1.87292 24.4821 1.51841 24.1276 1.42334 23.674C1.40501 23.5866 1.3279 23.5239 1.23854 23.5239C1.14919 23.5239 1.07206 23.5865 1.05374 23.674C0.958643 24.1276 0.604136 24.4821 0.150574 24.5772C0.063132 24.5955 0.000488281 24.6726 0.000488281 24.762C0.000488281 24.8513 0.0631206 24.9284 0.150562 24.9467Z" fill="#FFB800"/>
</svg>
