<svg width="29" height="30" viewBox="0 0 29 30" fill="none" xmlns="http://www.w3.org/2000/svg">
<path fill-rule="evenodd" clip-rule="evenodd" d="M28.6806 17.9644C28.2029 20.163 27.2027 22.2141 25.7646 23.9444L25.7867 23.9604C25.7493 24.0058 25.7088 24.0475 25.6683 24.0891C25.6329 24.1256 25.5975 24.162 25.5644 24.2008C25.5054 24.2674 25.4444 24.3316 25.3835 24.3957C25.3502 24.4307 25.3169 24.4658 25.284 24.5012C25.0036 24.8056 24.7152 25.097 24.4128 25.3724C24.3476 25.4312 24.2808 25.488 24.2144 25.5446C24.187 25.568 24.1596 25.5913 24.1324 25.6147C23.812 25.8911 23.4815 26.1524 23.141 26.3978C23.1169 26.4138 23.0945 26.4325 23.0722 26.4511C23.0528 26.4673 23.0333 26.4835 23.0129 26.4979V26.4859C20.6675 28.1363 17.8697 29.0221 15.0019 29.0221C12.1341 29.0221 9.33624 28.1363 6.99092 26.4859V26.4979C6.96982 26.483 6.94965 26.4663 6.9295 26.4497C6.90758 26.4315 6.88571 26.4134 6.86275 26.3978C6.52128 26.1534 6.19183 25.8911 5.87139 25.6147C5.84326 25.5905 5.81494 25.5665 5.78658 25.5424C5.72106 25.4868 5.6553 25.4311 5.59101 25.3724C5.28859 25.098 5.0002 24.8056 4.71981 24.5012C4.68718 24.4661 4.65406 24.4314 4.62092 24.3966C4.55948 24.3322 4.49798 24.2678 4.43943 24.2008C4.40603 24.1623 4.37092 24.1261 4.33588 24.0901C4.29527 24.0483 4.25475 24.0066 4.21712 23.9614L4.23715 23.9444C2.13502 21.4388 0.982451 18.2728 0.981695 15.0022C0.979724 12.7523 1.51966 10.535 2.55584 8.53799C3.59201 6.54093 5.09394 4.8228 6.93456 3.52896C8.77518 2.23512 10.9003 1.40363 13.1303 1.10482C15.3602 0.80601 17.6293 1.04868 19.7456 1.81229C21.862 2.57591 23.7632 3.83801 25.2886 5.49182C26.814 7.14564 27.9186 9.14252 28.5091 11.3135C29.0995 13.4845 29.1583 15.7658 28.6806 17.9644Z" fill="#FAB70C"/>
<path d="M16.746 12.0448C16.746 10.7055 17.836 9.61545 19.1759 9.61545C20.5152 9.61545 21.6053 10.7052 21.6053 12.0448C21.6053 12.4304 21.2928 12.7428 20.9072 12.7428C20.5217 12.7428 20.2092 12.4304 20.2092 12.0448C20.2092 11.475 19.7458 11.0115 19.1759 11.0115C18.6058 11.0115 18.142 11.475 18.142 12.0448C18.142 12.4304 17.8296 12.7428 17.444 12.7428C17.0584 12.7428 16.746 12.4301 16.746 12.0448ZM9.00554 12.0373C9.00554 10.6979 10.0956 9.60791 11.4355 9.60791C12.7748 9.60791 13.8648 10.6977 13.8648 12.0373C13.8648 12.4229 13.5524 12.7353 13.1668 12.7353C12.7812 12.7353 12.4688 12.4229 12.4688 12.0373C12.4688 11.4674 12.0053 11.0039 11.4355 11.0039C10.8653 11.0039 10.4016 11.4674 10.4016 12.0373C10.4016 12.4229 10.0891 12.7353 9.70355 12.7353C9.31797 12.7353 9.00554 12.4229 9.00554 12.0373ZM8.6959 17.3653C8.51832 16.9381 8.72075 16.4479 9.14821 16.2706C9.25319 16.227 9.36208 16.2063 9.4693 16.2063C9.79765 16.2063 10.1092 16.4007 10.243 16.7232C11.0183 18.5896 12.9387 19.7955 15.1355 19.7955C17.2826 19.7955 19.1918 18.5891 19.9995 16.7212C20.1833 16.2965 20.6763 16.1005 21.1005 16.2848C21.5251 16.4685 21.7206 16.9613 21.5369 17.386C20.4644 19.867 17.9516 21.4702 15.1355 21.4702C12.2594 21.4705 9.73175 19.8592 8.6959 17.3653Z" fill="white"/>
</svg>
