<svg width="50" height="49" viewBox="0 0 50 49" fill="none" xmlns="http://www.w3.org/2000/svg">
<g clip-path="url(#clip0)">
<path d="M1.58398 29.9812L6.54036 28.2474" stroke="#3F4042" stroke-width="1.4"/>
<path d="M1.58398 14.7142L6.54036 16.448" stroke="#3F4042" stroke-width="1.4"/>
<path d="M0 22.2769L5.32186 22.133" stroke="#3F4042" stroke-width="1.4"/>
<path d="M48.8887 29.9812L43.9323 28.2474" stroke="#3F4042" stroke-width="1.4"/>
<path d="M48.8887 14.7142L43.9323 16.448" stroke="#3F4042" stroke-width="1.4"/>
<path d="M50.4707 22.2769L45.1488 22.133" stroke="#3F4042" stroke-width="1.4"/>
<path d="M30.8941 11.0002C29.9928 11.0273 29.1197 11.181 28.2735 11.4615C28.2507 11.469 28.2269 11.473 28.203 11.473C28.1705 11.473 28.138 11.4796 28.1097 11.4956C28.1013 11.5003 28.0933 11.5051 28.0857 11.5099C28.0419 11.5376 27.9974 11.5655 27.9481 11.5816C27.6553 11.6773 27.3769 11.786 27.1096 11.9312L26.5586 12.1746C26.3411 12.2891 26.0801 12.5025 25.9351 12.5898C25.673 12.7425 25.3344 12.7321 25.0826 12.563C23.5567 11.5378 21.7621 10.9873 19.9177 11.0002C19.0027 11.0002 18.0893 11.1279 17.2207 11.4157C11.8688 13.1339 9.94034 18.933 11.5513 24.0018C12.4648 26.592 13.9582 28.9561 15.9143 30.8876C18.6957 33.5475 22.0255 36.9102 24.7071 39.7275C24.7428 39.765 24.7832 39.7972 24.8277 39.8238C25.0094 39.9321 25.2361 39.9309 25.4166 39.8206L25.4378 39.8076C25.4792 39.7823 25.5173 39.7522 25.5516 39.7179C28.6581 36.6085 32.2581 33.5504 35.0686 30.8733C37.0116 28.9417 38.5065 26.592 39.4345 24.0018C41.073 18.933 39.1445 13.1339 33.7346 11.3856C33.3141 11.2424 32.8806 11.1422 32.4456 11.0864C32.3297 11.0864 32.2141 11.0775 32.0991 11.0633C31.7498 11.0205 31.4022 11.0002 31.0536 11.0002H30.8941ZM17.9747 15.5251C18.5692 15.3233 19.2217 15.6397 19.4392 16.2411C19.6422 16.8425 19.3232 17.5011 18.7142 17.7145C17.7848 18.0581 17.1627 18.9616 17.1627 19.9625V20.0069C17.1903 20.3348 17.0902 20.6512 16.8872 20.8946C16.6842 21.1381 16.3797 21.2798 16.0607 21.3099C15.4662 21.2941 14.9587 20.8231 14.9152 20.2202V20.0498C14.8717 18.0438 16.1028 16.2268 17.9747 15.5251Z" fill="#FF6161"/>
</g>
<defs>
<clipPath id="clip0">
<rect width="50" height="49" fill="white"/>
</clipPath>
</defs>
</svg>
