<svg width="50" height="49" viewBox="0 0 50 49" fill="none" xmlns="http://www.w3.org/2000/svg">
<g clip-path="url(#clip0)">
<path d="M28 34.2083L30.4531 44L32.8437 39.4123L37 41.9971L34.5 32" stroke="#3F4042" stroke-width="1.6" stroke-miterlimit="10" stroke-linecap="round" stroke-linejoin="round"/>
<path d="M20 34.2083L17.5469 44L15.1563 39.4123L11 41.9971L13.5 32" stroke="#3F4042" stroke-width="1.6" stroke-miterlimit="10" stroke-linecap="round" stroke-linejoin="round"/>
<path d="M24.5 38C24.0433 38 23.6264 37.8016 23.3484 37.4444C22.3953 36.2141 20.9458 35.5195 19.3971 35.5195C18.7617 35.5195 18.1264 35.6386 17.5307 35.8767C17.352 35.9561 17.1733 35.9759 16.9946 35.9759C16.3791 35.9759 15.6643 35.5394 15.5451 34.7258C15.2274 32.5232 13.4801 30.7769 11.2762 30.4594C10.8394 30.3999 10.4422 30.1419 10.2238 29.745C10.0054 29.3482 9.9657 28.8918 10.1245 28.475C10.9585 26.4113 10.3032 24.0102 8.55596 22.641C8.19856 22.3632 8 21.9465 8 21.4901C8 21.0337 8.19856 20.617 8.55596 20.3391C10.3032 18.9699 10.9386 16.5689 10.1245 14.5051C9.9657 14.0884 9.98556 13.632 10.2238 13.2351C10.4422 12.8382 10.8394 12.5803 11.2762 12.5207C13.4603 12.2429 15.2274 10.4768 15.5451 8.2742C15.6643 7.46061 16.3791 7.02405 16.9946 7.02405C17.1733 7.02405 17.352 7.06374 17.5307 7.12327C18.1264 7.3614 18.7617 7.48046 19.3971 7.48046C20.9458 7.48046 22.3953 6.78593 23.3484 5.55562C23.6264 5.19844 24.0433 5 24.5 5C24.9567 5 25.3736 5.19844 25.6516 5.55562C26.6047 6.78593 28.0542 7.48046 29.6029 7.48046C30.2383 7.48046 30.8736 7.3614 31.4693 7.12327C31.648 7.0439 31.8267 7.02405 32.0054 7.02405C32.6209 7.02405 33.3357 7.46061 33.4549 8.2742C33.7726 10.4768 35.5199 12.2231 37.7238 12.5406C38.1607 12.6001 38.5578 12.8581 38.7762 13.255C38.9946 13.6518 39.0343 14.1082 38.8755 14.525C38.0415 16.5887 38.6968 18.9898 40.444 20.359C40.8014 20.6368 41 21.0535 41 21.5099C41 21.9663 40.8014 22.383 40.444 22.6609C38.6968 24.0301 38.0614 26.4311 38.8755 28.4949C39.0343 28.9116 39.0144 29.368 38.7762 29.7649C38.5578 30.1618 38.1607 30.4197 37.7238 30.4793C35.5199 30.7968 33.7726 32.543 33.4549 34.7456C33.3357 35.5592 32.6209 35.9958 32.0054 35.9958C31.8267 35.9958 31.648 35.9561 31.4693 35.8966C30.8736 35.6585 30.2383 35.5394 29.6029 35.5394C28.0542 35.5394 26.6047 36.2339 25.6516 37.4642C25.3736 37.8016 24.9567 38 24.5 38Z" fill="#7ABC2F"/>
<path d="M17 20.3333L23.4 27L33 17" stroke="white" stroke-width="1.6"/>
<path d="M3.44777 29.3637C3.67818 30.4628 4.53725 31.3218 5.63631 31.5522C5.8482 31.5966 6 31.7834 6 32C6 32.2165 5.84826 32.4034 5.63634 32.4478C4.53725 32.6782 3.67821 33.5372 3.44783 34.6363C3.40342 34.8482 3.21653 35 3.00003 35C2.78352 35 2.59666 34.8482 2.55223 34.6363C2.32182 33.5372 1.46278 32.6782 0.363686 32.4478C0.151797 32.4034 -5.8867e-07 32.2166 -5.60275e-07 32C-5.31884e-07 31.7835 0.151742 31.5966 0.363686 31.5522C1.46278 31.3218 2.32182 30.4628 2.55217 29.3637C2.59661 29.1518 2.78347 29 2.99997 29C3.21648 29 3.40337 29.1518 3.44777 29.3637Z" fill="#FFB800"/>
<path d="M42.8731 6.30305C43.0652 7.21896 43.781 7.93483 44.6969 8.12681C44.8735 8.16382 45 8.31953 45 8.49998C45 8.6804 44.8735 8.83614 44.697 8.87315C43.781 9.06515 43.0652 9.78102 42.8732 10.6969C42.8362 10.8735 42.6804 11 42.5 11C42.3196 11 42.1639 10.8735 42.1269 10.6969C41.9348 9.78104 41.219 9.06517 40.3031 8.87319C40.1265 8.83618 40 8.68047 40 8.50002C40 8.3196 40.1265 8.16386 40.3031 8.12685C41.219 7.93483 41.9348 7.21896 42.1268 6.30307C42.1638 6.1265 42.3196 6 42.5 6C42.6804 6 42.8361 6.12648 42.8731 6.30305Z" fill="#FFB800"/>
<path d="M46.7239 16.1818C46.8391 16.7314 47.2686 17.1609 47.8182 17.2761C47.9241 17.2983 48 17.3917 48 17.5C48 17.6082 47.9241 17.7017 47.8182 17.7239C47.2686 17.8391 46.8391 18.2686 46.7239 18.8182C46.7017 18.9241 46.6083 19 46.5 19C46.3918 19 46.2983 18.9241 46.2761 18.8182C46.1609 18.2686 45.7314 17.8391 45.1818 17.7239C45.0759 17.7017 45 17.6083 45 17.5C45 17.3918 45.0759 17.2983 45.1818 17.2761C45.7314 17.1609 46.1609 16.7314 46.2761 16.1818C46.2983 16.0759 46.3917 16 46.5 16C46.6082 16 46.7017 16.0759 46.7239 16.1818Z" fill="#FFB800"/>
</g>
<defs>
<clipPath id="clip0">
<rect width="50" height="49" fill="white"/>
</clipPath>
</defs>
</svg>
