<svg width="50" height="49" viewBox="0 0 50 49" fill="none" xmlns="http://www.w3.org/2000/svg">
<path d="M7.0224 43.5757C7.29121 42.2935 8.29346 41.2912 9.5757 41.0225C9.8229 40.9707 10 40.7527 10 40.5C10 40.2474 9.82297 40.0294 9.57573 39.9776C8.29346 39.7088 7.29124 38.7066 7.02247 37.4243C6.97066 37.1771 6.75262 37 6.50003 37C6.24744 37 6.02944 37.1771 5.9776 37.4243C5.70879 38.7065 4.70658 39.7088 3.4243 39.9775C3.1771 40.0293 3 40.2473 3 40.5C3 40.7526 3.17703 40.9706 3.4243 41.0224C4.70658 41.2912 5.70879 42.2935 5.97753 43.5757C6.02937 43.8229 6.24738 44 6.49997 44C6.75256 44 6.97059 43.8229 7.0224 43.5757Z" fill="#FFB800"/>
<path d="M43.4478 12.6363C43.6782 11.5372 44.5372 10.6782 45.6363 10.4478C45.8482 10.4034 46 10.2166 46 10C46 9.78352 45.8483 9.59663 45.6363 9.55223C44.5372 9.32182 43.6782 8.46278 43.4478 7.36369C43.4034 7.1518 43.2165 7 43 7C42.7835 7 42.5967 7.15177 42.5522 7.36369C42.3218 8.46275 41.4628 9.32179 40.3637 9.55217C40.1518 9.59658 40 9.78344 40 9.99997C40 10.2165 40.1517 10.4034 40.3637 10.4478C41.4628 10.6782 42.3218 11.5372 42.5522 12.6363C42.5966 12.8482 42.7835 13 43 13C43.2165 13 43.4034 12.8482 43.4478 12.6363Z" fill="#FFB800"/>
<path d="M2.72389 34.8182C2.83909 34.2686 3.26862 33.8391 3.81816 33.7239C3.9241 33.7017 4 33.6083 4 33.5C4 33.3918 3.92413 33.2983 3.81817 33.2761C3.26862 33.1609 2.8391 32.7314 2.72391 32.1818C2.70171 32.0759 2.60827 32 2.50001 32C2.39176 32 2.29833 32.0759 2.27611 32.1818C2.16091 32.7314 1.73139 33.1609 1.18184 33.2761C1.0759 33.2983 1 33.3917 1 33.5C1 33.6082 1.07587 33.7017 1.18184 33.7239C1.73139 33.8391 2.16091 34.2686 2.27609 34.8182C2.2983 34.9241 2.39173 35 2.49999 35C2.60824 35 2.70168 34.9241 2.72389 34.8182Z" fill="#FFB800"/>
<g clip-path="url(#clip0)">
<path fill-rule="evenodd" clip-rule="evenodd" d="M40.1136 32.2955C40.574 30.7152 40.842 29.0275 40.8863 27.2637L40.643 27.3708L38.091 28.4941L33.8274 26.6174L29.5638 28.4941L25.3001 26.6174L21.0365 28.4941L16.7729 26.6174L12.5092 28.4941L9.95717 27.3709L9.71387 27.2638C9.75817 29.0275 10.0263 30.7153 10.4866 32.2956L10.7891 32.4287L12.5092 33.1858L16.7728 31.3092L21.0364 33.1858L25.3001 31.3092L29.5637 33.1858L33.8273 31.3092L38.0909 33.1858L39.8111 32.4287L40.1136 32.2955Z" fill="#FF7373"/>
<path fill-rule="evenodd" clip-rule="evenodd" d="M36.693 12.0804C35.1155 9.58861 33.1305 7.51666 30.8013 6.22205L30.753 6.30474C29.1552 11.7133 21.4429 11.7104 19.8468 6.30474L19.7985 6.22205C17.4693 7.51666 15.4842 9.58869 13.9067 12.0805L14.1365 12.2119L16.4382 13.5442L17.7834 15.8236C18.1056 16.369 18.7077 16.7332 19.3919 16.7359L22.054 16.75L24.3472 18.0451C24.9042 18.3718 25.6177 18.402 26.2211 18.0629L28.5457 16.7501L31.0496 16.7369C31.7438 16.7921 32.4418 16.4594 32.8164 15.8238L34.1617 13.5444L36.4634 12.2121L36.4769 12.2042L36.693 12.0804Z" fill="#FF7373"/>
<path d="M37.3624 11.6275C31.1346 1.45703 19.465 1.45799 13.2378 11.6275C8.08953 19.7183 6.77646 32.3317 13.6695 39.7197C19.7324 46.7599 30.8678 46.7603 36.9308 39.7197C43.824 32.3302 42.5103 19.7195 37.3624 11.6275ZM14.6091 12.4814C17.4389 8.0246 21.2356 5.57012 25.3 5.57012C33.037 5.41451 38.5334 14.8052 39.6765 22.2267L38.0909 22.9245L34.1563 21.1927C33.9469 21.1005 33.7079 21.1005 33.4984 21.1927L29.5637 22.9245L25.629 21.1927C25.4194 21.1005 25.1804 21.1005 24.9711 21.1927L21.0364 22.9245L17.1018 21.1927C16.8924 21.1005 16.6534 21.1005 16.4438 21.1927L12.5091 22.9245L10.9236 22.2267C11.5374 18.7401 12.8221 15.2957 14.6091 12.4814ZM25.3 43.4301C20.8775 43.4301 16.9664 41.3436 14.2797 37.9758L16.7728 36.8786L20.7074 38.6104C20.917 38.7026 21.156 38.7026 21.3654 38.6104L25.3 36.8786L29.2347 38.6104C29.4441 38.7026 29.6831 38.7026 29.8926 38.6104L33.8273 36.8786L36.3204 37.9758C33.6336 41.3435 29.7224 43.4301 25.3 43.4301ZM37.2775 36.6415L34.1563 35.2677C33.9469 35.1756 33.7079 35.1755 33.4984 35.2677L29.5637 36.9996L25.629 35.2677C25.4194 35.1755 25.1804 35.1756 24.9711 35.2677L21.0364 36.9996L17.1018 35.2677C16.8924 35.1756 16.6534 35.1755 16.4438 35.2677L13.3226 36.6415C11.031 33.2143 10.0867 28.2971 10.6839 23.8769L12.1801 24.5354C12.3894 24.6276 12.6284 24.6277 12.838 24.5354L16.7727 22.8036L20.7074 24.5354C20.9169 24.6277 21.1559 24.6276 21.3653 24.5354L25.2999 22.8036L29.2346 24.5354C29.444 24.6276 29.683 24.6277 29.8925 24.5354L33.8272 22.8036L37.7618 24.5354C37.9713 24.6276 38.2103 24.6276 38.4197 24.5354L39.916 23.8769C40.5133 28.2978 39.5691 33.2136 37.2775 36.6415Z" fill="#3F4042"/>
</g>
<defs>
<clipPath id="clip0">
<rect width="46" height="41" fill="white" transform="translate(0 4)"/>
</clipPath>
</defs>
</svg>
