<svg width="50" height="49" viewBox="0 0 50 49" fill="none" xmlns="http://www.w3.org/2000/svg">
<path d="M25.0124 35.3863C24.0982 35.3863 23.1136 35.6463 22.551 35.9298C20.16 37.1351 18.1206 34.5119 19.2458 32.0778C20.1132 30.2109 22.3635 28.1549 25.0358 28.1549C27.7081 28.1549 29.9585 30.2109 30.8258 32.0778C31.951 34.5119 29.8882 37.1114 27.4972 35.9298C26.8877 35.6463 25.9031 35.3863 25.0124 35.3863Z" fill="#FF7373"/>
<path d="M18.4718 16.9533C18.4718 16.9533 20.5346 15.2282 20.394 12.9595C20.394 12.9595 17.2763 9.17839 9.611 4.83011C9.611 4.83011 5.76663 9.79283 7.40752 16.2207C8.08731 18.8439 10.0329 20.9944 12.7052 21.3961C12.8459 21.4198 12.9865 21.4434 13.1272 21.4434C13.1272 21.4434 11.9551 24.1611 11.9317 28.0131C11.9082 30.2109 12.4239 32.385 13.3616 34.3937" stroke="#3F4042" stroke-width="1.6" stroke-miterlimit="10" stroke-linecap="round" stroke-linejoin="round"/>
<path d="M27.1221 31.6051C27.1221 31.6051 27.8956 32.1014 28.1535 33.283" stroke="#3F4042" stroke-width="1.6" stroke-miterlimit="10" stroke-linecap="round" stroke-linejoin="round"/>
<path d="M22.8791 31.6051C22.8791 31.6051 22.1055 32.1014 21.8477 33.283" stroke="#3F4042" stroke-width="1.6" stroke-miterlimit="10" stroke-linecap="round" stroke-linejoin="round"/>
<path d="M16.7609 14.6847C14.6512 12.6287 11.932 11.0218 11.932 11.0218C10.9241 12.9832 11.6742 15.7009 12.4477 16.8825" stroke="#3F4042" stroke-width="1.6" stroke-miterlimit="10" stroke-linecap="round" stroke-linejoin="round"/>
<path d="M22.7617 38.3639C24.1916 37.7495 25.7856 37.7495 27.2156 38.3639H22.7617Z" fill="#3F4042"/>
<path d="M22.7617 38.3639C24.1916 37.7495 25.7856 37.7495 27.2156 38.3639" stroke="#3F4042" stroke-width="1.6" stroke-miterlimit="10" stroke-linecap="round" stroke-linejoin="round"/>
<path d="M31.5287 16.9533C31.5287 16.9533 29.4658 15.2282 29.6065 12.9595C29.6065 12.9595 32.7242 9.17839 40.3895 4.83011C40.3895 4.83011 44.2338 9.79283 42.5929 16.2207C41.9131 18.8439 39.9675 20.9944 37.2952 21.3961C37.1546 21.4198 37.0139 21.4434 36.8733 21.4434C36.8733 21.4434 38.0453 24.1611 38.0688 28.0131C38.0922 30.2109 37.5765 32.385 36.6389 34.3937" stroke="#3F4042" stroke-width="1.6" stroke-miterlimit="10" stroke-linecap="round" stroke-linejoin="round"/>
<path d="M29.606 12.9596C29.606 12.9596 28.1995 11.8252 24.988 11.8252C21.7766 11.8252 20.3701 12.9596 20.3701 12.9596" stroke="#3F4042" stroke-width="1.6" stroke-miterlimit="10" stroke-linecap="round" stroke-linejoin="round"/>
<path d="M33.2402 14.6847C35.3499 12.6287 38.0691 11.0218 38.0691 11.0218C39.0771 12.9832 38.327 15.7009 37.5534 16.8825" stroke="#3F4042" stroke-width="1.6" stroke-miterlimit="10" stroke-linecap="round" stroke-linejoin="round"/>
<path d="M35.1383 31.5342C36.2635 32.9049 36.9198 34.5119 36.9198 36.237C36.9198 41.1761 31.5987 45.1699 25.0117 45.1699C18.4481 45.1699 13.1035 41.1761 13.1035 36.237C13.1035 34.5119 13.7599 32.9049 14.8851 31.5342" stroke="#3F4042" stroke-width="1.6" stroke-miterlimit="10" stroke-linecap="round" stroke-linejoin="round"/>
<path d="M5.91207 36.4511C6.12419 35.4392 6.91507 34.6484 7.9269 34.4363C8.12197 34.3954 8.26172 34.2234 8.26172 34.024C8.26172 33.8247 8.12202 33.6526 7.92693 33.6118C6.91507 33.3996 6.12422 32.6088 5.91212 31.5969C5.87124 31.4019 5.69918 31.2621 5.49987 31.2621C5.30055 31.2621 5.12852 31.4018 5.08761 31.5969C4.87549 32.6088 4.08464 33.3996 3.07278 33.6117C2.87771 33.6526 2.73796 33.8246 2.73796 34.024C2.73796 34.2233 2.87766 34.3953 3.07278 34.4362C4.08464 34.6484 4.87549 35.4392 5.08756 36.4511C5.12846 36.6461 5.30049 36.7859 5.49981 36.7859C5.69913 36.7859 5.87119 36.6462 5.91207 36.4511Z" fill="#FFB800"/>
<path d="M44.7239 25.8182C44.8391 25.2687 45.2686 24.8391 45.8182 24.7239C45.9241 24.7017 46 24.6083 46 24.5C46 24.3918 45.9241 24.2983 45.8182 24.2761C45.2686 24.1609 44.8391 23.7314 44.7239 23.1819C44.7017 23.0759 44.6083 23 44.5 23C44.3918 23 44.2983 23.0759 44.2761 23.1819C44.1609 23.7314 43.7314 24.1609 43.1818 24.2761C43.0759 24.2983 43 24.3918 43 24.5C43 24.6083 43.0759 24.7017 43.1818 24.7239C43.7314 24.8391 44.1609 25.2687 44.2761 25.8182C44.2983 25.9241 44.3917 26 44.5 26C44.6082 26 44.7017 25.9241 44.7239 25.8182Z" fill="#FFB800"/>
<path d="M4.68503 44.1115C4.78012 43.6579 5.13463 43.3034 5.5882 43.2084C5.67564 43.19 5.73828 43.1129 5.73828 43.0236C5.73828 42.9342 5.67566 42.8571 5.58821 42.8388C5.13463 42.7437 4.78013 42.3892 4.68505 41.9356C4.66673 41.8482 4.5896 41.7855 4.50026 41.7855C4.41091 41.7855 4.33379 41.8481 4.31546 41.9356C4.22037 42.3892 3.86587 42.7437 3.41229 42.8387C3.32485 42.8571 3.26221 42.9342 3.26221 43.0235C3.26221 43.1129 3.32483 43.19 3.41229 43.2083C3.86587 43.3034 4.22037 43.6579 4.31543 44.1115C4.33377 44.1989 4.41089 44.2616 4.50023 44.2616C4.58958 44.2616 4.66671 44.1989 4.68503 44.1115Z" fill="#FFB800"/>
<circle cx="21" cy="26" r="0.5" fill="#3F4042" stroke="#3F4042"/>
<circle cx="28" cy="26" r="0.5" fill="#3F4042" stroke="#3F4042"/>
</svg>
