<svg width="38" height="31" viewBox="0 0 38 31" fill="none" xmlns="http://www.w3.org/2000/svg">
<path d="M29.6346 3.0002C28.8119 3.02508 28.015 3.16631 27.2426 3.42409C27.2218 3.43102 27.2001 3.43462 27.1782 3.43462C27.1485 3.43462 27.1189 3.44068 27.0932 3.45534C27.0854 3.45974 27.078 3.46418 27.0711 3.46862C27.0311 3.49404 26.9906 3.51963 26.9456 3.53442C26.6783 3.62239 26.4242 3.72226 26.1802 3.85566L25.6773 4.07934C25.4788 4.1846 25.2405 4.38065 25.1082 4.46092C24.8692 4.60106 24.5596 4.59156 24.3302 4.43637C22.9373 3.49425 21.2992 2.98835 19.6156 3.0002C18.7804 3.0002 17.9466 3.11752 17.1538 3.38199C12.2687 4.96091 10.5085 10.2898 11.9789 14.9476C12.8127 17.3278 14.1759 19.5001 15.9613 21.2751C18.5171 23.7356 21.3216 25.9198 24.3405 27.8013C24.5438 27.9234 24.7982 27.922 25.0001 27.7977L25.0155 27.7882C28.045 25.9198 30.8655 23.7356 33.445 21.262C35.2185 19.487 36.583 17.3278 37.4301 14.9476C38.9257 10.2898 37.1654 4.96091 32.2274 3.35436C31.8435 3.22278 31.4478 3.13067 31.0508 3.07936C30.945 3.07936 30.8395 3.07119 30.7345 3.05821C30.4157 3.0188 30.0984 3.0002 29.7802 3.0002H29.6346ZM17.8421 7.15824C18.3847 6.97272 18.9803 7.2635 19.1788 7.81612C19.3641 8.36875 19.0729 8.974 18.5171 9.17005C17.6687 9.48583 17.1009 10.3161 17.1009 11.2358V11.2766C17.126 11.5779 17.0347 11.8687 16.8494 12.0924C16.6641 12.316 16.3862 12.4463 16.095 12.4739C15.5524 12.4595 15.0892 12.0266 15.0494 11.4726V11.3161C15.0097 9.47267 16.1334 7.80297 17.8421 7.15824Z" fill="white"/>
<path fill-rule="evenodd" clip-rule="evenodd" d="M37.91 15.4616C38.8495 8.04472 32.2732 1.01484 25.5091 0.111919C18.6823 -0.855495 11.0412 4.56203 10.1018 11.9789C9.16231 19.4602 14.8617 26.9415 21.6259 27.909C28.4527 28.8119 36.9706 22.8784 37.91 15.4616ZM21.1125 16.3864L29.25 7.43754H30.5625L21.1125 20.5625L17.4375 14.597H18.75L21.1125 16.3864Z" fill="#FFB800"/>
<path d="M7.81006 28.1742C8.82191 28.3863 9.61277 29.1772 9.82486 30.189C9.86574 30.3841 10.0378 30.5238 10.2371 30.5238C10.4364 30.5238 10.6085 30.3841 10.6494 30.189C10.8615 29.1772 11.6523 28.3863 12.6642 28.1742C12.8593 28.1333 12.999 27.9613 12.999 27.762C12.999 27.5626 12.8593 27.3906 12.6642 27.3497C11.6524 27.1376 10.8615 26.3467 10.6494 25.3349C10.6085 25.1398 10.4365 25 10.2372 25C10.0379 25 9.86579 25.1397 9.82491 25.3349C9.61277 26.3467 8.82191 27.1376 7.81008 27.3496C7.61501 27.3905 7.47527 27.5626 7.47527 27.7619C7.47527 27.9612 7.61499 28.1333 7.81006 28.1742Z" fill="#FFB800"/>
<path d="M4.68966 21.0249C5.33518 21.1603 5.83971 21.6648 5.97502 22.3103C6.0011 22.4348 6.11085 22.5239 6.23802 22.5239C6.36518 22.5239 6.47494 22.4348 6.50102 22.3103C6.63635 21.6648 7.14088 21.1603 7.7864 21.025C7.91085 20.9989 8 20.8891 8 20.762C8 20.6348 7.91086 20.5251 7.7864 20.499C7.14089 20.3637 6.63636 19.8591 6.50106 19.2136C6.47498 19.0892 6.36523 19 6.23805 19C6.1109 19 6.00113 19.0891 5.97505 19.2136C5.83971 19.8591 5.33518 20.3637 4.68967 20.4989C4.56523 20.525 4.47607 20.6348 4.47607 20.7619C4.47607 20.8891 4.56521 20.9989 4.68966 21.0249Z" fill="#FFB800"/>
<path d="M0.149586 26.9467C0.603159 27.0418 0.957666 27.3964 1.05274 27.8499C1.07107 27.9374 1.14818 28 1.23754 28C1.32688 28 1.40401 27.9374 1.42234 27.8499C1.51742 27.3964 1.87193 27.0418 2.3255 26.9468C2.41294 26.9284 2.47559 26.8513 2.47559 26.762C2.47559 26.6726 2.41295 26.5955 2.3255 26.5772C1.87194 26.4821 1.51743 26.1276 1.42236 25.674C1.40403 25.5866 1.32692 25.5239 1.23756 25.5239C1.14821 25.5239 1.07109 25.5865 1.05276 25.674C0.957666 26.1276 0.603159 26.4821 0.149597 26.5772C0.0621555 26.5955 -0.000488281 26.6726 -0.000488281 26.762C-0.000488281 26.8513 0.062144 26.9284 0.149586 26.9467Z" fill="#FFB800"/>
</svg>
