<svg width="344" height="247" viewBox="0 0 344 247" fill="none" xmlns="http://www.w3.org/2000/svg">
<path d="M259.918 84.7813C249.457 75.2309 235.307 67.8922 221.46 70.8578C214.537 72.3658 208.371 76.2865 201.498 77.7442C189.875 80.2574 178.1 75.6833 166.679 72.3658C119.883 58.7942 67.1735 67.2387 26.9972 94.6835C19.3157 99.9111 11.7858 106.245 8.60205 114.94C5.7215 122.832 6.93439 131.83 10.573 139.42C14.818 148.266 22.2974 155.504 31.3433 159.475C47.2117 166.462 66.2133 163.195 82.0311 170.282C83.6482 171.036 85.3159 171.941 86.3266 173.399C87.7922 175.611 87.4384 178.526 87.2363 181.19C85.9223 198.18 96.0801 216.627 112.656 220.95C124.38 224.016 136.61 219.995 148.486 217.481C165.921 213.762 184.064 213.259 201.65 216.024C218.529 218.688 234.852 224.318 251.782 226.328C268.762 228.339 287.258 226.177 300.297 215.169C305.704 210.595 310.05 204.161 310 197.074C309.949 192.751 308.231 188.629 306.26 184.759C302.419 177.42 297.467 170.634 291.554 164.804C286.803 160.079 281.143 155.454 279.931 148.869C277.859 137.56 286.753 127.959 282.66 116.7C278.263 104.686 269.318 93.3766 259.918 84.7813Z" fill="#F5F4F4"/>
<g clip-path="url(#clip0)">
<path d="M200.778 240.524C205.684 239.842 210.255 238.143 215.059 237.015C220.852 235.872 226.274 233.426 231.634 231.108C233.41 230.346 234.355 229.501 235.614 228.333C238.996 226.109 242.054 223.572 244.917 220.813C254.692 210.829 255.06 195.338 252.494 182.223C250.869 174.17 249.549 167.262 246.999 159.255C245.121 153.377 242.388 148.056 239.939 142.442C233.877 128.264 226.002 112.453 210.317 107.714C206.372 106.594 202.552 105.28 198.559 105.118C193.769 105.032 188.076 104.45 183.121 104.016C180.34 103.803 177.395 105.381 174.949 106.217C167.032 108.319 159.462 112.267 154.099 118.512C154.13 118.48 154.193 118.415 154.225 118.383C138.461 137.56 139.87 164.709 140.684 188.483L140.683 188.419C141.348 204.597 145.641 234.511 162.951 241.045C167.514 242.89 173.153 242.132 177.942 242.122C185.536 241.782 193.216 240.865 200.778 240.524Z" fill="#FFE23D"/>
<path d="M147.662 214.398C151.106 220.347 152.638 226.518 154.748 232.903C168.561 240.416 185.965 240.626 199.341 232.214C201.901 230.546 204.098 228.086 205.098 224.654C205.349 224.363 206.11 224 206.433 224.218C211.668 224.169 216.355 221.702 220.178 219.057C227.313 213.838 233.904 206.457 234.456 196.742C234.828 185.657 231.77 175.807 227.593 165.814C226.866 164.228 226.645 162.348 226.966 160.363C229.981 138.51 217.623 119.767 200.98 106.806C200.27 106.306 199.622 105.741 199.007 105.144C202.841 105.372 206.532 106.624 210.349 107.715C226.003 112.486 233.909 128.264 239.971 142.442C242.421 148.056 245.153 153.378 247.031 159.255C249.549 167.231 250.869 174.107 252.494 182.191C255.092 195.338 254.724 210.829 244.917 220.814C242.054 223.572 238.996 226.11 235.614 228.333C234.355 229.502 233.378 230.315 231.634 231.109C226.274 233.426 220.884 235.872 215.059 237.016C210.256 238.144 205.684 239.843 200.778 240.525C193.185 240.898 185.536 241.814 177.942 242.123C173.153 242.133 167.514 242.923 162.952 241.045C145.642 234.512 141.348 204.597 140.683 188.42L140.684 188.484C140.638 187.527 140.622 186.537 140.576 185.58C141.588 189.14 142.728 192.667 143.903 196.384C146.008 202.45 144.544 208.954 147.662 214.398Z" fill="#FFE23D"/>
<path d="M154.256 118.351C154.224 118.383 154.162 118.448 154.13 118.481C159.493 112.236 167.063 108.287 174.981 106.185C177.426 105.349 180.371 103.771 183.152 103.984C188.107 104.386 193.799 104.969 198.59 105.086C198.718 105.084 198.878 105.114 199.006 105.112C199.622 105.741 200.269 106.274 200.979 106.774C217.622 119.767 229.98 138.478 226.965 160.332C226.644 162.284 226.865 164.196 227.592 165.782C231.769 175.775 234.827 185.625 234.455 196.71C233.903 206.425 227.312 213.806 220.177 219.025C216.354 221.67 211.667 224.137 206.432 224.186C206.141 223.935 205.348 224.299 205.098 224.622C204.097 228.054 201.9 230.514 199.34 232.182C185.965 240.626 168.56 240.384 154.747 232.871C152.637 226.486 151.105 220.315 147.661 214.366C144.544 208.922 146.008 202.418 143.934 196.32C142.76 192.634 141.651 189.076 140.606 185.516C139.804 162.508 139.119 136.752 154.256 118.351Z" fill="#FFE23D"/>
<path d="M172.325 87.2611C172.178 85.9862 170.239 86.5589 169.309 86.2859C167.103 86.0965 165.012 85.0432 162.749 85.3017C159.9 84.8667 159.243 87.8143 161.703 87.8721C163.999 87.7089 166.295 87.5457 168.629 87.7013C169.679 87.4935 171.931 88.5762 172.325 87.2611Z" fill="#78BA4D"/>
<path d="M180.383 61.1141C180.147 62.3949 179.204 63.3354 178.485 64.3682C178.402 65.1677 177.933 65.8135 177.399 66.3645C178.07 66.418 178.742 66.5035 179.414 66.5889C180.566 64.7192 181.751 62.881 183.033 61.1051C183.064 61.0727 183.064 61.0408 183.095 61.0084C183.096 61.0403 183.064 61.0408 183.064 61.0727C189.464 51.6827 197.123 43.1672 205.271 35.2828C207.128 33.5938 209.246 32.1882 210.973 30.3416C211.503 29.5033 212.927 28.6831 213.142 30.1804C210.627 34.785 207.599 39.2379 205.503 44.1234C203.682 48.2064 202.696 52.5639 200.907 56.6465C200.907 56.6146 200.938 56.5821 200.938 56.5502C200.876 56.7108 200.815 56.8714 200.785 56.9996C200.816 56.9352 200.815 56.8714 200.846 56.839C199.283 61.0458 197.913 65.3453 197.151 69.7952C196.621 72.6769 194.549 74.9758 192.99 77.3626C191.123 78.477 189.711 71.7938 189.212 70.5244C186.2 69.7727 183.093 69.1183 180.234 68.013C179.055 68.1908 177.805 67.827 176.618 67.4941C177.89 65.1117 179.323 62.7908 180.532 60.4413C180.439 60.6343 180.411 60.8583 180.383 61.1141Z" fill="#4A8525"/>
<path d="M180.041 10.0975C180.041 10.0656 180.041 10.0656 180.072 10.0332C180.041 10.0656 180.041 10.0975 180.041 10.0975Z" fill="#78BA4D"/>
<path d="M167.6 66.516C167.599 66.4841 167.567 66.4846 167.567 66.4527C166.654 65.2535 165.773 64.0219 165.177 62.6262L165.177 62.6582C165.177 62.6263 165.145 62.6267 165.145 62.5948C165.145 62.5948 165.145 62.6267 165.177 62.6262C160.211 53.2202 167.003 38.2047 170.178 28.8006C172.477 20.5595 178.761 13.9491 180.387 5.55868C180.476 5.11031 180.522 3.92825 181.201 4.49248C181.326 6.37433 180.622 8.33284 180.074 10.0974C179.983 10.3861 179.86 10.6754 179.736 10.9646C180.703 11.5564 180.185 13.1608 180.233 14.1498C180.154 15.2366 180.011 16.3244 179.9 17.4117C179.9 17.4117 179.9 17.4117 179.899 17.3798C179.9 17.4117 179.9 17.4436 179.901 17.4755C179.9 17.4436 179.9 17.4436 179.9 17.4117C179.453 27.7315 179.805 38.1347 180.507 48.4687L180.507 48.4368C180.507 48.4687 180.507 48.4687 180.508 48.5006C180.633 52.4578 181.046 56.4744 180.5 60.4101C179.291 62.7595 177.858 65.0805 176.586 67.4628C175.881 67.2822 175.207 67.0691 174.535 66.9837C174.567 66.9832 174.567 66.9832 174.599 66.9827C172.452 66.4411 168.566 69.1193 167.599 66.4522C167.567 66.4846 167.599 66.4841 167.6 66.516ZM175.312 20.1326C175.405 19.9396 175.498 19.7466 175.591 19.5536C175.498 19.7466 175.405 19.9396 175.312 20.1326ZM178.532 50.83C178.451 49.7137 178.434 48.5965 178.384 47.4478C178.384 47.4159 178.383 47.3521 178.382 47.3202C178.383 47.3521 178.384 47.4159 178.384 47.4478C178.383 47.384 178.383 47.3521 178.382 47.2882L178.382 47.3202C178.381 47.2563 178.38 47.1606 178.379 47.0967L178.378 47.0648C178.327 45.8204 178.245 44.6084 178.162 43.3964C178.189 47.1954 177.991 50.966 178.178 54.7627C178.177 54.7307 178.177 54.6988 178.176 54.6669C178.274 56.8365 178.435 59.0052 178.66 61.1728C179.182 57.7484 178.617 54.245 178.532 50.83Z" fill="#78BA4D"/>
<path d="M167.599 66.5169L167.566 66.4849C167.566 66.4849 167.599 66.4844 167.599 66.5169Z" fill="#78BA4D"/>
<path d="M165.177 62.6586C165.177 62.6586 165.176 62.6267 165.177 62.6586C165.144 62.6271 165.144 62.5952 165.144 62.5952C165.176 62.6267 165.176 62.6267 165.177 62.6586Z" fill="#78BA4D"/>
<path d="M162.263 55.8707C162.994 55.6678 162.695 54.8742 162.591 54.365C162.374 52.7081 162.604 51.0442 162.738 49.3819C162.737 49.35 162.737 49.35 162.737 49.318C162.736 49.2542 162.735 49.2223 162.766 49.1579C162.765 49.126 162.765 49.0941 162.765 49.0622L162.765 49.0941C162.793 48.8702 162.821 48.6143 162.818 48.3909C162.818 48.4228 162.819 48.4547 162.819 48.4866C162.818 48.4228 162.817 48.3589 162.849 48.3265C162.849 48.3584 162.85 48.3904 162.85 48.4223C162.848 48.2946 162.878 48.1345 162.876 48.0068C162.876 48.0387 162.877 48.0707 162.877 48.1026C162.875 47.943 162.904 47.7829 162.902 47.6552C162.903 47.6871 162.903 47.719 162.904 47.751C162.957 47.0477 163.073 46.3116 162.934 45.5794L162.935 45.6113C162.934 45.5794 162.934 45.5474 162.933 45.5155C161.776 40.9037 160.588 36.2925 159.717 31.6124C159.543 30.6573 159.4 29.7016 159.226 28.7465C159.227 28.7784 159.227 28.8103 159.228 28.8422C158.436 25.1188 157.738 21.2662 157.202 17.6027C157.188 16.709 157.652 15.712 157.352 14.8865C156.77 14.4485 156.56 15.3138 156.503 15.7298C156.121 17.8749 155.611 20.0219 155.037 22.1381C155.037 22.1062 155.036 22.0742 155.068 22.0418C154.918 22.7146 154.769 23.3874 154.62 24.0602C154.62 24.0602 154.62 24.0602 154.619 24.0283C154.62 24.0602 154.62 24.0922 154.589 24.1246C154.59 24.1565 154.59 24.1884 154.558 24.1889C153.487 31.3255 152.807 38.9669 154.29 46.096C156.336 48.3632 158.352 50.6948 159.989 53.3196C160.799 54.0734 161.081 55.8251 162.263 55.8707Z" fill="#4A8525"/>
<path d="M209.61 101.276C209.611 101.309 209.611 101.309 209.61 101.276C209.578 101.309 209.578 101.309 209.578 101.309C209.578 101.309 209.611 101.309 209.61 101.276Z" fill="#78BA4D"/>
<path d="M200.755 92.3134C202.527 91.2643 204.55 89.9559 206.693 90.1783C207.867 89.6812 209.107 89.3428 210.348 89.1001C212.927 88.6133 215.609 88.6357 218.188 88.1808L218.156 88.1813C218.22 88.1803 218.283 88.1474 218.347 88.1465C218.315 88.147 218.283 88.1474 218.251 88.1479C229.043 86.0656 226.227 89.7808 219.104 93.7542C215.755 96.009 212.764 98.7691 209.61 101.276C209.61 101.276 209.61 101.276 209.642 101.244L209.61 101.276C209.579 101.309 209.547 101.309 209.515 101.342C207.276 103.132 205.362 105.301 202.96 106.871C202.355 106.976 201.712 106.698 201.384 106.161C200.525 106.302 199.631 106.315 198.768 106.265C198.936 104.73 197.955 103.276 197.836 101.745C197.647 99.8646 197.332 98.0495 197.048 96.2021C197.049 96.234 197.049 96.234 197.049 96.2659C197.015 96.1068 196.98 95.9158 196.945 95.7566C198.199 94.2047 199.579 92.6189 201.222 91.5399C201.099 91.7972 200.943 92.0551 200.755 92.3134Z" fill="#4A8525"/>
<path d="M193.278 81.6051L193.278 81.5732C193.278 81.5732 193.278 81.5732 193.278 81.6051C193.245 81.5098 193.212 81.4146 193.178 81.3193C193.244 81.446 193.342 81.6041 193.408 81.7308C193.372 81.476 193.336 81.2211 193.301 80.9981C192.82 80.8778 192.971 80.3327 193.159 80.0425C196.065 73.9312 201.489 69.5371 207.413 66.5401C211.847 64.1728 216.777 63.0111 221.718 62.4559C224.736 63.5906 218.528 66.8155 217.88 68.2622C217.817 68.3271 217.755 68.3919 217.692 68.4567C213.246 74.1767 207.608 79.1169 204.292 85.6496C203.269 87.613 202.375 89.6703 201.191 91.5723C199.547 92.6194 198.166 94.2052 196.914 95.7891C196.844 95.407 196.774 94.993 196.704 94.611C196.459 93.2099 196.181 91.7774 195.777 90.4107C195.593 88.8171 194.961 87.1985 194.522 85.6408L194.522 85.6089C194.522 85.6089 194.522 85.6089 194.521 85.577C194.521 85.577 194.521 85.577 194.521 85.5451C194.181 84.2093 193.777 82.8746 193.278 81.6051Z" fill="#78BA4D"/>
<path d="M111.91 78.5186C113.128 78.7872 114.061 79.2836 115.282 79.7756C113.886 78.2327 117.215 78.8198 118.015 78.9352C129.279 80.5812 140.229 84.6586 150.367 89.866C150.335 89.8346 150.334 89.8026 150.302 89.7712C151.08 90.5255 151.826 91.3122 152.51 92.1956C152.446 92.1966 152.383 92.1976 152.319 92.1986C151.563 92.8807 150.904 93.5933 150.18 94.275C150.958 99.18 153.612 103.577 155.407 108.147C155.507 108.465 155.608 108.814 155.709 109.132C156.549 109.79 157.982 111.556 156.035 111.649C155.714 111.495 155.392 111.308 155.069 111.122C151.635 107.854 148.707 104.355 145.395 100.735C144.099 99.5094 142.716 98.8603 141.268 98.1802C141.556 98.1758 141.843 98.1713 142.13 98.1669C136.884 93.3628 130.63 89.5003 124.666 85.7929C120.264 83.9452 116.041 81.3284 111.923 79.3166C111.443 79.2602 111.464 78.5574 111.91 78.5186ZM149.847 103.763L149.717 103.573L149.521 103.289C149.521 103.321 149.489 103.321 149.458 103.354C149.588 103.48 149.718 103.637 149.847 103.763ZM122.799 82.7566C120.612 81.6729 118.236 80.8475 115.861 80.0221L115.829 80.0226C118.11 80.9771 120.456 81.9307 122.799 82.7566Z" fill="#78BA4D"/>
<path d="M145.395 100.736C148.707 104.356 151.635 107.855 155.07 111.123C153.685 110.378 152.204 109.571 150.886 108.984C146.481 106.977 141.919 105.132 137.115 104.184C132.436 103.043 128.085 102.472 123.262 102.355C122.24 102.339 121.154 102.291 120.068 102.276C119.365 102.223 118.062 102.595 118.013 101.51C117.769 100.205 127.021 99.7424 128.391 99.5297C132.598 99.0496 136.96 98.3117 141.268 98.1494C142.684 98.8619 144.067 99.5111 145.395 100.736Z" fill="#4A8525"/>
<path d="M137.979 58.8638C142.962 63.1291 147.339 67.4676 152.196 71.8626C156.697 75.9119 161.748 80.4954 165.025 85.9365C165.603 86.1511 165.9 86.7532 165.782 87.3616C165.877 87.3601 165.941 87.3592 166.036 87.3258C166.138 87.7073 166.207 88.0575 166.34 88.4066C165.024 87.9161 163.622 88.0974 162.156 88.3116C162.41 88.2119 162.665 88.1441 162.887 88.0768C161.353 87.9409 159.8 88.6992 158.337 89.073C156.269 89.5519 154.399 90.4748 152.857 91.9035C152.796 92.0641 152.669 92.1299 152.509 92.1324C151.825 91.2489 151.079 90.4622 150.301 89.708C145.586 80.0426 142.011 69.7849 134.29 61.8262C131.987 59.4991 129.525 57.2063 127.032 54.9779C125.445 53.5337 124.116 52.2132 122.688 50.7346C122.265 50.2303 121.589 49.8257 121.387 49.1583C120.856 45.814 136.877 57.7633 137.979 58.8638Z" fill="#4A8525"/>
<path d="M166.309 88.407C166.208 88.0574 166.106 87.6758 166.005 87.3262C166.292 87.2898 166.546 87.2539 166.834 87.2495C166.791 86.5158 166.784 86.1008 166.774 85.4624C166.774 85.4624 166.774 85.4624 166.774 85.4305C166.679 85.4958 166.584 85.5292 166.488 85.5626C166.609 83.0065 166.763 80.5775 167.172 78.1447C167.123 79.1033 167.106 80.0614 167.089 81.0195C167.777 78.0395 168.853 75.3728 170.183 72.5745C170.744 71.7038 170.661 70.4279 171.61 69.8705C175.619 68.9465 182.681 71.4237 186.723 72.6384C187.049 73.1123 187.442 73.7448 187.77 74.2825C189.114 76.5925 190.2 78.6511 191.259 81.0933C194.83 89.0202 196.498 97.8067 198.417 106.27C198.417 106.27 198.385 106.271 198.353 106.271C198.375 109.783 198.811 113.192 197.841 116.56C197.864 118.06 196.041 117.801 196.498 116.389C196.764 112.969 196.07 109.371 195.412 106.061C192.47 105.755 189.527 105.354 186.552 104.985C186.098 106.588 183.98 105.95 182.739 106.225C180.225 106.711 177.867 107.003 175.347 107.201C173.366 107.104 169.726 109.108 168.641 107.081C167.362 104.93 166.113 102.618 165.09 100.431C162.324 107.434 161.869 115.136 162.271 122.601C162.251 123.336 161.197 123.352 161.091 122.683C160.782 121.283 160.735 120.262 160.233 118.801C159.431 116.483 158.594 113.973 157.856 111.654C156.122 106.923 154.615 102.317 153.103 97.4871C152.144 93.2873 158.41 89.6465 162.188 88.2791C163.59 88.0978 164.992 87.9165 166.309 88.407ZM185.315 103.471C185.538 103.468 185.795 103.559 185.989 103.684C188.926 103.703 191.994 103.847 194.868 103.898C193.778 99.4771 191.191 95.2706 188.421 91.6416C186.602 89.6262 184.688 87.7081 183.091 85.5936L182.961 85.436C183.514 88.1733 183.749 90.9793 184.047 93.7206C184.013 95.6368 185.209 100.759 184.303 102.05C184.63 102.524 184.988 102.965 185.315 103.471Z" fill="#78BA4D"/>
<path d="M121.32 20.0088C121.481 20.1021 121.675 20.2587 121.804 20.3525C129.192 25.2831 136.867 30.2412 143.066 36.7547C149.098 42.7599 155.004 48.9586 159.613 55.9117C161.509 58.756 163.417 62.3983 164.901 65.4724C165.304 66.7433 169.077 73.2943 167.449 73.2875C167.346 74.9174 167.243 76.5474 167.173 78.1768C166.763 80.6097 166.609 83.0386 166.489 85.5948C165.949 85.7308 165.587 85.034 165.419 84.5257C163.87 81.3887 161.366 78.4261 158.963 75.8451C157.788 74.1391 155.732 73.3407 154.714 71.5365C152.485 67.7395 151.427 63.3816 149.26 59.456C147.053 55.1159 144.211 50.9452 141.974 46.6694C138.827 41.3221 135.59 36.4232 131.843 31.564C128.43 27.5938 124.139 24.7545 120.225 21.4305C118.969 20.7475 120.315 19.0345 121.32 20.0088Z" fill="#78BA4D"/>
<path d="M193.951 104.487C193.887 104.52 193.887 104.52 193.887 104.52C193.919 104.519 193.919 104.487 193.951 104.487L193.983 104.486C193.951 104.487 193.919 104.487 193.856 104.52L193.951 104.487ZM192.629 105.721C193.042 105.587 193.453 105.357 193.671 104.97C194.642 105.849 194.391 104.065 194.128 103.558C193.154 98.4009 189.299 94.7567 186.488 90.5536C185.318 89.1988 184.645 87.0061 183.037 86.2008C180.932 86.3929 182.813 90.323 182.865 91.6632C182.149 92.7918 183.157 94.0214 183.335 95.1681C183.053 95.5556 183.03 96.0987 183.291 96.4778C183.636 98.1328 183.185 99.9597 183.562 101.646C184.073 105.789 189.348 106.186 192.629 105.721Z" fill="#78BA4D"/>
<path d="M164.535 110.018C171.438 108.379 170.237 107.089 166.839 102.064C166.442 101.145 166.89 99.1582 165.454 99.2123C164.976 99.2835 164.824 99.7648 164.67 100.15C163.937 102.269 162.978 104.263 162.437 106.443C161.706 108.721 161.139 111.284 164.535 110.018Z" fill="#78BA4D"/>
<path d="M170.949 107.716C174.1 107.061 177.25 106.374 180.434 105.75C181.961 105.439 183.853 105.953 185.35 105.706C187.316 104.814 182.56 100.768 181.81 99.7901L181.843 99.8215C181.777 99.7267 181.68 99.6325 181.583 99.5701L181.616 99.6015C181.55 99.5067 181.454 99.4444 181.356 99.3501L181.389 99.3815C178.756 96.3251 176.375 93.1052 173.488 90.1804C172.832 89.0092 170.921 89.3261 170.975 90.762C168.223 92.4329 166.13 95.4026 165.795 98.5368C166.007 99.8745 166.411 101.177 166.845 102.448C167.41 103.876 168.325 105.267 169.018 106.693C169.35 107.486 170.094 108.145 170.949 107.716Z" fill="#4A8525"/>
<path d="M194.202 106.208C197.792 105.067 186.627 89.1152 184.559 87.5507C184.591 87.5822 184.624 87.6136 184.657 87.6769C184.624 87.6455 184.592 87.6141 184.559 87.5827C184.527 87.5512 184.495 87.5198 184.462 87.4565C179.353 81.2454 181.205 91.5936 182.109 94.3255C182.108 94.2616 182.076 94.2302 182.075 94.1664C182.484 95.8523 182.67 97.5735 183.111 99.227C182.811 100.477 184.007 101.448 184.154 102.659C184.694 104.535 185.546 105.958 187.713 105.701C189.914 105.572 192.089 105.825 194.202 106.208Z" fill="#4A8525"/>
<path d="M165.561 110.226C166.354 109.894 166.787 108.993 167.58 108.694C169.073 108.16 170.362 106.895 169.443 105.281C169.774 103.966 169.305 102.505 168.144 101.757C168.004 100.992 167.04 100.592 166.506 101.175C166.687 100.47 166.836 99.7652 167.049 99.0914C166.022 96.6807 163.266 106.366 162.961 107.264C162.496 108.166 162.022 110.599 163.741 110.222C164.288 110.533 164.99 110.49 165.561 110.226Z" fill="#4A8525"/>
<path d="M246.752 211.495C247.014 209.831 244.559 210.061 243.497 209.534C240.61 208.653 237.753 207.675 234.928 206.633L234.96 206.633C234.928 206.633 234.895 206.602 234.863 206.602C234.863 206.602 234.863 206.602 234.895 206.602C213.083 197.999 190.734 189.755 171.277 176.454C171.309 176.485 171.373 176.516 171.406 176.548C165.305 172.268 159.172 167.956 153.573 163.03C150.367 160.11 147.444 156.899 144.364 153.849C143.907 153.25 143.025 153.998 143.828 154.336C144.964 155.5 146.068 156.696 147.109 157.926C147.141 157.957 147.173 157.988 147.206 158.02C148.441 159.47 149.614 160.984 150.85 162.434C150.915 162.496 150.979 162.559 151.013 162.655L150.98 162.623C159.201 171.851 169.684 178.777 180.035 185.355C189.999 191.778 200.744 196.976 211.761 201.276L211.729 201.276C211.794 201.307 211.858 201.338 211.954 201.369C211.922 201.369 211.89 201.338 211.89 201.338C212.082 201.399 212.307 201.491 212.5 201.552L212.468 201.552C212.532 201.583 212.597 201.614 212.693 201.645C212.661 201.645 212.661 201.645 212.628 201.614C220.239 204.434 227.971 206.837 235.672 209.336C237.399 209.564 246.4 213.512 246.752 211.495Z" fill="#F0D32C"/>
<path d="M216.335 236.933C217.063 236.538 216.949 235.359 216.116 235.148C214.095 234.573 212.073 233.87 210.083 233.166C210.083 233.166 210.083 233.166 210.115 233.165C210.018 233.135 209.922 233.105 209.826 233.074C209.858 233.074 209.858 233.074 209.89 233.105C209.826 233.074 209.73 233.044 209.665 233.013L209.697 233.012C196.822 228.326 184.872 221.518 173.453 214C163.745 207.7 153.755 201.692 144.923 194.166C144.954 194.165 144.955 194.197 144.987 194.197C144.275 193.601 143.689 192.876 142.946 192.313C142.495 192 142.059 192.741 142.51 192.99C142.704 193.178 142.899 193.399 143.062 193.62C144.492 195.258 146.016 196.767 147.604 198.243L147.571 198.212C147.733 198.369 147.895 198.526 148.057 198.651L148.024 198.62C154.24 204.143 160.925 209.085 167.735 213.833C167.703 213.801 167.671 213.802 167.639 213.77C168.026 214.052 168.445 214.333 168.833 214.614C168.801 214.583 168.768 214.551 168.704 214.52C179.871 222.298 191.851 228.978 204.724 233.504C204.692 233.473 204.628 233.474 204.595 233.442C208.509 234.659 212.405 236.738 216.335 236.933Z" fill="#F0D32C"/>
<path d="M244.661 167.082C244.918 165.099 241.858 165.433 240.633 164.654C234.015 162.011 227.426 159.175 221.055 155.985C202.026 145.646 183.503 132.905 170.366 115.42L170.398 115.451C170.106 115.137 169.966 114.309 169.394 114.541C168.771 115.508 171.594 118.466 172.153 119.511C174.304 122.351 176.423 125.192 178.764 127.87C178.731 127.839 178.699 127.807 178.698 127.775C179.023 128.153 179.348 128.532 179.641 128.878C179.609 128.847 179.576 128.815 179.576 128.784C182.339 131.966 185.197 135.082 188.305 137.908C188.273 137.877 188.241 137.845 188.208 137.814C188.403 138.002 188.629 138.19 188.823 138.379L188.791 138.347C198.464 146.563 209.795 152.551 220.748 158.831C220.716 158.831 220.715 158.8 220.683 158.8C220.748 158.831 220.78 158.862 220.845 158.893C220.78 158.862 220.748 158.831 220.683 158.8C225.641 161.437 230.814 163.561 236.08 165.491C236.048 165.491 235.984 165.46 235.952 165.461C235.984 165.46 236.016 165.492 236.048 165.491C236.113 165.522 236.144 165.522 236.209 165.553L236.177 165.553C236.241 165.584 236.306 165.615 236.369 165.614C236.337 165.614 236.305 165.583 236.273 165.584C236.401 165.614 236.498 165.676 236.626 165.706C236.562 165.675 236.53 165.675 236.466 165.644C236.498 165.644 236.53 165.675 236.53 165.675L236.498 165.676C236.562 165.707 236.594 165.706 236.659 165.737C236.627 165.738 236.594 165.706 236.562 165.707C238.228 166.032 243.895 169.17 244.661 167.082Z" fill="#F0D32C"/>
<path d="M142.905 179.254C144.635 177.599 146.333 175.881 148.192 174.288L148.16 174.32C154.752 169.078 160.954 163.395 166.573 157.146C166.51 157.21 166.479 157.243 166.416 157.308C166.604 157.113 166.761 156.919 166.95 156.725L166.918 156.757C167.012 156.628 167.138 156.53 167.232 156.401C167.232 156.401 167.232 156.433 167.2 156.433C167.295 156.336 167.389 156.239 167.451 156.142C167.828 155.721 168.236 155.268 168.613 154.847C168.613 154.879 168.581 154.88 168.582 154.911C168.739 154.749 168.896 154.555 169.053 154.393C169.084 154.361 169.116 154.329 169.147 154.296L169.116 154.329C170.277 153.065 171.439 151.77 172.601 150.507C172.569 150.54 172.569 150.54 172.538 150.572C172.569 150.54 172.601 150.507 172.632 150.475L172.601 150.507C172.726 150.377 172.852 150.248 172.977 150.086C172.946 150.119 172.946 150.151 172.914 150.151C182.869 139.365 189.88 126.134 193.781 111.994C193.903 111.641 194.05 110.808 193.414 110.978C193.035 111.271 193.109 111.908 192.86 112.359C187.049 128.86 176.446 143.136 164.799 155.992C164.83 155.959 164.862 155.927 164.893 155.894C159.963 161.207 155.033 166.551 149.485 171.203C149.454 171.235 149.422 171.235 149.422 171.267C149.422 171.267 149.422 171.267 149.454 171.267C149.36 171.364 149.265 171.429 149.139 171.527C149.045 171.624 148.95 171.69 148.856 171.787C148.761 171.884 148.667 171.95 148.572 172.047C148.604 172.014 148.636 172.014 148.635 171.982C148.037 172.566 138.769 180.212 142.905 179.254Z" fill="#F0D32C"/>
<path d="M150.814 217.989C151.799 217.686 152.783 217.352 153.769 217.049C153.737 217.05 153.737 217.05 153.705 217.082C153.832 217.048 153.96 217.014 154.086 216.949C154.086 216.949 154.086 216.949 154.054 216.949C154.086 216.949 154.118 216.916 154.15 216.916C154.213 216.915 154.245 216.882 154.309 216.881L154.277 216.882C154.309 216.881 154.34 216.849 154.372 216.848C164.726 213.304 174.249 207.697 183.516 201.967C183.484 201.999 183.452 202 183.421 202.032C183.642 201.901 183.863 201.738 184.085 201.607C184.085 201.607 184.053 201.607 184.053 201.639C201.462 189.716 213.499 177.366 223.137 158.443C225.528 154.096 228.24 149.839 229.731 145.091C230.735 141.85 231.61 138.612 232.453 135.311C232.513 135.022 232.601 134.51 232.216 134.42C231.512 134.335 231.786 135.48 231.441 135.901C231.44 135.869 231.44 135.869 231.472 135.837C231.441 135.933 231.41 135.997 231.38 136.093C226.794 149.255 218.606 160.748 211.317 172.514C208.724 176.194 205.873 179.718 202.892 183.085C202.923 183.053 202.955 183.02 202.986 182.956C196.513 189.729 189.296 195.875 181.555 201.135C181.587 201.102 181.619 201.102 181.65 201.069C173.177 206.469 164.376 211.362 155.014 214.987C153.939 215.706 149.731 216.122 149.944 217.491C150.013 217.842 150.433 218.122 150.814 217.989Z" fill="#F0D32C"/>
<path d="M191.8 242.165C207.199 236.628 217.805 228.705 228.891 216.784C228.891 216.784 228.891 216.784 228.86 216.817C229.08 216.59 229.268 216.363 229.488 216.136C229.456 216.169 229.425 216.201 229.394 216.266C235.569 208.859 240.774 200.605 245.561 192.229C245.562 192.261 245.53 192.262 245.53 192.294C246.4 190.716 247.14 189.044 247.946 187.435C248.194 184.877 244.601 192.084 244.127 192.379C244.065 192.476 244.002 192.541 243.971 192.637C243.971 192.605 244.003 192.605 244.002 192.573C243.94 192.669 243.846 192.799 243.784 192.895L243.752 192.928C231.245 210.011 218.733 228.85 198.887 237.969C198.919 237.969 198.918 237.937 198.95 237.936C196.478 239.124 193.941 240.217 191.435 241.309C190.864 241.509 191.229 242.398 191.8 242.165Z" fill="#F0D32C"/>
<path d="M217.89 137.069C219.327 137.078 221.278 133.217 220.307 132.338C216.554 135.333 218.796 135.777 214.042 131.86L214.074 131.891C213.202 131.202 212.186 129.558 210.99 130.63C210.518 131.084 210.499 131.915 210.953 132.386C213.116 133.949 214.925 137.338 217.89 137.069Z" fill="#F0D32C"/>
<path d="M157.994 149.519C158.873 148.548 159.14 147.266 159.858 146.202L159.827 146.234C159.858 146.202 159.89 146.169 159.921 146.137C160.111 146.038 160.171 145.75 160.04 145.592C159.619 145.152 159.054 145.799 158.707 146.06C154.85 150.621 153.313 144.1 150.797 146.629C149.869 148.559 152.751 149.089 153.85 149.966C155.11 150.905 156.992 150.78 157.994 149.519Z" fill="#F0D32C"/>
<path d="M165.458 198.671C167.305 198.355 169.461 195.256 169.595 193.594C168.05 192.82 166.405 195.846 164.94 196.124C163.025 196.154 160.696 192.135 159.059 193.661C158.093 195.144 160.403 195.875 161.245 196.692C162.536 197.566 163.771 198.952 165.458 198.671Z" fill="#F0D32C"/>
<path d="M207.167 222.164C208.884 221.722 209.397 219.799 210.014 218.352C210.132 217.776 210.761 217.16 210.529 216.557C210.366 216.336 209.983 216.373 209.859 216.599C208.252 217.997 207.272 220.694 204.702 219.68C203.709 219.472 202.962 220.728 203.613 221.516C204.519 222.269 206.05 222.213 207.167 222.164Z" fill="#F0D32C"/>
<path d="M224.564 188.817C225.577 188.259 226.134 187.133 226.565 186.104C226.566 186.136 226.534 186.137 226.534 186.169C226.912 183.768 224.533 186.806 223.834 187.073C221.912 186.623 220.261 185.18 218.554 184.217C217.747 183.654 216.58 184.534 216.85 185.488C218.183 187.064 222.442 189.936 224.564 188.817Z" fill="#F0D32C"/>
<path d="M173.23 236.769C174.588 235.758 175.904 234.205 176.358 232.57C176.052 231.361 172.218 235.284 171.058 234.599C169.836 234.075 168.746 231.729 167.295 232.869C166.072 234.293 168.388 235.375 169.2 236.32C170.272 237.485 172 237.745 173.23 236.769Z" fill="#F0D32C"/>
<path d="M197.372 121.293C199.019 116.319 198.9 110.67 198.979 105.432C198.415 93.755 194.986 82.5691 190.066 72.0448C190.067 72.0768 190.067 72.0768 190.099 72.1082C190.098 72.0763 190.066 72.0448 190.066 72.0129C190.066 72.0129 190.066 72.0129 190.066 72.0448C189.752 68.2502 178.785 67.2382 175.553 66.7453C169.322 66.4265 167.87 65.4272 167.533 72.5525L167.532 72.5205C167.478 73.128 167.424 73.7674 167.369 74.3749C167.369 74.343 167.368 74.3111 167.368 74.3111C167.371 74.4707 167.341 74.5988 167.343 74.7584C167.343 74.7265 167.342 74.6946 167.342 74.6946C167.343 74.7265 167.343 74.7584 167.344 74.7904L167.343 74.7584C167.017 78.4033 166.275 82.0546 166.3 85.726C167.21 86.7656 167.145 84.6593 167.2 84.0838C167.2 84.0519 167.2 84.0518 167.199 84.0199C167.198 83.9242 167.229 83.8598 167.227 83.7641C167.584 79.991 168.357 76.3073 168.714 72.5342C169.141 71.2505 168.578 67.8428 170.399 67.9424C176.017 67.8876 181.621 68.9186 186.886 70.8168C186.854 70.8173 186.822 70.7859 186.79 70.7864C188.839 71.1379 188.778 73.4057 189.632 74.9251C192.99 81.5463 195.302 88.5987 196.533 95.9233C196.533 95.9552 196.533 95.9552 196.534 95.9871C196.533 95.9552 196.533 95.9552 196.533 95.9233C196.534 95.9871 196.567 96.0505 196.567 96.0824C196.567 96.0505 196.567 96.0505 196.566 96.0185C196.601 96.2096 196.636 96.4006 196.67 96.5597C196.707 96.8465 196.775 97.1328 196.811 97.4196C196.811 97.3877 196.811 97.3558 196.81 97.3238C197.231 99.8078 197.622 102.324 197.756 104.844C197.759 105.036 197.762 105.227 197.797 105.387C197.796 105.355 197.796 105.355 197.796 105.323C197.904 108.226 197.789 111.102 197.547 114.011C197.465 114.938 197.352 115.866 197.238 116.794C196.661 108.341 194.966 99.8747 189.782 92.9624C186.122 87.4634 181.575 82.5208 176.341 78.4828C175.309 77.8283 171.456 74.3757 170.611 75.4423C170.424 75.7326 170.526 76.1461 170.815 76.3013C173.457 77.793 175.66 79.8982 177.958 81.8742C178.087 81.9999 178.216 82.0937 178.314 82.2199C185.993 89.4449 193.565 98.0445 195.263 108.81C195.264 108.842 195.264 108.874 195.297 108.905C195.297 108.905 195.297 108.905 195.297 108.937C195.857 112.09 196.225 115.277 196.37 118.467L196.37 118.435C196.542 119.263 195.879 121.795 197.372 121.293Z" fill="black"/>
<path d="M183.344 99.8945C182.869 96.0385 182.299 92.2159 181.698 88.3937C181.401 87.7917 181.795 84.3373 180.628 85.2813C179.974 86.345 180.901 105.041 183.344 99.8945Z" fill="black"/>
<path d="M162.822 127.254C164.081 126.085 161.935 119.477 162.22 117.206C162.116 110.503 163.863 103.675 166.642 97.5975C166.643 97.6294 166.611 97.6619 166.611 97.6619C167.388 96.2769 168.035 94.7663 169.102 93.5685C169.071 93.6009 169.071 93.6009 169.039 93.6333C169.071 93.6009 169.102 93.5685 169.133 93.5041C169.133 93.5041 169.133 93.5041 169.102 93.5366C169.856 92.7267 170.642 91.9483 171.59 91.3589C171.939 91.162 172.06 90.745 171.862 90.3649C171.177 89.3857 170.111 90.6793 169.448 91.1366C169.448 91.1366 169.48 91.1361 169.479 91.1042C163.756 96.7481 162.23 105.456 161.103 113.105C161.102 113.073 161.102 113.041 161.102 113.041C160.828 116.014 161.034 118.98 161.462 121.911C158.429 113.657 154.889 105.601 151.952 97.3455C151.952 97.3774 151.952 97.3774 151.953 97.4093C150.337 94.1137 152.397 93.124 154.893 91.4252C157.512 89.3733 160.694 88.6856 163.949 88.6034C165.895 88.5094 167.844 88.6071 169.763 88.8009C169.731 88.8014 169.699 88.8019 169.667 88.8024C172.699 88.6917 174.521 92.9739 176.816 94.7904C179.703 97.779 182.181 101.093 184.974 104.147C185.073 104.369 185.394 104.492 185.584 104.329C186.087 103.875 185.279 103.248 185.113 102.804C182.122 97.2627 177.49 92.9919 173.238 88.4918C171.287 86.1912 162.877 87.4385 159.915 87.8674C159.947 87.8669 159.979 87.8665 160.011 87.866C156.384 88.6883 152.746 90.8836 150.298 93.6673C149.351 96.3958 151.471 99.3324 152.214 101.939C155.274 109.906 158.811 117.706 161.586 125.773C161.585 125.741 161.585 125.709 161.553 125.709C161.553 125.741 161.586 125.805 161.587 125.837C161.587 125.837 161.587 125.837 161.586 125.805C161.587 125.837 161.587 125.868 161.619 125.868C161.619 125.868 161.619 125.868 161.619 125.836C161.85 126.343 161.964 127.555 162.822 127.254Z" fill="black"/>
<path d="M169.058 107.203C170.226 106.323 168.438 104.275 168.229 103.129C167.9 102.527 166.596 98.7158 165.856 100.419C165.896 100.93 166.127 101.373 166.262 101.85C166.261 101.818 166.229 101.787 166.228 101.755C166.787 102.768 167.757 107.702 169.058 107.203Z" fill="black"/>
<path d="M151.875 90.3546C152.886 89.6366 151.222 87.3634 151.047 86.3125C149.881 83.2015 148.715 80.0905 147.265 77.1116C147.265 77.1116 147.265 77.1435 147.297 77.1431C147.265 77.1116 147.264 77.0797 147.264 77.0478C147.264 77.0797 147.297 77.1111 147.297 77.1111C147.23 76.9525 147.132 76.7944 147.066 76.6358C147.066 76.6677 147.099 76.6991 147.099 76.6991C142.472 66.5215 134.683 58.3723 126.052 51.4813C130.076 53.6542 133.976 56.0205 137.751 58.5804L137.784 58.6118C138.106 58.8303 138.397 59.0493 138.72 59.2678C139.107 59.5492 139.462 59.7992 139.85 60.0805C139.817 60.0491 139.817 60.0491 139.785 60.0177C149.087 66.9622 158.177 74.5804 164.744 84.2491C164.743 84.2172 164.711 84.2177 164.711 84.1858C165.163 84.53 165.48 86.4727 166.17 85.6319C166.117 84.2918 165.014 83.1274 164.357 81.9562C164.357 81.9562 164.357 81.9562 164.357 81.9882C163.051 80.0607 161.617 78.1991 160.153 76.4018C160.153 76.4018 160.153 76.4337 160.185 76.4332C160.12 76.3703 160.087 76.307 160.022 76.2441C160.055 76.2755 160.055 76.2755 160.087 76.307C160.022 76.2122 159.925 76.1179 159.86 76.0551C159.827 76.0236 159.827 76.0236 159.795 75.9922C159.697 75.866 159.6 75.7717 159.502 75.6455C159.47 75.6141 159.469 75.5822 159.437 75.5507C159.437 75.5507 159.437 75.5827 159.469 75.5822L159.437 75.5507C157.162 72.9358 154.698 70.5473 152.109 68.2565C152.141 68.2879 152.141 68.2879 152.173 68.3193C148.419 65.0248 144.57 61.8276 140.534 58.8886C140.566 58.92 140.566 58.92 140.599 58.9515C140.211 58.6701 139.856 58.4202 139.469 58.1388C139.404 58.1078 139.34 58.045 139.275 58.0141L139.308 58.0455C139.146 57.9203 138.985 57.827 138.823 57.7018C138.727 57.6394 138.63 57.577 138.565 57.5142C134.016 54.4554 129.311 51.6226 124.45 49.0476C124.45 49.0476 124.482 49.0471 124.482 49.079C124.418 49.0481 124.386 49.0167 124.321 48.9857C124.321 48.9857 124.353 48.9852 124.354 49.0172C123.483 48.4878 119.846 46.5644 121.002 49.0689C124.045 51.7997 127.434 54.1101 130.446 56.9052C130.478 56.9366 130.478 56.9366 130.511 56.968C130.478 56.9366 130.478 56.9366 130.446 56.9052C130.64 57.0938 130.834 57.2504 131.029 57.439C131.029 57.439 131.029 57.439 130.997 57.4075C131.126 57.5333 131.288 57.6585 131.417 57.7842C131.417 57.7842 131.417 57.7842 131.45 57.8156L131.482 57.847C135.077 61.1121 138.484 64.6674 141.134 68.7772C141.133 68.7453 141.101 68.7458 141.101 68.7138C141.264 68.9667 141.395 69.1882 141.559 69.4411C141.559 69.4411 141.558 69.4092 141.526 69.4097C143.129 71.9073 144.575 74.535 145.894 77.2286L145.893 77.1967C147.841 81.3811 149.504 85.6977 151.104 90.0472C151.172 90.3335 151.558 90.4872 151.875 90.3546Z" fill="black"/>
<path d="M150.728 104.964C151.609 104.12 147.952 100.952 147.426 99.9381C147.426 99.9381 147.426 99.938 147.458 99.9695C147.394 99.9066 147.361 99.8433 147.296 99.7804C147.263 99.749 147.263 99.749 147.231 99.7176C144.369 96.3135 140.847 93.622 137.232 91.0597C137.264 91.0592 137.264 91.0911 137.296 91.0907C134.359 89.0287 131.359 87.0316 128.172 85.3567C128.172 85.3567 128.172 85.3567 128.204 85.3562C124.502 83.4019 120.708 81.6725 116.944 79.8468C124.397 80.7215 131.792 82.0441 139.127 83.5273C139.095 83.5277 139.095 83.5277 139.063 83.5282C139.095 83.5277 139.127 83.5273 139.159 83.5587C139.159 83.5587 139.159 83.5587 139.127 83.5592C139.191 83.5582 139.255 83.5891 139.319 83.5881C139.287 83.5886 139.255 83.5891 139.223 83.5577C139.511 83.6171 139.768 83.677 140.056 83.7364C140.056 83.7364 140.056 83.7364 140.024 83.7369C140.056 83.7364 140.088 83.7359 140.12 83.7673C140.12 83.7673 140.12 83.7673 140.088 83.7678C141.948 84.25 143.901 84.6349 145.639 85.534L145.607 85.5025C145.8 85.6273 145.868 85.8817 146.123 85.8458C147.671 84.7682 142.956 83.4043 142.216 83.0326C142.248 83.0321 142.28 83.0635 142.28 83.0635C142.184 83.033 142.088 83.0026 141.992 82.9722C142.024 82.9717 142.056 83.0031 142.056 83.0031C141.863 82.9422 141.67 82.8494 141.478 82.7885C141.51 82.788 141.542 82.8195 141.574 82.819C135.475 80.6782 129.133 79.3712 122.734 78.4803C121.33 78.5339 108.164 75.7359 111.734 79.4803C116.838 81.2533 121.821 83.4752 126.647 85.8592C126.615 85.8597 126.615 85.8278 126.583 85.8282C126.647 85.8592 126.679 85.8906 126.744 85.9215C126.808 85.9525 126.905 86.0148 126.969 86.0458C127.034 86.0767 127.098 86.1076 127.162 86.1386C127.258 86.169 127.323 86.2319 127.42 86.2623L127.388 86.2628C127.452 86.2937 127.516 86.3247 127.549 86.3561C127.581 86.3556 127.613 86.387 127.613 86.387C130.22 87.7516 132.703 89.3417 135.091 90.997C135.06 90.9975 135.059 90.9655 135.027 90.966C137.609 92.778 140.192 94.6219 142.555 96.7246C142.555 96.7246 142.523 96.7251 142.523 96.6932C144.077 98.106 145.537 99.616 146.903 101.223C147.839 101.847 149.779 105.521 150.728 104.964Z" fill="black"/>
<path d="M154.33 110.719C154.762 109.722 153.161 109.428 152.579 108.989C147.815 106.477 142.557 105.025 137.333 103.797C137.365 103.797 137.397 103.796 137.398 103.828C131.603 102.8 125.746 101.901 119.863 101.353C119.926 101.32 120.022 101.287 120.085 101.286L120.054 101.286C120.085 101.286 120.117 101.253 120.149 101.253C120.149 101.253 120.149 101.253 120.117 101.253C124.947 99.7419 129.878 98.6121 134.845 97.7372C134.877 97.7367 134.909 97.7362 134.94 97.7038L134.909 97.7043C134.877 97.7048 134.877 97.7048 134.845 97.7053C135.354 97.6016 135.864 97.5299 136.341 97.4267C136.341 97.4267 136.341 97.4267 136.309 97.4272L136.341 97.4267C137.646 97.1831 138.984 96.9708 140.255 96.5681C140.255 96.5681 140.255 96.5681 140.223 96.5686C140.7 96.4335 140.433 95.6713 139.957 95.8703L139.989 95.8698C136.645 96.4322 133.264 96.676 129.954 97.3657C129.986 97.3652 129.986 97.3652 130.018 97.3647C126.485 98.0259 122.954 98.9106 119.523 99.9853L119.555 99.9848C119.491 100.018 119.427 100.019 119.396 100.051C119.428 100.051 119.459 100.018 119.491 100.018C118.507 100.384 117.362 100.657 116.542 101.34C115.826 102.501 117.426 102.732 118.255 102.687C121.674 102.826 125.065 103.284 128.457 103.775C134.63 104.477 140.745 105.564 146.59 107.773C146.622 107.772 146.654 107.804 146.654 107.804C146.751 107.834 146.815 107.865 146.911 107.896C146.879 107.896 146.847 107.865 146.847 107.865C148.613 108.508 150.317 109.312 151.991 110.18C152.76 110.36 153.704 111.526 154.33 110.719Z" fill="black"/>
<path d="M167.905 67.7245C168.762 67.36 167.786 66.2257 167.586 65.6541C165.348 61.3144 162.983 57.0087 160.207 52.9966C160.207 53.0285 160.239 53.0281 160.24 53.06C155.892 46.5179 150.755 40.5308 144.927 35.2888C144.701 35.1007 144.474 34.8807 144.279 34.6921L144.312 34.7236C142.143 32.7775 139.848 30.9611 137.491 29.2733L137.523 29.3048C135.17 27.8405 121.638 17.8323 120.003 19.5178C119.225 20.807 121.306 21.1899 122.018 21.7856C123.403 22.5943 124.726 23.4998 126.019 24.5016C130.704 28.101 134.51 32.6718 137.684 37.6675C137.652 37.6361 137.651 37.6042 137.619 37.5728C137.651 37.6042 137.652 37.6361 137.684 37.6675C137.652 37.6361 137.651 37.6042 137.619 37.5728C142.304 45.3229 146.705 53.269 150.663 61.4135C150.662 61.3816 150.63 61.3821 150.63 61.3501C150.663 61.4454 150.728 61.5402 150.762 61.6674C150.762 61.6674 150.762 61.6674 150.762 61.6354C150.762 61.6674 150.794 61.6669 150.795 61.6988L150.794 61.6669C150.795 61.6988 150.827 61.6983 150.827 61.7302C150.827 61.7302 150.827 61.7302 150.827 61.6983C151.51 62.5498 151.84 65.2906 153.082 65.1117C153.4 64.9791 153.585 64.5931 153.421 64.2764C152.166 61.6138 150.943 58.9187 149.689 56.2561C144.952 47.2296 140.56 37.7828 133.768 30.0652L133.8 30.0966C132.826 29.0261 131.852 27.9875 130.815 26.9818C139.227 32.1201 146.956 38.4503 153.33 46.0147C153.298 45.9833 153.298 45.9833 153.265 45.9518C158.793 52.4437 163.406 59.6522 167.386 67.1897C167.326 67.4461 167.586 67.7294 167.841 67.6936C167.873 67.6931 167.905 67.6926 167.936 67.6602C167.904 67.6606 167.873 67.6931 167.841 67.6936C167.873 67.725 167.905 67.7245 167.905 67.7245Z" fill="black"/>
<path d="M162.299 43.8016C162.554 43.7338 162.677 43.4765 162.642 43.2535C161.892 40.1681 161.333 37.0158 160.742 33.8959C160.742 33.9278 160.743 33.9598 160.743 33.9598C160.742 33.9278 160.741 33.864 160.709 33.8326C160.709 33.8645 160.71 33.8964 160.71 33.8964C160.709 33.8326 160.676 33.7692 160.675 33.7054C160.675 33.7373 160.676 33.7692 160.676 33.7692C160.675 33.7054 160.641 33.6101 160.64 33.5463C160.641 33.5782 160.641 33.6101 160.641 33.6101C160.64 33.5143 160.606 33.4191 160.605 33.3233C160.606 33.3552 160.606 33.3872 160.606 33.3872C160.605 33.3233 160.572 33.26 160.571 33.1961C160.572 33.228 160.572 33.26 160.572 33.26C160.571 33.1961 160.538 33.1328 160.538 33.1009C160.538 33.1328 160.539 33.1647 160.539 33.1647C159.734 28.6114 159.057 24.0241 158.475 19.4354C157.312 4.09576 155.134 11.9199 152.944 21.0534C152.944 21.0214 152.944 21.0214 152.943 20.9895C151.753 26.6273 151.045 32.4173 151.294 38.2244C151.531 39.1148 151.024 41.4215 151.828 41.7922C151.828 41.7922 151.828 41.7922 151.796 41.7927C152.275 41.7853 152.266 41.2107 152.292 40.8591C152.467 37.6636 152.513 34.47 152.783 31.3049C153.362 25.3573 154.517 19.4965 156.377 13.8165C157.355 21.3684 158.462 28.9184 160.045 36.3652C160.672 37.6326 161.182 43.8189 162.299 43.8016Z" fill="black"/>
<path d="M161.998 53.1935C161.935 53.2264 161.935 53.2264 161.966 53.194L161.998 53.1935C162.062 53.1925 162.094 53.192 162.158 53.191C162.158 53.191 162.158 53.191 162.189 53.1905C162.093 53.1601 162.03 53.193 161.935 53.2264L161.998 53.1935ZM179.584 63.1071C179.812 59.3041 179.08 55.3243 179.084 51.4609C179.085 51.4928 179.085 51.5247 179.086 51.5567C179.085 51.5247 179.084 51.4609 179.084 51.429C179.084 51.4609 179.085 51.4928 179.085 51.5247C179.085 51.4928 179.084 51.4609 179.084 51.3971C179.084 51.429 179.084 51.4609 179.085 51.4928C179.08 51.1736 179.044 50.8868 179.039 50.5676C179.039 50.5995 179.04 50.6314 179.04 50.6634C178.476 38.9224 178.293 27.1117 179.678 15.4364C180.085 10.8324 181.838 6.46308 182.534 1.9504C181.055 -0.83645 178.589 4.8849 177.518 5.85928C177.425 6.02037 177.299 6.15002 177.206 6.3111C177.237 6.27869 177.269 6.24628 177.268 6.21436C169.894 16.6411 166.609 29.2717 163.542 41.5157C163.017 42.7052 160.452 54.3987 162.201 53.9566C162.169 53.9571 162.17 53.989 162.138 53.9895C162.106 53.99 162.106 53.99 162.074 53.9905C162.961 53.5298 162.459 52.0369 162.701 51.1711C162.702 51.203 162.702 51.203 162.702 51.2349C163.315 45.4464 165.722 40.0134 167.104 34.4045C170.238 24.3944 173.786 14.3141 179.943 5.72606C179.943 5.72606 179.943 5.72606 179.943 5.75798L179.975 5.72557C179.975 5.72557 179.975 5.72557 179.975 5.75749C180.007 5.72507 180.006 5.69315 180.037 5.66074C180.006 5.69315 180.006 5.69315 179.975 5.72557C180.037 5.66074 180.068 5.56448 180.131 5.49966L180.099 5.53207L180.131 5.49966C179.8 6.81383 179.501 8.12752 179.202 9.47312C179.202 9.4412 179.201 9.40928 179.233 9.37687C176.981 20.7143 177.002 32.3998 177.372 43.9203C177.371 43.8884 177.371 43.8565 177.37 43.8245C177.376 44.2076 177.414 44.5901 177.42 44.9732C177.419 44.9413 177.419 44.9093 177.418 44.8774C177.423 45.1966 177.461 45.5473 177.466 45.8665C177.469 46.0899 177.473 46.3453 177.508 46.5682C177.508 46.5363 177.507 46.5044 177.507 46.4725C177.508 46.5682 177.51 46.664 177.511 46.7598C177.511 46.7598 177.511 46.7598 177.511 46.7279C177.511 46.7598 177.511 46.7598 177.512 46.7917L177.511 46.7598C177.512 46.8236 177.513 46.8555 177.514 46.9194C177.513 46.8875 177.513 46.8555 177.512 46.8236C177.516 47.079 177.52 47.3024 177.556 47.5573C177.555 47.5254 177.555 47.4935 177.554 47.4615C177.598 48.2271 177.61 49.0252 177.654 49.7908C177.653 49.7589 177.653 49.7269 177.652 49.695C177.658 50.0461 177.695 50.3968 177.7 50.716C177.7 50.6841 177.699 50.6521 177.699 50.6202C177.701 50.7479 177.703 50.8756 177.705 51.0033C177.704 50.9714 177.704 50.9394 177.703 50.9075C177.704 50.9714 177.706 51.0671 177.706 51.131C177.706 51.099 177.706 51.0671 177.705 51.0352C177.709 51.2906 177.745 51.5454 177.749 51.8327L177.749 51.8008C177.894 54.9914 178.103 58.213 178.344 61.4021C178.388 62.1996 178.448 64.0186 179.584 63.1071Z" fill="black"/>
<path d="M195.609 73.3318C196.262 70.1288 196.851 66.9269 197.568 63.723C197.568 63.7549 197.569 63.7868 197.537 63.8192C199.777 53.791 203.007 43.7795 209.102 35.352C209.071 35.3844 209.072 35.4163 209.04 35.4168C210.093 33.3571 213.436 30.6555 213.66 28.6405C213.259 25.4219 200.932 35.574 199.545 36.681C194.66 40.8113 190.424 45.666 186.834 50.9577C186.803 50.9901 186.803 51.022 186.772 51.0544C186.647 51.2479 186.523 51.4414 186.366 51.6354L186.397 51.603C186.334 51.6678 186.304 51.7641 186.241 51.8289C186.21 51.8613 186.21 51.8933 186.178 51.8938C186.022 52.1197 185.835 52.378 185.678 52.6039C185.679 52.6358 185.647 52.6363 185.648 52.6682L185.616 52.7006C185.616 52.7006 185.617 52.7326 185.585 52.7331C185.585 52.7331 185.585 52.7331 185.584 52.7011C185.522 52.7979 185.428 52.8951 185.366 53.0238C185.397 52.9914 185.397 52.9595 185.429 52.959C185.366 53.0557 185.272 53.1849 185.21 53.2816C185.21 53.2816 185.21 53.2816 185.21 53.2497C185.178 53.2821 185.179 53.314 185.147 53.3145L185.115 53.3469C185.115 53.3469 185.116 53.3789 185.084 53.3794C185.084 53.3794 185.083 53.3474 185.115 53.3469C185.084 53.3794 185.084 53.4113 185.052 53.4118C182.429 57.2198 179.484 60.8732 177.281 64.9622C177.28 64.9303 177.312 64.9298 177.312 64.8978C177.218 65.0589 177.157 65.2195 177.064 65.3806C176.715 65.5456 176.884 66.1177 177.266 66.0799C178.031 65.9723 178.27 64.915 178.741 64.4288C178.741 64.4288 178.742 64.4607 178.71 64.4612C178.804 64.332 178.866 64.2353 178.96 64.1061C178.96 64.138 178.928 64.1385 178.929 64.1705C183.714 57.7428 188.37 51.1575 193.479 44.9802C193.447 45.0127 193.416 45.0451 193.416 45.0451C193.698 44.7214 193.981 44.4297 194.264 44.1061C194.232 44.1385 194.232 44.1385 194.201 44.1709C197.938 40.1221 202.161 36.5448 206.743 33.5047C206.711 33.5052 206.712 33.5371 206.68 33.5376C206.68 33.5376 206.68 33.5376 206.648 33.5381C206.68 33.5376 206.679 33.5056 206.679 33.5056C207.754 32.8185 208.829 32.1314 209.936 31.4439C209.467 32.0897 208.998 32.7355 208.53 33.4132C208.53 33.4132 208.53 33.4132 208.529 33.3813C208.467 33.478 208.373 33.6072 208.311 33.7039C208.311 33.7039 208.311 33.7039 208.31 33.672C208.279 33.7044 208.279 33.7364 208.247 33.7369C208.216 33.8012 208.154 33.866 208.123 33.9304C208.154 33.8979 208.185 33.8336 208.216 33.8012C208.185 33.8336 208.185 33.8336 208.154 33.866C201.307 43.2949 197.745 54.5568 195.525 65.8618C195.052 68.2637 194.642 70.6966 194.169 73.1305C194.277 73.9271 195.493 74.1318 195.609 73.3318Z" fill="black"/>
<path d="M200.276 92.2254C202.92 81.5524 209.772 72.4747 218.223 65.6073C218.191 65.6078 218.192 65.6397 218.16 65.6402C221.158 63.3589 223.006 61.0954 217.501 62.266C212.306 62.889 207.089 64.1189 202.532 66.7436C199.178 68.7111 196.12 71.2168 193.806 74.3815C193.216 75.4443 191.866 76.9338 192.043 78.0805C192.593 78.519 192.868 77.7166 193.085 77.3301C197.89 70.0401 206.408 65.4705 214.844 63.8715C214.844 63.8715 214.844 63.8715 214.812 63.872C216.308 63.5934 217.837 63.3463 219.366 63.1311C218.894 63.5854 218.422 64.0078 217.918 64.4307C217.918 64.4307 217.949 64.4302 217.949 64.3982C217.508 64.7882 217.067 65.1462 216.626 65.5362C216.657 65.5357 216.657 65.5038 216.689 65.5033C209.154 71.686 202.988 79.6995 200.1 89.1311C199.951 89.8039 198.607 93.7519 200.276 92.2254Z" fill="black"/>
<path d="M202.435 105.953C202.591 105.695 202.779 105.469 202.934 105.211C202.934 105.211 202.934 105.211 202.935 105.243C206.146 100.244 210.908 96.435 216.037 93.578C217.993 92.0791 223.777 90.3295 224.221 88.0557C223.527 86.5339 218.373 87.7309 216.774 87.596C211.991 87.9572 207.05 88.4486 202.644 90.56C202.676 90.5595 202.676 90.5276 202.708 90.5271C202.518 90.6258 202.327 90.7246 202.137 90.8233C202.169 90.8228 202.169 90.7909 202.201 90.7904C201.343 91.0591 195.269 94.7288 197.195 95.4015L197.164 95.402L197.132 95.4025C197.195 95.4015 197.259 95.3686 197.29 95.3362L197.259 95.3686C197.543 95.1726 197.762 94.85 198.046 94.6221C204.792 89.0262 214.052 89.1067 222.41 88.6584C214.658 93.1842 206.132 97.275 201.533 105.424C201.191 106.004 202.093 106.565 202.435 105.953Z" fill="black"/>
<path d="M193.528 106.09C193.561 106.121 193.561 106.121 193.561 106.121C193.529 106.122 193.529 106.122 193.528 106.09L193.496 106.059L193.464 106.027C193.496 106.059 193.528 106.09 193.561 106.121L193.528 106.09ZM162.414 111.2C172.545 107.691 183.565 105.988 194.101 105.953C194.101 105.953 194.101 105.985 194.069 105.986C193.519 103.408 174.343 106.291 171.383 106.911C168.202 107.694 164.99 108.51 161.878 109.612C160.958 109.977 161.428 111.471 162.414 111.2Z" fill="black"/>
<path d="M192.926 242.754C196.112 242.322 199.296 241.73 202.48 241.17C202.448 241.17 202.384 241.171 202.353 241.204C202.544 241.169 202.735 241.134 202.926 241.099C202.894 241.099 202.83 241.1 202.799 241.133C202.926 241.099 203.022 241.098 203.149 241.064C203.117 241.064 203.053 241.065 203.022 241.097C208.401 240.025 213.748 238.92 218.957 237.18L218.925 237.18C218.957 237.18 219.02 237.147 219.052 237.146L219.02 237.147C230.969 233.546 244.459 228.357 248.535 215.299C252.618 204.668 250.59 193.3 248.252 182.513C246.261 171.369 242.677 160.568 238.905 149.898C235.244 140.249 231.295 130.603 225.48 122.009C221.873 115.902 216.28 111.391 210.036 108.167C208.458 107.265 202.419 104.932 201.49 106.798C201.558 107.021 201.815 107.112 202.005 107.046C203.92 106.984 205.845 107.593 207.58 108.3C213.596 111.241 219.186 115.529 222.755 121.285L222.754 121.253C229.324 131.145 233.932 142.153 238.03 153.233C241.341 162.92 244.653 172.702 246.31 182.83C247.289 188.339 248.428 193.877 248.802 199.458C248.801 199.426 248.8 199.362 248.8 199.331C249.103 204.53 248.45 209.777 246.674 214.689C246.674 214.657 246.705 214.625 246.704 214.561C243.502 224.317 234.2 229.76 224.99 232.936C216.991 235.997 208.658 238.105 200.188 239.577C183.283 242.711 162.764 245.423 149.966 231.285C141.663 222.952 137.339 211.684 136.585 200.074C134.955 185.476 135.845 170.775 137.441 156.255C137.441 156.286 137.442 156.318 137.442 156.318C137.469 155.999 137.495 155.647 137.522 155.327C137.523 155.359 137.523 155.391 137.524 155.423C137.606 154.528 137.688 153.633 137.737 152.706C137.738 152.738 137.738 152.738 137.738 152.77C138.738 143.112 140.15 133.224 144.709 124.533C144.71 124.565 144.678 124.597 144.647 124.63C146.665 120.895 149.389 117.469 152.538 114.61C153.194 113.674 155.802 113.027 155.53 111.914C155.397 111.597 154.979 111.38 154.662 111.544C140.362 120.034 137.675 138.339 136.153 153.529C136.153 153.529 136.153 153.529 136.153 153.497C136.155 153.624 136.125 153.784 136.127 153.912C136.127 153.88 136.126 153.848 136.126 153.816C136.098 154.072 136.07 154.328 136.074 154.583C136.073 154.552 136.073 154.52 136.072 154.488C136.045 154.744 136.017 154.999 136.02 155.223C136.02 155.191 136.019 155.159 136.019 155.127C135.99 155.351 135.993 155.543 135.965 155.767L135.964 155.735C134.189 175.206 131.214 201.657 139.888 219.627C151.962 242.684 168.749 246.384 192.926 242.754Z" fill="black"/>
<path d="M160.016 179.149C163.979 175.288 157.126 171.882 153.603 173.277C150.089 173.172 145.279 177.971 150.005 180.133C153.212 181.042 157.172 181.076 160.016 179.149Z" fill="#FF6C79"/>
<path d="M192.655 177.72C195.259 176.817 200.892 171.494 196.206 169.906C193.329 169.695 192.083 177.888 187.076 172.059C187.109 172.122 187.142 172.154 187.174 172.217C186.085 169.903 182.408 171.62 183.529 173.933C185.175 177.101 189.258 178.954 192.655 177.72Z" fill="black"/>
<path d="M175.231 163.748C171.549 156.877 160.106 158.107 158.214 165.863C157.387 168.174 160.983 169.46 161.778 167.149C162.084 166.282 162.42 165.351 163.112 164.67C165.749 161.755 170.014 162.967 172.323 165.677C173.583 166.647 175.606 165.339 175.231 163.748Z" fill="black"/>
<path d="M230.03 164.53C234.512 163.248 233.158 158.256 228.938 157.874C225.092 156.943 215.145 159.939 220.519 164.741C223.478 166.132 227.009 165.279 230.03 164.53Z" fill="#FF6C79"/>
<path d="M219.177 154.289C217.253 149.594 209.923 148.398 205.844 150.983C203.885 152.29 200.049 156.117 202.414 158.348C203.253 158.909 204.495 158.73 205.056 157.86C206.368 153.88 211.065 152.052 214.584 154.552C215.645 155.014 216.113 156.38 217.388 156.264C218.409 156.217 219.225 155.31 219.177 154.289Z" fill="black"/>
<path d="M115.334 145.006C116.797 144.664 118.028 143.719 118.195 142.152C118.306 141.064 118.033 139.951 118.592 138.921C119.244 137.697 120.329 137.649 121.54 137.502C123.866 137.211 122.806 134.769 122.081 133.311C121.554 132.234 123.009 131.381 123.695 132.36C124.774 134.004 125.761 135.873 125.025 137.832C124.717 138.603 124.185 139.249 123.456 139.644C123.14 139.808 122.789 139.878 122.439 139.947C122.153 139.983 121.161 139.871 120.972 140.033C120.531 140.423 120.836 141.536 120.781 142.144C120.731 143.038 120.49 143.936 120.023 144.71C119.089 146.289 117.445 147.304 115.593 147.332C114.285 147.384 113.998 145.345 115.334 145.006Z" fill="black"/>
<path d="M245.555 121.507C248.417 122.836 250.696 125.706 252.208 128.524C253.892 127.988 255.772 127.735 257.258 128.862C259.067 130.207 258.655 132.48 259.163 134.388C259.4 135.278 258.134 135.968 257.548 135.243C256.734 134.202 256.685 133.085 256.251 131.878C255.616 130.036 253.52 130.803 252.156 131.335C251.489 131.601 250.689 131.453 250.359 130.756C249.634 129.299 248.782 127.907 247.741 126.646C246.701 125.417 245.441 124.51 244.338 123.378C243.592 122.591 244.493 120.981 245.555 121.507Z" fill="black"/>
</g>
<defs>
<clipPath id="clip0">
<rect width="147.138" height="242.723" fill="white" transform="matrix(-0.999881 0.0154405 0.0154405 0.999881 257.12 0)"/>
</clipPath>
</defs>
</svg>
