<svg width="346" height="316" viewBox="0 0 346 316" fill="none" xmlns="http://www.w3.org/2000/svg">
<path d="M266 246.5C266 250.09 218.542 253 160 253C101.458 253 54 250.09 54 246.5C54 242.91 101.458 240 160 240C218.542 240 266 242.91 266 246.5Z" fill="#E9ECEE"/>
<g clip-path="url(#clip0)">
<path d="M229.7 137.9C228.9 137.1 227.8 136.7 226.7 136.7H178C177.8 135.9 177.4 135.1 176.8 134.5L142.1 97.2004C141.5 96.6004 140.7 96.1004 139.9 95.8004C139 95.6004 138.1 95.6004 137.3 95.8004C136.5 96.0004 135.7 96.5004 135.1 97.1004C134.5 97.7004 134 98.5004 133.8 99.4004L129.5 88.1004C129.3 87.5004 128.9 87.0004 128.5 86.5004C128 86.0004 127.5 85.7004 126.9 85.4004C125.7 84.9004 124.4 84.8004 123.1 85.3004C121.9 85.8004 120.9 86.7004 120.4 87.9004C119.9 89.1004 119.8 90.4004 120.3 91.6004L137.5 136.6H81.3C80.2 136.6 79.1 137 78.3 137.8C77.5 138.6 77 139.6 77 140.8C77 141.9 77.4 143 78.1 143.8C78.8 144.6 79.9 145.1 81 145.2H81.3V235.1C81.3 237.4 82.2 239.7 83.9 241.3C85.6 243 87.8 243.9 90.2 243.9H216C218.3 243.9 220.6 243 222.3 241.3C224 239.6 224.9 237.4 224.9 235.1L224.5 145.2H226.9C228 145.1 229.1 144.6 229.9 143.8C230.7 143 231.1 141.9 231 140.8C231 139.7 230.5 138.6 229.7 137.9ZM200.3 145.3H224L224.1 170.4H200.2V145.3H200.3ZM200.3 170.8H224.2L224.3 195.1H200.3V170.8ZM121.4 91.2004C121.2 90.6004 121.1 90.0004 121.2 89.4004C121.3 88.8004 121.5 88.2004 121.8 87.7004C122.1 87.2004 122.6 86.8004 123.1 86.5004C123.6 86.2004 124.2 86.1004 124.8 86.1004C125.6 86.1004 126.3 86.3004 126.9 86.8004C127.5 87.2004 128 87.8004 128.3 88.6004L146.5 136C146.7 136.5 146.8 137 146.8 137.5C146.8 138 146.7 138.5 146.5 139C146.3 139.5 146 139.9 145.7 140.3C145.3 140.7 144.9 140.9 144.4 141.1C143.9 141.3 143.4 141.4 142.9 141.3C142.4 141.3 141.9 141.1 141.4 140.9C140.9 140.7 140.5 140.3 140.2 139.9C139.9 139.5 139.6 139 139.5 138.6L121.4 91.2004ZM135.8 104.8L165.5 136.6H147.9C147.9 136.2 147.8 135.9 147.6 135.6L135.8 104.8ZM105.8 243.5H90.2C88 243.5 85.9 242.6 84.3 241C82.7 239.4 81.8 237.3 81.8 235.1V220.3H105.8V243.5ZM105.8 219.9H81.8V195.6H105.8V219.9ZM105.8 195.1H81.8V170.9H105.8V195.1ZM105.8 170.3H81.8V145.3H105.8V170.3ZM129.3 243.5H106.3V220.4H129.3V243.5ZM129.3 219.9H106.3V195.6H129.3V219.9ZM129.3 195.1H106.3V170.8H129.3V195.1ZM129.3 170.3H106.3V145.3H129.3V170.3ZM152.8 243.5H129.8V220.4H152.8V243.5ZM152.8 176.4V190.6V195.1H129.8V170.8H152.8V176.4ZM152.8 170.3H129.8V145.3H152.8V170.3ZM176.3 243.5H153.3V220.4H176.3V243.5ZM176.3 215.6V219.9H153.3V195.6H176.3V215.6ZM176.3 195.1H153.3V170.9H176.3V195.1ZM176.3 170.4H153.3V145.3H176.3V170.4ZM175.8 140.5C175.4 140.8 175 141.1 174.6 141.3C174.2 141.5 173.6 141.5 173.1 141.5C172.6 141.5 172.1 141.4 171.7 141.2C171.2 141 170.9 140.7 170.5 140.3L135.8 103.1C135.1 102.4 134.8 101.4 134.8 100.4C134.8 99.4004 135.3 98.5004 136 97.8004C136.7 97.2004 137.6 96.8004 138.6 96.8004H138.7C139.2 96.8004 139.7 96.9004 140.1 97.1004C140.6 97.3004 141 97.6004 141.3 97.9004L176 135.2C176.3 135.6 176.6 136 176.8 136.4C177 136.9 177 137.4 177 137.8C177 138.2 176.9 138.8 176.7 139.2C176.5 139.8 176.2 140.2 175.8 140.5ZM199.8 243.5H176.8V220.4H199.8V243.5ZM199.8 219.9H176.8V195.6H199.8V219.9ZM199.8 195.1H176.8V170.9H199.8V173.5V195.1ZM176.8 170.3V145.3H199.8V170.4H176.8V170.3ZM221.9 241C220.3 242.6 218.2 243.5 216 243.5H200.3V220.4H224.3V219.9H200.3V195.6H224.3L224.5 235.1C224.4 237.4 223.5 239.5 221.9 241ZM129.8 197.1V195.6H152.8V215.6V219.9H129.8V204.6V197.1Z" fill="#3F4042" stroke="#3F4042"/>
<path d="M203.727 106.896C205.926 107.356 207.644 109.074 208.104 111.273C208.193 111.696 208.567 112 209 112C209.433 112 209.807 111.697 209.896 111.273C210.356 109.074 212.074 107.356 214.273 106.896C214.696 106.807 215 106.433 215 106C215 105.567 214.696 105.193 214.273 105.104C212.074 104.644 210.356 102.926 209.896 100.727C209.807 100.304 209.433 100 209 100C208.567 100 208.193 100.303 208.104 100.727C207.644 102.926 205.926 104.644 203.727 105.104C203.304 105.193 203 105.567 203 106C203 106.433 203.304 106.807 203.727 106.896Z" fill="#FFB800"/>
<path d="M181.783 198.069C182.911 191.646 179.528 184.241 174.265 180.16C166.295 173.888 153.439 172.15 142.687 173.359C137.274 173.964 130.884 176.911 127.35 181.672C123.891 186.432 124.493 193.384 127.575 198.296C133.289 207.364 143.59 210.916 154.266 210.991C161.935 211.067 171.257 210.764 177.347 205.702C179.903 203.51 181.257 200.865 181.783 198.069Z" fill="#3F4042"/>
<path d="M160.811 199.999C160.585 199.999 160.284 199.999 159.984 199.924C159.007 199.697 158.255 199.091 157.954 198.335L159.833 197.654C159.909 197.881 160.284 198.032 160.435 198.032C160.961 198.108 161.412 198.032 161.487 197.881C161.788 197.578 161.938 197.2 161.938 196.746C161.938 196.14 161.638 195.535 161.186 195.081C160.961 194.854 160.735 194.702 160.51 194.475C159.683 193.794 158.706 192.962 158.255 191.6C157.653 189.86 158.706 188.195 159.909 187.514C161.262 186.757 162.765 186.984 163.742 188.195L162.239 189.481C161.713 188.876 161.111 189.103 160.811 189.254C160.284 189.557 159.833 190.238 160.059 190.995C160.36 191.827 160.961 192.357 161.713 192.962C162.013 193.189 162.239 193.416 162.464 193.643C163.366 194.475 163.893 195.61 163.893 196.746C163.893 197.729 163.517 198.637 162.84 199.318C162.389 199.697 161.638 199.999 160.811 199.999Z" fill="white"/>
<path d="M153.143 199.621C153.068 199.621 152.993 199.621 152.843 199.621C151.79 199.545 150.888 199.015 150.212 198.259C149.385 197.199 149.009 195.534 149.234 193.643C149.46 191.751 150.512 189.102 152.767 188.119C154.196 187.438 155.774 187.665 156.676 188.724C157.578 189.783 157.654 191.297 156.827 192.583C155.248 195.005 152.542 195.005 151.189 194.778C151.189 195.761 151.414 196.594 151.79 197.048C152.091 197.426 152.467 197.653 153.068 197.653C153.444 197.653 154.196 197.502 154.572 196.972L156.225 198.107C155.474 199.167 154.196 199.621 153.143 199.621ZM151.49 192.81C152.392 192.962 154.196 193.037 155.173 191.524C155.549 190.918 155.474 190.389 155.173 190.086C154.872 189.708 154.271 189.632 153.594 189.935C152.617 190.389 151.865 191.599 151.49 192.81Z" fill="white"/>
<path d="M142.243 184.714V182.746L135.477 182.595L135.177 199.167H137.131L137.282 191.297L141.717 191.373V189.405L137.357 189.254L137.432 184.638L142.243 184.714Z" fill="white"/>
<path d="M145.25 199.016L143.296 198.94L143.446 188.119H145.401V190.238C145.701 189.784 146.152 189.33 146.603 189.103C147.656 188.422 148.859 188.346 150.212 188.8L149.535 190.692C148.483 190.314 147.957 190.541 147.656 190.768C145.852 191.903 145.401 197.275 145.25 199.016Z" fill="white"/>
<path d="M174.417 198.031C174.041 198.409 173.364 198.712 172.913 198.485C172.613 198.334 172.387 198.182 172.462 197.047C172.462 196.744 172.537 196.366 172.537 195.988C172.688 194.399 172.913 192.507 171.711 190.993C171.26 190.464 170.583 190.085 169.831 190.01C169.004 189.934 168.177 190.161 167.501 190.615L168.478 184.259L166.524 183.956L164.269 199.166L166.223 199.469L166.749 195.761L166.9 195.155C167.275 193.793 167.501 193.188 168.478 192.356C168.704 192.129 169.155 191.977 169.531 192.053C169.681 192.053 169.906 192.129 170.057 192.28C170.733 193.112 170.583 194.474 170.433 195.836C170.357 196.215 170.357 196.669 170.357 197.047C170.282 197.804 170.207 199.62 172.011 200.452C172.387 200.604 172.763 200.679 173.139 200.679C174.116 200.679 175.093 200.15 175.695 199.544L174.417 198.031Z" fill="white"/>
</g>
<path d="M147.424 63.0224C148.707 63.2912 149.709 64.2935 149.978 65.5757C150.029 65.8229 150.247 66 150.5 66C150.753 66 150.971 65.823 151.022 65.5757C151.291 64.2935 152.293 63.2912 153.576 63.0225C153.823 62.9707 154 62.7526 154 62.5C154 62.2474 153.823 62.0294 153.576 61.9776C152.293 61.7088 151.291 60.7066 151.022 59.4243C150.971 59.1771 150.753 59 150.5 59C150.247 59 150.029 59.177 149.978 59.4243C149.709 60.7066 148.707 61.7088 147.424 61.9775C147.177 62.0294 147 62.2474 147 62.5C147 62.7526 147.177 62.9706 147.424 63.0224Z" fill="#FFB800"/>
<path d="M271.606 32.7463C273.438 33.1303 274.87 34.5621 275.254 36.3939C275.328 36.747 275.639 37 276 37C276.361 37 276.672 36.7471 276.746 36.3939C277.13 34.5621 278.562 33.1303 280.394 32.7464C280.747 32.6724 281 32.3609 281 32C281 31.6392 280.747 31.3278 280.394 31.2537C278.562 30.8697 277.13 29.438 276.746 27.6061C276.672 27.253 276.361 27 276 27C275.639 27 275.328 27.2529 275.254 27.6061C274.87 29.438 273.438 30.8697 271.606 31.2536C271.253 31.3277 271 31.6391 271 32C271 32.3608 271.253 32.6723 271.606 32.7463Z" fill="#FFB800"/>
<path d="M239.967 32.7032C240.1 33.3322 240.25 33.9699 240.357 34.6073C240.419 34.9733 240.3 35.2692 239.921 35.4212C239.554 35.5689 239.319 35.4166 239.106 35.1569C236.877 32.4346 234.231 30.1909 231.421 28.1008C228.855 26.1888 226.089 24.585 223.331 22.9641C221.691 22.0097 220.169 20.8885 218.759 19.6305C218.52 19.4222 218.315 19.1884 218.106 18.9416C217.901 18.7078 217.917 18.4026 218.107 18.1976C218.237 18.0695 218.491 18.0585 218.702 18.0042C218.754 17.9874 218.836 18.0181 218.9 18.0401C220.977 18.7097 223.088 19.3106 225.125 20.0788C227.441 20.9566 229.744 21.8816 231.876 23.1623C235.096 25.105 237.631 27.6705 239.283 31.0808C239.524 31.6031 239.73 32.1509 239.967 32.7032Z" fill="#81AD28"/>
<path d="M238.963 34.0156C238.973 33.7835 238.955 33.4177 239 33.074C239.264 31.2007 239.545 29.3362 239.795 27.4671C239.96 26.2555 240.649 26.0886 241.546 26.2976C242.783 26.5823 243.251 27.188 243.001 28.442C242.644 30.2027 242.162 31.9324 241.744 33.6841C241.7 33.8558 241.625 34.0229 241.581 34.1947C241.308 35.07 241.308 35.07 240.447 35.1495C239.961 35.1931 239.199 34.654 238.963 34.0156Z" fill="#4A2C2D"/>
<path d="M243.034 58.1197C239.193 59.3249 235.418 59.064 231.654 58.0849C230.28 57.7304 229.082 56.9471 227.991 56.1002C224.104 53.0728 221.751 49.1754 221.51 44.1628C221.356 41.138 222.169 38.357 223.874 35.8581C225.335 33.7101 227.363 32.3792 229.909 31.8523C231.356 31.5536 232.778 31.8353 234.172 32.2545C234.773 32.4311 235.365 32.6679 235.935 32.926C238.4 34.0414 240.985 34.517 243.686 34.5117C244.4 34.5085 245.119 34.5182 245.845 34.5539C249.087 34.7161 251.432 36.2995 252.665 39.2594C254.241 43.052 254.028 46.7966 252.004 50.4286C251.014 52.2232 249.785 53.8096 248.269 55.1744C246.97 56.3689 244.844 57.6603 243.034 58.1197Z" fill="#EB4C34"/>
<path d="M194.595 57.1434C195.01 59.125 194.943 61.1202 194.807 63.1235C194.518 67.2503 193.64 71.2824 192.715 75.3012C192.341 76.9242 191.955 78.5513 191.405 80.1171C190.609 82.4207 189.483 84.5885 188.126 86.6169C187.882 86.9678 187.711 87.3665 187.472 87.7303C187.293 88.0171 187.068 88.2906 186.651 88.1971C186.252 88.1124 186.112 87.8146 186.068 87.4572C186.023 87.1429 186.021 86.8289 186.019 86.5149C186.097 83.5865 186.381 80.6768 186.752 77.7678C187.123 74.8158 187.364 71.8627 187.976 68.947C188.695 65.4814 190.078 62.3005 191.886 59.282C192.313 58.5712 192.667 57.8126 193.072 57.0802C193.164 56.9218 193.23 56.7287 193.355 56.6308C193.567 56.4904 193.839 56.3161 194.05 56.3479C194.213 56.3663 194.357 56.6771 194.489 56.863C194.574 56.9497 194.578 57.0486 194.595 57.1434Z" fill="#81AD28"/>
<path d="M194.374 56.3295C194.588 56.4171 194.94 56.5316 195.248 56.6888C196.91 57.5788 198.555 58.5032 200.23 59.389C201.318 59.965 201.218 60.6696 200.709 61.4356C200.009 62.4927 199.284 62.7281 198.193 62.0531C196.669 61.1039 195.21 60.0477 193.725 59.0429C193.58 58.9471 193.452 58.8171 193.302 58.7085C192.575 58.1438 192.562 58.148 192.792 57.3153C192.916 56.8604 193.686 56.3243 194.374 56.3295Z" fill="#4A2C2D"/>
<path d="M170.352 51.7641C170.563 47.7485 172.116 44.2979 174.342 41.1148C175.151 39.951 176.306 39.1039 177.486 38.3773C181.678 35.7855 186.149 34.9334 190.933 36.4535C193.82 37.3744 196.139 39.0952 197.896 41.5558C199.398 43.6705 199.953 46.036 199.559 48.6093C199.333 50.07 198.575 51.3029 197.693 52.4618C197.315 52.9708 196.894 53.4364 196.439 53.8846C194.532 55.8056 193.182 58.0749 192.255 60.5926C192.005 61.2746 191.75 61.9436 191.461 62.5952C190.187 65.5834 187.873 67.2218 184.668 67.348C180.559 67.5104 177.121 65.9961 174.423 62.8401C173.088 61.2859 172.021 59.5875 171.275 57.6851C170.642 56.0459 170.153 53.6163 170.352 51.7641Z" fill="#EB4C34"/>
<path d="M251.5 96.3444C251.392 96.3221 251.277 96.2739 251.173 96.2645C250.37 96.1681 250.302 96.0472 250.523 95.2316C251.058 93.3131 252.107 91.6566 253.191 90.0175C254.535 87.9932 256.098 86.1126 258.053 84.6909C262.2 81.6987 266.75 79.5053 271.849 78.6493C272.095 78.6125 272.344 78.5886 272.585 78.6248C273.131 78.6763 273.347 79.1209 273.072 79.5962C273.002 79.7333 272.885 79.8572 272.777 79.9639C271.17 81.4012 269.593 82.886 267.927 84.2712C265.416 86.3597 262.867 88.4178 260.28 90.4024C258.645 91.6632 256.894 92.7897 255.195 93.9854C254.252 94.6492 253.348 95.3434 252.401 95.9943C252.146 96.1773 251.827 96.2953 251.546 96.4437C251.538 96.4178 251.512 96.3832 251.5 96.3444Z" fill="#81AD28"/>
<path d="M251.577 94.6459C251.502 94.8131 251.449 95.002 251.349 95.1775C251.214 95.4217 251.049 95.6613 250.9 95.9096C250.7 96.2178 250.433 96.319 250.09 96.1873C249.91 96.1172 249.721 95.9781 249.532 95.9681C249.025 95.947 248.825 95.6401 248.729 95.2136C248.404 93.8606 248.062 92.4988 247.762 91.1374C247.584 90.3232 247.431 89.5005 247.308 88.6824C247.143 87.6919 247.422 87.2725 248.354 86.9268C248.444 86.8974 248.522 86.8722 248.612 86.8428C249.724 86.5243 250.41 86.9166 250.65 88.0539C250.837 88.9371 250.998 89.8286 251.116 90.7199C251.278 92.0114 251.415 93.3114 251.577 94.6459Z" fill="#4A2C2D"/>
<path d="M266.507 106.884C266.122 111.157 264.573 114.62 261.653 117.428C260.228 118.807 258.475 119.662 256.579 120.121C254.058 120.725 251.498 120.814 248.952 120.282C248.157 120.126 247.354 119.986 246.581 119.765C240.895 118.152 236.104 112.916 236.766 105.708C237.024 102.85 238.114 100.308 239.976 98.1153C241.091 96.7947 244.189 94.9731 245.881 94.7665C246.897 94.6366 247.955 94.593 248.979 94.661C251.038 94.7928 253.022 94.5627 254.942 93.8245C257.677 92.7786 260.141 93.322 262.394 95.1499C263.617 96.1398 264.477 97.3334 265.033 98.8258C265.838 100.995 266.424 103.193 266.496 105.529C266.509 106.054 266.501 106.6 266.507 106.884Z" fill="#EB4C34"/>
<path d="M236.262 91.2269C235.428 91.1689 235.479 92.4683 236.296 92.5175C238.617 92.6641 239.961 94.6872 240.617 96.7051C240.873 97.4942 242.11 97.1208 241.85 96.3188C241.009 93.6887 239.199 91.4169 236.262 91.2269Z" fill="white"/>
<path d="M197.323 71.1593C196.631 73.3003 194.542 74.3511 192.391 73.8058C191.579 73.5975 191.29 74.8641 192.102 75.0724C194.982 75.7953 197.686 74.2589 198.594 71.4614C198.849 70.6634 197.583 70.3742 197.323 71.1593Z" fill="white"/>
<path d="M247.718 42.729C247.025 42.2679 246.427 43.4203 247.116 43.8686C248.669 44.9083 249.646 46.5501 249.851 48.4141C249.948 49.2406 251.239 49.2074 251.142 48.3808C250.889 46.0176 249.691 44.0472 247.718 42.729Z" fill="white"/>
<defs>
<clipPath id="clip0">
<rect width="154" height="159" fill="white" transform="translate(77 85)"/>
</clipPath>
</defs>
</svg>
