<svg width="322" height="189" viewBox="0 0 322 189" fill="none" xmlns="http://www.w3.org/2000/svg">
<path d="M259.216 52.1481C249.652 43.4282 236.716 36.7276 224.058 39.4354C217.728 40.8122 212.092 44.392 205.809 45.7229C195.183 48.0176 184.418 43.8413 173.977 40.8122C131.196 28.4208 83.0101 36.131 46.2813 61.1893C39.2589 65.9623 32.3752 71.745 29.4646 79.6847C26.8312 86.8901 27.94 95.1052 31.2664 102.035C35.1472 110.113 41.9847 116.721 50.2545 120.347C64.7612 126.726 82.1322 123.743 96.5928 130.214C98.0712 130.903 99.5957 131.729 100.52 133.06C101.86 135.079 101.536 137.741 101.351 140.173C100.15 155.686 109.436 172.529 124.59 176.476C135.308 179.275 146.488 175.604 157.345 173.309C173.284 169.913 189.87 169.454 205.947 171.978C221.378 174.411 236.301 179.551 251.778 181.387C267.301 183.222 284.21 181.249 296.129 171.198C301.073 167.022 305.046 161.147 305 154.676C304.953 150.729 303.383 146.966 301.581 143.432C298.07 136.731 293.542 130.536 288.137 125.212C283.794 120.898 278.62 116.676 277.511 110.663C275.617 100.337 283.748 91.5714 280.006 81.291C275.986 70.3223 267.809 59.9961 259.216 52.1481Z" fill="#F5F4F4"/>
<path d="M148.572 148.834C148.608 149.341 148.717 149.883 148.825 150.354C148.825 149.92 148.825 149.449 148.825 149.015C148.753 148.979 148.645 148.906 148.572 148.834Z" fill="#588F35"/>
<path d="M241.195 61.1543C241.159 61.1905 241.123 61.2267 241.087 61.2267C241.051 61.2628 241.015 61.299 240.979 61.3352C241.051 61.299 241.123 61.2267 241.195 61.1543Z" fill="#588F35"/>
<path d="M141.995 167.109C142.032 167.109 142.032 167.109 141.995 167.109C142.032 167.109 142.032 167.109 142.032 167.072C142.032 167.072 142.032 167.109 141.995 167.109Z" fill="#588F35"/>
<path d="M260.639 7.81751C260.639 7.7811 260.639 7.74469 260.675 7.67188C260.639 7.70828 260.639 7.74469 260.639 7.81751C260.639 7.81751 260.639 7.7811 260.639 7.81751Z" fill="#588F35"/>
<path d="M255.327 28.5137C255.327 28.5137 255.327 28.5501 255.327 28.5137C255.327 28.5501 255.29 28.5865 255.29 28.6229C255.29 28.6229 255.29 28.5501 255.327 28.5137Z" fill="#588F35"/>
<path d="M237.293 89.959C236.967 90.6465 236.678 91.3341 236.425 92.0578C231.908 104.651 228.908 112.177 222.006 121.984C216.874 128.859 210.586 135.481 204.442 141.488C195.516 149.087 181.494 156.397 170.327 159.762C167.183 160.992 163.967 161.825 160.715 162.729C154.101 164.828 148.355 168.953 142.103 171.884C142.103 171.884 142.139 171.884 142.139 171.848C142.031 171.884 141.958 171.92 141.85 171.957C132.237 176.987 121.612 179.013 110.843 179.122C110.951 179.122 111.06 179.122 111.168 179.122C106.037 179.411 100.869 179.194 95.737 178.832C82.1488 177.24 68.1631 173.875 56.7071 166.131C56.7432 166.167 56.8155 166.203 56.8517 166.239C56.671 166.095 56.4541 165.986 56.2734 165.841C59.7066 169.785 63.2844 173.585 67.4042 176.878C68.8497 178.036 70.3314 179.158 71.8493 180.243C82.5463 185.237 94.4721 187.444 107.157 187.227C107.338 187.227 107.554 187.227 107.735 187.227H107.699C110.12 187.191 112.542 186.974 114.963 186.721C131.261 184.767 145.681 176.046 160.317 169.207C174.122 163.779 188.216 166.022 200.395 155.383C200.323 155.456 200.25 155.492 200.178 155.564C200.756 155.058 201.298 154.515 201.877 154.008C215.031 146.265 225.295 133.961 230.282 119.451C230.498 118.799 230.426 118.22 230.173 117.75C233.173 110.875 235.233 103.601 237.546 96.4725C237.256 94.3375 237.22 92.1301 237.293 89.959Z" fill="#588F35"/>
<path d="M259.735 0C254.603 0.578978 254.965 1.01321 254.386 5.78978C251.712 20.7708 248.966 35.788 244.376 50.2987C230.065 47.6933 215.212 47.8018 200.865 46.0287C207.008 53.483 216.477 58.0787 226.162 58.2596H226.198C226.198 58.2596 226.198 58.2596 226.162 58.2596C228.403 58.4405 230.643 58.2958 232.848 58.0063C232.884 58.0063 232.92 58.0063 232.992 58.0063C234.113 58.0787 236.606 56.9207 237.329 57.6806C237.473 58.1872 236.931 58.2958 236.534 58.332C236.57 58.332 236.57 58.332 236.606 58.332C229.414 60.0327 221.789 62.2039 214.453 60.0327C207.659 61.842 200.648 63.1809 193.818 64.5198V64.556C196.709 67.3785 200.612 69.1878 204.226 70.8886C204.19 70.8524 204.117 70.8524 204.081 70.8162C204.84 71.2142 205.707 71.2142 206.539 71.359C206.575 71.359 206.575 71.359 206.611 71.359C206.611 71.359 206.611 71.359 206.647 71.359C208.093 71.8294 209.502 72.0103 211.02 72.0103C214.525 72.3722 218.031 72.0465 221.5 71.5037C228.981 70.4905 235.703 66.3291 241.16 61.2269C242.605 59.8156 243.978 58.2596 245.135 56.5589C244.195 58.7662 243.328 60.9736 242.388 63.1809C239.353 65.5692 236.751 68.7174 233.101 70.382C229.74 72.0465 226.596 74.7243 222.693 74.7967C218.392 74.6881 214.417 75.6651 210.261 76.6422C206.466 77.0764 202.6 77.3659 198.769 77.2211C179.507 76.4974 166.822 76.2079 149.078 85.2544C137.514 90.7909 126.455 98.1005 113.698 100.416C103.254 102.19 92.8461 104.505 82.7634 107.798C65.1276 115.832 52.4068 131.138 40.4449 145.721C39.975 146.554 39.0354 147.422 39.2161 148.435C39.433 149.123 40.3364 149.014 40.734 148.58C45.2152 144.238 49.0097 139.136 54.033 135.372C68.3078 125.747 82.3658 112.43 100.399 111.634C109.578 111.164 118.83 112.068 127.973 110.549C140.007 109.391 149.62 101.791 160.317 96.9064C168.738 93.4687 177.375 90.61 186.156 88.2217C186.084 88.2579 186.012 88.2579 185.94 88.2941C194.215 86.2677 202.419 83.5899 210.875 82.7214C222.367 80.297 233.426 74.8328 241.123 65.7863C238.811 71.4675 237.184 77.8001 238.558 83.9156C238.558 83.9517 238.521 83.9879 238.521 83.9879C239.136 85.8696 239.931 87.6789 241.087 89.4158C242.93 92.3107 245.785 94.0838 248.604 96.0379C249.363 96.4359 250.158 96.7978 250.989 97.0873C252.507 97.232 254.856 98.8966 255.76 96.9426C256.013 96.2188 255.687 95.4589 255.037 95.0971C248.098 92.0936 246.617 82.7576 247.881 76.027C249.038 68.9345 252.001 60.4308 246.58 54.3515C247.484 53.7725 247.737 52.4337 247.086 51.5652C250.05 44.0385 252.905 36.3308 255.326 28.5508C257.314 21.7117 259.374 14.8363 260.638 7.8162C260.53 5.68122 262.843 0.361861 259.735 0ZM215.212 51.7823C214.417 51.529 213.586 51.2757 212.755 51.0224C212.538 50.95 212.357 50.8777 212.14 50.8415C213.188 50.9862 214.236 51.1671 215.248 51.3481C215.212 51.4928 215.212 51.6376 215.212 51.7823ZM206.9 67.1976C206.755 67.1976 206.611 67.1614 206.466 67.1614C207.876 67.0167 209.249 66.8357 210.658 66.5824C209.502 67.4147 208.273 67.4147 206.9 67.1976ZM121.685 105.012C122.118 104.867 122.588 104.723 123.022 104.578C122.588 104.723 122.118 104.867 121.685 105.012ZM156.197 89.0178C156.233 89.0178 156.233 88.9816 156.27 88.9816C156.233 88.9816 156.233 88.9816 156.197 89.0178C156.523 88.8731 156.848 88.7283 157.137 88.6197C156.812 88.7283 156.523 88.8731 156.197 89.0178ZM190.782 83.6623C191.18 83.5899 191.577 83.5175 191.975 83.4451C191.577 83.5175 191.18 83.5899 190.782 83.6623ZM245.641 50.5158C245.641 50.5158 245.605 50.5158 245.641 50.5158C245.894 49.9006 246.147 49.2493 246.4 48.6341C246.58 48.1637 246.797 47.6571 246.978 47.1867C246.544 48.3084 246.111 49.4302 245.641 50.5158Z" fill="#588F35"/>
<path d="M155.908 102.154C155.836 102.19 155.8 102.227 155.728 102.263C155.8 102.227 155.836 102.19 155.908 102.154Z" fill="#78BA4D"/>
<path d="M216.515 89.6339C216.478 89.5975 216.442 89.5611 216.405 89.4883C216.405 89.5247 216.478 89.5611 216.515 89.6339Z" fill="#78BA4D"/>
<path d="M148.681 153.357C148.717 153.031 148.717 152.669 148.753 152.344C148.537 152.669 148.5 153.031 148.681 153.357Z" fill="#78BA4D"/>
<path d="M216.513 89.6333C216.477 89.5971 216.441 89.5609 216.405 89.4886C216.405 89.5248 216.477 89.5609 216.513 89.6333C215.285 87.9688 210.261 80.9486 209.105 85.7976C199.492 86.3042 190.24 89.0905 181.097 91.9492C172.243 94.3737 162.956 96.1106 155.764 102.298C155.836 102.262 155.872 102.226 155.945 102.19C155.872 102.226 155.836 102.262 155.764 102.298C153.776 103.746 151.644 105.012 149.729 106.568C147.85 103.095 143.983 120.138 143.332 121.586C143.332 121.549 143.332 121.549 143.332 121.513C143.152 122.237 142.971 122.997 142.79 123.721C142.501 125.023 142.031 126.29 142.248 127.629C142.104 127.412 141.959 127.194 141.778 126.977C141.706 127.014 141.67 127.05 141.598 127.086C142.501 128.678 143.441 130.126 144.2 131.718C147.452 137.399 148.862 143.84 148.753 150.39C148.898 150.86 149.078 151.331 149.331 151.765C149.042 151.982 148.825 152.163 148.681 152.38C148.645 152.706 148.645 153.068 148.609 153.393C149.693 155.528 158.077 157.374 159.522 157.772C162.739 158.242 165.883 157.012 168.955 156.216C176.688 154.153 184.314 151.258 191.361 147.423C198.444 142.501 204.913 136.603 210.55 130.089C215.971 123.033 224.392 116.049 224.247 106.46C223.56 100.236 220.886 94.1204 216.513 89.6333Z" fill="#78BA4D"/>
<path d="M64.6943 163.598C64.7305 163.598 64.7305 163.634 64.7666 163.634C64.8028 163.634 64.8028 163.634 64.8389 163.67C64.8028 163.67 64.7305 163.634 64.6943 163.598Z" fill="#78BA4D"/>
<path d="M144.272 131.716C143.513 130.124 142.574 128.64 141.67 127.084C139.791 128.279 139.61 125.999 139.827 124.551C137.225 122.091 134.551 119.304 131.118 118.074C129.925 118.002 123.745 115.179 123.962 117.133C118.975 116.482 113.952 117.459 109.001 118.002C103.291 118.219 97.5448 118.038 92.0517 119.811C84.1373 122.091 77.0541 126.469 69.6818 130.015C68.4892 130.667 67.3328 131.354 66.1763 132.042C61.0085 141.125 59.7798 151.872 61.1531 162.149C62.3818 162.655 63.6105 163.162 64.8031 163.668C64.7669 163.668 64.7669 163.632 64.7308 163.632C64.7669 163.668 64.8031 163.668 64.8392 163.705C64.8031 163.705 64.8031 163.705 64.7669 163.668C83.3784 172.715 102.098 175.284 122.589 172.787C125.589 172.426 128.552 171.666 131.407 170.689C131.407 170.689 131.371 170.689 131.371 170.725C131.407 170.725 131.407 170.725 131.443 170.689C131.443 170.689 131.479 170.689 131.479 170.652C134.985 169.277 138.635 168.3 142.321 167.504C143.297 167.396 144.525 167.142 144.959 166.093C147.416 156.359 148.898 146.299 146.441 136.384C147.814 139.496 148.067 142.898 148.428 146.227C148.428 146.191 148.428 146.191 148.428 146.154C148.428 146.191 148.428 146.263 148.428 146.299C148.428 146.263 148.428 146.263 148.428 146.227C148.573 147.602 148.5 149.049 148.862 150.388C148.934 143.839 147.561 137.397 144.272 131.716Z" fill="#78BA4D"/>
<path d="M216.513 89.6333C216.477 89.5971 216.441 89.5609 216.405 89.4886C216.405 89.5248 216.477 89.5609 216.513 89.6333C215.284 87.9688 210.261 80.9487 209.105 85.7976C207.948 85.87 206.756 85.9423 205.599 86.0871C208.743 89.1991 210.803 93.5776 212.827 97.4133C214.851 101.864 215.537 107.22 213.694 112.575C208.888 125.928 195.733 130.885 185.253 139.498C182.326 142.067 178.893 146.482 174.737 148.11C166.1 151.331 156.776 154.624 148.861 149.015C148.861 149.449 148.861 149.919 148.861 150.354C149.006 150.824 149.187 151.294 149.44 151.729C149.15 151.946 148.934 152.127 148.789 152.344C148.753 152.67 148.753 153.031 148.717 153.357C149.801 155.492 158.185 157.338 159.631 157.736C162.847 158.206 165.991 156.976 169.063 156.18C176.797 154.117 184.422 151.222 191.469 147.386C198.552 142.465 205.021 136.567 210.659 130.053C216.079 122.997 224.5 116.013 224.355 106.424C223.56 100.236 220.886 94.1204 216.513 89.6333Z" fill="#588F35"/>
<path d="M142.14 159.979C134.84 162.367 126.998 160.847 120.493 163.851C114.349 166.818 107.736 169.134 101.05 167.831C96.2438 166.999 91.5458 164.358 87.8235 160.811C84.1373 157.663 77.7046 161.028 73.9823 157.518C65.4174 150.353 67.9833 138.629 71.3081 129.148C70.766 129.402 70.2239 129.691 69.6818 129.945C68.4892 130.596 67.3328 131.283 66.1763 131.971C61.0085 141.054 59.7798 151.801 61.1531 162.078C62.3818 162.584 63.6105 163.091 64.8031 163.598C64.7669 163.598 64.7669 163.561 64.7308 163.561C64.7669 163.598 64.8031 163.598 64.8392 163.634C64.8031 163.634 64.8031 163.634 64.7669 163.598C83.3784 172.644 102.098 175.213 122.589 172.716C125.589 172.355 128.552 171.595 131.407 170.618C131.407 170.618 131.371 170.618 131.371 170.654C131.407 170.654 131.407 170.654 131.443 170.618C131.443 170.618 131.479 170.618 131.479 170.582C134.985 169.206 138.635 168.229 142.321 167.433C143.297 167.325 144.525 167.071 144.959 166.022C145.862 162.512 146.621 158.93 147.091 155.347C146.079 157.555 144.308 159.219 142.14 159.979Z" fill="#588F35"/>
<path d="M59.0207 138.014C59.7435 136.711 60.7554 135.553 61.9479 134.648C61.8034 134.829 61.6227 135.01 61.4781 135.191C61.5143 135.155 61.5143 135.119 61.5504 135.083C60.0687 136.783 58.9846 138.737 57.8281 140.692C58.1895 139.787 58.587 138.882 59.0207 138.014Z" fill="#78BA4D"/>
<path d="M39.2526 149.122C38.1684 148.29 45.4323 141.704 46.2997 140.148C46.3358 140.112 46.3358 140.112 46.3719 140.076C59.0567 125.71 74.5602 112.14 93.6776 107.725C103.254 105.337 113.518 107.255 122.805 103.564C135.165 98.9683 145.934 91.1159 157.679 85.2176C164.401 81.599 171.918 80.0792 179.399 79.066C188.686 77.51 198.119 76.6415 207.515 76.2073C207.479 76.2073 207.479 76.2073 207.442 76.2073C209.791 76.0263 212.213 75.9178 214.49 75.3388C214.706 75.2302 214.995 75.3388 215.104 75.5921C215.285 76.5329 213.658 76.3882 213.044 76.6415C208.274 77.51 203.431 77.6185 198.625 78.0528C191.325 78.5955 184.097 79.7535 176.905 81.02C158.438 83.0464 144.633 96.761 128.082 103.745C106.218 112.828 97.1469 101.176 70.9825 119.305C71.0186 119.305 71.0186 119.269 71.0547 119.269C62.2369 125.348 54.5393 132.947 47.4922 141.017C47.4922 141.017 47.4923 140.98 47.5284 140.98C47.4923 141.017 47.4922 141.017 47.4561 141.053C45.866 142.283 40.7343 150.099 39.2526 149.122Z" fill="black"/>
<path d="M117.999 173.729C104.339 174.995 90.2807 174.814 77.2346 170.146C77.2346 170.146 77.2346 170.146 77.2707 170.146C64.1162 164.899 50.0944 159.761 39.4696 150.099C39.0359 150.099 38.8552 149.484 39.2166 149.231C40.9513 149.122 43.0473 151.981 44.7458 152.741C55.479 159.218 67.2603 164.031 78.9692 168.482C97.7253 174.525 119.951 174.163 138.598 167.794C138.562 167.794 138.562 167.794 138.526 167.83C138.562 167.83 138.598 167.794 138.634 167.794C145.537 165.623 151.175 160.846 157.896 158.277C166.606 155.02 175.966 153.428 184.205 148.941C184.169 148.977 184.133 148.977 184.097 149.014C210.442 135.263 226.849 109.209 238.161 82.5758C238.161 82.612 238.124 82.612 238.124 82.6482C238.775 81.3455 239.425 80.0428 240.076 78.7039C240.184 78.4506 240.546 78.3782 240.763 78.523C241.413 79.0296 240.546 79.7895 240.365 80.3685C233.463 95.8923 226.452 111.561 215.646 124.877C203.214 140.293 186.699 152.958 167.076 157.228C158.33 159.037 150.922 163.85 143.116 167.866C135.165 171.268 126.6 173.077 117.999 173.729Z" fill="black"/>
<path d="M256.302 97.7749C245.533 96.834 237.799 85.6887 240.329 75.2309C240.329 75.2309 240.329 75.2309 240.329 75.2671C240.365 75.1586 240.365 75.05 240.401 74.9053V74.9414C241.594 70.382 243.581 66.0397 244.882 61.5164V61.5526C244.918 61.5164 244.918 61.444 244.918 61.4078C244.955 61.2993 244.991 61.1907 245.027 61.0822C245.027 61.1184 245.027 61.1184 244.991 61.1545C245.171 60.7203 245.244 59.7795 245.894 59.9966C246.147 60.1051 246.256 60.3946 246.111 60.6479C246.111 60.6479 246.111 60.6117 246.147 60.6117C245.208 67.5233 241.413 73.9644 241.666 80.9845C241.666 80.9483 241.666 80.9121 241.666 80.876C241.955 85.7611 244.413 90.3567 248.171 93.4325C248.135 93.4325 248.135 93.3964 248.099 93.3964C250.014 95.1333 252.471 96.2189 255.037 96.6169C247.014 90.1758 252.869 79.718 252.616 71.359V71.3952C252.616 71.3228 252.616 71.2866 252.616 71.2143C252.616 71.2143 252.616 71.2143 252.616 71.2505C252.616 71.1419 252.616 70.9972 252.58 70.8886C252.58 70.8886 252.58 70.8886 252.58 70.9248C252.327 66.8358 251.532 62.8915 249.689 59.2005C249.472 57.8616 246.617 53.5555 247.484 52.9041C247.737 52.7955 247.99 52.9403 248.135 53.1574C249.689 56.3418 250.917 59.6709 252.255 62.9638C257.278 76.1718 247.231 88.5836 255.724 95.857C256.338 96.2551 258.145 97.7749 256.302 97.7749Z" fill="black"/>
<path d="M218.139 76.8227C212.285 77.4741 207.009 74.0364 201.805 71.9376C201.805 71.9376 201.805 71.9376 201.841 71.9376C200.359 71.3586 189.373 65.207 196.131 65.9669C201.913 66.0393 207.876 66.4735 213.405 64.4833H213.369C219.549 61.9503 225.692 59.1277 232.414 58.404C233.607 58.4764 237.004 57.0289 237.582 58.0783C237.618 58.3678 237.437 58.585 237.148 58.6573C232.739 59.4534 228.258 59.96 224.03 61.516C224.066 61.516 224.066 61.516 224.102 61.4798C212.61 66.365 209.321 69.9112 195.914 67.1249C197.504 68.4276 199.275 69.4408 201.082 70.3454C201.118 70.3454 201.118 70.3816 201.154 70.3816C201.335 70.4902 201.515 70.5625 201.696 70.6711C204.876 72.2633 208.31 73.3489 211.634 74.543C211.598 74.543 211.562 74.5068 211.562 74.5068C222.006 77.4379 236.787 68.319 243.22 60.3943C243.798 60.0324 244.376 60.937 243.798 61.2989C238.232 70.0559 228.041 75.2667 218.139 76.8227Z" fill="black"/>
<path d="M222.729 61.1911C214.562 62.6023 207.551 57.283 202.022 51.8912C195.806 44.5093 202.166 47.9831 206.828 48.8516H206.792C208.165 49.1411 209.539 49.3582 210.912 49.6477C210.912 49.6477 210.912 49.6477 210.876 49.6477C215.935 50.8056 221.067 52.0722 226.307 51.5656C228.259 51.457 230.246 51.2037 232.198 51.0951C232.162 51.0951 232.125 51.0951 232.125 51.0951C236.498 50.5885 240.871 51.2761 245.244 51.4932C247.448 53.1216 241.124 52.1807 240.437 52.1807H240.473C240.437 52.1807 240.437 52.1807 240.401 52.1807H240.365H240.401C240.293 52.1807 240.22 52.1807 240.112 52.1445C240.076 52.1445 240.076 52.1445 240.04 52.1445C239.931 52.1445 239.859 52.1445 239.751 52.1083C234.438 51.6017 229.234 53.0854 223.922 53.0492C218.465 53.1216 213.297 51.2399 207.985 50.2267C207.985 50.2267 207.985 50.2267 208.021 50.2267C207.985 50.2267 207.985 50.2267 207.949 50.2267C207.949 50.2267 207.949 50.2267 207.985 50.2267C205.636 49.7924 203.359 49.2135 201.082 48.5259C201.191 48.7069 201.299 48.8878 201.444 49.0687L201.407 49.0325C202.058 49.9734 202.817 50.7695 203.684 51.5294C203.684 51.5294 203.648 51.5294 203.648 51.4932C203.793 51.6017 203.937 51.7465 204.082 51.855L204.046 51.8189C206.684 54.171 209.792 55.8355 212.647 57.8257C212.61 57.7896 212.574 57.7896 212.574 57.7534C218.935 62.2043 226.921 59.1284 233.932 58.1876C233.896 58.1876 233.896 58.1876 233.86 58.1876C234.511 58.1876 235.631 57.3915 236.028 58.1514C236.065 59.0561 234.583 58.8028 233.968 59.0923C234.005 59.0923 234.005 59.0923 234.041 59.0923C231.511 59.4903 229.017 60.0331 226.488 60.5035C226.524 60.5035 226.524 60.5035 226.56 60.5035C226.018 60.6121 225.44 60.7568 224.898 60.8654C224.934 60.8654 224.934 60.8654 224.97 60.8654C224.898 60.8654 224.861 60.9016 224.789 60.9016C224.825 60.9016 224.825 60.9016 224.861 60.9016C224.066 60.9739 223.416 61.1187 222.729 61.1911Z" fill="black"/>
<path d="M245.895 56.3057C245.281 55.2925 247.124 53.628 247.413 52.5062C249.147 49.1771 250.918 45.848 252.328 42.4103C256.231 31.9887 259.049 21.169 261.471 10.3132V10.277C261.471 10.3132 261.471 10.3132 261.471 10.3494C261.543 9.91517 261.651 9.48094 261.724 9.01052C261.724 9.0467 261.724 9.0467 261.724 9.08289C261.724 9.0467 261.724 9.0467 261.724 9.01052C262.157 6.54986 262.772 4.12539 262.844 1.62855H262.808H262.844C261.435 1.99041 259.953 2.13516 258.543 2.5332C258.182 3.14837 258.182 3.94446 258.001 4.632V4.66818C258.001 4.66818 258.001 4.66818 258.001 4.70437C258.001 4.74056 258.001 4.74056 258.001 4.77674C257.965 4.95767 257.929 5.1386 257.893 5.31953C257.893 5.28335 257.893 5.24716 257.893 5.21098C257.857 5.31953 257.857 5.42809 257.821 5.53665V5.50046C257.821 5.57284 257.785 5.64521 257.785 5.75377C257.785 5.71758 257.785 5.68139 257.785 5.68139C257.785 5.75377 257.748 5.86233 257.748 5.9347C257.748 5.9347 257.748 5.9347 257.748 5.89851C257.748 5.89851 257.748 5.89851 257.748 5.86233C257.748 5.9347 257.712 6.00707 257.712 6.07944V6.04326C257.676 6.188 257.64 6.33274 257.604 6.47749C257.604 6.4413 257.604 6.40512 257.604 6.40512C257.568 6.51368 257.568 6.62223 257.532 6.69461C257.532 6.65842 257.532 6.62223 257.532 6.62223C257.495 6.80316 257.459 6.98409 257.423 7.16502C257.423 7.12884 257.423 7.09265 257.423 7.09265C254.46 22.2184 250.954 37.2719 246.076 51.891C242.895 57.2466 250.701 32.4591 250.629 31.4097C252.255 24.7515 253.773 18.057 255.183 11.3626C256.086 8.17824 255.905 4.45107 257.495 1.55618C259.23 0.796272 261.362 0.723899 263.205 0.542969C264.868 1.88185 262.699 7.20121 262.627 9.3C262.627 9.26382 262.627 9.26382 262.627 9.22763C260.748 18.9979 257.821 28.4786 254.821 37.9594C254.677 38.3936 254.532 38.8279 254.387 39.2621C253.376 42.1932 252.111 45.0519 250.701 47.802C250.701 47.8382 250.665 47.8382 250.665 47.8744C250.665 47.8744 250.665 47.9106 250.629 47.9106C250.593 48.0191 250.521 48.0915 250.485 48.2001C250.485 48.2001 250.484 48.1639 250.521 48.1639C250.448 48.2724 250.412 48.4172 250.34 48.5257C249.509 49.8284 247.232 56.3057 245.895 56.3057Z" fill="black"/>
<path d="M110.374 188.856C86.378 190.303 66.2487 180.135 51.5403 161.427C51.5403 161.463 51.5764 161.463 51.5764 161.499C51.0704 160.45 45.5774 156.469 47.818 155.927C48.0348 155.999 48.1793 156.18 48.1793 156.397C55.2987 163.598 62.418 170.98 70.8745 176.661C70.8384 176.661 70.8384 176.625 70.8022 176.625C87.0285 187.409 108.459 190.086 126.853 183.645C135.635 180.678 143.116 175.033 151.356 170.944C151.319 170.944 151.283 170.98 151.247 170.98C163.968 164.141 179.219 165.263 191.939 158.496C191.903 158.496 191.867 158.532 191.831 158.532C195.879 156.506 199.782 154.19 203.468 151.621C203.468 151.621 203.432 151.621 203.432 151.657C203.468 151.621 203.504 151.621 203.504 151.584L203.468 151.621C219.766 140.946 229.162 122.925 235.306 104.904C236.679 100.851 237.799 96.7624 238.884 92.6372C239.137 91.6602 240.691 92.0582 240.402 93.0714C235.703 112.684 227.608 132.514 212.611 146.482C199.854 157.7 184.386 166.204 167.293 167.832C167.329 167.832 167.401 167.796 167.437 167.796C145.971 171.921 134.045 188.603 110.374 188.856Z" fill="black"/>
<path d="M44.8545 148.11C49.3718 141.56 56.6719 136.892 62.9239 131.935C73.368 124.155 84.9685 117.098 98.1592 115.651C110.916 113.588 124.468 117.026 136.647 111.887C152.873 103.601 167.979 92.6726 186.265 89.3435C194.505 87.2085 202.781 85.1459 211.021 82.9748C221.284 80.5503 231.222 76.7508 238.956 69.3326C243.509 68.5727 231.005 77.185 230.427 77.7278C212.683 88.1132 191.325 88.8731 172.135 95.278C172.171 95.278 172.208 95.2419 172.244 95.2419C169.172 96.3274 166.172 97.6663 163.209 99.0776C163.245 99.0776 163.281 99.0414 163.317 99.0414C163.245 99.0776 163.173 99.1138 163.101 99.1499C163.101 99.1499 163.101 99.1499 163.137 99.1499C162.703 99.3671 162.269 99.5842 161.836 99.8013C161.836 99.8013 161.836 99.8013 161.872 99.8013C152.331 104.542 143.911 111.381 134.117 115.615C127.974 118.003 121.252 118.111 114.747 118.401C88.4379 118.365 77.9215 125.095 57.0333 139.642C57.0333 139.642 57.0333 139.642 57.0694 139.642C53.2387 142.429 48.902 144.889 45.8664 148.544C45.4327 148.797 44.8545 148.58 44.8545 148.11Z" fill="black"/>
<path d="M56.1294 158.205C50.1665 149.846 61.5864 131.825 58.4062 141.27C58.4062 141.27 58.4062 141.233 58.4423 141.233C58.4423 141.27 58.4062 141.27 58.4062 141.306C57.0329 145.54 55.9487 150.135 56.5631 154.586C56.4908 155.889 58.4784 157.662 57.1775 158.603C56.7799 158.784 56.3101 158.603 56.1294 158.205Z" fill="black"/>
<path d="M146.151 163.344C144.742 162.765 146.079 161.065 146.187 160.015C147.018 157.193 147.308 154.262 147.561 151.367C148.319 139.1 142.537 126.073 131.804 119.74C131.84 119.74 131.84 119.776 131.876 119.776C130.828 118.836 129.202 118.474 128.335 117.497C128.262 117.099 128.804 116.809 129.094 117.135C141.345 121.803 149.765 133.889 149.946 147.025C149.946 150.39 149.367 162.295 146.151 163.344Z" fill="black"/>
<path d="M161.437 158.243C158.655 158.46 155.872 157.881 153.306 156.759C152.475 156.289 147.741 154.298 149.331 153.285C152.222 154.226 154.969 155.71 158.004 156.216C159.233 156.831 161.943 155.782 162.305 157.41C162.305 157.845 161.907 158.243 161.437 158.243Z" fill="black"/>
<path d="M137.767 122.346C137.441 120.971 137.55 119.559 137.839 118.184C137.839 118.257 137.803 118.293 137.803 118.365C137.839 118.257 137.839 118.148 137.875 118.04C137.875 118.076 137.875 118.112 137.839 118.148C138.019 116.665 140.73 109.934 142.537 111.273C141.417 114.421 140.224 117.75 140.079 121.224C140.079 121.152 140.079 121.115 140.079 121.043C140.043 121.911 140.224 123.178 139.068 123.323C138.417 123.431 137.839 122.961 137.767 122.346Z" fill="black"/>
<path d="M224.536 110.439C223.054 110.041 223.994 108.051 223.705 106.965V107.002C223.633 98.1721 217.887 91.3692 212.683 84.8918C212.791 84.0596 213.767 84.5662 214.237 84.8195C219.441 87.3525 222.801 92.4909 224.572 97.8827C225.367 99.8005 227.21 110.222 224.536 110.439Z" fill="black"/>
<path d="M203.142 120.356C197.143 117.389 208.852 111.346 210.334 116.303C210.262 119.198 205.564 120.645 203.142 120.356Z" fill="#DC404E"/>
<path d="M181.676 128.39C179.508 128.643 173.545 126.761 176.364 124.011C178.351 122.889 182.146 128.317 183.7 122.455C183.7 122.491 183.7 122.564 183.7 122.6C183.664 120.537 186.916 120.573 186.952 122.6C186.844 125.422 184.531 128.136 181.676 128.39Z" fill="black"/>
<path d="M189.337 112.468C189.518 106.895 196.962 103.566 201.263 107.221C203.72 108.451 202.853 111.925 200.215 110.297C199.564 109.645 198.841 108.994 197.866 108.849C195.083 107.944 192.77 110.333 192.083 112.83C191.505 113.951 189.626 113.734 189.337 112.468Z" fill="black"/>
<path d="M152.114 132.732C149.079 133.347 147.488 129.982 149.982 128.064C152.295 126.219 158.041 124.047 159.414 127.883C159.667 131.393 154.716 132.117 152.114 132.732Z" fill="#DC404E"/>
<path d="M154.283 120.609C154.102 115.362 161.257 111.997 165.63 114.566C169.786 116.665 167.582 119.922 165.016 117.859C162.884 115.688 159.089 116.665 157.68 119.198C157.101 119.886 157.21 121.007 156.234 121.405C155.548 121.731 154.608 121.369 154.283 120.609Z" fill="black"/>
<path d="M87.0281 143.767C88.5098 137.362 98.195 139.497 96.8579 145.938C95.34 152.343 85.691 150.208 87.0281 143.767Z" fill="black"/>
<path d="M119.878 135.735C119.661 133.274 123.42 133.708 122.986 135.988C122.625 137.797 119.77 137.725 119.878 135.735Z" fill="black"/>
<path d="M120.745 136.747C119.191 134.25 123.564 132.223 124.467 135.01C125.19 137.181 121.901 138.701 120.745 136.747Z" fill="black"/>
<path d="M118.902 139.135C114.927 134.323 121.468 127.664 126.202 131.934C131.298 136.747 123.636 144.6 118.902 139.135Z" fill="black"/>
<path d="M108.712 157.734C106.797 157.119 103.725 154.839 103.797 152.777C105.351 151.655 107.772 151.691 109.615 150.967C112.687 150.135 115.651 148.941 118.759 148.253C120.457 147.711 119.481 152.306 119.156 153.139C119.156 153.102 119.156 153.102 119.192 153.066C117.602 157.3 112.796 159.145 108.712 157.734Z" fill="black"/>
<path d="M134.298 144.382C129.347 140.945 142.248 136.096 141.959 141.668C141.056 144.418 136.791 144.961 134.298 144.382Z" fill="#DC404E"/>
<path d="M79.6921 158.929C77.9213 155.13 87.2451 153.248 89.3773 155.347C93.5694 159.4 81.499 162.114 79.6921 158.929Z" fill="#DC404E"/>
<path d="M89.9188 142.572C90.3525 140.51 93.5688 141.233 93.099 143.26C92.6654 145.359 89.449 144.635 89.9188 142.572Z" fill="white"/>
<path d="M120.457 133.236C120.891 131.174 124.107 131.897 123.637 133.924C123.203 136.023 119.987 135.299 120.457 133.236Z" fill="white"/>
<path d="M140.044 43.7864C141.092 43.3883 142.032 43.2436 142.899 42.9903C143.333 42.8817 143.73 42.737 144.092 42.556C144.453 42.3751 144.778 42.1218 145.103 41.8685C145.754 41.3257 146.296 40.6744 146.73 39.9144C147.127 39.1545 147.452 38.3223 147.669 37.4538C147.886 36.5853 147.995 35.6807 148.067 34.776C148.139 33.8714 148.139 32.9305 148.103 31.9897C148.067 31.0488 147.995 30.108 147.922 29.1672L147.742 26.2723C147.633 24.3544 147.489 22.4727 147.127 20.6634C146.766 18.8541 146.188 17.081 145.212 15.6336C144.742 14.8737 144.128 14.2947 143.441 13.7157C143.08 13.4624 142.754 13.1729 142.357 12.992L141.779 12.6663L141.164 12.413C139.538 11.7617 137.695 11.5445 135.852 11.5084C134.009 11.4722 132.13 11.6531 130.214 11.8702L127.359 12.1959C126.384 12.3044 125.408 12.3768 124.468 12.413L113.012 13.2453C109.182 13.5348 105.351 13.6795 101.99 14.8737C100.328 15.4526 98.8097 16.3573 97.581 17.5514C96.9666 18.1666 96.4245 18.8179 95.9547 19.5779C95.7017 19.9397 95.521 20.3378 95.3042 20.6996C95.1235 21.0977 94.9067 21.4957 94.7621 21.8938C93.3889 25.2229 92.919 28.9862 92.4492 32.7496C92.2324 34.6313 92.0879 36.4768 92.1601 38.2861C92.2324 40.0954 92.5577 41.8685 93.2443 43.3883C93.6057 44.1482 94.0755 44.8358 94.6176 45.4147L95.0512 45.849C95.0874 45.8851 95.1235 45.9213 95.1597 45.9575L95.2319 45.9937L95.3765 46.1023C95.6656 46.247 95.9908 46.3556 96.3884 46.4641C97.1834 46.6451 98.0869 46.7174 98.9904 46.7536C99.8938 46.7898 100.833 46.7536 101.773 46.7174C105.531 46.5365 109.29 46.0299 113.084 45.4871L118.794 44.691C120.71 44.4377 122.625 44.1844 124.577 44.0758C125.083 44.0397 125.589 44.0397 126.094 44.0397C126.347 44.0397 126.6 44.0397 126.89 44.0758C127.179 44.112 127.468 44.1482 127.685 44.1844C128.66 44.3291 129.636 44.4739 130.684 44.8719C131.226 45.0529 131.732 45.3424 132.202 45.668C132.672 45.9937 133.069 46.3556 133.431 46.7536C133.792 47.1155 134.117 47.4773 134.443 47.8754L134.695 48.1649C134.768 48.2734 134.84 48.3458 134.948 48.4905L135.093 48.6715L135.201 48.8524C135.274 48.961 135.346 49.1057 135.418 49.2143C135.924 50.1189 136.322 51.0236 136.719 51.9282C137.081 52.8329 137.442 53.7375 137.803 54.6422L138.309 56.0173L138.562 56.7048L138.671 57.0305C138.671 56.9943 138.526 56.7772 138.382 56.741C138.237 56.6686 138.093 56.7048 137.948 56.741C137.803 56.7772 137.695 56.9581 137.659 57.1028C137.659 57.139 137.659 57.1752 137.659 57.2114V57.2476V57.2114V57.0305V56.6686C137.623 56.1982 137.623 55.7278 137.55 55.2573C137.37 53.3757 137.117 51.4216 137.117 49.4314C137.117 48.9248 137.153 48.4182 137.189 47.9116C137.225 47.405 137.334 46.7898 137.55 46.247C137.767 45.668 138.129 45.1252 138.598 44.7272C138.996 44.2568 139.538 43.9673 140.044 43.7864ZM140.731 45.5957C139.972 45.8851 139.502 46.2832 139.213 46.9345C139.068 47.2602 138.996 47.6583 138.96 48.0563C138.924 48.4905 138.888 48.961 138.888 49.3952C138.851 51.2045 139.104 53.0862 139.285 55.0402C139.321 55.5107 139.357 56.0173 139.394 56.5239L139.43 56.8857V57.0667V57.1028V57.2114C139.43 57.2838 139.43 57.3923 139.394 57.5009C139.321 57.8989 138.996 58.2608 138.635 58.4055C138.273 58.5503 137.876 58.5865 137.514 58.4417C137.334 58.3694 137.153 58.2246 137.008 58.0799C136.864 57.9351 136.792 57.718 136.755 57.6094L136.647 57.2838L136.394 56.6324L135.888 55.2935C135.527 54.4251 135.165 53.5204 134.804 52.6519C134.443 51.7835 134.045 50.915 133.575 50.1913C133.539 50.0827 133.467 50.0104 133.394 49.938L133.322 49.8294L133.25 49.7209C133.214 49.6847 133.142 49.5761 133.033 49.4676L132.78 49.2143C132.455 48.8524 132.166 48.5267 131.841 48.2011C131.19 47.5497 130.612 47.1155 129.853 46.8622C129.094 46.6089 128.19 46.4641 127.251 46.3194C126.998 46.2832 126.817 46.2832 126.637 46.247C126.42 46.247 126.203 46.247 125.986 46.247C125.552 46.247 125.083 46.2832 124.613 46.3194C122.77 46.4641 120.854 46.7536 118.975 47.0069L113.301 47.8754C109.507 48.4544 105.676 49.0333 101.773 49.2866C100.797 49.359 99.8216 49.3952 98.8097 49.359C97.7978 49.359 96.7859 49.2866 95.7017 49.0333C95.1597 48.9248 94.5814 48.7439 94.0032 48.4182C93.8587 48.3458 93.7141 48.2372 93.5695 48.1287L93.3527 47.9839C93.2804 47.9478 93.2443 47.8754 93.2082 47.8392L92.6299 47.2602C91.9072 46.4279 91.2567 45.5233 90.7869 44.5463C89.8834 42.5922 89.522 40.4934 89.4136 38.467C89.3052 36.4406 89.4859 34.4503 89.6666 32.4963C89.8834 30.5422 90.1725 28.6606 90.5339 26.7065C90.9314 24.7525 91.4374 22.7984 92.2324 20.9167C93.0275 19.0351 94.1839 17.2258 95.7017 15.7421C97.2196 14.2585 99.1349 13.2091 101.086 12.5577C103.038 11.9064 105.026 11.5807 106.977 11.3636C108.929 11.1827 110.844 11.0741 112.759 10.9656L124.251 10.3504C125.227 10.3142 126.167 10.2418 127.106 10.1695L129.961 9.91616C131.877 9.73523 133.828 9.59049 135.816 9.62668C137.803 9.69905 139.827 9.91616 141.779 10.7123L142.501 11.0017L143.188 11.3636C143.658 11.5807 144.055 11.9426 144.489 12.2321C145.284 12.8834 146.043 13.6795 146.585 14.548C147.778 16.2849 148.32 18.2752 148.717 20.2292C149.079 22.1833 149.223 24.1373 149.332 26.0552C149.404 27.0322 149.44 27.973 149.512 28.9139C149.585 29.8547 149.657 30.8317 149.729 31.8088C149.765 32.7858 149.765 33.7628 149.729 34.776C149.657 35.7892 149.549 36.7663 149.332 37.7795C149.079 38.7927 148.753 39.7697 148.248 40.7105C147.742 41.6514 147.055 42.4837 146.224 43.2074C145.79 43.5331 145.393 43.8949 144.887 44.1482C144.381 44.4015 143.875 44.5824 143.405 44.7634C142.429 45.0891 141.49 45.27 140.731 45.5957Z" fill="black"/>
<path d="M132.708 18.2393C131.118 16.3215 128.552 16.3938 126.6 17.5518C124.938 18.5288 123.926 20.121 123.239 21.8941C122.264 20.0124 121.396 18.0584 119.156 17.4794C116.734 16.8642 114.385 18.8545 113.807 21.279C113.048 24.4271 114.891 27.8286 116.662 30.2893C118.578 32.9309 120.927 35.283 123.854 36.658C124.035 36.7304 124.215 36.7666 124.396 36.7666C124.757 37.5627 126.094 37.8884 126.673 36.839C128.624 33.4013 130.612 29.9998 132.419 26.4897C133.72 23.9567 134.732 20.7 132.708 18.2393Z" fill="#EF63A3"/>
<path d="M129.346 24.0289C127.612 22.4005 124.757 22.5453 122.516 23.5947C120.637 24.4632 119.481 25.8382 118.649 27.3942C117.565 25.8382 116.662 24.1737 114.204 23.7394C111.494 23.269 108.82 25.0059 108.097 27.1047C107.157 29.8187 109.181 32.6774 111.096 34.7038C113.192 36.9112 115.794 38.8652 119.011 39.9508C119.228 40.0232 119.408 40.0594 119.625 40.0232C120.023 40.7107 121.504 40.9278 122.191 40.0594C124.468 37.0921 126.781 34.1248 128.877 31.1214C130.358 28.914 131.551 26.0915 129.346 24.0289ZM127.359 28.8417C126.383 30.5424 124.938 32.1346 123.709 33.7268C122.589 35.1742 121.504 36.6579 120.42 38.1415C117.24 35.717 113.735 33.2202 112.108 29.8549C111.711 29.0588 111.422 28.1541 111.891 27.3219C112.65 25.9106 114.204 26.5619 114.999 27.5028C116.084 28.7693 116.698 30.1444 118.071 31.2661C118.975 31.9899 120.42 31.3385 120.709 30.47C121.251 28.8417 121.649 26.8514 123.311 25.6573C124.395 24.8612 126.455 24.4993 127.503 25.5126C128.443 26.3448 127.901 27.9008 127.359 28.8417Z" fill="black"/>
</svg>
