<svg width="292" height="293" viewBox="0 0 292 293" fill="none" xmlns="http://www.w3.org/2000/svg">
<g clip-path="url(#clip0)">
<path d="M237.216 126.865C227.652 118.798 214.716 112.598 202.058 115.103C195.728 116.377 190.092 119.689 183.809 120.921C173.183 123.044 162.418 119.18 151.977 116.377C109.196 104.913 61.0101 112.046 24.2813 135.23C17.2589 139.645 10.3752 144.995 7.4646 152.341C4.83121 159.007 5.94003 166.608 9.26639 173.019C13.1472 180.492 19.9847 186.606 28.2545 189.961C42.7612 195.863 60.1322 193.103 74.5928 199.09C76.0712 199.726 77.5957 200.491 78.5197 201.722C79.8595 203.59 79.5361 206.053 79.3513 208.303C78.1501 222.655 87.4363 238.238 102.59 241.889C113.308 244.479 124.488 241.083 135.345 238.96C151.284 235.817 167.87 235.393 183.947 237.728C199.378 239.979 214.301 244.734 229.778 246.432C245.301 248.131 262.21 246.305 274.129 237.006C279.073 233.142 283.046 227.708 283 221.721C282.953 218.069 281.383 214.587 279.581 211.318C276.07 205.119 271.542 199.387 266.137 194.461C261.794 190.47 256.62 186.564 255.511 181.002C253.617 171.448 261.748 163.338 258.006 153.827C253.986 143.679 245.809 134.126 237.216 126.865Z" fill="#F5F4F4"/>
<path d="M231.801 85.5949C234.253 81.605 237.795 78.4335 240.655 74.7506L240.689 74.7165C240.723 74.6824 240.757 74.6483 240.757 74.6142L240.723 74.6483C243.822 70.7948 246.274 64.1791 241.881 60.3598C239.77 58.4842 237.011 57.5634 234.287 56.9837C231.461 56.4381 228.566 56.7791 225.74 57.1883C225.808 57.1883 225.876 57.1542 225.944 57.1542C225.842 57.1542 225.74 57.1883 225.638 57.1883C222.641 57.5293 219.576 57.5634 216.545 57.1883C214.775 56.9496 213.072 56.4381 211.267 56.3017C208.305 56.0971 205.376 56.9496 202.618 57.9044C197.986 59.3026 194.036 62.4058 191.312 66.3616C189.03 69.84 187.566 73.8298 185.182 77.24C184.195 78.6723 183.173 80.1045 182.186 81.5368C179.666 85.322 179.019 89.9598 178.099 94.3589C176.976 99.6106 174.796 104.521 172.515 109.329C174.83 101.759 177.214 94.1543 178.746 86.3792C179.462 83.0714 180.313 79.7635 180.585 76.3534C180.722 75.0916 180.722 73.7957 180.381 72.5681C179.632 70.3174 178.168 68.3736 177.316 66.157C176.226 63.5653 175.682 60.7349 175.75 57.9044C176.124 51.5616 175.307 44.639 171.153 39.5919C169.28 37.273 166.726 35.6703 164.921 33.2832C160.051 26.5993 162.026 17.4942 158.212 10.3329C156.476 6.99092 154.296 3.58077 150.925 1.73929C146.975 -0.306796 141.867 -0.85242 138.053 1.73929C131.651 6.00198 129.812 12.3108 129.165 19.5744C128.688 23.1209 127.565 26.5652 126.475 29.9753C125.181 33.9993 123.41 38.3643 124.908 42.5929C125.623 45.5256 127.599 47.8786 128.756 50.6067C131.549 57.5975 129.574 65.2363 130.289 72.4999C130.936 84.0603 134.886 89.9598 145.272 95.0751C150.789 97.6668 156.305 100.736 159.915 105.783C161.141 108.306 162.197 110.898 163.457 113.422C164.41 115.434 165.772 117.207 166.862 119.151C167.339 120.003 167.781 120.856 168.258 121.708C168.258 121.64 168.258 121.606 168.258 121.538C168.326 118.059 168.088 114.581 167.679 111.137C167.305 107.931 167.032 104.726 166.351 101.554C165.5 97.8373 164.138 94.2907 162.844 90.7442C161.277 86.8566 159.336 83.1395 157.429 79.4566C155.931 76.8308 154.977 73.9322 153.854 71.1358C153.07 69.3284 152.389 67.487 151.742 65.6114C150.448 62.0307 149.188 58.416 148.405 54.6648C147.996 52.3118 147.349 50.027 146.975 47.674C146.464 43.1726 146.328 38.6712 146.6 34.1698C146.805 31.3394 147.077 28.4749 147.622 25.6785C147.554 25.508 147.724 25.3375 147.894 25.3716H147.928C148.201 25.4398 148.099 25.8149 148.065 26.0196C147.69 28.3044 147.52 30.5892 147.383 32.874C147.315 34.5449 147.452 36.25 147.52 37.921C147.588 39.3191 147.69 40.7173 147.894 42.1155C148.167 43.8546 148.371 45.6279 148.712 47.3671C149.222 49.4132 149.972 51.4252 150.516 53.4713C150.55 53.5395 150.55 53.6077 150.584 53.6759C150.584 53.71 150.619 53.7441 150.619 53.7782C150.619 53.7441 150.619 53.7441 150.619 53.7441C150.619 53.7782 150.619 53.8123 150.653 53.8123C150.653 53.8464 150.653 53.8464 150.687 53.8805C151.538 56.5745 152.525 59.2344 153.479 61.8602C155.045 66.4298 156.476 71.0676 158.28 75.569C159.847 78.8428 161.481 82.1165 162.844 85.4926C164.308 89.1755 165.364 92.9608 166.487 96.746C167.577 100.361 167.986 104.112 168.394 107.863C168.701 111.205 169.143 114.581 169.177 117.957C169.212 119.151 169.177 120.344 169.177 121.504C169.177 121.47 169.177 121.47 169.177 121.436C169.177 121.64 169.177 121.811 169.177 122.015C170.335 121.879 170.403 119.355 170.71 118.435C170.88 118.435 171.016 118.435 171.153 118.366C172.31 117.855 173.128 116.832 174.013 115.979C175.035 114.956 176.056 113.933 177.078 112.944C179.223 110.796 181.675 108.886 184.467 107.659C185.591 107.283 186.749 107.181 187.907 106.976C190.665 106.499 193.423 105.408 195.501 103.464C197.339 101.861 198.872 99.8152 201.119 98.7921C202.822 98.1442 204.729 97.8714 206.534 98.3147C212.255 100.088 217.874 101.52 223.39 98.3147C229.349 95.041 228.941 90.8124 231.801 85.5949ZM132.4 55.6537C132.366 55.4491 132.332 55.2445 132.332 55.0399C132.366 55.2445 132.366 55.4491 132.4 55.6537ZM231.427 71.0335C231.393 71.0335 231.393 71.0335 231.359 71.0335C231.495 71.1699 231.325 71.4768 231.12 71.3404C231.12 71.3404 231.086 71.3404 231.086 71.3063H231.052C230.984 71.3063 230.882 71.3404 230.814 71.3404C230.643 71.3745 230.507 71.4427 230.337 71.4768C229.486 71.8179 228.634 72.2271 227.749 72.5681C226.421 73.2842 225.127 74.0004 223.765 74.6142C221.858 75.3644 219.883 76.0123 217.976 76.8308C216.103 77.6833 214.23 78.57 212.255 79.2179C210.075 79.8658 207.964 80.7183 205.887 81.605C198.77 84.3672 192.061 86.9248 187.158 93.1654C187.089 93.2677 186.987 93.3359 186.919 93.4382C186.953 93.4041 186.953 93.4041 186.987 93.37C186.136 94.3589 185.182 95.2797 184.331 96.3027C183.31 97.6327 182.118 98.8603 181.3 100.327C180.994 100.838 180.722 101.384 180.449 101.929C180.449 101.929 180.449 101.895 180.483 101.895C180.449 101.929 180.449 101.998 180.415 102.032C179.87 103.123 179.359 104.248 178.815 105.34C177.078 107.045 175.545 108.954 174.149 110.966C173.911 111.307 173.673 111.648 173.468 111.955C173.502 111.887 173.536 111.819 173.57 111.751C175.239 108.682 176.805 105.544 178.372 102.407C178.542 102.066 178.712 101.759 178.917 101.418C180.177 98.1442 182.458 95.382 184.535 92.6198C184.501 92.6539 184.467 92.688 184.433 92.7562C184.808 92.2787 185.148 91.7672 185.557 91.3239C185.523 91.358 185.489 91.3921 185.455 91.4603C189.099 87.0953 193.9 83.7875 199.076 81.5709C199.076 81.5709 199.076 81.5709 199.042 81.5709C199.076 81.5709 199.11 81.5368 199.144 81.5368C199.11 81.5368 199.11 81.5368 199.076 81.5709C199.519 81.3663 199.962 81.1617 200.404 80.9571C200.37 80.9571 200.336 80.9912 200.336 80.9912C202.958 79.6271 205.785 78.8428 208.577 78.0584C209.36 77.8197 210.143 77.6492 210.927 77.5128C211.506 77.4105 212.119 77.3082 212.697 77.1718C216.409 75.6713 220.291 74.7165 224.037 73.2501C225.604 72.6022 227.17 71.9884 228.771 71.3404C228.805 71.3404 228.805 71.3063 228.839 71.3063C229.622 70.9994 230.405 70.7607 231.222 70.5902C231.359 70.5561 231.529 70.5561 231.631 70.6584C231.903 70.8289 231.631 71.204 231.427 71.0335Z" fill="#67A042"/>
<path d="M165.159 102.918C164.138 99.9857 162.673 97.1553 161.277 94.734C153.275 82.6962 137.133 72.2612 142.718 55.4832C144.795 49.0381 139.721 42.6611 138.155 36.0454C135.226 24.7578 143.059 11.3559 155.182 12.72C156.952 12.8905 158.451 13.6748 159.881 14.732C159.472 13.1974 158.962 11.731 158.212 10.3329C156.476 6.99092 154.296 3.58077 150.925 1.73929C146.975 -0.306796 141.867 -0.85242 138.053 1.73929C131.651 6.00198 129.812 12.3108 129.165 19.5744C128.688 23.1209 127.565 26.5652 126.475 29.9753C125.181 33.9993 123.41 38.3643 124.908 42.5929C125.623 45.5256 127.599 47.8786 128.756 50.6067C131.549 57.5975 129.574 65.2363 130.289 72.4999C130.936 84.0603 134.886 89.9598 145.272 95.0751C150.789 97.6668 156.305 100.736 159.915 105.783C161.141 108.306 162.197 110.898 163.457 113.422C164.24 115.093 165.329 116.593 166.283 118.128C166.896 113.115 166.623 108.102 165.159 102.918ZM132.4 55.6197C132.366 55.415 132.332 55.2104 132.332 55.0058C132.366 55.2445 132.366 55.4491 132.4 55.6197Z" fill="#588F35"/>
<path d="M200.472 80.9219C200.438 80.9219 200.404 80.9556 200.404 80.9556C200.438 80.9219 200.438 80.9219 200.472 80.9219Z" fill="#588F35"/>
<path d="M169.756 120.482C170.335 118.538 170.914 116.594 171.424 114.65C170.777 116.56 170.199 118.504 169.756 120.482Z" fill="#588F35"/>
<path d="M169.314 121.947C169.349 121.913 169.417 121.913 169.451 121.879C169.553 121.401 169.655 120.958 169.757 120.48C169.621 120.924 169.485 121.333 169.349 121.776C169.349 121.81 169.314 121.879 169.314 121.947Z" fill="#588F35"/>
<path d="M181.981 82.0137C180.21 84.8782 179.393 88.186 178.746 91.4598C179.666 89.2773 180.721 87.1289 181.913 85.0487C182.356 84.0598 182.185 83.0367 181.981 82.0137Z" fill="#588F35"/>
<path d="M241.915 60.3934C239.804 58.5178 237.045 57.5971 234.321 57.0173C231.495 56.4717 228.6 56.8127 225.774 57.222C225.842 57.222 225.91 57.1879 225.978 57.1879C225.876 57.1879 225.774 57.222 225.672 57.222C222.675 57.563 219.61 57.5971 216.579 57.222C214.809 56.9832 213.106 56.4717 211.301 56.3353C208.339 56.1307 205.41 56.9832 202.652 57.9381C198.02 59.3362 194.07 62.4395 191.346 66.3953C189.064 69.8736 187.6 73.8635 185.216 77.2736C184.229 78.7059 183.207 80.1382 182.22 81.5704C182.118 81.7068 182.05 81.8432 181.981 81.9796C182.186 83.0027 182.356 84.0598 181.913 85.0147C180.721 87.129 179.666 89.2432 178.746 91.4257C178.542 92.4147 178.372 93.4036 178.167 94.3926C177.18 99.0645 175.341 103.464 173.332 107.76C172.719 110.045 172.106 112.33 171.459 114.615C173.128 109.67 175.341 104.794 177.554 99.9511C181.947 90.5732 190.699 85.2193 196.897 78.1944C204.218 70.01 213.038 68.4754 223.015 68.0321C227.068 68.1344 229.894 65.5427 233.402 64.1446C237.863 61.8939 242.494 66.1224 242.324 70.8625C242.324 71.34 242.358 71.8174 242.324 72.2607C244.503 68.5095 245.456 63.5307 241.915 60.3934Z" fill="#588F35"/>
<path d="M171.731 111.273C171.492 111.205 171.356 110.932 171.424 110.728C171.765 109.739 172.139 108.75 172.514 107.761C174.148 103.259 176.668 99.099 177.826 94.393C178.643 91.2898 179.393 88.1865 180.176 85.0492C181.47 80.616 183.309 76.1146 182.526 71.4086C181.947 67.2482 178.916 63.9063 178.303 59.7459C177.349 54.2556 178.133 48.5606 176.532 43.1726C173.297 32.2942 164.035 34.3744 161.276 24.3826C160.357 21.3135 159.71 18.1762 158.552 15.2093C157.462 12.5494 156.305 9.88952 154.67 7.50241C151.265 2.52359 145.816 0.545708 140.368 3.58074C135.975 6.24066 136.315 12.0379 135.192 16.437C134.306 21.1771 132.399 25.5762 130.594 30.0094C127.189 39.1486 132.127 44.1274 134.306 52.4141C135.975 58.9275 134.476 65.7137 135.089 72.3293C135.43 76.4897 136.826 80.5137 139.074 83.9921C141.185 87.4704 144.182 90.4372 147.859 92.2105C147.825 92.2105 147.791 92.1764 147.791 92.1764C150.89 93.7792 154.091 95.1773 156.952 97.2234C159.778 99.2354 161.106 102.543 162.264 105.681C163.285 108.511 164.171 111.376 165.363 114.172V114.138C165.431 114.274 165.499 114.411 165.567 114.547C165.874 114.922 165.295 115.331 165.022 114.956C162.707 111.341 161.719 107.045 159.88 103.157C158.995 101.145 157.667 99.3036 155.862 98.0419C151.81 95.2796 146.94 93.8474 143.092 90.8123C138.563 87.0953 135.396 81.7414 134.102 76.0805C132.842 70.7266 133.591 65.2362 133.455 59.8141C133.455 59.8482 133.455 59.8823 133.455 59.9164C133.455 56.3698 132.706 52.8915 131.31 49.6519C129.607 45.3551 127.359 41.0242 127.359 36.2841C127.325 33.9311 127.734 31.5781 128.551 29.3615C129.232 27.4859 130.186 25.7126 130.969 23.837C132.161 21.1089 133.046 18.2785 133.693 15.414C134.545 11.9356 134.919 8.21854 136.894 5.14941C136.86 5.18351 136.86 5.18351 136.826 5.21761C137.099 4.8425 137.337 4.46738 137.643 4.12636C137.609 4.16047 137.609 4.16047 137.575 4.19457C140.913 0.375201 147.042 -0.647844 151.367 2.11438C156.986 5.49042 160.119 14.1181 161.617 20.2223C162.536 23.8711 163.388 27.861 166.657 30.1799C169.04 31.9873 171.731 33.3513 173.808 35.5338C178.78 40.5127 179.018 47.9809 179.12 54.6307V54.5966C179.188 57.8021 179.461 61.0759 180.891 63.9745C181.606 65.509 182.457 66.9754 183.002 68.6123C185.216 74.9211 182.696 80.2068 181.197 86.2427C180.346 90.0962 179.665 93.9838 178.303 97.7009C178.303 97.6668 178.303 97.6667 178.337 97.6326C176.805 101.827 174.251 105.578 172.82 109.841C172.786 109.909 172.752 110.011 172.718 110.08C172.718 110.08 172.718 110.08 172.718 110.046C172.412 110.421 172.412 111.41 171.731 111.273Z" fill="black"/>
<path d="M160.154 280.758C160.086 280.758 160.018 280.758 159.95 280.724C159.779 280.929 159.507 280.997 159.269 280.895C158.962 280.792 158.758 280.417 158.894 280.11C159.269 279.292 159.643 278.473 159.984 277.655C160.086 277.246 160.188 276.837 160.256 276.427C160.46 274.313 160.392 272.165 159.541 270.221C158.758 267.834 157.668 265.549 156.136 263.537C154.603 261.559 152.799 259.786 151.504 257.672C149.972 255.216 149.359 252.284 149.257 249.419C149.257 246.316 149.461 243.178 148.712 240.178C147.725 236.699 146.09 233.425 143.979 230.459C142.446 228.344 140.539 226.571 138.53 224.9C135.363 222.104 131.992 219.58 128.587 217.125C121.81 212.01 115.034 206.622 110.096 199.597C106.009 193.834 102.672 187.252 101.753 180.193C100.765 173.032 102.196 165.427 106.146 159.357C111.594 151.104 120.448 146.057 129.268 142.136C134.24 139.953 139.586 138.76 144.864 137.498C148.44 136.577 151.981 135.452 155.489 134.224C158.86 133.065 162.299 131.939 165.194 129.791C165.807 129.382 166.045 128.597 166.692 128.256C167.169 128.018 167.85 128.086 168.225 128.495C168.599 128.87 168.735 129.382 169.042 129.791C169.008 129.757 169.008 129.723 168.974 129.655C169.382 130.678 170.608 130.541 171.46 130.166C171.596 130.098 171.732 130.098 171.868 130.098C171.868 129.996 171.834 129.927 171.868 129.825C171.868 129.723 171.936 129.655 172.004 129.586C172.515 129.279 172.754 129.996 172.992 130.303C172.992 130.268 172.958 130.268 172.958 130.234C172.992 130.268 173.026 130.337 173.06 130.371C173.06 130.337 173.026 130.337 173.026 130.303C176.159 133.985 180.382 136.645 184.604 138.964C186.75 140.056 188.929 141.045 191.04 142.272C194.514 144.148 197.919 146.126 201.256 148.24C205.24 150.695 208.748 153.901 211.506 157.652C211.608 157.754 211.676 157.891 211.779 157.993C211.71 157.925 211.676 157.857 211.608 157.788C215.218 162.494 217.976 168.019 218.691 173.987C218.691 173.918 218.691 173.884 218.657 173.816C218.691 174.021 218.691 174.225 218.725 174.396C218.725 174.293 218.691 174.225 218.691 174.123C219.441 181.966 218.351 190.355 214.094 197.141C211.404 201.643 207.42 205.155 203.504 208.531C200.541 211.021 197.476 213.442 194.343 215.727C194.411 215.693 194.48 215.624 194.514 215.59C190.393 218.625 186.205 221.592 181.71 223.979C178.304 225.821 174.967 227.73 171.8 229.981C170.166 231.823 168.769 233.835 167.407 235.847C166.42 237.279 165.364 238.643 164.445 240.143C163.321 241.985 162.47 243.963 161.823 246.009C161.516 247.271 161.107 248.532 161.244 249.828C161.516 251.567 161.891 253.307 161.857 255.08C161.789 256.955 161.686 258.797 161.823 260.673C163.287 266.367 164.104 270.46 161.993 276.189C161.686 277.587 161.346 278.985 160.733 280.281C160.597 280.622 160.392 280.724 160.154 280.758Z" fill="#D12E64"/>
<path d="M171.663 115.912C171.459 115.81 171.425 115.537 171.595 115.366C172.957 112.57 174.558 109.944 176.295 107.387C180.347 101.248 184.297 95.0079 189.848 90.1314L189.814 90.1655C198.463 82.0834 205.001 81.4014 215.49 77.8208C220.938 75.7406 226.217 73.183 231.495 70.6936C232.006 70.4548 232.414 71.2733 231.869 71.512C226.217 74.1378 220.836 77.3092 215.013 79.5258C209.701 81.5719 204.082 82.8678 199.042 85.5277C199.076 85.5277 199.11 85.4936 199.144 85.4595C196.386 86.96 193.9 88.9037 191.585 90.9839C191.585 90.9839 191.585 90.9839 191.619 90.9839L191.585 91.018C189.337 93.0982 187.226 95.3148 185.217 97.6337C182.969 100.294 181.062 103.226 178.985 106.023C177.044 108.683 174.967 111.308 173.162 114.071L173.196 114.037C172.821 114.616 172.481 115.23 172.14 115.81C172.038 115.912 171.834 115.98 171.663 115.912Z" fill="#D12E64"/>
<path d="M218.623 173.918C218.623 173.986 218.623 174.02 218.657 174.088C218.657 174.02 218.623 173.952 218.623 173.918Z" fill="#962248"/>
<path d="M172.922 130.303L172.955 130.336C172.955 130.336 172.955 130.303 172.922 130.303Z" fill="#962248"/>
<path d="M168.939 129.688C168.939 129.722 168.973 129.722 168.973 129.756C168.973 129.79 169.008 129.79 169.008 129.824C168.973 129.756 168.973 129.722 168.939 129.688Z" fill="#962248"/>
<path d="M161.992 276.325C164.103 270.596 163.286 266.504 161.821 260.809C161.685 258.933 161.787 257.092 161.856 255.216C161.924 253.443 161.549 251.704 161.243 249.965C161.106 248.669 161.515 247.373 161.821 246.145C162.434 244.099 163.286 242.121 164.444 240.28C165.363 238.78 166.419 237.415 167.406 235.983C168.768 233.971 170.199 231.925 171.799 230.118C174.932 227.867 178.303 225.957 181.709 224.116C186.169 221.729 190.29 218.83 194.376 215.829C197.509 213.544 200.54 211.157 203.503 208.668C207.453 205.292 211.437 201.779 214.093 197.278C217.703 191.481 219.031 184.524 218.895 177.704C217.124 182.239 215.217 186.127 213.037 190.458C210.041 196.664 205.035 200.79 199.961 204.473C193.934 209.043 186.374 211.43 178.814 213.851C174.183 215.215 169.96 216.511 166.01 219.103C160.936 222.82 153.206 224.355 149.937 218.08C147.86 214.465 147.689 210.237 145.476 206.895C139.619 198.881 127.258 192.879 129.335 181.932C131.037 173.748 139.891 169.963 146.6 165.495C149.767 163.518 151.503 159.8 153.036 156.39C154.67 153.389 155.283 149.672 158.008 147.797C164.137 143.807 167.883 137.328 169.79 130.473C169.449 130.371 169.143 130.166 168.973 129.791C168.7 129.382 168.564 128.905 168.189 128.564C167.815 128.154 167.134 128.086 166.657 128.325C166.01 128.666 165.738 129.45 165.159 129.859C162.264 132.008 158.825 133.133 155.454 134.293C151.946 135.52 148.439 136.646 144.829 137.566C139.551 138.828 134.238 140.022 129.233 142.204C120.413 146.126 111.559 151.173 106.111 159.425C102.16 165.53 100.73 173.1 101.718 180.261C102.637 187.354 105.974 193.902 110.061 199.665C114.998 206.656 121.741 212.078 128.552 217.193C131.957 219.649 135.328 222.206 138.495 224.968C140.504 226.639 142.411 228.413 143.978 230.527C146.055 233.46 147.689 236.768 148.711 240.246C149.46 243.281 149.256 246.418 149.256 249.487C149.358 252.352 149.971 255.285 151.503 257.74C152.831 259.888 154.602 261.628 156.135 263.605C157.633 265.617 158.757 267.902 159.54 270.289C160.391 272.233 160.459 274.416 160.255 276.496C160.187 276.905 160.085 277.314 159.983 277.723C159.608 278.542 159.233 279.36 158.893 280.179C158.757 280.486 158.961 280.861 159.268 280.963C159.506 281.065 159.812 280.963 159.949 280.793C160.017 280.827 160.085 280.827 160.153 280.827C160.391 280.827 160.596 280.69 160.732 280.486C161.345 279.156 161.651 277.723 161.992 276.325Z" fill="#A61847"/>
<path d="M218.656 174.225C218.656 174.327 218.69 174.395 218.69 174.497C218.69 174.395 218.69 174.327 218.656 174.225Z" fill="#962248"/>
<path d="M194.512 215.693C194.478 215.727 194.41 215.762 194.376 215.796C194.376 215.796 194.342 215.796 194.342 215.83C194.376 215.762 194.444 215.727 194.512 215.693Z" fill="#962248"/>
<path d="M168.904 125.119C168.666 125.119 168.428 124.915 168.462 124.676C168.564 119.833 168.325 115.025 167.951 110.217C167.951 110.251 167.951 110.251 167.951 110.285C167.236 101.009 164.75 91.9725 161.004 83.4472C159.403 79.6619 158.007 75.7743 156.441 71.955C153.819 65.6121 151.231 59.201 149.8 52.4489C149.8 52.483 149.834 52.5512 149.834 52.5853C149.834 52.5171 149.8 52.4489 149.8 52.3807C149.8 52.3807 149.8 52.3807 149.8 52.4148C148.438 46.2766 148.098 40.0019 147.723 33.7613C147.621 31.7493 147.519 29.7032 147.485 27.6912C147.553 27.1456 147.246 24.6562 148.064 24.8267C148.268 24.8949 148.404 25.1336 148.302 25.3041C148.268 25.4746 148.268 25.6451 148.234 25.8157C148.234 26.8046 148.302 27.7935 148.404 28.8166C148.404 28.8507 148.404 28.8507 148.404 28.8848C148.404 28.8848 148.404 28.8848 148.404 28.8507C149.187 36.2166 149.937 43.5825 151.707 50.7779C151.707 50.7779 151.707 50.778 151.707 50.7439C152.525 54.1881 153.478 57.5641 154.704 60.872C156.168 64.7596 157.973 68.5107 159.437 72.3983C162.23 80.2075 165.465 87.8804 167.27 96.0306C167.27 95.9965 167.236 95.9624 167.236 95.9283C168.019 99.3726 168.564 102.885 168.87 106.432C168.87 106.397 168.87 106.363 168.87 106.329C168.87 106.432 168.904 106.568 168.904 106.67V106.636C169.381 112.638 169.551 118.674 169.347 124.676C169.347 124.915 169.177 125.119 168.904 125.119Z" fill="#D12E64"/>
<path d="M141.392 158.367C138.055 159.458 134.649 160.584 131.721 162.561C130.393 163.346 129.541 165.085 127.839 165.085C125.693 165.119 124.535 162.323 126.136 160.856C128.86 158.094 132.368 156.287 135.977 154.991C136.965 154.65 137.952 154.309 138.94 154.002C139.723 153.695 140.574 153.422 141.392 153.797C143.435 154.582 143.435 157.617 141.392 158.367Z" fill="white"/>
<path d="M118.541 175.521C115.306 174.396 117.111 170.917 118.711 169.144C119.733 168.087 120.618 166.552 122.219 166.382C124.943 166.109 126.033 169.724 123.649 171.02C122.968 171.702 122.355 172.452 121.776 173.202C121.674 173.373 121.606 173.543 121.538 173.748C121.3 175.078 119.835 175.862 118.541 175.521Z" fill="white"/>
<path d="M152.459 292.933C152.118 292.762 152.016 292.353 152.186 292.012C152.731 291.023 153.31 290.068 153.889 289.113C157.192 283.18 163.492 278.064 162.743 270.664C162.539 267.936 161.857 265.276 161.585 262.548C161.279 259.956 161.279 257.365 161.381 254.773C161.517 252.659 161.04 250.579 160.938 248.464C160.938 247.168 161.313 245.907 161.585 244.679C162.198 241.951 163.186 239.257 164.922 237.006C174.423 224.457 187.193 223.161 199.861 215.931C210.315 209.759 218.59 199.29 220.906 187.218C220.906 187.218 220.906 187.218 220.906 187.252C222.336 180.023 222.097 174.873 218.999 168.155C216.104 161.335 212.563 156.083 206.808 151.309C199.146 144.898 189.1 142.579 180.757 137.259C180.791 137.293 180.825 137.293 180.859 137.328C177.658 135.213 174.525 132.758 172.142 129.723C171.835 129.245 170.882 128.018 171.392 127.54C171.563 127.37 171.903 127.472 171.937 127.745C173.538 130.132 175.921 131.871 178.169 133.576C182.562 136.918 187.67 138.998 192.812 140.874C203.028 144.693 210.213 148.479 216.513 157.788C218.113 160.244 219.441 162.904 220.633 165.598C222.302 169.451 223.902 173.475 224.175 177.704C224.447 193.765 215.151 208.395 201.802 216.852C194.004 221.797 185.048 224.423 177.011 228.856C174.866 230.084 172.857 231.55 171.018 233.221C168.634 235.506 166.25 237.859 164.786 240.86C164.786 240.894 164.752 240.928 164.752 240.962C163.662 243.315 162.981 245.838 162.641 248.396C162.675 250.579 163.083 252.761 162.947 254.944C162.811 258.081 162.879 261.252 163.356 264.356C163.764 267.016 164.411 269.675 164.377 272.369C164.343 276.462 162.164 280.11 159.78 283.316C158.18 285.533 156.511 287.715 155.013 290.034C154.434 290.921 153.889 291.841 153.412 292.762C153.208 292.967 152.765 293.103 152.459 292.933Z" fill="black"/>
<path d="M154.059 290.68C153.753 290.543 153.548 290.168 153.718 289.861C154.672 287.883 155.898 286.076 156.817 284.064C158.009 281.404 158.997 278.642 159.61 275.811C159.95 274.209 159.644 272.606 159.337 271.037C158.929 269.059 158.316 267.081 157.396 265.274C156.783 264.046 155.932 262.955 155.217 261.762C153.889 259.34 153.378 256.578 152.935 253.884C152.118 246.791 152.22 239.084 147.929 233.048C144.524 228.138 140.233 223.909 135.432 220.362C129.609 216.168 123.684 211.973 118.882 206.551C111.424 198.128 104.614 187.932 104.069 176.371C104.035 171.836 105.499 167.369 107.713 163.413C114.149 152.091 126.782 146.464 138.667 142.679C144.694 140.77 150.688 138.689 156.306 135.825C159.337 134.188 162.64 132.79 164.854 129.993C164.854 130.028 164.82 130.028 164.82 130.062C165.399 129.346 165.944 128.595 166.25 127.709C166.386 127.334 166.42 126.89 166.591 126.515C166.761 126.276 167.135 126.345 167.204 126.617C167.34 130.471 163.253 133.779 160.291 135.654C156.749 138.041 153.003 140.087 149.087 141.827C144.047 144.18 138.701 145.782 133.593 147.897C126.169 150.966 118.576 154.683 113.4 161.06C113.434 161.026 113.434 161.026 113.468 160.992C109.892 165.391 107.168 170.711 106.793 176.406C106.487 185.715 111.152 194.343 116.771 201.436C120.38 206.006 124.637 209.996 129.268 213.508C132.605 216.031 136.147 218.248 139.382 220.908C144.286 225 148.951 229.74 151.777 235.572C153.923 240.175 154.434 245.291 154.706 250.269C154.978 253.85 155.285 257.567 156.817 260.875C158.213 263.228 159.542 265.581 160.189 268.275C160.802 270.833 161.551 273.561 161.006 276.187C160.018 280.722 158.077 285.019 155.659 288.94C155.387 289.418 155.115 289.895 154.842 290.373C154.706 290.68 154.365 290.816 154.059 290.68Z" fill="black"/>
<path d="M172.585 130.165C172.04 130.472 171.461 130.744 170.916 131.017C170.473 131.29 169.997 131.426 169.452 131.392C167.613 131.29 166.455 129.346 166.455 127.641C166.489 127.13 166.591 126.345 167.17 126.209C167.375 126.209 167.579 126.414 167.511 126.618V126.652C167.953 127.846 168.566 129.415 169.929 129.687H169.963C170.541 129.517 171.086 129.278 171.631 129.005C171.835 128.869 172.074 128.767 172.312 128.835C172.993 128.937 173.164 129.858 172.585 130.165Z" fill="black"/>
<path d="M226.081 102.168C223.085 103.805 219.509 104.146 216.138 103.839C214.027 103.6 212.017 102.884 209.94 102.475H209.974C206.092 101.691 202.449 101.657 199.316 104.419C197.988 105.646 196.966 107.147 195.468 108.204C193.356 109.739 190.87 110.796 188.282 111.239C183.072 112.023 177.726 111.512 174.593 116.661C174.593 116.627 174.627 116.627 174.627 116.593C174.593 116.661 174.559 116.695 174.491 116.763C174.491 116.729 174.525 116.729 174.525 116.695C174.15 117.173 173.878 118.196 173.095 117.821C172.822 117.65 172.686 117.275 172.856 116.968C174.184 114.683 175.751 112.364 178.271 111.273C181.404 109.943 184.911 109.977 188.214 109.363C190.666 108.818 193.05 107.761 194.991 106.158C195.978 105.305 196.728 104.214 197.681 103.327C198.703 102.339 199.963 101.588 201.291 101.043C206.126 99.0307 211.268 101.384 216.104 102.202C218.351 102.509 220.667 102.304 222.812 101.622C222.778 101.622 222.744 101.657 222.71 101.657C223.766 101.315 224.787 100.838 225.673 100.19C225.639 100.19 225.639 100.224 225.605 100.224C225.945 99.9855 226.286 99.7127 226.558 99.4399C226.524 99.474 226.49 99.5081 226.456 99.5081C230.066 96.0298 230.406 90.6758 231.802 86.1403C232.552 83.5145 234.016 81.1956 235.889 79.2518C239.737 75.262 247.263 68.2371 240.554 63.3605C240.588 63.3946 240.656 63.4287 240.69 63.4629C238.511 61.8601 235.684 61.5873 233.062 61.826C232.994 61.826 232.96 61.826 232.892 61.826C232.926 61.826 232.926 61.826 232.96 61.826C231.666 61.9624 230.372 62.1329 229.112 62.4398C229.146 62.4398 229.18 62.4398 229.214 62.4057C226.49 62.9854 223.8 63.7357 221.008 63.9403C218.147 64.179 215.287 64.0085 212.426 63.7698C206.399 63.0195 202.142 61.8942 197.579 66.9753C195.331 69.6352 194.14 73.0454 191.96 75.7735C190.292 77.956 188.248 79.7975 186.103 81.5025C185.047 82.321 184.026 83.1735 182.8 83.7873C182.562 83.8896 182.255 84.026 181.983 83.9237H182.017H182.051H182.085C181.71 83.9578 181.642 83.4122 182.017 83.344C183.072 82.9348 183.89 82.0482 184.775 81.332C187.159 79.2177 189.508 77.0352 191.279 74.3753C192.846 72.0564 194.037 69.4988 195.604 67.1458C197.545 64.4859 200.303 62.2011 203.572 61.485C207.42 60.6324 211.336 61.6896 215.218 61.5532C218.317 61.5873 221.416 61.3145 224.481 60.6665C228.193 59.8822 231.905 58.8932 235.718 59.132C240.554 59.2002 245.9 62.6103 245.934 67.8619C245.764 73.6592 240.214 77.4104 236.706 81.4343C235.446 82.8325 234.493 84.4694 233.914 86.2767C232.313 91.8694 231.802 98.9966 226.081 102.168Z" fill="black"/>
<path d="M184.127 185.888C181.369 182.989 186.442 180.704 188.928 181.83C191.482 181.864 194.82 185.479 191.346 186.877C188.996 187.456 186.136 187.354 184.127 185.888Z" fill="#FF6C79"/>
<path d="M163.79 178.457C165.629 179.173 169.545 183.197 166.139 184.22C164.062 184.288 163.381 178.321 159.601 182.379C159.635 182.345 159.635 182.31 159.669 182.276C158.818 183.913 156.196 182.583 157.081 180.912C158.375 178.696 161.372 177.468 163.79 178.457Z" fill="black"/>
<path d="M173.604 174.293C176.465 169.417 184.705 170.644 185.829 176.339C186.374 178.01 183.718 178.863 183.207 177.158C183.003 176.51 182.798 175.828 182.322 175.316C180.483 173.134 177.384 173.884 175.647 175.76C174.694 176.442 173.264 175.453 173.604 174.293Z" fill="black"/>
<path d="M133.999 173.235C130.798 172.178 131.922 168.597 134.987 168.461C137.779 167.915 144.896 170.371 140.844 173.678C138.665 174.565 136.145 173.883 133.999 173.235Z" fill="#FF6C79"/>
<path d="M142.138 166.143C143.671 162.801 148.983 162.153 151.877 164.165C153.24 165.188 155.93 168.053 154.125 169.587C153.512 169.962 152.627 169.792 152.252 169.144C151.435 166.211 148.098 164.745 145.475 166.484C144.692 166.791 144.318 167.746 143.398 167.643C142.649 167.575 142.07 166.893 142.138 166.143Z" fill="black"/>
<path d="M223.151 135.588C222.265 135.145 221.176 136.304 222.027 137.055C223.049 137.975 224.002 139.067 224.751 140.26C225.5 141.488 225.807 142.818 226.318 144.114C226.862 145.478 229.212 145.478 229.11 143.739C228.872 140.294 226.147 137.089 223.151 135.588Z" fill="black"/>
<path d="M234.048 134.326C232.652 132.621 231.051 131.257 229.145 130.165C228.021 129.517 226.863 131.018 227.782 131.939C229.11 133.303 230.37 134.803 231.358 136.44C232.209 137.872 232.72 140.055 234.218 140.907C235.104 141.385 236.228 140.941 236.5 139.987C237.045 137.975 235.24 135.792 234.048 134.326Z" fill="black"/>
<path d="M96.3711 135.247C93.2042 135.622 90.8205 139.612 90.4459 142.477C90.3097 143.466 91.8761 143.841 92.2847 142.988C92.8296 141.829 93.4085 140.669 94.2939 139.714C95.1452 138.76 96.4052 138.248 97.2224 137.293C97.8014 136.577 97.4949 135.111 96.3711 135.247Z" fill="black"/>
<path d="M90.7174 131.939C88.8105 131.019 86.4267 132.724 85.0646 134.02C83.4982 135.52 82.4425 137.396 82.0339 139.51C81.7614 140.976 83.7025 141.488 84.2473 140.124C84.8603 138.589 85.9159 137.191 87.21 136.168C88.4359 135.213 90.2747 134.94 91.1601 133.679C91.5347 133.133 91.2963 132.212 90.7174 131.939Z" fill="black"/>
</g>
<defs>
<clipPath id="clip0">
<rect width="292" height="293" fill="white"/>
</clipPath>
</defs>
</svg>
