<svg width="260" height="277" viewBox="0 0 260 277" fill="none" xmlns="http://www.w3.org/2000/svg">
<path d="M260 263C260 270.732 208.065 277 144 277C79.935 277 28 270.732 28 263C28 255.268 79.935 249 144 249C208.065 249 260 255.268 260 263Z" fill="#F1F3F4"/>
<g clip-path="url(#clip0)">
<path d="M210.428 192.938C209.854 185.616 209.179 178.334 207.311 171.288C205.666 165.042 203.001 159.293 200.749 153.287C199.242 149.347 197.933 145.377 195.912 141.733C194.519 139.268 192.972 136.887 191.474 134.51C189.122 130.74 186.349 127.323 183.677 123.866C181.836 121.508 180.205 118.973 178.367 116.566C175.527 112.802 173.096 108.829 170.678 104.712C166.99 98.3841 164.486 91.9166 163.234 84.5347L163.23 84.5831C162.195 76.3908 161.852 68.113 160.818 59.9207C159.84 51.6358 158.09 43.8196 155.01 36.1301C153.052 31.2236 149.991 27.1959 146.68 23.2436C143.301 18.9439 139.534 15.7323 134.827 13.2187C129.979 13.9623 125.195 13.9795 120.282 13.7902C119.163 13.2035 117.939 13.242 116.729 13.1352C113.771 12.9231 110.924 13.1111 108.003 13.5855C103.946 14.2038 100.054 15.1781 96.207 16.742C92.0982 19.0637 88.6772 21.8853 85.5183 25.6084C78.9357 32.7384 74.4282 40.6859 72.2095 50.3482C71.4263 53.6952 71.2497 56.8029 71.0604 60.0559C70.7757 65.4966 71.6347 70.6966 71.4469 76.1458C71.249 81.1549 69.9545 85.8721 68.6031 90.6819C69.7897 98.2532 71.0062 105.486 69.2617 113.091C68.4956 116.244 64.5418 115.701 63.2414 113.292C62.441 111.855 62.1903 110.271 61.7943 108.675C57.0362 120.016 51.264 130.683 45.9904 141.784C42.8658 148.438 39.9306 155.157 37.9298 162.35C35.5672 170.877 34.3184 179.503 33.9725 188.403L33.9768 188.354C33.8133 196.295 34.8702 203.122 38.1989 210.199C41.8183 222.28 48.0425 232.492 57.692 239.833C61.9021 242.45 66.1165 245.017 70.6898 246.836C76.1533 249.075 81.913 250.168 87.5117 251.98C87.4633 251.976 87.4149 251.971 87.4192 251.923C89.7493 252.617 92.0095 253.548 94.2869 254.286C94.3354 254.29 94.4279 254.347 94.4764 254.351C100.867 256.037 107.386 256.271 113.875 256.843C121.187 257.488 128.415 257.979 135.708 258.281C136.351 258.191 137.037 258.154 137.684 258.016C142.399 257.114 147.129 256.604 151.912 256.05C154.033 255.798 156.086 255.198 158.184 254.651C160.282 254.104 162.495 253.909 164.65 253.269C172.781 250.717 180.377 247.043 187.922 242.829C187.922 242.829 187.874 242.825 187.922 242.829C187.922 242.829 188.08 242.696 188.129 242.701L188.076 242.745C188.854 242.228 189.68 241.715 190.506 241.202L190.453 241.246C192.83 239.748 195.419 238.61 197.664 236.954C198.498 236.344 199.165 235.427 199.915 234.663C199.35 233.881 199.334 232.953 199.988 232.181C200.313 231.819 200.629 231.554 200.857 231.184C202.224 228.962 203.402 226.674 204.355 224.172C206.216 219.114 207.315 213.843 208.56 208.585C209.691 203.512 210.297 198.294 210.428 192.938Z" fill="#78BA4D"/>
<path d="M156.486 211.36C156.644 211.227 156.803 211.095 156.965 210.914C156.807 211.047 156.644 211.227 156.486 211.36ZM124.119 225.878C115.37 224.375 106.836 220.987 100.348 214.314C93.294 207.982 89.1693 204.397 87.346 194.086C86.5654 190.21 86.3829 186.193 86.2931 182.232C86.1064 178.262 85.9283 174.196 86.9963 170.386C87.8963 166.269 89.5583 162.365 91.7715 158.851C93.8607 155.082 96.5055 151.655 99.7683 148.966C104.159 145.108 109.62 142.954 115.069 141.483C117.14 140.689 119.246 140.046 121.428 139.652C125.093 139.048 128.769 139.421 132.426 139.451C135.098 139.589 137.748 139.969 140.321 140.684C142.655 141.329 144.744 142.539 147.017 143.325C150.709 144.626 154.454 145.884 157.9 147.75C159.527 148.674 160.816 150.105 162.214 151.4C162.17 151.347 162.126 151.294 162.082 151.242C162.219 151.351 162.307 151.457 162.444 151.566C162.4 151.514 162.355 151.461 162.311 151.408C166.591 155.446 171.203 158.488 172.69 164.866C174.181 171.195 174.904 177.945 173.552 184.414C173.196 186.237 172.788 188.104 172.528 189.936C172.416 192.317 171.969 194.62 171.187 196.845C171.183 196.893 171.13 196.937 171.126 196.986L171.122 197.034L171.117 197.083L171.113 197.131C171.113 197.131 171.113 197.131 171.117 197.083C168.847 204.007 166.368 208.327 160.896 212.822C158.802 214.98 156.528 216.976 154.001 218.51C151.251 220.366 148.585 222.375 145.463 223.466C145.415 223.462 145.41 223.511 145.362 223.506C138.53 226.271 131.142 227.035 124.119 225.878Z" fill="#6CA846"/>
<path d="M157.211 150.031L157.255 150.084C157.304 150.088 157.3 150.137 157.348 150.141C157.304 150.088 157.255 150.084 157.211 150.031Z" fill="#588F35"/>
<path d="M110.138 200.147C102.091 186.261 108.157 167.275 116.09 154.798C121.107 146.603 128.921 142.119 137.599 140.005C135.921 139.662 134.178 139.508 132.43 139.403C128.773 139.373 125.052 138.947 121.432 139.604C119.25 139.997 117.139 140.689 115.073 141.434C109.624 142.906 104.167 145.011 99.7724 148.918C96.5095 151.607 93.8648 155.034 91.7755 158.803C89.5623 162.316 87.9004 166.22 87.0004 170.338C85.928 174.196 86.1062 178.262 86.2971 182.183C86.387 186.144 86.6178 190.166 87.35 194.037C87.35 194.037 87.35 194.037 87.3543 193.989C89.1776 204.301 93.3023 207.885 100.357 214.217C106.844 220.89 115.379 224.278 124.128 225.782C131.146 226.986 138.534 226.223 145.261 223.546C145.309 223.551 145.313 223.502 145.362 223.506C148.435 222.411 151.154 220.357 153.9 218.55C156.431 216.967 158.701 215.02 160.795 212.862C162.898 211.145 164.562 209.437 165.895 207.603C147.766 220.595 122.618 220.768 110.138 200.147Z" fill="#588F35"/>
<path d="M157.211 150.031L157.255 150.084C157.304 150.088 157.3 150.137 157.348 150.141C157.304 150.088 157.255 150.084 157.211 150.031Z" fill="#588F35"/>
<path d="M43.3725 170.343C43.3683 170.391 43.3113 170.484 43.307 170.532C43.4466 170.057 43.5904 169.533 43.73 169.057C43.6389 169.537 43.5078 169.916 43.3725 170.343Z" fill="#78BA4D"/>
<path d="M147.715 253.824C147.909 253.841 148.3 253.827 148.446 253.84C148.542 253.848 148.446 253.84 148.494 253.844C148.542 253.848 148.494 253.844 148.494 253.844C148.423 253.545 147.913 253.793 147.715 253.824Z" fill="#78BA4D"/>
<path d="M94.23 254.376C94.2258 254.425 94.23 254.376 94.23 254.376C94.1816 254.372 93.9922 254.307 93.9922 254.307C93.9922 254.307 94.1816 254.372 94.23 254.376Z" fill="#6CA846"/>
<path d="M176.939 234.002C151.422 249.418 122.239 246.648 94.7656 241.102C86.5288 228.809 74.3812 220.466 66.4563 207.957C58.6553 194.044 62.6485 178.096 65.1034 162.989C67.2238 151.122 74.9985 142.096 79.1897 131.095C80.5454 124.578 78.4957 118.492 79.0239 111.95C81.3965 103.863 86.3698 97.2746 89.5399 89.5507C93.0375 75.902 92.2352 62.3131 91.2122 48.4608C90.011 30.5423 98.7983 19.9954 113.55 13.1955C111.689 13.2753 109.872 13.4078 107.989 13.7298C103.928 14.3964 100.04 15.3223 96.1933 16.8863C92.0844 19.2079 88.6635 22.0295 85.5046 25.7526C78.9661 32.9354 74.4187 40.7817 72.1915 50.5408C71.4567 53.8921 71.236 56.9472 71.0424 60.2486C70.7007 65.7819 71.7263 70.7525 71.4246 76.3869C71.1171 81.5327 68.5593 86.1873 67.0725 91.4243C66.2138 94.5207 65.8507 96.9776 65.328 99.0299C64.2956 102.989 63.1833 105.087 62.0611 108.405C57.2945 119.843 51.4041 130.743 46.0649 142.033C42.9403 148.687 39.9567 155.403 38.0043 162.6C35.6417 171.127 34.3929 179.752 34.0471 188.652L34.0514 188.604C33.8878 196.544 34.9448 203.372 38.2735 210.449C41.8928 222.53 48.1171 232.741 57.7665 240.083C61.9767 242.699 66.1911 245.267 70.7644 247.086C76.2279 249.325 81.9875 250.418 87.5863 252.23C87.5379 252.225 87.4894 252.221 87.4937 252.173C89.8238 252.866 92.1325 253.802 94.4541 254.592C94.5025 254.597 94.5509 254.601 94.5951 254.654C100.986 256.34 107.504 256.573 113.993 257.145C121.305 257.79 128.533 258.281 135.827 258.583C136.469 258.493 137.156 258.456 137.802 258.318C142.518 257.417 147.248 256.906 152.031 256.352C154.151 256.1 156.205 255.5 158.303 254.953C160.401 254.407 162.614 254.211 164.769 253.572C172.9 251.019 180.495 247.346 188.041 243.131C188.041 243.131 187.992 243.127 188.041 243.131C188.041 243.131 188.199 242.999 188.247 243.003L188.195 243.047C188.972 242.53 189.798 242.017 190.624 241.505L190.572 241.549C192.949 240.05 195.538 238.912 197.783 237.256C198.617 236.646 199.284 235.729 200.034 234.966C199.469 234.184 199.453 233.255 200.107 232.483C200.431 232.121 200.748 231.856 200.976 231.486C202.343 229.264 203.573 226.933 204.473 224.474C206.273 219.558 207.356 214.48 208.539 209.363C202.598 224.162 193.434 237.312 176.939 234.002Z" fill="#6CA846"/>
<path d="M43.3035 170.582C43.3078 170.533 43.369 170.392 43.369 170.392C43.5043 169.965 43.6396 169.538 43.7706 169.159C43.5869 169.582 43.4473 170.058 43.3035 170.582Z" fill="#6CA846"/>
<path d="M148.499 253.794C148.252 253.821 147.962 253.795 147.72 253.774C147.913 253.791 148.423 253.543 148.499 253.794C148.499 253.794 148.543 253.846 148.499 253.794Z" fill="#6CA846"/>
<path d="M37.8064 162.63L37.8762 162.393L37.8805 162.344C37.8762 162.393 37.8064 162.63 37.8064 162.63Z" fill="#6CA846"/>
<path d="M145.218 16.573C142.722 14.9865 140.075 14.0209 137.326 13.0952C138.453 13.0482 139.425 13.0852 140.596 13.0909C141.352 14.4752 144.268 16.8309 145.077 16.5118C145.881 16.2412 145.279 16.432 145.279 16.432C145.582 16.3124 145.544 16.7482 145.632 16.8536C145.491 16.7924 145.354 16.6827 145.218 16.573Z" fill="#78BA4D"/>
<path d="M199.981 234.472C201.814 231.949 203.695 229.431 205.528 226.909C203.825 230.175 201.592 232.808 199.209 235.477C199.433 235.155 199.709 234.789 199.981 234.472Z" fill="#78BA4D"/>
<path d="M147.789 258.515C146.037 258.458 147.402 258.48 147.402 258.48C150.552 258.173 154.217 257.569 157.568 256.644C160.871 255.716 164.325 255.288 167.605 254.065C172.085 252.508 176.398 250.643 180.643 248.431C183.408 246.967 186.366 245.52 188.962 243.748C191.712 241.892 194.517 240.529 197.263 238.722C199.437 237.303 201.201 235.018 202.89 233.02C206.049 229.297 207.846 224.966 209.942 220.563C210.968 218.897 211.945 217.226 212.882 215.454C215.029 207.152 216.644 198.803 216.423 190.244C216.305 185.499 215.655 181.245 215.035 176.652C213.769 168.878 211.615 161.759 208.744 154.478C206.55 148.916 204.353 143.403 201.495 138.173C201.495 138.173 201.491 138.222 201.54 138.226C198.507 133.322 195.475 128.419 192.126 123.78C190.47 121.535 188.756 119.383 187.104 117.09C185.107 114.279 182.944 111.697 180.833 109.07C177.683 104.4 174.831 99.6591 172.353 94.5604C171.005 91.0254 169.671 87.3451 169.128 83.5395C168.249 77.4594 168.202 71.355 167.415 65.3319C166.562 58.9612 166.572 52.7642 165.024 46.5275C163.092 38.5488 159.751 31.617 154.897 25.2351C153.42 22.6159 151.578 20.2574 149.561 18.2251C148.171 16.8336 147.326 15.3439 146.033 13.9609C151.391 16.288 156.238 19.9852 160.377 23.9616C162.085 25.6251 163.431 26.9639 164.601 28.6288C167.301 32.3318 168.802 35.7827 170.424 40.074C172.481 45.526 174.456 50.2388 176.277 56.1579C178.479 63.282 179.801 72.0853 181.428 79.6467C183.299 89.9625 185.208 97.6463 191.572 105.723C198.005 113.562 204.301 120.754 210.344 129.144C217.085 138.475 222.334 149.235 226.378 160.377C230.299 171.8 231.706 182.954 230.573 195.249C230.021 200.959 228.718 207.433 226.91 212.983C225.444 217.441 223.729 221.389 221.408 225.576C216.581 234.374 209.58 241.272 202.362 247.858C197.464 251.379 192.398 252.933 186.761 254.876C182.082 256.464 176.616 258.129 171.764 258.921C168.099 259.525 163.635 259.229 160.439 258.947C156.416 258.641 150.223 258.583 147.789 258.515Z" fill="#588F35"/>
<path d="M115.521 258.645C106.71 257.282 97.9168 255.726 89.1933 253.932C86.9871 253.493 84.7938 252.909 82.5961 252.374C80.9226 251.982 79.2534 251.542 77.6326 251.106C77.2495 251.024 77.0415 250.615 77.1284 250.183C77.2153 249.752 77.5799 249.491 77.9587 249.622C85.6881 251.621 93.456 253.185 101.298 254.462C101.972 254.571 103.271 254.783 103.799 254.878C104.089 254.904 103.847 254.882 103.847 254.882C103.944 254.891 103.944 254.891 103.993 254.895C104.473 254.986 105.437 255.12 105.772 255.199C106.014 255.22 105.82 255.203 105.82 255.203C106.251 255.29 106.877 255.394 107.167 255.419C107.361 255.436 107.119 255.415 107.216 255.424C121.289 257.983 135.564 257.143 149.772 257.616C166.698 257.156 183.676 256.653 199.66 249.718C210.215 245.134 219.434 237.993 226.04 227.839C231.909 218.841 235.438 208.708 237.218 197.934C238.686 189.035 238.187 180.304 236.918 171.457C235.294 159.991 230.838 149.643 225.469 139.702C218.679 128.708 209.952 119.203 201.232 110.186C192.202 100.801 183.76 92.4917 181.513 78.6779C180.81 73.9309 179.956 69.2194 178.905 64.5394C178.897 64.6362 178.941 64.6889 178.932 64.7858C175.626 51.3665 170.622 38.3831 162.236 27.7855C157.894 23.3519 153.183 19.7643 147.889 16.7109C144.222 14.5817 140.284 13.3071 136.367 11.7904C134.548 11.386 132.923 10.9986 131.035 10.832C130.308 10.768 130.491 9.80802 130.939 9.70119C131.238 9.62996 130.891 9.69691 130.988 9.70546C131.089 9.66557 130.988 9.70546 130.988 9.70546C133.963 9.72388 136.847 10.2223 139.693 11.1565C147.238 13.5789 153.806 17.1351 160.148 22.1355C160.104 22.0828 160.056 22.0785 160.011 22.0258C167.586 28.5501 172.542 37.0884 176.401 46.4571C180.312 55.7816 182.745 65.2685 184.369 75.0744C185.805 83.6926 187.413 89.2514 193.196 95.6177C199.689 102.779 207.799 108.765 214.838 115.827C222.234 123.263 228.968 131.568 233.976 141.184C233.932 141.131 233.888 141.079 233.896 140.982C238.088 149.892 240.81 158.868 241.977 168.877C241.989 168.732 241.95 168.631 241.962 168.486C242.46 173.361 242.715 178.215 242.671 183.14C242.679 183.043 242.644 182.893 242.696 182.849C241.955 203.427 234.94 223.207 221.018 237.742C213.013 246.064 203.221 251.399 192.76 254.917C178.979 259.557 164.848 259.873 150.624 260.131C138.907 259.634 127.182 259.771 115.521 258.645Z" fill="black"/>
<path d="M109.717 258.623C106.666 258.354 103.632 257.891 100.647 257.432C100.691 257.485 100.845 257.401 100.788 257.494C99.4733 256.353 95.3017 254.96 94.5597 255.627C93.8177 256.293 94.3973 255.807 94.3973 255.807C93.238 256.779 91.9618 255.202 90.8865 254.668C89.9964 254.248 89.7072 253.1 90.4221 252.187C92.3292 252.697 94.3061 252.969 96.2174 253.43C96.169 253.426 96.1206 253.422 96.1206 253.422C98.9121 253.863 101.647 254.397 104.464 254.548C112.252 255.333 120.029 255.677 127.873 255.832C127.776 255.823 127.727 255.819 127.631 255.811C127.873 255.832 128.216 255.813 128.458 255.835C128.507 255.839 128.361 255.826 128.361 255.826C134.901 255.818 141.459 255.615 147.997 255.069C154.342 254.507 160.679 254.041 166.804 252.092C176.646 248.958 185.95 244.167 194.194 237.574C201.071 232.08 204.815 225.041 207.807 216.57C213.329 201.001 212.726 184.599 209.395 168.689C209.347 168.685 209.391 168.737 209.391 168.737C206.918 159.149 204.138 149.73 199.74 140.948C196.089 133.647 191.332 127.274 186.843 120.631C186.843 120.631 186.838 120.679 186.843 120.631C186.843 120.631 186.758 120.477 186.71 120.473C186.71 120.473 186.75 120.574 186.754 120.526C186.758 120.477 186.626 120.319 186.582 120.266C181.08 111.826 174.962 103.723 170.862 94.3326C168.957 89.9188 167.906 85.2388 167.106 80.4832C165.853 73.1013 165.922 65.6894 164.722 58.2634C163.452 50.5383 161.218 43.2162 158.189 36.068C155.93 30.6957 152.406 26.3832 148.688 22.0535C146.697 19.7306 144.206 18.0957 141.605 16.5974C137.857 15.3883 134.048 14.8572 130.14 14.9029C124.327 14.9757 118.641 15.2551 112.81 15.5216C108.057 15.7368 103.399 16.5459 98.7628 17.6498C97.8171 17.8592 96.9427 18.3677 95.997 18.5771C95.5968 18.6882 95.4144 17.9889 95.7306 17.724C95.9984 17.4548 96.3103 17.2383 96.6136 17.1187C105.717 12.9439 115.057 11.6205 124.799 10.7229C129.177 10.3282 133.402 10.0176 137.738 10.6441C139.28 10.8777 140.825 11.0628 142.332 11.6837C146.985 13.7046 150.541 17.0928 153.804 21.0407C156.056 23.7282 157.912 26.4784 159.641 29.559C161.796 33.8973 163.376 38.6728 164.77 43.3343C166.165 47.9959 167.313 52.6845 167.867 57.4671C170.047 75.9112 169.452 88.7424 180.122 104.422C185.818 112.879 192.071 120.555 197.864 129.021C206.511 141.642 212.622 155.895 215.749 171.348C217.302 179.196 218.023 187.067 217.309 195.154C216.14 208.96 211.448 221.771 203.631 232.94C198.812 238.323 193.415 242.532 187.479 246.205C175.712 253.463 163.029 257.274 149.648 258.485C136.329 259.555 123.038 259.749 109.717 258.623Z" fill="black"/>
<path d="M105.266 258.719C97.8025 257.572 90.6399 255.233 83.3591 253.126C79.2672 251.936 75.1939 251.089 71.1361 249.511C53.3585 242.477 43.6803 224.396 40.7187 204.858C37.9722 186.755 41.904 169.289 48.3198 152.432C51.6451 143.502 55.5388 134.769 59.7543 126.258C61.8905 121.957 64.1151 117.761 65.965 113.386C68.913 106.521 71.025 99.7284 72.4533 92.3878C73.5511 83.2611 74.2573 74.1487 74.6771 64.9622C74.6771 64.9622 74.6601 65.1559 74.6643 65.1074C74.6771 64.9622 74.6985 64.72 74.6629 64.5705C74.6629 64.5705 74.6629 64.5705 74.6586 64.6189C75.1469 56.3169 75.0028 48.5447 78.1416 40.6229C81.2847 32.6527 86.5741 25.799 92.9945 20.5091C94.8346 19.0121 96.857 18.2145 98.9848 17.3285C102.836 15.7161 106.688 14.6407 110.767 14.3173L110.719 14.313C111.357 14.2717 112.236 13.7148 112.498 14.6163C112.565 14.9638 112.152 15.2202 111.91 15.1988L111.958 15.2031L112.007 15.2074L112.055 15.2117C110.248 15.7843 108.395 15.7672 106.583 16.3883C102.261 17.8127 98.2912 19.6586 94.4031 22.2438C88.937 27.2274 84.0577 32.7508 81.0528 39.7084C77.2602 48.4022 77.5567 57.2127 77.0756 66.5402C77.1283 66.496 77.0842 66.4433 77.0927 66.3465C76.5005 75.2738 76.26 84.0856 74.7435 92.9802C73.5915 99.9548 71.6291 106.712 68.9004 113.303C65.1834 122.248 60.3654 130.949 56.6883 139.994C56.6925 139.946 56.7495 139.853 56.7538 139.805C50.8436 154.802 44.6956 169.73 43.155 186.089C42.2566 195.722 43.2325 205.129 45.9773 214.399C49.9128 227.874 57.5101 239.671 69.5067 245.853C76.1836 249.273 83.557 249.777 90.4077 252.333C90.3635 252.28 90.3151 252.276 90.2667 252.272C95.6447 253.82 101.023 255.368 106.553 256.295C110.256 256.914 113.979 256.754 117.721 256.938C123.359 257.191 128.949 257.44 134.626 257.258C135.066 257.248 135.428 257.573 135.434 258.061C135.44 258.55 135.115 258.912 134.671 258.97C131.682 259.097 128.739 259.276 125.759 259.306L125.807 259.311C123.422 259.247 121.036 259.183 118.699 259.123C114.178 258.919 109.699 259.354 105.266 258.719Z" fill="black"/>
<path d="M133.224 75.1048C127.049 76.5122 122.757 68.179 127.526 63.9146C136.212 56.7261 144.106 72.3557 133.224 75.1048Z" fill="black"/>
<path d="M117.213 100.087C111.037 101.495 106.746 93.1614 111.514 88.897C120.2 81.7085 128.094 97.3381 117.213 100.087Z" fill="black"/>
<path d="M131.674 75.4222C129.681 75.8809 128.31 73.1734 129.846 71.7961C132.498 69.3947 135.157 74.6558 131.674 75.4222Z" fill="white"/>
<path d="M94.194 79.9577C91.8042 81.6013 89.3644 77.726 91.8824 76.2888C94.0358 75.1123 96.1709 78.5704 94.194 79.9577Z" fill="black"/>
<path d="M92.2568 81.4458C89.0067 82.3304 87.6022 77.2287 90.9406 76.4495C94.3531 75.3841 95.7803 80.7806 92.2568 81.4458Z" fill="black"/>
<path d="M95.3326 84.7421C88.2556 89.7301 80.4804 78.8447 87.5174 73.7556C94.4092 68.6537 102.353 79.8467 95.3326 84.7421Z" fill="black"/>
<path d="M94.6945 85.424C92.702 85.8827 91.282 83.1709 92.8671 81.7979C95.5674 79.4008 98.2267 84.6619 94.6945 85.424Z" fill="white"/>
<path d="M87.394 93.4133C90.7024 89.6546 84.296 87.0399 81.1841 88.5711C77.9981 88.7292 73.9747 93.4009 78.4198 95.0131C81.3481 95.5642 84.9301 95.3433 87.394 93.4133Z" fill="#EF5D78"/>
<path d="M152.81 80.4423C155.515 79.656 156.68 75.8546 153.828 74.4318C150.078 72.6858 144.857 73.7869 141.924 76.6028C138.431 83.5661 149.193 82.1728 152.81 80.4423Z" fill="#EF5D78"/>
<path d="M210.994 58.7334C210.412 58.6822 209.804 58.3845 209.358 57.906C208.471 56.9005 208.559 55.3466 209.569 54.4108L219.101 45.9305C220.107 45.0432 221.661 45.1314 222.597 46.1412C223.484 47.1467 223.396 48.7006 222.386 49.6363L212.854 58.1167C212.322 58.6066 211.672 58.7932 210.994 58.7334Z" fill="black"/>
<path d="M216.704 68.1192C215.687 68.0295 214.779 67.2661 214.529 66.2193C214.209 64.8734 215.055 63.5815 216.352 63.2568L223.975 61.489C225.321 61.1685 226.612 62.0145 226.937 63.312C227.258 64.6579 226.412 65.9497 225.114 66.2745L217.492 68.0422C217.241 68.1177 216.946 68.1405 216.704 68.1192Z" fill="black"/>
<path d="M28.6504 76.46C29.5335 76.9927 30.0025 78.0785 29.7643 79.1391C29.4428 80.4706 28.1323 81.2457 26.8124 80.9714L19.2001 79.1497C17.8686 78.8282 17.0935 77.5177 17.3677 76.1978C17.6892 74.8662 18.9997 74.0911 20.3196 74.3654L27.9319 76.1872C28.1912 76.2231 28.415 76.318 28.6504 76.46Z" fill="black"/>
<path d="M30.4842 58.7793C30.8374 58.9924 31.1079 59.276 31.2957 59.6301L36.7209 69.0044C37.4138 70.1851 36.9858 71.6932 35.8052 72.3861C34.6245 73.079 33.1164 72.651 32.4235 71.4703L26.9983 62.096C26.3054 60.9154 26.7334 59.4072 27.914 58.7143C28.7522 58.2565 29.7189 58.3177 30.4842 58.7793Z" fill="black"/>
</g>
<defs>
<clipPath id="clip0">
<rect width="235.965" height="250.454" fill="white" transform="translate(22.041) rotate(5.04074)"/>
</clipPath>
</defs>
</svg>
