<svg width="22" height="22" viewBox="0 0 22 22" fill="none" xmlns="http://www.w3.org/2000/svg">
<g clip-path="url(#clip0)">
<path d="M19.2012 7.61288C19.192 6.91862 19.062 6.23126 18.8172 5.58154C18.6048 5.03352 18.2805 4.53581 17.8649 4.12022C17.4493 3.70464 16.9516 3.38031 16.4036 3.16796C15.7622 2.9272 15.0847 2.79702 14.3997 2.78296C13.5179 2.74354 13.2383 2.73254 10.9998 2.73254C8.76132 2.73254 8.4744 2.73254 7.59899 2.78296C6.91438 2.79713 6.23714 2.92731 5.59607 3.16796C5.04796 3.38016 4.55017 3.70443 4.13457 4.12004C3.71896 4.53565 3.39469 5.03343 3.18249 5.58154C2.94125 6.22242 2.81135 6.89981 2.7984 7.58446C2.75899 8.46721 2.74707 8.74679 2.74707 10.9853C2.74707 13.2238 2.74707 13.5098 2.7984 14.3861C2.81215 15.0718 2.9414 15.7483 3.18249 16.3909C3.39504 16.9388 3.71956 17.4364 4.1353 17.8518C4.55105 18.2673 5.04888 18.5914 5.59699 18.8035C6.2363 19.054 6.91366 19.1935 7.5999 19.216C8.48265 19.2555 8.76224 19.2674 11.0007 19.2674C13.2392 19.2674 13.5262 19.2674 14.4016 19.216C15.0865 19.2026 15.7641 19.0727 16.4054 18.832C16.9533 18.6194 17.4509 18.295 17.8664 17.8794C18.282 17.4638 18.6064 16.9663 18.819 16.4184C19.0601 15.7767 19.1893 15.1002 19.2031 14.4136C19.2425 13.5318 19.2544 13.2522 19.2544 11.0128C19.2526 8.77429 19.2526 8.49013 19.2012 7.61288ZM10.9943 15.2185C8.65315 15.2185 6.75657 13.3219 6.75657 10.9807C6.75657 8.63954 8.65315 6.74296 10.9943 6.74296C12.1182 6.74296 13.1961 7.18944 13.9909 7.98417C14.7856 8.7789 15.2321 9.85679 15.2321 10.9807C15.2321 12.1046 14.7856 13.1825 13.9909 13.9773C13.1961 14.772 12.1182 15.2185 10.9943 15.2185ZM15.4007 7.57438C14.8535 7.57438 14.4126 7.13254 14.4126 6.58621C14.4126 6.4565 14.4381 6.32807 14.4878 6.20823C14.5374 6.0884 14.6101 5.97951 14.7019 5.8878C14.7936 5.79608 14.9025 5.72332 15.0223 5.67369C15.1421 5.62405 15.2706 5.5985 15.4003 5.5985C15.53 5.5985 15.6584 5.62405 15.7783 5.67369C15.8981 5.72332 16.007 5.79608 16.0987 5.8878C16.1904 5.97951 16.2632 6.0884 16.3128 6.20823C16.3624 6.32807 16.388 6.4565 16.388 6.58621C16.388 7.13254 15.9462 7.57438 15.4007 7.57438Z" fill="#3F4042"/>
<path d="M10.9949 13.7335C12.5152 13.7335 13.7477 12.5011 13.7477 10.9808C13.7477 9.46048 12.5152 8.22803 10.9949 8.22803C9.47464 8.22803 8.24219 9.46048 8.24219 10.9808C8.24219 12.5011 9.47464 13.7335 10.9949 13.7335Z" fill="#3F4042"/>
</g>
<defs>
<clipPath id="clip0">
<rect width="22" height="22" fill="white"/>
</clipPath>
</defs>
</svg>
