<svg width="16" height="15" viewBox="0 0 16 15" fill="none" xmlns="http://www.w3.org/2000/svg">
<path d="M8.66634 5.625H7.33301V4.375H8.66634V5.625ZM8.66634 10.625H7.33301V6.875H8.66634V10.625ZM7.99967 1.25C7.1242 1.25 6.25729 1.41166 5.44845 1.72575C4.63961 2.03984 3.90469 2.50022 3.28563 3.08058C2.03539 4.25269 1.33301 5.8424 1.33301 7.5C1.33301 9.1576 2.03539 10.7473 3.28563 11.9194C3.90469 12.4998 4.63961 12.9602 5.44845 13.2742C6.25729 13.5883 7.1242 13.75 7.99967 13.75C9.76778 13.75 11.4635 13.0915 12.7137 11.9194C13.964 10.7473 14.6663 9.1576 14.6663 7.5C14.6663 6.67924 14.4939 5.86651 14.1589 5.10823C13.8238 4.34994 13.3328 3.66095 12.7137 3.08058C12.0947 2.50022 11.3597 2.03984 10.5509 1.72575C9.74206 1.41166 8.87515 1.25 7.99967 1.25Z" fill="#D9DED4"/>
</svg>
