<svg width="21" height="18" viewBox="0 0 21 18" fill="none" xmlns="http://www.w3.org/2000/svg">
<path d="M19.9947 4.07014L19.9949 4.07075C20.3301 4.80276 20.5023 5.58306 20.5 6.38643M19.9947 4.07014L9.79871 1.45514C8.86301 0.918559 8.03381 0.500015 6.81282 0.500015C5.97131 0.500015 5.15305 0.65168 4.37911 0.953837C3.63185 1.24469 2.95603 1.66403 2.37496 2.19892C1.79483 2.73108 1.32962 3.36672 1.00725 4.07071L1.00724 4.07075C0.672026 4.80296 0.5 5.58298 0.5 6.38554C0.5 7.14696 0.665443 7.92824 0.983326 8.70957L0.983432 8.70983C1.24901 9.36155 1.62568 10.028 2.09936 10.6926L2.09953 10.6929C2.84979 11.7443 3.87125 12.8273 5.12366 13.9142C7.16756 15.6885 9.18971 16.9209 9.34376 17.0116L9.86245 17.3243L9.86341 17.3249C10.2527 17.5584 10.7473 17.5584 11.1366 17.3249L11.1375 17.3243L11.6587 17.0101C11.6587 17.0101 11.6587 17.0101 11.6588 17.0101C11.7554 16.9518 13.8018 15.7131 15.8761 13.9144L15.8763 13.9142C17.1287 12.8273 18.1502 11.7443 18.9004 10.6929L18.9006 10.6926C19.3735 10.0291 19.753 9.3623 20.0169 8.70899C20.3345 7.92815 20.4998 7.14738 20.5 6.38643M19.9947 4.07014C19.6716 3.36701 19.2068 2.73187 18.6277 2.19939C18.049 1.66616 17.3683 1.24379 16.6233 0.953941C15.8509 0.652341 15.0235 0.498275 14.1888 0.500015M19.9947 4.07014L11.2013 1.45514C12.1372 0.918458 12.9683 0.50014 14.1888 0.500015M20.5 6.38643C20.5 6.38664 20.5 6.38684 20.5 6.38705L20 6.38554H20.5C20.5 6.38584 20.5 6.38613 20.5 6.38643ZM14.1888 0.500015C14.189 0.500015 14.1892 0.500015 14.1894 0.500015V1.00001L14.1883 0.500016C14.1885 0.500015 14.1886 0.500015 14.1888 0.500015Z" fill="#7ABC2F" stroke="#7ABC2F"/>
</svg>
