<svg width="23" height="20" viewBox="0 0 23 20" fill="none" xmlns="http://www.w3.org/2000/svg">
<path d="M21.676 7.49662C21.6764 6.30313 21.3345 5.13523 20.6919 4.1348C20.0494 3.13436 19.1338 2.34447 18.0563 1.86106C16.9789 1.37766 15.7861 1.22157 14.6228 1.41174C13.4595 1.60191 12.3757 2.13016 11.5032 2.93232C10.3848 1.90156 8.92622 1.33173 7.41412 1.33481C6.20516 1.3411 5.02509 1.70968 4.02263 2.39412C3.02016 3.07856 2.24016 4.04822 1.78092 5.18091C1.63347 5.53132 1.52027 5.89552 1.44293 6.26828C1.17068 7.63439 1.36219 9.05358 1.98637 10.2956C2.78827 11.8797 4.31918 13.2557 5.60487 14.4773C6.98894 15.7868 8.49105 16.9621 10.0915 17.9878C10.2904 18.1153 10.4958 18.2361 10.7079 18.357L11.026 18.5315L11.2049 18.6254C11.2513 18.6254 11.3242 18.706 11.3772 18.6859C12.5203 18.1667 13.5955 17.5061 14.5782 16.7192C15.6402 15.9202 16.6538 15.0572 17.6135 14.135C18.5856 13.2635 19.4958 12.3237 20.3373 11.3226C21.1965 10.2365 21.6682 8.88828 21.676 7.49662Z" fill="white" fill-opacity="0.6"/>
<path d="M11.3516 18.9475C11.2609 18.9447 11.1731 18.9143 11.0997 18.8602L10.5762 18.5783L9.91345 18.2024C8.30189 17.1647 6.78683 15.9807 5.38701 14.6651L5.13517 14.4234C3.89587 13.2622 2.48426 11.9466 1.71549 10.3961C1.0748 9.1015 0.883362 7.62603 1.17206 6.20771C1.48482 4.76062 2.27212 3.46341 3.40573 2.52735C4.53934 1.59129 5.95246 1.07154 7.41496 1.05273C8.91089 1.05361 10.3587 1.58834 11.504 2.56298C12.7119 1.54456 14.2492 1.015 15.8197 1.07634C17.3902 1.13768 18.8826 1.78559 20.0095 2.89521C21.1363 4.00482 21.8178 5.49759 21.9225 7.08584C22.0273 8.67408 21.5479 10.2454 20.5768 11.4969C19.8115 12.4205 18.9809 13.2864 18.0915 14.0878L17.8264 14.3362C16.8508 15.2609 15.8218 16.1261 14.7447 16.9271C13.7461 17.7349 12.6505 18.4115 11.4841 18.9408C11.4408 18.9518 11.3958 18.9541 11.3516 18.9475ZM7.41496 1.60985C6.25985 1.61734 5.1327 1.97052 4.17522 2.62499C3.21773 3.27945 2.47264 4.20599 2.0336 5.28814C1.89497 5.62214 1.78629 5.96809 1.70887 6.32182C1.4546 7.62051 1.639 8.96807 2.23242 10.1478C3.11167 11.6181 4.23232 12.9256 5.54607 14.014L5.80453 14.2556C7.17813 15.5506 8.66674 16.7145 10.2514 17.7326C10.4436 17.8601 10.6491 17.9742 10.8545 18.0883L11.3516 18.3568C12.4446 17.8618 13.4748 17.2353 14.42 16.4908C15.4794 15.7032 16.4908 14.8514 17.4487 13.9402L17.7204 13.6918C18.5915 12.8977 19.4023 12.0384 20.146 11.121C21.026 9.96101 21.4475 8.51038 21.3281 7.05248C21.2086 5.59458 20.5569 4.23413 19.5002 3.23683C18.4435 2.23952 17.0576 1.67701 15.6133 1.65915C14.169 1.64129 12.77 2.16936 11.6896 3.14023L11.504 3.30804L11.3184 3.14023C10.2508 2.15569 8.85886 1.60998 7.41496 1.60985Z" fill="#9DA3AE" stroke="#9DA3AE"/>
</svg>
