<svg width="45" height="44" viewBox="0 0 45 44" fill="none" xmlns="http://www.w3.org/2000/svg">
<path d="M19 6H44" stroke="#FF6161" stroke-width="1.4"/>
<path d="M19 15H44" stroke="#FF6161" stroke-width="1.4"/>
<path d="M19 24H44" stroke="#FF6161" stroke-width="1.4"/>
<path d="M19 33H44" stroke="#FF6161" stroke-width="1.4"/>
<path d="M4.18585 16.5C4.05438 16.5 3.92382 16.4572 3.8124 16.3731C3.60484 16.2162 3.50789 15.9464 3.56438 15.686L4.33637 12.1375L1.71826 9.74163C1.52581 9.56632 1.45229 9.28869 1.53131 9.03466C1.61032 8.7811 1.82529 8.60159 2.07981 8.57703L5.54389 8.24887L6.91346 4.90441C7.01444 4.65869 7.24443 4.5 7.49996 4.5C7.75549 4.5 7.98548 4.65869 8.08646 4.90383L9.45603 8.24887L12.9196 8.57703C13.1746 8.60101 13.3896 8.7811 13.4686 9.03466C13.5476 9.28821 13.4746 9.56632 13.2821 9.74163L10.664 12.137L11.436 15.6855C11.4926 15.9464 11.3955 16.2162 11.1881 16.3726C10.9811 16.5291 10.705 16.5412 10.487 16.4045L7.49996 14.5418L4.51289 16.4055C4.4119 16.4681 4.29938 16.5 4.18585 16.5ZM7.49996 13.7394C7.61349 13.7394 7.72592 13.7712 7.82699 13.8338L10.6461 15.5932L9.91747 12.2439C9.86547 12.0056 9.94301 11.7567 10.1195 11.5954L12.5916 9.33311L9.32099 9.02319C9.08551 9.00074 8.88299 8.84626 8.79098 8.61983L7.49996 5.46368L6.20739 8.62031C6.11638 8.84521 5.91386 8.99969 5.67893 9.02214L2.40785 9.33206L4.87984 11.5944C5.05691 11.7561 5.13436 12.0045 5.0819 12.2435L4.35386 15.5926L7.17292 13.8338C7.27391 13.7712 7.38643 13.7394 7.49996 13.7394ZM5.51743 8.31354C5.51743 8.31354 5.51743 8.31412 5.51688 8.31459L5.51743 8.31354ZM9.48148 8.31202L9.48203 8.31307C9.48203 8.31249 9.48203 8.31249 9.48148 8.31202Z" fill="#3F4042" stroke="#3F4042" stroke-width="0.4"/>
<g clip-path="url(#clip0)">
<path d="M4.18585 33.1364C4.05438 33.1364 3.92382 33.0936 3.8124 33.0095C3.60484 32.8525 3.50789 32.5827 3.56438 32.3224L4.33637 28.7739L1.71826 26.378C1.52581 26.2027 1.45229 25.925 1.53131 25.671C1.61032 25.4175 1.82529 25.2379 2.07981 25.2134L5.54389 24.8852L6.91346 21.5408C7.01444 21.295 7.24443 21.1364 7.49996 21.1364C7.75549 21.1364 7.98548 21.295 8.08646 21.5402L9.45603 24.8852L12.9196 25.2134C13.1746 25.2374 13.3896 25.4175 13.4686 25.671C13.5476 25.9246 13.4746 26.2027 13.2821 26.378L10.664 28.7734L11.436 32.3218C11.4926 32.5827 11.3955 32.8525 11.1881 33.009C10.9811 33.1655 10.705 33.1775 10.487 33.0408L7.49996 31.1781L4.51289 33.0419C4.4119 33.1044 4.29938 33.1364 4.18585 33.1364ZM7.49996 30.3757C7.61349 30.3757 7.72592 30.4075 7.82699 30.4701L10.6461 32.2295L9.91747 28.8803C9.86547 28.6419 9.94301 28.393 10.1195 28.2318L12.5916 25.9695L9.32099 25.6595C9.08551 25.6371 8.88299 25.4826 8.79098 25.2562L7.49996 22.1L6.20739 25.2567C6.11638 25.4816 5.91386 25.636 5.67893 25.6585L2.40785 25.9684L4.87984 28.2307C5.05691 28.3925 5.13436 28.6409 5.0819 28.8798L4.35386 32.2289L7.17292 30.4701C7.27391 30.4075 7.38643 30.3757 7.49996 30.3757ZM5.51743 24.9499C5.51743 24.9499 5.51743 24.9505 5.51688 24.9509L5.51743 24.9499ZM9.48148 24.9484L9.48203 24.9494C9.48203 24.9488 9.48203 24.9488 9.48148 24.9484Z" fill="#3F4042" stroke="#3F4042" stroke-width="0.4"/>
</g>
<defs>
<clipPath id="clip0">
<rect width="15" height="15" fill="white" transform="translate(0 21)"/>
</clipPath>
</defs>
</svg>
