<svg width="31" height="48" viewBox="0 0 31 48" fill="none" xmlns="http://www.w3.org/2000/svg">
<path d="M0 27.4098C0 17.5 11.4344 16.7377 15.5 16.7377C19.5656 16.7377 31 18.0082 31 27.4098C31 36.8114 22.8689 47.2295 15.5 47.2295C8.13115 47.2295 0 37.3196 0 27.4098Z" fill="#FF6161"/>
<path d="M9.14738 17.5C11.9425 17.5 14.4834 15.7213 15.4998 14.7049C14.314 13.8579 11.6884 12.1639 9.14738 12.1639C6.6064 12.1639 3.98071 13.8579 2.79492 14.7049C3.55722 15.6366 5.89492 17.5 9.14738 17.5Z" stroke="#3F4042" stroke-width="1.4"/>
<path d="M21.8525 17.5C24.6475 17.5 27.1885 15.7213 28.2049 14.7049C27.0191 13.8579 24.3934 12.1639 21.8525 12.1639C19.3115 12.1639 16.6858 13.8579 15.5 14.7049C16.2623 15.6366 18.6 17.5 21.8525 17.5Z" stroke="#3F4042" stroke-width="1.4"/>
<path d="M5.84473 5.04919L8.63981 7.84428" stroke="#3F4042" stroke-width="1.4"/>
<path d="M22.3047 24.3606V28.3134" stroke="white" stroke-width="1.4"/>
<path d="M22.3047 24.3606V28.3134" stroke="white" stroke-width="1.4"/>
<path d="M22.3047 24.3606V28.3134" stroke="white" stroke-width="1.4"/>
<path d="M22.3047 24.3606V28.3134" stroke="white" stroke-width="1.4"/>
<path d="M22.3047 24.3606V28.3134" stroke="white" stroke-width="1.4"/>
<path d="M15.6982 24.3606V28.3134" stroke="white" stroke-width="1.4"/>
<path d="M15.6982 24.3606V28.3134" stroke="white" stroke-width="1.4"/>
<path d="M15.6982 24.3606V28.3134" stroke="white" stroke-width="1.4"/>
<path d="M15.6982 24.3606V28.3134" stroke="white" stroke-width="1.4"/>
<path d="M15.6982 24.3606V28.3134" stroke="white" stroke-width="1.4"/>
<path d="M15.6982 37.0656V41.0184" stroke="white" stroke-width="1.4"/>
<path d="M15.6982 37.0656V41.0184" stroke="white" stroke-width="1.4"/>
<path d="M15.6982 37.0656V41.0184" stroke="white" stroke-width="1.4"/>
<path d="M15.6982 37.0656V41.0184" stroke="white" stroke-width="1.4"/>
<path d="M15.6982 37.0656V41.0184" stroke="white" stroke-width="1.4"/>
<path d="M9.09082 24.3606V28.3134" stroke="white" stroke-width="1.4"/>
<path d="M9.09082 24.3606V28.3134" stroke="white" stroke-width="1.4"/>
<path d="M9.09082 24.3606V28.3134" stroke="white" stroke-width="1.4"/>
<path d="M9.09082 24.3606V28.3134" stroke="white" stroke-width="1.4"/>
<path d="M9.09082 24.3606V28.3134" stroke="white" stroke-width="1.4"/>
<path d="M12.6484 30.459V34.4118" stroke="white" stroke-width="1.4"/>
<path d="M12.6484 30.459V34.4118" stroke="white" stroke-width="1.4"/>
<path d="M12.6484 30.459V34.4118" stroke="white" stroke-width="1.4"/>
<path d="M12.6484 30.459V34.4118" stroke="white" stroke-width="1.4"/>
<path d="M12.6484 30.459V34.4118" stroke="white" stroke-width="1.4"/>
<path d="M18.7471 30.459V34.4118" stroke="white" stroke-width="1.4"/>
<path d="M18.7471 30.459V34.4118" stroke="white" stroke-width="1.4"/>
<path d="M18.7471 30.459V34.4118" stroke="white" stroke-width="1.4"/>
<path d="M18.7471 30.459V34.4118" stroke="white" stroke-width="1.4"/>
<path d="M18.7471 30.459V34.4118" stroke="white" stroke-width="1.4"/>
<path d="M25.6641 5.04919L22.869 7.84428" stroke="#3F4042" stroke-width="1.4"/>
<path d="M12.705 8.35246C12.7049 11.1475 14.4836 13.6885 15.5 14.7049C16.347 13.5191 18.041 10.8934 18.041 8.35246C18.041 5.81148 16.347 3.18579 15.5 2C14.5683 2.76229 12.705 5.1 12.705 8.35246Z" stroke="#3F4042" stroke-width="1.4"/>
</svg>
