<svg width="88" height="88" viewBox="0 0 88 88" fill="none" xmlns="http://www.w3.org/2000/svg">
<circle opacity="0.1" cx="44" cy="44" r="44" fill="#FAB70C"/>
<g clip-path="url(#clip0)">
<path d="M49.4189 53.6936C49.5913 53.1122 49.6992 52.4878 49.6992 51.8419C49.6992 48.3323 46.853 45.4902 43.3383 45.4902C39.8237 45.4902 36.9775 48.3323 36.9775 51.8419C36.9775 52.8323 37.2147 53.7797 37.6244 54.6194" fill="#FFB800"/>
<path d="M39.3271 51.3184C39.4757 49.3353 41.8872 47.4848 44.0113 48.396" stroke="white" stroke-width="1.4"/>
<path d="M43.3384 42.8626V35.9941" stroke="#FFB800" stroke-width="1.6" stroke-miterlimit="10" stroke-linecap="round" stroke-linejoin="round"/>
<path d="M46.4219 43.4004L47.7372 39.7832" stroke="#FFB800" stroke-width="1.6" stroke-miterlimit="10" stroke-linecap="round" stroke-linejoin="round"/>
<path d="M37.5599 44.9724L33.1396 39.6973" stroke="#FFB800" stroke-width="1.6" stroke-miterlimit="10" stroke-linecap="round" stroke-linejoin="round"/>
<path d="M40.2768 43.4004L38.9399 39.7832" stroke="#FFB800" stroke-width="1.6" stroke-miterlimit="10" stroke-linecap="round" stroke-linejoin="round"/>
<path d="M34.4981 50.2897L27.7061 49.084" stroke="#FFB800" stroke-width="1.6" stroke-miterlimit="10" stroke-linecap="round" stroke-linejoin="round"/>
<path d="M35.5545 47.3401L32.2124 45.4238" stroke="#FFB800" stroke-width="1.6" stroke-miterlimit="10" stroke-linecap="round" stroke-linejoin="round"/>
<path d="M52.2007 50.2897L58.9712 49.084" stroke="#FFB800" stroke-width="1.6" stroke-miterlimit="10" stroke-linecap="round" stroke-linejoin="round"/>
<path d="M49.1172 44.9724L53.559 39.6973" stroke="#FFB800" stroke-width="1.6" stroke-miterlimit="10" stroke-linecap="round" stroke-linejoin="round"/>
<path d="M51.1226 47.3401L54.4862 45.4238" stroke="#FFB800" stroke-width="1.6" stroke-miterlimit="10" stroke-linecap="round" stroke-linejoin="round"/>
<path d="M39.3066 60.2598H41.4844C43.5759 60.2598 45.6027 59.6354 47.3277 58.4727L48.9233 57.3961C49.182 57.2239 49.2683 56.8579 49.0958 56.5995C48.837 56.2119 48.5136 55.9535 48.1902 55.7598C47.4139 55.3076 46.4652 55.3507 45.6458 55.7382C42.6918 57.1808 40.0613 55.9535 40.0613 55.9535C39.1125 55.3507 38.1854 54.8985 37.3229 54.5325C33.6789 53.0468 29.5174 53.6067 26.3047 55.889" stroke="black" stroke-width="1.5" stroke-miterlimit="10" stroke-linecap="round" stroke-linejoin="round"/>
<path d="M26.3047 63.532C26.3047 63.532 31.2424 62.5847 39.8457 63.0583C42.1312 63.1875 44.3952 62.6708 46.4005 61.6158L59.5102 54.7043C59.7906 54.5535 59.8768 54.1875 59.6827 53.9291C59.2084 53.3263 58.1518 52.5081 56.0172 53.0679C55.78 53.1325 55.5428 53.2186 55.3056 53.3263L48.7077 56.1253" stroke="black" stroke-width="1.5" stroke-miterlimit="10" stroke-linecap="round" stroke-linejoin="round"/>
<path d="M21.3232 66.6755H26.1747V54.1875H21.3232" stroke="black" stroke-width="1.5" stroke-miterlimit="10" stroke-linecap="round" stroke-linejoin="round"/>
<path d="M21.5 54.5V66.5" stroke="black" stroke-width="1.5"/>
<path d="M66 22V35.5" stroke="black" stroke-width="1.5"/>
<path d="M47.6724 28.7383H45.4946C43.4031 28.7383 41.3763 29.3627 39.6513 30.5254L38.0557 31.6019C37.797 31.7742 37.7107 32.1402 37.8832 32.3986C38.1419 32.7861 38.4654 33.0445 38.7888 33.2383C39.565 33.6904 40.5138 33.6474 41.3331 33.2598C44.2871 31.8172 46.9177 33.0445 46.9177 33.0445C47.8664 33.6474 48.7936 34.0995 49.6561 34.4656C53.3001 35.9512 57.4615 35.3914 60.6743 33.1091" stroke="black" stroke-width="1.5" stroke-miterlimit="10" stroke-linecap="round" stroke-linejoin="round"/>
<path d="M60.6957 25.4668C60.6957 25.4668 55.758 26.4142 47.1547 25.9405C44.8691 25.8113 42.6051 26.328 40.5999 27.3831L27.4686 34.2945C27.1883 34.4453 27.102 34.8113 27.2961 35.0697C27.7704 35.6725 28.827 36.4907 30.9616 35.9309C31.1988 35.8663 31.436 35.7802 31.6732 35.6725L38.2712 32.8735" stroke="black" stroke-width="1.5" stroke-miterlimit="10" stroke-linecap="round" stroke-linejoin="round"/>
<path d="M65.6767 22.3223H60.8252V34.8103H65.6767" stroke="black" stroke-width="1.5" stroke-miterlimit="10" stroke-linecap="round" stroke-linejoin="round"/>
</g>
<defs>
<clipPath id="clip0">
<rect width="47" height="45" fill="white" transform="translate(21 22)"/>
</clipPath>
</defs>
</svg>
