<svg width="88" height="88" viewBox="0 0 88 88" fill="none" xmlns="http://www.w3.org/2000/svg">
<circle opacity="0.1" cx="44" cy="44" r="44" fill="#FF6161"/>
<g clip-path="url(#clip0)">
<path d="M33.7323 44C33.2115 44 32.6907 43.9235 32.2196 43.745C32.046 43.694 31.8972 43.6175 31.7236 43.5664C31.1781 43.3369 30.6325 43.2349 30.0374 43.2349C29.4422 43.2349 28.8718 43.3624 28.3015 43.5664C28.1527 43.6175 28.0039 43.694 27.8551 43.745C27.3592 43.9235 26.8384 44 26.3176 44C24.9042 44 23.5651 43.3624 22.6475 42.2658C20.0933 39.2054 19.275 35.7369 19.0518 33.3396C18.903 31.7074 19.0766 30.1772 19.5478 28.8C20.4653 26.2242 22.1268 25 24.7554 25C25.9705 25 27.136 25.2805 27.9047 25.5101C28.5743 25.7141 29.2934 25.8161 29.9878 25.8161C30.7069 25.8161 31.4012 25.7141 32.0708 25.5101C32.8395 25.2805 33.9802 25 35.2201 25C37.8487 25 39.5102 26.1987 40.4277 28.8C40.9237 30.1772 41.0973 31.6819 40.9485 33.3141C40.7253 35.6859 39.9318 39.1799 37.3776 42.2148C36.4848 43.3369 35.1458 44 33.7323 44Z" fill="#FF6161"/>
<path d="M34 29C35.9511 29.3846 37.5 32 36.3413 34" stroke="white" stroke-width="1.4"/>
<path d="M30.7148 43.5049C30.8795 43.5666 31.0442 43.6282 31.2089 43.6899C33.4943 44.4707 35.9855 43.7515 37.5503 41.9227C40.0004 39.0871 40.7416 35.8405 40.9475 33.724C41.0916 32.224 40.9475 30.6829 40.4122 29.2651C38.4974 24.0665 33.5355 24.8062 31.2089 25.4843C30.4059 25.7103 29.5618 25.7103 28.7794 25.4843C26.4735 24.8062 21.5115 24.0459 19.5762 29.2651C19.0614 30.7035 18.8967 32.224 19.0614 33.7446C19.2673 35.8816 20.0085 39.1076 22.4792 41.9433C24.044 43.7515 26.5558 44.4501 28.8206 43.6693C28.9647 43.6077 29.1294 43.5666 29.2736 43.5049C29.7265 43.32 30.2412 43.32 30.7148 43.5049Z" stroke="black" stroke-width="1.6" stroke-miterlimit="10" stroke-linecap="round" stroke-linejoin="round"/>
<path d="M30.4082 25.752L30.4426 18.0028" stroke="black" stroke-width="1.6"/>
<path d="M25.1672 25.3497C23.3413 24.3459 22.3077 22.2483 22.0017 21.2062C23.0746 21.0677 25.3864 20.8822 27.0464 21.7947C28.7064 22.7073 29.8251 24.7789 30.3014 25.769C29.4753 26.1159 27.292 26.5178 25.1672 25.3497Z" stroke="black" stroke-width="1.6"/>
<path d="M52.3834 68.6611C53.9446 68.5472 55.1203 67.1559 55.0093 65.5535C54.8984 63.9511 53.5428 62.7444 51.9816 62.8583C50.4204 62.9721 49.2447 64.3635 49.3557 65.9659C49.4666 67.5683 50.8222 68.775 52.3834 68.6611Z" fill="#FF6161"/>
<path d="M39.8646 67.8145C40.9713 66.6786 40.9713 64.837 39.8646 63.7011C38.7579 62.5652 36.9636 62.5652 35.8569 63.7011C34.7502 64.837 34.7502 66.6786 35.8569 67.8146C36.9636 68.9505 38.7579 68.9505 39.8646 67.8145Z" fill="#FF6161"/>
<path d="M42.4818 35.002H44.8103H63.9995L57.7625 55.458C57.118 57.5889 55.2885 59.002 53.2095 59.002H33.9995" stroke="black" stroke-width="1.6" stroke-miterlimit="10" stroke-linecap="round" stroke-linejoin="round"/>
<path d="M52.9995 53.002H31.7032L29.9995 48.002" stroke="black" stroke-width="1.6" stroke-miterlimit="10" stroke-linecap="round" stroke-linejoin="round"/>
<path d="M72.9995 28.002H68.5193C67.1317 28.002 65.8828 29.0328 65.3872 30.615L63.9995 35.002" stroke="black" stroke-width="1.6" stroke-miterlimit="10" stroke-linecap="round" stroke-linejoin="round"/>
</g>
<defs>
<clipPath id="clip0">
<rect width="53" height="53" fill="white" transform="translate(18 18)"/>
</clipPath>
</defs>
</svg>
