<svg width="88" height="88" viewBox="0 0 88 88" fill="none" xmlns="http://www.w3.org/2000/svg">
<circle opacity="0.1" cx="44" cy="44" r="44" fill="#95CFE0"/>
<g clip-path="url(#clip0)">
<path d="M45.3478 64.8742C45.656 65.0036 45.9864 65.1115 46.2946 65.2193C50.5886 66.643 55.3009 65.3272 58.2736 61.9405C62.8979 56.6772 64.3072 50.6804 64.6815 46.7329C64.9458 43.9287 64.6815 41.1028 63.6906 38.4712C60.0573 28.8073 50.6767 30.2094 46.3167 31.4606C44.8193 31.892 43.2118 31.892 41.7144 31.4606C37.3324 30.2094 27.9518 28.8073 24.3184 38.4712C23.3275 41.1244 23.0413 43.9718 23.3275 46.776C23.7239 50.7236 25.1332 56.7203 29.7795 61.9837C32.7522 65.3487 37.4645 66.6214 41.7585 65.1978C42.0447 65.1115 42.331 65.0036 42.6173 64.8958C43.4981 64.5506 44.467 64.529 45.3478 64.8742Z" stroke="black" stroke-width="1.6" stroke-miterlimit="10" stroke-linecap="round" stroke-linejoin="round"/>
<path d="M41.9106 30.5711C41.3414 27.87 41.1593 23.941 43.7093 20.7487L46.1682 21.7979C46.1682 21.7979 43.1173 26.4189 45.599 30.214C45.599 30.214 49.6745 16.8644 62.3334 20.1683C62.3334 20.1683 62.3562 24.9009 58.1214 27.9816C57.3017 28.5843 54.6839 30.147 53.5 30.5711" stroke="black" stroke-width="1.6" stroke-miterlimit="10" stroke-linecap="round" stroke-linejoin="round"/>
<path d="M43.9806 59.7146C42.6782 58.1967 41.1015 56.9357 39.662 55.7448C39.4335 55.558 39.1822 55.3478 38.9537 55.161L38.4967 54.7874C36.4174 53.0827 34.4523 51.4714 33.127 49.3931C31.7332 47.2214 30.3223 43.8354 31.1678 42.1074C31.9447 40.5195 35.0007 37.8574 36.9658 37.8574L39.662 38.4646C41.2615 38.4879 41.4925 39.3052 43.3891 41.5003L43.9806 42.1074L45.8335 40.286C47.73 38.0909 50.3451 38.4879 51.9446 38.4646L54.8798 39.0717C56.822 39.0717 56.0566 41.7338 56.8335 43.3217C57.6789 45.0497 56.2508 47.2214 54.8798 49.3931C53.5546 51.4481 51.5895 53.0593 49.5102 54.764L49.0532 55.1376C48.8247 55.3245 48.5962 55.5113 48.3449 55.7214C46.8368 56.9357 45.283 58.1967 43.9806 59.7146Z" fill="#95CFE0"/>
<path d="M50.0005 42C51.9516 42.3846 53.5005 45 52.3418 47" stroke="white" stroke-width="1.4"/>
<path d="M44.0006 60.9288C42.7301 58.4847 40.2106 56.6409 38.0572 54.9257C35.9039 53.2105 33.6859 51.4953 32.157 49.2013C30.6496 46.9072 29.9605 43.8628 31.1879 41.3972C32.3077 39.146 34.8918 37.7953 37.4112 37.8596C39.9307 37.9025 42.321 39.8535 44.0006 41.7402C45.6587 39.8535 48.0705 37.9239 50.59 37.8596C53.1094 37.8167 55.6935 39.146 56.8133 41.3972C58.0407 43.8628 57.3516 46.9072 55.8442 49.2013C54.3369 51.4953 52.0973 53.2105 49.944 54.9257C47.7906 56.6409 45.2496 58.4847 44.0006 60.9288Z" stroke="black" stroke-width="1.6" stroke-miterlimit="10" stroke-linecap="round" stroke-linejoin="round"/>
</g>
<defs>
<clipPath id="clip0">
<rect width="53" height="53" fill="white" transform="translate(18 18)"/>
</clipPath>
</defs>
</svg>
