<svg width="73" height="28" viewBox="0 0 73 28" fill="none" xmlns="http://www.w3.org/2000/svg">
<g clip-path="url(#clip0)">
<path d="M17.1831 9.18122L17.3182 8.80093L17.4533 8.4967L17.5434 8.31199V8.22507H22.1939L23.0609 10.3003H26.3714L21.6872 0H18.1177L17.5434 1.24951L17.4759 1.44509L17.3182 1.74932L17.1831 2.06442L13.3997 10.3003H16.6989L17.1831 9.18122ZM19.9193 2.66201L21.4732 6.42142H18.3316L19.9193 2.66201Z" fill="#4F742E"/>
<path d="M37.8343 10.3004L36.7083 8.07302C36.4736 7.52857 36.1831 7.00808 35.8413 6.51927C35.5991 6.24512 35.3096 6.01352 34.9855 5.83475C35.1848 5.71159 35.3766 5.57736 35.5598 5.43274L35.7625 5.31322C36.0343 5.09639 36.2599 4.83071 36.4268 4.53091C36.6345 4.13759 36.7389 3.70105 36.7308 3.25967C36.7209 2.77103 36.5937 2.29126 36.3593 1.85804C36.0966 1.31399 35.6736 0.856704 35.1431 0.543331C35.0128 0.459624 34.873 0.390373 34.7265 0.33689L34.3549 0.206505C33.9037 0.0672584 33.4324 -0.0024121 32.9587 6.37349e-05H27.4749V10.3004H30.7066V6.2911H31.067C31.373 6.28021 31.6785 6.32442 31.9678 6.42148C32.2577 6.55186 32.5064 6.75437 32.6884 7.00821C33.0247 7.46401 33.3044 7.95632 33.5217 8.47503L34.3549 10.2895H37.8343V10.3004ZM33.4429 3.25967C33.4682 3.44151 33.4418 3.62659 33.3664 3.79503C33.291 3.96348 33.1695 4.10895 33.015 4.21582C32.5024 4.4207 31.9461 4.50272 31.3935 4.45486H30.7066V1.98842H31.3822C31.6876 1.9852 31.9928 2.00701 32.2943 2.05361C32.5274 2.08735 32.7524 2.16094 32.9587 2.27092C33.121 2.37877 33.2512 2.52585 33.3361 2.69745C33.4211 2.86906 33.4579 3.05917 33.4429 3.2488V3.25967Z" fill="#4F742E"/>
<path d="M59.6454 8.23593H54.7922V5.75863H59.2963V3.69422H54.7922V2.08615H59.499V0.0217307H51.8984V0H51.538V10.3003H59.6454V8.23593Z" fill="#4F742E"/>
<path d="M9.23338 10.3003H12.4538V0.0108653H9.53741L6.23816 3.87893L2.95018 0.0108653H0.371587V0H0V10.3003H3.15286V4.34614L6.06926 7.79045H6.31698L9.23338 4.34614V10.3003Z" fill="#4F742E"/>
<path d="M69.0815 0H68.7099V0.0217307H61.9425V2.52076H65.861V10.3003H69.0815V2.52076H73V0.0108653H69.0815V0Z" fill="#4F742E"/>
<path d="M50.7611 10.3005L46.1331 4.8352L50.1192 0.0109863H46.6173L42.7438 4.61789V0.0109863H39.5121V9.52903V10.3005H40.2665H42.7438L42.5749 5.26981L46.6623 10.2896L50.7611 10.3005Z" fill="#4F742E"/>
<path d="M28.7135 28.0001C29.8653 28.031 31.007 27.7845 32.0353 27.2829C32.8982 26.8485 33.6106 26.18 34.0847 25.3598C34.5479 24.548 34.7882 23.6353 34.7828 22.7086C34.7873 22.0027 34.6536 21.3023 34.3887 20.6442C34.1409 20.0124 33.7571 19.4384 33.2627 18.9601C32.7148 18.4669 32.0613 18.096 31.3484 17.8736C30.5004 17.5792 29.6032 17.4392 28.7023 17.4607C27.5308 17.4128 26.3667 17.66 25.3242 18.1778C24.4601 18.6206 23.7481 19.2963 23.2749 20.1227C22.8432 20.9252 22.6155 21.8153 22.6105 22.7195C22.6138 23.6204 22.8417 24.5073 23.2749 25.3055C23.7442 26.1374 24.4569 26.8176 25.3242 27.2612C26.3679 27.7884 27.5363 28.0431 28.7135 28.0001ZM25.9548 22.198C26.0439 21.6802 26.2908 21.1998 26.6642 20.8181C26.9359 20.5709 27.2563 20.3791 27.6065 20.254C27.9567 20.129 28.3293 20.0732 28.7023 20.0901C29.1087 20.0896 29.5123 20.1558 29.8959 20.2857C30.2233 20.4132 30.5217 20.6015 30.7742 20.8398C31.0086 21.0762 31.1889 21.3576 31.3034 21.6656C31.5862 22.4632 31.5378 23.3355 31.1683 24.0994C30.9495 24.4935 30.617 24.8181 30.2112 25.0338C29.7484 25.2636 29.2339 25.3794 28.7135 25.3706C28.1683 25.3631 27.6368 25.2047 27.1822 24.9143C26.72 24.6305 26.3585 24.2173 26.1462 23.73C25.9315 23.2476 25.8651 22.7158 25.9548 22.198Z" fill="#4F742E"/>
<path d="M47.1353 27.359L47.7208 27.1526V22.198H43.4757V24.2733H44.9283V25.4685C44.4962 25.5668 44.0547 25.6214 43.6108 25.6315C42.974 25.646 42.3434 25.5079 41.7754 25.2294C41.2999 24.9789 40.9091 24.6017 40.6494 24.1429C40.3978 23.7004 40.2698 23.2024 40.2778 22.6978C40.2625 22.243 40.3509 21.7905 40.5368 21.3722C40.7765 20.8664 41.169 20.4422 41.6628 20.1553C42.3489 19.7845 43.1294 19.6075 43.9149 19.6446C44.6014 19.6257 45.2865 19.7175 45.9417 19.9163C46.475 20.102 46.9911 20.331 47.4844 20.6008V18.1778C46.7524 17.9605 46.0768 17.7758 45.4688 17.6454C44.7018 17.4955 43.9203 17.4263 43.1379 17.439C42.6145 17.4387 42.0917 17.4714 41.5727 17.5368C41.0701 17.6032 40.5782 17.731 40.1089 17.9171C39.5851 18.1283 39.0928 18.406 38.6451 18.7428C38.0484 19.1963 37.5959 19.8025 37.3389 20.4921C37.0616 21.1857 36.9166 21.9219 36.911 22.6652C36.8684 23.7079 37.155 24.7386 37.733 25.6206C38.2822 26.4184 39.0667 27.0391 39.985 27.4025C40.9336 27.7843 41.9525 27.9765 42.9803 27.9675C43.4959 27.9714 44.0112 27.9423 44.5229 27.8806C45.0152 27.8283 45.504 27.7485 45.9867 27.6415L46.6398 27.4786L47.1353 27.359Z" fill="#4F742E"/>
<path d="M52.2812 27.1634C53.3231 27.6461 54.4641 27.8967 55.6199 27.8967C56.7756 27.8967 57.9166 27.6461 58.9585 27.1634C59.8268 26.7323 60.5437 26.0632 61.0191 25.2402C61.4813 24.4324 61.718 23.5226 61.706 22.5999C61.7015 21.9311 61.5718 21.2685 61.3232 20.6442C61.0747 20.0126 60.691 19.4388 60.1971 18.9601C59.6571 18.4498 59.0075 18.0603 58.2942 17.8192C57.448 17.5162 56.5504 17.3688 55.648 17.3846C54.4768 17.3397 53.3134 17.5867 52.2699 18.1017C51.9882 18.2527 51.7207 18.4272 51.4705 18.6232L51.2678 18.7862L51.1214 18.9057C51.0445 18.9729 50.973 19.0455 50.9075 19.123C50.6473 19.3992 50.4241 19.7058 50.2431 20.0357C49.7957 20.8312 49.5613 21.722 49.5613 22.6271C49.5613 23.5322 49.7957 24.423 50.2431 25.2185C50.4203 25.5446 50.6398 25.8476 50.8962 26.1203L51.3691 26.5549C51.647 26.792 51.9532 26.9963 52.2812 27.1634ZM52.8667 22.5999C52.8454 22.2491 52.8991 21.8977 53.0244 21.5677C53.1569 21.2313 53.3645 20.9272 53.6324 20.6768C53.893 20.4247 54.2084 20.2317 54.5558 20.1118C54.9155 19.9842 55.3002 19.9359 55.6818 19.9705C56.0886 19.9658 56.493 20.0321 56.8754 20.1661C57.2052 20.2894 57.5044 20.4782 57.7537 20.7202C57.9903 20.955 58.1709 21.2369 58.2829 21.546C58.4063 21.8957 58.4672 22.2631 58.4631 22.6325C58.473 23.1079 58.3608 23.5782 58.1365 24.0016C57.9218 24.395 57.5932 24.7196 57.1907 24.936C56.7244 25.1671 56.2059 25.2829 55.6818 25.2728C55.2994 25.3036 54.9147 25.2516 54.5558 25.1207C54.2084 25.0008 53.893 24.8078 53.6324 24.5557C53.3668 24.3099 53.1626 24.0089 53.0356 23.6756C52.8958 23.3302 52.838 22.9589 52.8667 22.5891V22.5999Z" fill="#4F742E"/>
<path d="M15.2126 27.7935H18.433V20.0031H22.3515V17.504H20.7413V17.4932H11.294V20.0031H15.2126V27.7935Z" fill="#4F742E"/>
</g>
<defs>
<clipPath id="clip0">
<rect width="73" height="28" fill="white"/>
</clipPath>
</defs>
</svg>
