<svg width="100" height="118" viewBox="0 0 100 118" fill="none" xmlns="http://www.w3.org/2000/svg">
<g clip-path="url(#clip0)">
<path d="M70.617 112.84C70.617 113.863 70.9211 114.862 71.4907 115.712C72.0604 116.562 72.87 117.224 73.8173 117.615C74.7646 118.007 75.807 118.109 76.8126 117.91C77.8183 117.71 78.742 117.218 79.467 116.495C80.192 115.772 80.6858 114.851 80.8858 113.849C81.0859 112.846 80.9832 111.807 80.5908 110.862C80.1984 109.918 79.534 109.111 78.6814 108.543C77.8289 107.975 76.8266 107.672 75.8012 107.672C74.4263 107.672 73.1077 108.216 72.1355 109.186C71.1632 110.155 70.617 111.47 70.617 112.84Z" fill="#4E742C"/>
<path d="M19.0148 112.84C19.0166 113.863 19.3223 114.861 19.8934 115.71C20.4645 116.559 21.2753 117.22 22.2233 117.61C23.1713 117.999 24.2138 118.1 25.2191 117.899C26.2244 117.698 27.1473 117.204 27.8711 116.48C28.5948 115.756 29.087 114.834 29.2853 113.831C29.4836 112.828 29.3792 111.789 28.9852 110.845C28.5912 109.902 27.9253 109.095 27.0718 108.529C26.2183 107.963 25.2155 107.661 24.1901 107.663C23.5093 107.664 22.8354 107.799 22.2069 108.06C21.5784 108.321 21.0075 108.702 20.5269 109.183C20.0464 109.664 19.6655 110.234 19.406 110.862C19.1466 111.489 19.0136 112.162 19.0148 112.84Z" fill="#4E742C"/>
<path d="M97.1831 33.5578H65.6053C65.4819 33.0174 65.2178 32.519 64.8396 32.113L42.3052 7.95185C41.914 7.5316 41.4157 7.22514 40.8635 7.06517C40.3113 6.90521 39.7258 6.89774 39.1696 7.04357C38.6135 7.1894 38.1075 7.48306 37.7056 7.8932C37.3038 8.30334 37.0212 8.81456 36.888 9.37231L34.0895 2.04212C33.941 1.65321 33.7172 1.29726 33.4307 0.994608C33.1442 0.691954 32.8008 0.448516 32.4199 0.278194C31.6508 -0.0657868 30.7761 -0.0910693 29.9883 0.207908C29.2005 0.506886 28.5641 1.10563 28.219 1.87243C27.874 2.63923 27.8487 3.51127 28.1485 4.29671L39.3181 33.5578H2.81567C2.08771 33.5628 1.39002 33.8488 0.869152 34.3558C0.348282 34.8629 0.0447675 35.5514 0.0223612 36.2769C-4.50779e-05 37.0023 0.260401 37.7082 0.748992 38.2462C1.23758 38.7842 1.9163 39.1125 2.64257 39.1622H2.81123V97.5426C2.81475 99.0673 3.42379 100.528 4.50513 101.607C5.58647 102.685 7.05207 103.292 8.58131 103.295H90.2768C91.806 103.292 93.2716 102.685 94.353 101.607C95.4343 100.528 96.0434 99.0673 96.0469 97.5426L95.8183 39.1622H97.3562C98.0892 39.1213 98.7771 38.7965 99.2732 38.257C99.7693 37.7176 100.034 37.0062 100.012 36.2747C99.9892 35.5432 99.6807 34.8494 99.1523 34.3414C98.6239 33.8334 97.9172 33.5514 97.1831 33.5555V33.5578ZM80.0615 39.1622H95.4898L95.5564 55.4488H80.0615V39.1622ZM95.5564 55.774L95.6208 71.5318H80.0615V61.4846H83.5413V59.1836H80.0615V55.7762L95.5564 55.774ZM79.7353 55.4488H64.8019V39.1622H79.7309L79.7353 55.4488ZM38.3172 8.32135C38.7677 7.90434 39.3603 7.67342 39.975 7.67528H40.066C40.3861 7.68575 40.701 7.75939 40.9924 7.89193C41.2838 8.02447 41.546 8.21329 41.7637 8.44746L64.2981 32.6086C64.5167 32.8425 64.6869 33.117 64.7991 33.4165C64.9112 33.716 64.9631 34.0346 64.9518 34.354C64.9405 34.6735 64.8661 34.9876 64.733 35.2785C64.5999 35.5693 64.4107 35.8312 64.176 36.0491C63.9414 36.267 63.6661 36.4367 63.3657 36.5485C63.0653 36.6604 62.7457 36.7121 62.4253 36.7008C62.1048 36.6895 61.7898 36.6154 61.498 36.4827C61.2063 36.35 60.9437 36.1613 60.7251 35.9274L38.1907 11.7663C37.7504 11.2935 37.5164 10.6658 37.5401 10.021C37.5638 9.3763 37.8433 8.76734 38.3172 8.32799V8.32135ZM49.5489 68.6511H52.3074L51.3465 66.5978C51.1298 66.0773 50.8582 65.5811 50.5365 65.1176C50.3238 64.8635 50.0666 64.6498 49.7775 64.4871C50.0185 64.3602 50.2499 64.216 50.4699 64.0556C50.7147 63.8597 50.9145 63.6138 51.0558 63.3343C51.252 62.9609 51.3476 62.5431 51.3332 62.1218C51.3222 61.6704 51.2092 61.2272 51.0025 60.8253C50.7566 60.344 50.3798 59.9414 49.9151 59.6637C49.798 59.5911 49.6756 59.5275 49.5489 59.4734V55.7785H64.4779V71.5363H49.5489V68.6511ZM46.0358 33.5578C46.0031 33.3248 45.9443 33.0962 45.8605 32.8763L38.2329 12.8947L57.5027 33.5578H46.0358ZM64.4779 55.4621H49.5489V39.1622H64.4779V55.4621ZM28.8498 4.03563C28.7098 3.66841 28.6609 3.27284 28.7075 2.88272C28.7541 2.4926 28.8947 2.11952 29.1174 1.79536C29.34 1.4712 29.6381 1.2056 29.9861 1.02124C30.3341 0.83689 30.7216 0.739264 31.1157 0.736709C31.6108 0.736163 32.0943 0.885695 32.5022 1.16547C32.91 1.44524 33.2229 1.84203 33.3993 2.3032L45.1614 33.1374C45.3037 33.4405 45.3818 33.7695 45.3907 34.104C45.3997 34.4386 45.3394 34.7713 45.2135 35.0816C45.0877 35.3918 44.899 35.6728 44.6593 35.9071C44.4197 36.1413 44.1341 36.3238 43.8205 36.4431C43.5069 36.5623 43.172 36.6158 42.8367 36.6002C42.5014 36.5846 42.1729 36.5003 41.8718 36.3524C41.5707 36.2046 41.3034 35.9964 41.0866 35.7409C40.8699 35.4855 40.7083 35.1881 40.6119 34.8676L28.8498 4.03563ZM34.2937 39.1622H49.2227V55.4488H34.2937V39.1622ZM19.0385 39.1622H33.9675V55.4488H19.0385V39.1622ZM33.9652 55.774V61.0842L30.6053 68.66H33.5369L33.9652 67.6156V71.5429H19.0385V68.6666H21.5107V63.1662L24.1006 66.3412H24.3225L26.9058 63.1662V68.6511H29.7686V59.1836H27.1787L24.2449 62.7347L21.3265 59.1836H19.0385V55.7762L33.9652 55.774ZM18.71 102.974H8.58797C7.14335 102.973 5.75824 102.401 4.73675 101.382C3.71525 100.364 3.14086 98.9829 3.13968 97.5426V87.9446H18.71V102.974ZM18.71 87.6171H3.13968V71.8615H18.71V87.6171ZM18.71 71.5341H3.13968V55.7785H18.71V71.5341ZM18.71 55.451H3.13968V39.1622H18.71V55.451ZM33.9652 102.974H19.0363V87.9446H33.9652V102.974ZM19.0385 87.6171V71.8615H33.9652V75.3485H25.9093V77.6606H29.3891V84.8271H32.2475V77.6606H33.9652V87.6171H19.0385ZM49.2204 102.974H34.2937V87.9446H49.2227L49.2204 102.974ZM49.2204 87.6171H34.2937V77.6606H35.7295V75.3596H34.2959V71.8615H49.2227L49.2204 87.6171ZM34.2915 71.5341V66.8191L34.3225 66.7417H38.4481L39.2227 68.6622H42.1654L37.971 59.1836H34.8041L34.2937 60.3363V55.7762H49.2227V59.3562C48.8207 59.2379 48.4034 59.1797 47.9843 59.1836H43.113V68.6511H45.9759V64.9561H46.2977C46.5712 64.9475 46.8441 64.988 47.1033 65.0756C47.3622 65.1964 47.5832 65.3854 47.7424 65.6221C48.0383 66.0428 48.2869 66.4947 48.4837 66.9696L49.2227 68.6334V71.5341H34.2915ZM34.995 65.0845L36.3953 61.6284L37.7846 65.0845H34.995ZM48.4149 62.1727C48.4149 62.6152 48.2861 62.8985 48.0287 63.0578C47.7713 63.2171 47.2919 63.279 46.5928 63.279H45.9759V61.0001H46.5795C47.2276 61.0001 47.6958 61.0871 47.9843 61.2612C48.2728 61.4352 48.4163 61.7398 48.4149 62.1749V62.1727ZM64.4779 102.974H49.5489V87.9446H64.4779V102.974ZM49.5489 87.6171V71.8615H64.4779V76.8508C64.2467 77.1043 64.0476 77.3852 63.8853 77.6872C63.4975 78.4231 63.2949 79.2421 63.2949 80.0734C63.2949 80.9048 63.4975 81.7237 63.8853 82.4597C64.0459 82.761 64.2434 83.0412 64.4734 83.2938V87.6171H49.5489ZM79.7309 102.974H64.8019V87.9446H79.7309V102.974ZM79.7309 87.6171H64.8019V83.619C65.0735 83.8631 65.3712 84.0768 65.6896 84.2562C66.6077 84.7353 67.6343 84.9701 68.6701 84.9377C69.6942 84.9668 70.7092 84.7385 71.6217 84.274C72.3909 83.8745 73.0258 83.2592 73.4481 82.5039C73.8571 81.758 74.068 80.9202 74.0606 80.0701C74.0638 79.4341 73.9479 78.803 73.7189 78.2093C73.496 77.6282 73.1527 77.1005 72.7113 76.6606C72.2284 76.1918 71.6502 75.8319 71.0158 75.6052C70.2675 75.3403 69.4773 75.2122 68.6834 75.2268C67.6449 75.1889 66.6141 75.4175 65.6896 75.8906C65.3713 76.0675 65.0735 76.279 64.8019 76.5212V71.8615H79.7309V87.6171ZM66.2111 80.0745C66.1883 79.7468 66.2368 79.418 66.3531 79.1106C66.4695 78.8032 66.651 78.5245 66.8853 78.2934C67.1195 78.0624 67.4011 77.8845 67.7106 77.7718C68.0202 77.6592 68.3505 77.6145 68.6789 77.6407C69.0409 77.6335 69.4009 77.695 69.7397 77.8221C70.0317 77.9345 70.297 78.1063 70.5187 78.3266C70.7311 78.5443 70.8931 78.8055 70.9936 79.0921C71.1014 79.4053 71.1547 79.7346 71.1512 80.0657C71.1599 80.5033 71.0608 80.9363 70.8627 81.3268C70.674 81.6905 70.3813 81.99 70.0216 82.1875C69.6081 82.4038 69.1457 82.5105 68.6789 82.4973C68.3508 82.522 68.0212 82.4763 67.7123 82.3631C67.4034 82.2499 67.1225 82.0719 66.8886 81.8412C66.6546 81.6105 66.4731 81.3324 66.3562 81.0257C66.2393 80.719 66.1898 80.3908 66.2111 80.0635V80.0745ZM64.8019 71.5341V68.6577H71.6816V66.7527H67.374V64.4738H71.3687V62.5688H67.374V61.0886H71.5529V59.1902H64.8019V55.7829H79.7309V59.1902H73.7233V61.4913H77.2031V68.6577H79.7353V71.5341H64.8019ZM90.2724 102.974H80.0638V87.9446H95.6496V87.6171H80.0615V71.8615H95.6208L95.7229 97.5426C95.7217 98.9825 95.1476 100.363 94.1266 101.381C93.1056 102.4 91.721 102.973 90.2768 102.974" fill="#4F742E"/>
<path d="M63.2181 59.1836H60.1067L56.6668 63.4184V59.1836H53.804V68.6511H56.6668V64.2171L60.2975 68.6511H63.7929L59.6806 63.6153L63.2181 59.1836Z" fill="#4F742E"/>
<path d="M38.3935 84.2563C39.3116 84.7354 40.3382 84.9701 41.374 84.9377C42.3982 84.9671 43.4133 84.7388 44.3256 84.274C45.0954 83.8754 45.7306 83.2598 46.1521 82.5039C46.5617 81.7582 46.7734 80.9204 46.7668 80.0701C46.7692 79.4339 46.6525 78.8029 46.4228 78.2094C46.1999 77.6282 45.8566 77.1005 45.4153 76.6606C44.9333 76.1907 44.3548 75.8306 43.7198 75.6052C42.9651 75.338 42.168 75.2098 41.3673 75.2268C40.3356 75.1926 39.3121 75.421 38.3935 75.8906C37.6267 76.2971 36.9969 76.9196 36.5826 77.6806C36.1942 78.4164 35.9913 79.2353 35.9913 80.0668C35.9913 80.8983 36.1942 81.7172 36.5826 82.453C36.9981 83.2155 37.6284 83.84 38.3957 84.2496L38.3935 84.2563ZM39.5586 78.3244C39.7981 78.0957 40.0823 77.9186 40.3935 77.8044C40.7048 77.6902 41.0363 77.6413 41.3673 77.6606C41.7293 77.6534 42.0893 77.715 42.4281 77.8421C42.7208 77.9542 42.9863 78.1269 43.2071 78.3487C43.4199 78.5652 43.582 78.8259 43.682 79.1121C43.7898 79.4253 43.8431 79.7545 43.8396 80.0856C43.848 80.5229 43.7497 80.9557 43.5533 81.3468C43.3637 81.7105 43.0703 82.01 42.71 82.2074C42.3002 82.4229 41.8416 82.5296 41.3784 82.5172C40.8931 82.5132 40.4194 82.3688 40.0149 82.1014C39.6104 81.8341 39.2924 81.4554 39.0997 81.0113C38.907 80.5673 38.8477 80.077 38.9292 79.6C39.0107 79.123 39.2293 78.6799 39.5586 78.3244Z" fill="#4F742E"/>
<path d="M57.8719 81.5038H59.159V82.6101C58.7774 82.7021 58.3865 82.7504 57.9939 82.7539C57.4265 82.7698 56.8641 82.6435 56.3583 82.3866C55.9328 82.169 55.5803 81.8322 55.3441 81.4176C55.1181 81.0117 55.0019 80.5542 55.0068 80.09C55.0132 79.655 55.1131 79.2265 55.2997 78.8333C55.5244 78.3659 55.8847 77.9767 56.3339 77.7159C56.9369 77.3764 57.624 77.2138 58.3157 77.2469C58.9243 77.2302 59.5313 77.3162 60.1111 77.5013C60.5855 77.6659 61.0426 77.8764 61.476 78.1297V75.9016C60.8279 75.6959 60.2309 75.5321 59.6872 75.406C59.0069 75.2671 58.3132 75.204 57.6189 75.218C57.1536 75.2159 56.6887 75.2455 56.2274 75.3065C55.7845 75.3726 55.3509 75.4906 54.9358 75.6583C54.4669 75.8492 54.0276 76.1055 53.6309 76.4194C53.1001 76.8344 52.6978 77.3904 52.4702 78.0235C52.2183 78.6735 52.0889 79.3644 52.0885 80.0613C52.0548 81.0199 52.3091 81.9668 52.8186 82.7805C53.2965 83.5068 53.9801 84.0751 54.7827 84.4134C55.625 84.7682 56.5313 84.9474 57.4458 84.9399C57.9019 84.9402 58.3576 84.9136 58.8106 84.8603C59.2478 84.81 59.6819 84.7361 60.1111 84.639C60.3663 84.5771 60.555 84.524 60.6948 84.4842L61.1164 84.347C61.2629 84.2961 61.4404 84.2319 61.6446 84.1545V79.5966H57.8719V81.5038Z" fill="#4F742E"/>
<path d="M64.7892 44.4392C63.056 43.24 61.6135 41.419 59.3875 41.1911C56.9464 40.9433 54.6494 42.043 52.7497 43.4192C51.862 44.0675 50.9743 44.7733 49.9379 45.1892C49.0902 45.53 47.8696 45.5322 47.2748 46.3088C45.6836 48.3819 49.1656 49.8489 50.3463 50.7516C52.4191 52.3247 53.4532 54.0704 56.2606 54.4421C58.7661 54.7762 61.2362 53.9819 63.4932 52.9641C65.3995 52.1057 67.7519 51.079 68.7883 49.1364C70.1332 46.6185 66.3849 45.5432 64.7937 44.4392" fill="#FAB70C"/>
<path d="M77.9805 49.2382C76.9489 49.8216 75.7836 50.1291 74.5976 50.1311C73.4116 50.133 72.2453 49.8292 71.2118 49.2493C70.6481 48.9329 69.3587 48.2182 70.4772 47.8155C72.0507 47.2469 73.8904 47.3155 75.4639 47.8354C76.386 48.1361 77.2407 48.6125 77.9805 49.2382Z" fill="#4E742C"/>
<path d="M71.4028 44.7091C70.6371 45.4746 69.9003 46.415 69.9114 47.4991C71.3965 47.0568 72.7749 46.3159 73.9616 45.322C74.7095 44.6958 75.6815 43.4723 75.9589 42.3284C74.4054 42.408 72.4081 43.709 71.405 44.7091" fill="#4E742C"/>
<path d="M53.5621 94.1398C53.1028 94.8035 53.1316 95.6664 53.2293 96.4674C53.4845 98.5494 55.3109 99.43 57.2239 99.4499C59.6762 99.4742 60.8369 97.9874 60.9079 96.1067C60.9834 94.0667 59.2834 92.883 58.318 92.6662C57.3526 92.4494 56.4516 92.3697 55.5062 92.6662C54.7155 92.9306 54.035 93.4488 53.571 94.1398" fill="#FAB70C"/>
<path d="M55.3751 94.7748C55.3447 94.8606 55.3396 94.9534 55.3604 95.042C55.3813 95.1306 55.4272 95.2114 55.4928 95.2748C55.5554 95.3259 55.6338 95.3537 55.7147 95.3537C55.7956 95.3537 55.874 95.3259 55.9366 95.2748C55.9787 95.2394 56.0132 95.1959 56.0379 95.1469C56.0627 95.0979 56.0773 95.0444 56.0809 94.9897C56.0844 94.9349 56.0768 94.88 56.0585 94.8282C56.0401 94.7765 56.0115 94.729 55.9743 94.6885C55.6392 94.3345 55.3818 94.7659 55.3818 94.7659" fill="#4E742C"/>
<path d="M58.3179 94.7748C58.2874 94.8606 58.2823 94.9534 58.3032 95.042C58.324 95.1306 58.3699 95.2114 58.4355 95.2748C58.4981 95.3259 58.5765 95.3537 58.6574 95.3537C58.7383 95.3537 58.8167 95.3259 58.8793 95.2748C58.9214 95.2394 58.9559 95.1959 58.9807 95.1469C59.0054 95.0979 59.02 95.0444 59.0236 94.9897C59.0271 94.9349 59.0195 94.88 59.0012 94.8282C58.9829 94.7765 58.9542 94.729 58.917 94.6885C58.5842 94.3345 58.3245 94.7659 58.3245 94.7659" fill="#4E742C"/>
<path d="M57.1128 97.5737C57.0214 97.5731 56.9301 97.5657 56.8398 97.5515C56.5356 97.4919 56.2473 97.3693 55.9935 97.1917C55.7396 97.0141 55.526 96.7854 55.3662 96.5205C55.3551 96.4993 55.3482 96.4761 55.3461 96.4523C55.344 96.4284 55.3466 96.4044 55.3538 96.3816C55.361 96.3588 55.3727 96.3376 55.3882 96.3193C55.4036 96.301 55.4226 96.2859 55.4439 96.2749C55.4873 96.2538 55.5373 96.2503 55.5832 96.2651C55.6292 96.28 55.6675 96.312 55.6902 96.3546C55.8235 96.5688 55.9991 96.7537 56.2062 96.8983C56.4134 97.0428 56.6478 97.1439 56.8953 97.1953C57.3944 97.243 57.8938 97.1077 58.3001 96.8148C58.5415 96.656 58.7471 96.4487 58.9037 96.2063C58.9318 96.1706 58.9722 96.1466 59.0171 96.1391C59.062 96.1317 59.1081 96.1412 59.1462 96.1659C59.1844 96.1907 59.2119 96.2287 59.2233 96.2727C59.2347 96.3166 59.2291 96.3632 59.2078 96.4032C59.0246 96.6869 58.7843 96.9295 58.502 97.1157C58.0934 97.3997 57.6107 97.5588 57.1128 97.5737Z" fill="#4E742C"/>
<path d="M5.75254 45.3729C5.08676 46.3176 5.14002 47.5456 5.27762 48.6917C5.63936 51.6521 8.23589 52.8956 10.9434 52.9332C14.4321 52.9686 16.0832 50.8534 16.1831 48.1784C16.2918 45.2777 13.875 43.594 12.5013 43.2842C11.1276 42.9744 9.8382 42.8638 8.50664 43.2842C7.38266 43.6598 6.41553 44.3968 5.75698 45.3795" fill="#FAB70C"/>
<path d="M8.32897 46.2777C8.28413 46.3994 8.276 46.5315 8.30558 46.6577C8.33516 46.7839 8.40115 46.8987 8.49541 46.988C8.58233 47.0595 8.69078 47.0998 8.80343 47.1026C8.91608 47.1055 9.02642 47.0705 9.11681 47.0035C9.17654 46.9528 9.22547 46.8908 9.2607 46.8209C9.29593 46.7511 9.31675 46.675 9.32193 46.597C9.3271 46.519 9.31652 46.4408 9.29082 46.3669C9.26511 46.2931 9.22481 46.2251 9.17229 46.1671C8.69737 45.6626 8.32897 46.2777 8.32897 46.2777Z" fill="#4E742C"/>
<path d="M12.5124 46.2777C12.4693 46.3998 12.4622 46.5316 12.4921 46.6575C12.5221 46.7835 12.5876 46.8982 12.6811 46.988C12.768 47.0595 12.8765 47.0998 12.9891 47.1026C13.1018 47.1055 13.2121 47.0705 13.3025 47.0035C13.3622 46.9528 13.4111 46.8908 13.4464 46.8209C13.4816 46.7511 13.5024 46.675 13.5076 46.597C13.5128 46.519 13.5022 46.4408 13.4765 46.3669C13.4508 46.2931 13.4105 46.2251 13.358 46.1671C12.8808 45.6626 12.5124 46.2777 12.5124 46.2777Z" fill="#4E742C"/>
<path d="M10.7992 50.2604C10.6691 50.2601 10.5392 50.2498 10.4108 50.2294C9.98952 50.1604 9.59041 49.9937 9.24568 49.7426C8.85938 49.4974 8.53993 49.1606 8.31581 48.7625C8.30036 48.7324 8.29101 48.6996 8.28828 48.6659C8.28555 48.6322 8.28951 48.5983 8.29991 48.5662C8.31032 48.534 8.32698 48.5042 8.34894 48.4785C8.37089 48.4528 8.39772 48.4316 8.42788 48.4162C8.45805 48.4008 8.49096 48.3915 8.52474 48.3887C8.55851 48.386 8.5925 48.39 8.62475 48.4003C8.657 48.4107 8.68689 48.4273 8.7127 48.4492C8.73851 48.4711 8.75975 48.4979 8.7752 48.5279C8.96396 48.85 9.22724 49.1223 9.54306 49.3222C9.82375 49.5263 10.1481 49.6627 10.4907 49.7205C11.2001 49.7919 11.9111 49.6005 12.488 49.1828C12.8304 48.9558 13.1227 48.6614 13.3469 48.3177C13.3654 48.2887 13.3895 48.2635 13.4177 48.2438C13.446 48.224 13.4778 48.2099 13.5115 48.2024C13.5452 48.1949 13.5801 48.1941 13.6141 48.2001C13.6481 48.206 13.6806 48.2185 13.7097 48.237C13.7389 48.2554 13.7641 48.2794 13.7839 48.3076C13.8038 48.3357 13.8179 48.3675 13.8254 48.4011C13.8329 48.4347 13.8337 48.4695 13.8278 48.5034C13.8218 48.5373 13.8092 48.5697 13.7907 48.5987C13.5297 49.001 13.1882 49.3452 12.7876 49.6099C12.2061 50.0141 11.5189 50.2401 10.8103 50.2604" fill="#4E742C"/>
<path d="M89.7916 83.0017C88.1474 84.0061 86.8278 85.4608 85.99 87.1923C85.9456 87.2852 85.8369 87.4777 85.7436 87.6857C85.6945 87.514 85.6648 87.3374 85.6549 87.1591C85.6549 87.0308 85.464 86.9556 85.3153 87.0131C84.9939 87.137 84.6656 87.2426 84.3322 87.3295C84.1835 87.3693 84.1236 87.5043 84.219 87.5972C84.5606 87.9636 84.8744 88.3549 85.1578 88.7676C85.211 88.8517 85.3642 88.9889 85.3797 89.1548C85.4418 90.3607 83.5599 91.2435 82.6367 92.279C81.9536 93.0323 81.4398 93.9224 81.1298 94.8898C80.9345 95.5137 80.4884 96.766 81.0433 97.3236C81.5936 95.111 82.1928 93.1927 84.3189 91.4736C84.9558 90.9559 85.7126 90.4425 85.8724 89.7478C87.9696 91.6794 88.3136 94.4274 87.3415 96.8103L88.1405 96.7395C88.5 95.4518 88.4378 94.3057 88.3002 93.0777C88.1862 91.7964 87.6564 90.587 86.7911 89.6327C86.589 89.4616 86.4026 89.2728 86.2341 89.0685C86.1439 88.909 86.0788 88.7367 86.041 88.5574C86.0277 88.5132 86.0144 88.4689 85.9989 88.4247C86.4024 88.3002 86.7963 88.1464 87.1773 87.9645C88.2507 87.5548 89.2551 86.9841 90.1555 86.2719C91.5515 85.1391 92.5967 83.5372 92.7809 81.7804C92.7809 81.7693 90.0668 82.8402 89.8071 82.9995" fill="#4E742C"/>
<path d="M80.8769 96.8169C80.6664 96.4196 80.3655 96.0769 79.9982 95.8164C79.6309 95.5559 79.2075 95.3848 78.7619 95.3168C78.0451 95.1819 77.2351 95.3478 76.7446 95.8877C75.9634 96.7439 76.2764 98.1533 76.9666 99.0782C77.7389 100.1 79.0638 100.826 80.2955 100.49C81.1587 100.255 81.8179 99.5583 82.3083 98.8127C82.4777 98.5709 82.6135 98.3074 82.7122 98.0294C82.8549 97.5749 82.8337 97.085 82.6523 96.6444C82.4992 96.2771 82.1552 95.9275 81.7646 95.9939C81.4994 96.0759 81.2726 96.2502 81.1255 96.4851L80.8658 96.8169" fill="#FAB70C"/>
<path d="M85.6282 100.348C84.9725 99.827 84.4759 99.1335 84.1946 98.3458C83.9505 97.5515 84.0725 96.609 84.6562 96.0182C84.9635 95.7206 85.3612 95.5331 85.7869 95.485C86.2127 95.437 86.6423 95.5311 87.0086 95.7527C87.3038 95.9386 87.6744 96.2151 87.9496 95.9983C88.022 95.9299 88.0814 95.8489 88.1249 95.7594C88.2797 95.4877 88.4911 95.2523 88.745 95.0691C88.9988 94.8859 89.2891 94.7591 89.5963 94.6973C89.9045 94.6417 90.222 94.6671 90.5174 94.7711C90.8128 94.8751 91.0758 95.054 91.2807 95.2903C91.6513 95.7328 91.7512 96.3501 91.7911 96.932C91.8616 97.4804 91.7977 98.0377 91.6047 98.556C91.4739 98.8336 91.3001 99.0889 91.0898 99.3127C89.7583 100.791 87.2927 101.784 85.6282 100.348Z" fill="#FAB70C"/>
<path d="M12.6812 84.0771C14.7295 84.1789 16.5471 85.9909 16.6536 88.0309C16.7602 90.1129 15.3221 91.9538 13.7553 93.3411C14.299 92.5401 15.422 92.3321 16.3762 92.5113C17.3305 92.6906 18.52 93.7902 19.3412 93.2747C19.9581 92.8875 20.4863 92.1419 21.2076 92.2591C21.7557 92.3476 22.0953 92.9118 22.2728 93.4318C22.8186 94.8806 22.8123 96.4787 22.2551 97.9233C21.9682 98.638 21.5178 99.276 20.9399 99.7865C20.362 100.297 19.6724 100.666 18.9262 100.864C18.2134 101.005 17.4858 101.057 16.7602 101.019C14.0971 100.988 14.0149 101.063 11.3496 101.032C10.5506 101.053 9.75171 100.984 8.96833 100.826C8.17015 100.633 7.43056 100.25 6.81239 99.7109C6.19421 99.1717 5.71571 98.4916 5.41751 97.7286C5.13791 96.9597 5.06846 96.1306 5.21626 95.3261C5.36406 94.5217 5.72381 93.7709 6.25861 93.1508C6.95102 92.3808 7.90753 91.8763 8.57552 91.0865C8.68649 90.9559 8.85959 90.7347 8.72643 90.6285C6.58484 88.8717 6.50717 88.4159 6.32741 88.0862C6.14765 87.7566 6.24308 87.2742 6.59372 87.1614C6.79051 87.1189 6.99589 87.1431 7.17739 87.23C8.09838 87.5641 7.96745 87.7167 8.45346 87.0286C8.8263 86.4998 8.96389 85.9069 9.44104 85.4135C9.85381 84.9781 10.3543 84.6347 10.9097 84.4059C11.4651 84.1771 12.0627 84.068 12.6634 84.0859" fill="#FAB70C"/>
<path d="M10.8747 87.3804C10.8395 87.4776 10.8334 87.5828 10.857 87.6833C10.8806 87.7839 10.9331 87.8754 11.0079 87.9468C11.077 88.0048 11.1638 88.0376 11.2541 88.04C11.3444 88.0424 11.4328 88.0143 11.505 87.9601C11.5522 87.9197 11.5907 87.8703 11.6184 87.8149C11.6461 87.7594 11.6624 87.6989 11.6664 87.6371C11.6703 87.5752 11.6618 87.5132 11.6413 87.4547C11.6208 87.3962 11.5888 87.3423 11.5472 87.2963C11.1677 86.8937 10.8814 87.3849 10.8814 87.3849" fill="#4E742C"/>
</g>
<defs>
<clipPath id="clip0">
<rect width="100" height="118" fill="white"/>
</clipPath>
</defs>
</svg>
