<svg width="19" height="24" viewBox="0 0 19 24" fill="none" xmlns="http://www.w3.org/2000/svg">
<path d="M2.04072 14.8447L2.04073 14.8447C2.66242 16.2257 3.52558 17.6391 4.60763 19.0503L4.60767 19.0504C6.42278 21.4154 8.20863 22.9509 8.31903 23.0458L8.32171 23.0481L8.32266 23.0489C8.65631 23.3313 9.07993 23.468 9.5 23.468C9.92007 23.468 10.3437 23.3313 10.6773 23.0489L10.6783 23.0481L10.6831 23.044C10.8126 22.9328 12.5921 21.4057 14.3924 19.0503C15.4744 17.6391 16.3376 16.2257 16.9593 14.8447L16.9593 14.8447C17.747 13.0943 18.15 11.3908 18.15 9.77901C18.15 4.86234 14.2763 0.85 9.5 0.85C4.72792 0.85 0.85 4.86229 0.85 9.77901C0.85 11.3908 1.25296 13.0943 2.04072 14.8447ZM9.87333 22.0314L9.87128 22.0327L9.86257 22.0402C9.77236 22.1173 9.6403 22.1611 9.5 22.1611C9.3597 22.1611 9.22764 22.1173 9.13743 22.0402L9.13754 22.04L9.13183 22.0356C9.13198 22.0357 9.13105 22.0349 9.12904 22.0332C9.11077 22.0175 9.00374 21.9255 8.82511 21.7618C8.62935 21.5824 8.35125 21.3202 8.01879 20.9868C7.35369 20.32 6.47201 19.3692 5.59698 18.227C4.00184 16.1449 2.12493 13.0008 2.12493 9.78337C2.12493 5.57672 5.43866 2.16129 9.5 2.16129C13.5613 2.16129 16.8751 5.57672 16.8751 9.78337C16.8751 13.0008 14.994 16.1447 13.4029 18.2272C12.53 19.3693 11.6494 20.32 10.9844 20.9868C10.6519 21.3202 10.3736 21.5823 10.1774 21.7616C10.0793 21.8513 10.0018 21.9202 9.94839 21.9669C9.92167 21.9903 9.90111 22.008 9.88712 22.0199L9.87333 22.0314Z" fill="#F05331" stroke="#F63418" stroke-width="0.3"/>
<path d="M9.50003 4.96035C6.91837 4.96035 4.82992 7.12443 4.82992 9.77883C4.82992 12.4332 6.91837 14.5973 9.50003 14.5973C12.0817 14.5973 14.1701 12.4332 14.1701 9.77883C14.1701 7.12888 12.0818 4.96035 9.50003 4.96035ZM9.50003 13.2904C7.63333 13.2904 6.10907 11.7232 6.10907 9.78319C6.10907 7.84321 7.63333 6.276 9.50003 6.276C11.3667 6.276 12.891 7.84321 12.891 9.78319C12.891 11.7232 11.3667 13.2904 9.50003 13.2904Z" fill="#F05331" stroke="#F63418" stroke-width="0.3"/>
</svg>
