<svg width="14" height="14" viewBox="0 0 14 14" fill="none" xmlns="http://www.w3.org/2000/svg">
<path d="M0.34615 4.3767C0.251129 4.41748 0.169682 4.47184 0.10181 4.53981C0.0339365 4.60777 0 4.69612 0 4.80485C0 4.91359 0.0203619 5.00194 0.0610857 5.0699C0.10181 5.13786 0.176469 5.19903 0.285066 5.2534L5.94564 7.82233C6.05424 7.89029 6.1289 7.97184 6.16962 8.06699L8.73521 13.7146C8.77593 13.8233 8.83702 13.8981 8.91846 13.9388C8.99991 13.9796 9.09493 14 9.20353 14C9.31212 14 9.39357 13.9728 9.44787 13.9184C9.50217 13.8641 9.56325 13.7825 9.63112 13.6738L13.9682 0.625243C14.0361 0.434951 13.9953 0.271845 13.846 0.135922C13.6967 0 13.5338 -0.0339806 13.3573 0.0339806L0.34615 4.3767Z" fill="#7ABC2F"/>
</svg>
