<svg width="17" height="17" viewBox="0 0 17 17" fill="none" xmlns="http://www.w3.org/2000/svg">
<g clip-path="url(#clip0)">
<path d="M16.955 6.5082C16.8262 6.11197 16.4428 5.83973 15.903 5.76126L11.5032 5.12184L9.53539 1.135C9.29402 0.645905 8.91659 0.365234 8.5 0.365234C8.0834 0.365234 7.70598 0.645905 7.46461 1.13513L5.49706 5.12184L1.09713 5.76126C0.55719 5.83973 0.173668 6.11197 0.045006 6.5082C-0.0836561 6.90444 0.0665362 7.35009 0.457192 7.73075L3.64106 10.8341L2.88932 15.2162C2.79321 15.7767 2.95702 16.1125 3.11137 16.2956C3.29243 16.5104 3.5565 16.6287 3.85493 16.6287C4.07944 16.6287 4.31822 16.5629 4.56478 16.4333L8.5 14.3645L12.4355 16.4335C12.6819 16.563 12.9207 16.6287 13.1452 16.6287H13.1453C13.4436 16.6287 13.7078 16.5104 13.8889 16.2956C14.0431 16.1126 14.207 15.7767 14.1108 15.2162L13.3592 10.8341L16.5429 7.73075C16.9335 7.35009 17.0837 6.90444 16.955 6.5082Z" fill="#D9DED4"/>
</g>
<defs>
<clipPath id="clip0">
<rect width="17" height="17" fill="white"/>
</clipPath>
</defs>
</svg>
