<svg width="24" height="29" viewBox="0 0 24 29" fill="none" xmlns="http://www.w3.org/2000/svg">
<path fill-rule="evenodd" clip-rule="evenodd" d="M18.3194 17.2506C19.5664 15.6073 20.1541 13.5402 19.9629 11.4698C19.7717 9.39939 18.8161 7.48118 17.2904 6.1054C15.7646 4.72963 13.7834 3.99965 11.7498 4.06398C9.71624 4.1283 7.783 4.98209 6.34341 6.45165C4.90256 7.92223 4.06454 9.89905 4.0001 11.9793C3.93567 14.0595 4.64968 16.0865 5.99663 17.6473C7.34359 19.2081 9.2221 20.1852 11.2494 20.3794C13.2767 20.5737 15.3001 19.9705 16.9074 18.6928L16.9504 18.7388L21.1924 23.0758C21.2853 23.1707 21.3956 23.2461 21.517 23.2975C21.6384 23.3489 21.7685 23.3753 21.8999 23.3753C22.0313 23.3753 22.1614 23.3489 22.2828 23.2975C22.4042 23.2461 22.5145 23.1707 22.6074 23.0758C22.7003 22.9808 22.774 22.8681 22.8243 22.744C22.8746 22.6199 22.9005 22.4869 22.9005 22.3526C22.9005 22.2183 22.8746 22.0853 22.8243 21.9612C22.774 21.8371 22.7003 21.7244 22.6074 21.6294L18.3644 17.2935C18.3498 17.2788 18.3348 17.2645 18.3194 17.2506ZM16.2434 7.89798C16.808 8.46576 17.257 9.14218 17.5646 9.88823C17.8722 10.6343 18.0322 11.4352 18.0354 12.2448C18.0386 13.0543 17.885 13.8566 17.5834 14.6051C17.2818 15.3537 16.8382 16.0339 16.2781 16.6063C15.718 17.1788 15.0526 17.6322 14.3203 17.9405C13.5879 18.2488 12.8031 18.4058 12.011 18.4025C11.219 18.3992 10.4354 18.2357 9.70554 17.9213C8.97565 17.6069 8.31389 17.148 7.75841 16.5709C6.64832 15.4176 6.02906 13.8626 6.03551 12.2448C6.04195 10.6269 6.67358 9.07717 7.79282 7.93315C8.91205 6.78914 10.4282 6.14352 12.011 6.13693C13.5938 6.13034 15.1151 6.76332 16.2434 7.89798Z" fill="#4F742E"/>
</svg>
