<?xml version="1.0" encoding="utf-8"?><svg width="14" height="14" viewBox="0 0 14 14" xmlns="http://www.w3.org/2000/svg" xmlns:xlink="http://www.w3.org/1999/xlink"><svg width="14" height="14" fill="none" viewBox="0 0 14 14" id="map-i" xmlns="http://www.w3.org/2000/svg"><path d="M.346 4.377a.77.77 0 00-.244.163.359.359 0 00-.102.265c0 .109.02.197.061.265.04.068.115.129.224.183l5.66 2.57c.11.067.184.149.225.244l2.565 5.648c.04.108.102.183.183.224.082.04.177.061.286.061.108 0 .19-.027.244-.082.054-.054.115-.135.183-.244L13.968.625a.42.42 0 00-.122-.49c-.15-.135-.312-.169-.489-.101L.347 4.377z" fill="#7ABC2F"/></svg></svg>