<?xml version="1.0" encoding="utf-8"?><svg width="323" height="252" viewBox="0 0 323 252" xmlns="http://www.w3.org/2000/svg" xmlns:xlink="http://www.w3.org/1999/xlink"><svg width="5" height="9" fill="none" viewBox="0 0 5 9" id="arrow" x="216" y="171" xmlns="http://www.w3.org/2000/svg"><path d="M.18 4.946l3.771 3.87c.24.246.63.246.87 0a.642.642 0 000-.892L1.482 4.5 4.82 1.076a.642.642 0 000-.891.603.603 0 00-.869 0L.18 4.055A.637.637 0 000 4.5c0 .161.06.323.18.446z" fill="#3F4042"/></svg><svg width="20" height="19" fill="none" viewBox="0 0 20 19" id="cart" x="29" y="217" xmlns="http://www.w3.org/2000/svg"><path d="M5.982 15.991a1.392 1.392 0 11-.001 2.785 1.392 1.392 0 010-2.785zm10.338 0a1.392 1.392 0 11-.001 2.785 1.392 1.392 0 010-2.785zM1.713.768l.094.01 1.91.33a.69.69 0 01.554.52l.016.102.215 2.574h12.952c1.123 0 1.996.956 1.916 2.058l-.015.138-.872 6.025a2.347 2.347 0 01-2.17 2.006l-.152.005H6.136a2.345 2.345 0 01-2.32-2l-.018-.15-.84-10.01-1.386-.24A.69.69 0 011 1.432l.01-.093a.69.69 0 01.703-.571zm15.74 4.914H4.619l.554 6.589a.967.967 0 00.857.88l.107.007H16.16a.967.967 0 00.936-.723l.022-.107.872-6.025a.543.543 0 00-.456-.615l-.081-.006zM14.689 7.7a.689.689 0 01.093 1.371l-.093.007H12.14a.689.689 0 01-.093-1.372l.093-.006h2.548z" fill="#fff" stroke="#fff" stroke-width=".4"/></svg><svg width="12" height="13" fill="none" viewBox="0 0 12 13" id="close-i" x="64" y="199" xmlns="http://www.w3.org/2000/svg"><path d="M7.315 6.004l4.24-4.29a1.011 1.011 0 000-1.42.983.983 0 00-1.4 0l-4.231 4.3-4.232-4.3a.984.984 0 00-1.4 0 1.011 1.011 0 000 1.42l4.241 4.29-4.241 4.29a1.002 1.002 0 00-.292.71 1.012 1.012 0 00.613.929.974.974 0 001.08-.219l4.23-4.3 4.232 4.3a.987.987 0 00.7.296.974.974 0 00.7-.296 1.003 1.003 0 00.293-.71 1.012 1.012 0 00-.292-.71l-4.241-4.29z" fill="#9A9494"/></svg><svg width="323" height="168" fill="none" viewBox="0 0 323 168" id="delivery-img" xmlns="http://www.w3.org/2000/svg"><g clip-path="url(#dclip0)"><path d="M306.872 167.022a.364.364 0 01-.293-.139 69.739 69.739 0 00-3.763-4.066.386.386 0 010-.551.385.385 0 01.55 0 69.236 69.236 0 013.807 4.109.396.396 0 01-.044.552.443.443 0 01-.257.095zm-243.24-1.742a.394.394 0 01-.286-.125.386.386 0 01.022-.551 127.745 127.745 0 014.98-4.367.387.387 0 01.55.052.388.388 0 01-.051.551 126.064 126.064 0 00-4.95 4.337.362.362 0 01-.265.103zm138.426-3.065a.38.38 0 01-.278-.118c-1.474-1.485-3.11-2.845-5.017-4.168a.39.39 0 11.448-.639c1.943 1.352 3.623 2.749 5.126 4.263a.386.386 0 010 .551.416.416 0 01-.279.111zm4.863-3.632a.415.415 0 01-.301-.139.39.39 0 01.052-.552 69.757 69.757 0 015.302-3.999.398.398 0 01.543.103.4.4 0 01-.103.544 69.83 69.83 0 00-5.244 3.955.395.395 0 01-.249.088zm91.275-.088a.4.4 0 01-.25-.088 72.225 72.225 0 00-5.251-3.94.392.392 0 01.44-.647 72.328 72.328 0 015.31 3.984c.169.14.191.382.051.551a.366.366 0 01-.3.14zm-224.399-1.647a.386.386 0 01-.315-.161.388.388 0 01.08-.544 116.254 116.254 0 015.428-3.808.399.399 0 01.543.11.4.4 0 01-.11.544 124.4 124.4 0 00-5.391 3.779.414.414 0 01-.235.08zm117.532-2.249a.428.428 0 01-.184-.044c-1.687-.89-3.572-1.801-5.926-2.86a.39.39 0 01.315-.713 108.194 108.194 0 015.971 2.882.39.39 0 01-.176.735zm26.483-3.462a.387.387 0 01-.19-.728 71.9 71.9 0 015.94-2.962.386.386 0 01.514.198.389.389 0 01-.198.515 74.184 74.184 0 00-5.875 2.925.39.39 0 01-.191.052zm69.485-.066a.355.355 0 01-.191-.052 74.681 74.681 0 00-5.874-2.926c-.198-.088-.286-.316-.198-.514a.386.386 0 01.513-.199c2.017.89 4.012 1.89 5.941 2.963a.39.39 0 01.154.529.42.42 0 01-.345.199zm-202.484-1.5a.395.395 0 01-.198-.735 114.906 114.906 0 015.824-3.161.384.384 0 01.52.176.386.386 0 01-.176.522 108.91 108.91 0 00-5.786 3.139.32.32 0 01-.184.059zm94.524-.5a.383.383 0 01-.154-.029c-2.303-1-4.232-1.823-6.073-2.588a.39.39 0 01.294-.72c1.841.764 3.777 1.588 6.08 2.587a.397.397 0 01.205.515.381.381 0 01-.352.235zm50.526-3.278a.385.385 0 01-.367-.265.387.387 0 01.242-.493 73.907 73.907 0 016.373-1.845.394.394 0 01.47.287.39.39 0 01-.286.47 75.688 75.688 0 00-6.308 1.823.33.33 0 01-.124.023zm45.377-.067a.366.366 0 01-.125-.022 69.884 69.884 0 00-6.308-1.815.395.395 0 01-.286-.471.394.394 0 01.47-.287 74.592 74.592 0 016.373 1.838.382.382 0 01.242.493.385.385 0 01-.366.264zm-108.107-1.705a.32.32 0 01-.14-.029 168.81 168.81 0 00-6.19-2.257.384.384 0 01-.242-.493.382.382 0 01.492-.242 175.71 175.71 0 016.219 2.264.398.398 0 01.228.507.397.397 0 01-.367.25zm-70.526-.39a.391.391 0 01-.36-.235.397.397 0 01.206-.514 96.037 96.037 0 016.175-2.404.389.389 0 01.499.242.392.392 0 01-.242.5 102.097 102.097 0 00-6.132 2.389c-.044.008-.095.022-.146.022zm146.076-.919a.39.39 0 01-.059-.779 72.153 72.153 0 016.601-.647c.213 0 .396.155.411.368a.398.398 0 01-.367.412c-2.164.11-4.364.323-6.527.639-.022 0-.037.007-.059.007zm19.736-.051c-.014 0-.036 0-.058-.007a67.227 67.227 0 00-6.535-.61.395.395 0 01-.374-.412c.007-.213.212-.368.411-.375 2.192.103 4.415.309 6.608.617a.39.39 0 01.33.441.383.383 0 01-.382.346zm-107.784-2.882c-.036 0-.073-.007-.11-.014a106.925 106.925 0 00-6.373-1.618.392.392 0 01-.301-.463.397.397 0 01.462-.301c2.076.456 4.232 1 6.418 1.625.205.058.33.279.271.485a.375.375 0 01-.367.286zm-45.582-.514a.392.392 0 01-.374-.287.387.387 0 01.271-.478 90.06 90.06 0 016.454-1.514.387.387 0 01.455.309.382.382 0 01-.308.456 87.884 87.884 0 00-6.395 1.499.456.456 0 01-.103.015zm32.689-2.279c-.015 0-.037 0-.059-.007a70.996 70.996 0 00-3.689-.434c-.939-.088-1.9-.162-2.846-.213a.393.393 0 01-.366-.412.39.39 0 01.41-.367c.961.051 1.922.125 2.875.213 1.225.117 2.479.264 3.726.441a.39.39 0 01.33.441.388.388 0 01-.381.338zm-19.744-.243a.39.39 0 01-.044-.779c2.2-.25 4.43-.419 6.608-.485.205-.037.396.162.403.375a.391.391 0 01-.374.404 79.074 79.074 0 00-6.549.478c-.007 0-.029.007-.044.007z" fill="#061C2D"/><path d="M259.082 167.574a.394.394 0 01-.345-.206c-.014-.022-1.312-2.419-3.241-5.771a.395.395 0 01.139-.536.393.393 0 01.535.139c1.937 3.36 3.242 5.764 3.257 5.786a.387.387 0 01-.154.529.31.31 0 01-.191.059zm-6.608-11.483a.37.37 0 01-.33-.191 210.199 210.199 0 00-3.506-5.601.394.394 0 01.118-.544.39.39 0 01.542.117 208.356 208.356 0 013.521 5.617.393.393 0 01-.132.536.357.357 0 01-.213.066zm-92.947-8.152a.39.39 0 01-.279-.661 138.304 138.304 0 014.724-4.646.385.385 0 01.55.022.387.387 0 01-.022.551 136.539 136.539 0 00-4.701 4.616.397.397 0 01-.272.118zm85.679-2.904a.373.373 0 01-.308-.154 46.623 46.623 0 00-4.349-4.896.392.392 0 01-.008-.551.392.392 0 01.55-.007 47.454 47.454 0 014.43 4.976.388.388 0 01-.073.544.356.356 0 01-.242.088zm-88.855-1.058a.39.39 0 01-.344-.213 92.37 92.37 0 00-3.183-5.756.393.393 0 01.132-.537.391.391 0 01.535.133 88.15 88.15 0 013.212 5.807.39.39 0 01-.352.566zm12.85-5.028a.405.405 0 01-.301-.14.394.394 0 01.052-.551 85.69 85.69 0 015.288-4.006.39.39 0 01.447.639 79.823 79.823 0 00-5.237 3.97.4.4 0 01-.249.088zm66.624-3.176a.39.39 0 01-.234-.081 56.37 56.37 0 00-5.428-3.675.396.396 0 01-.139-.537.39.39 0 01.535-.139 56.736 56.736 0 015.501 3.727.387.387 0 01.073.543.36.36 0 01-.308.162zm-86.346-3.065a.4.4 0 01-.315-.155 56.102 56.102 0 00-4.21-5.028.393.393 0 01.015-.551.39.39 0 01.55.015 58.867 58.867 0 014.268 5.094.381.381 0 01-.08.544.333.333 0 01-.228.081zm30.584-1.242a.402.402 0 01-.345-.199.389.389 0 01.154-.529 59.337 59.337 0 015.978-2.897.39.39 0 01.293.721 57.78 57.78 0 00-5.897 2.852.311.311 0 01-.183.052zm44.431-2.426a.286.286 0 01-.154-.037 51.82 51.82 0 00-6.146-2.264.391.391 0 01.22-.75 52.786 52.786 0 016.241 2.294.387.387 0 01.198.514.394.394 0 01-.359.243zm-156.036-1.294a.377.377 0 01-.293-.14 169.312 169.312 0 00-3.719-4.241.388.388 0 01.03-.552.385.385 0 01.55.03 188.33 188.33 0 013.44 3.911l.337-.383a.386.386 0 01.55-.029.387.387 0 01.029.551c-.213.235-.418.471-.63.713a.388.388 0 01-.294.14zm123.787-1.279a.388.388 0 01-.095-.765 50.512 50.512 0 016.52-1.301.396.396 0 01.44.338.395.395 0 01-.337.441c-2.157.287-4.32.713-6.418 1.279-.044.008-.073.008-.11.008zm19.627-1.147c-.022 0-.037 0-.059-.007a46.199 46.199 0 00-6.52-.537.393.393 0 010-.786h.007c2.2.022 4.43.205 6.623.544a.386.386 0 01.323.448.38.38 0 01-.374.338zm-71.465-2.168a.4.4 0 01-.25-.089 49.069 49.069 0 00-5.332-3.785.385.385 0 01-.124-.537.382.382 0 01.535-.125 50.88 50.88 0 015.42 3.852c.169.14.191.382.059.551a.44.44 0 01-.308.133zm-66.602-.743a.38.38 0 01-.294-.132.389.389 0 01.044-.552 54.428 54.428 0 015.288-4.028.392.392 0 01.433.654 53.626 53.626 0 00-5.215 3.97.494.494 0 01-.256.088zm-13.606-3.72a.382.382 0 01-.278-.117 137.025 137.025 0 00-4.723-4.587.388.388 0 01-.022-.552.386.386 0 01.55-.022 138.708 138.708 0 014.752 4.617.386.386 0 01-.007.551.374.374 0 01-.271.11zm69.016-2.469a.433.433 0 01-.162-.037 65.68 65.68 0 00-6.087-2.433.398.398 0 01-.242-.5.39.39 0 01.499-.243 67.265 67.265 0 016.16 2.463.393.393 0 01-.168.75zm-44.46-1.125a.402.402 0 01-.352-.213.392.392 0 01.176-.522c1.995-1 4.055-1.867 6.124-2.58a.389.389 0 01.498.242.391.391 0 01-.242.5 50.028 50.028 0 00-6.028 2.543.722.722 0 01-.176.03zm32.021-3.213a.445.445 0 01-.095-.014 102.158 102.158 0 00-4.856-1.125 34.131 34.131 0 00-1.547-.279.39.39 0 01.124-.772c.536.081 1.071.184 1.585.287 1.694.352 3.337.735 4.892 1.139a.387.387 0 01.278.478.4.4 0 01-.381.286zm-19.575-1.065a.393.393 0 01-.382-.317.381.381 0 01.308-.455 41.305 41.305 0 016.616-.75.382.382 0 01.403.375.391.391 0 01-.374.404 41.49 41.49 0 00-6.49.735c-.03.008-.06.008-.081.008zm-46.697-1.081a.397.397 0 01-.25-.088 104.452 104.452 0 00-5.192-4.036.389.389 0 11.454-.632 99.35 99.35 0 015.237 4.065c.169.14.19.382.051.551a.415.415 0 01-.3.14zm-10.708-7.719a.366.366 0 01-.206-.058 67.763 67.763 0 00-5.75-3.154.39.39 0 01.337-.706c1.915.926 3.866 2 5.817 3.191.183.11.242.352.132.536a.37.37 0 01-.33.191zM27.922 96.32a.371.371 0 01-.125-.022 40.037 40.037 0 00-6.322-1.624.39.39 0 01.124-.772c2.069.345 4.232.904 6.447 1.661a.383.383 0 01.242.493.386.386 0 01-.366.264zM14.14 94.505a.399.399 0 01-.38-.302.39.39 0 01.293-.47c.05-.015.344-.074.865-.133a.399.399 0 01.433.346.4.4 0 01-.345.434c-.491.059-.748.11-.777.117-.03 0-.06.008-.088.008z" fill="#061C2D"/><path d="M45.509 168a.36.36 0 01-.19-.051c-9.557-5.293-16.606-14.328-19.327-24.773-2.09-8.006-1.24-15.915 2.333-21.693 8.001-12.945 19.303-15.849 27.378-16.003 6.792-.125 12.49 1.617 14.728 2.411-2.89-5.381-16.48-32.631-6.124-51.384 6.402-11.6 20.616-17.826 42.237-18.502 17.896-.566 36.444 7.468 55.11 23.868 15.013 13.196 25.919 28.096 31.156 35.263 1.437 1.963 2.574 3.521 2.897 3.764.249-.037 1.041-1.125 1.672-2.007 2.354-3.256 6.74-9.306 14.412-8.395 16.59 1.992 28.677 22.752 35.894 39.813 7.789 18.415 11.749 36.608 11.786 36.785a.388.388 0 01-.301.463.387.387 0 01-.462-.301c-.037-.184-3.983-18.304-11.75-36.66-7.136-16.87-19.047-37.387-35.263-39.328-7.224-.867-11.265 4.734-13.685 8.079-1.005 1.382-1.606 2.22-2.223 2.308a.733.733 0 01-.55-.14c-.396-.301-1.224-1.418-3.058-3.925-29.183-39.894-58.007-59.683-85.613-58.808-21.335.669-35.321 6.763-41.585 18.098-11.258 20.4 6.454 51.244 6.638 51.553a.388.388 0 01-.044.456.393.393 0 01-.448.102c-.066-.029-6.886-2.903-15.438-2.734-7.87.154-18.893 2.992-26.704 15.628-3.455 5.594-4.276 13.283-2.237 21.083 2.67 10.24 9.578 19.098 18.951 24.288a.39.39 0 01.155.529.393.393 0 01-.345.213z" fill="#061C2D"/><path d="M322.611 167.588H.389a.391.391 0 01-.389-.389c0-.213.176-.39.389-.39H322.61c.213 0 .389.177.389.39a.391.391 0 01-.389.389z" fill="#061C2D"/><path d="M53.283 56.919c7.173-3.073 12.446 4.572 12.586 4.197.234-.632-7.4-14.547 3.344-14.254 5.713.155 16.524 12.46 16.524 12.46s-1.958-5.175 1.746-6.079c3.703-.904 19.083 15.57 18.959 15.562-2.127-.14-45.245-1.55-49.521-1.602-.271-.015-9-7.983-3.638-10.284zm-42.656 63.939c5.296-2.271 9.19 3.374 9.293 3.102.176-.463-5.464-10.74 2.471-10.527 4.218.118 12.205 9.197 12.205 9.197s-1.445-3.823 1.29-4.492c2.736-.669 14.09 11.497 14.002 11.49-1.57-.103-33.408-1.147-36.57-1.184-.204-.007-6.651-5.888-2.69-7.586z" fill="#7ABC2F"/><path d="M261.202 88.484c-2.963 0-5.384 2.521-5.384 5.624 0 2.999 4.966 9.865 5.178 10.151a.31.31 0 00.25.125.331.331 0 00.256-.125c.206-.294 5.076-7.152 5.076-10.151.007-3.103-2.406-5.624-5.376-5.624zm-2.604 5.3c0-1.411 1.181-2.558 2.64-2.558 1.46 0 2.641 1.147 2.641 2.558 0 1.411-1.181 2.558-2.641 2.558-1.459 0-2.64-1.147-2.64-2.558zM153.946 24.42c-2.963 0-5.384 2.522-5.384 5.624 0 2.999 4.966 9.865 5.179 10.151a.307.307 0 00.249.125.335.335 0 00.257-.125c.205-.294 5.075-7.152 5.075-10.151.007-3.102-2.406-5.624-5.376-5.624zm-2.604 5.3c0-1.411 1.181-2.558 2.641-2.558 1.459 0 2.64 1.147 2.64 2.558 0 1.412-1.181 2.558-2.64 2.558-1.46 0-2.641-1.146-2.641-2.558zM35 27.397c-2.964 0-5.384 2.522-5.384 5.624 0 2.999 4.965 9.865 5.178 10.151a.309.309 0 00.25.126.334.334 0 00.256-.126c.205-.293 5.075-7.152 5.075-10.151 0-3.102-2.406-5.624-5.376-5.624zm-2.612 5.293c0-1.411 1.18-2.558 2.64-2.558 1.46 0 2.64 1.147 2.64 2.558 0 1.411-1.18 2.558-2.64 2.558-1.46.008-2.64-1.14-2.64-2.558z" fill="#051928"/><path d="M192.517 70.68c-4.753 0-8.618-3.874-8.618-8.638 0-4.763 3.865-8.637 8.618-8.637 4.752 0 8.617 3.874 8.617 8.637 0 4.764-3.865 8.638-8.617 8.638zm0-16.496c-4.32 0-7.833 3.521-7.833 7.851s3.513 7.851 7.833 7.851 7.833-3.521 7.833-7.85c.007-4.323-3.513-7.852-7.833-7.852zM34.537 86.948c-5.728 0-10.392-4.675-10.392-10.417 0-5.74 4.664-10.416 10.392-10.416.558 0 1.115.044 1.665.132a.587.587 0 01.484.67.58.58 0 01-.667.484 9.155 9.155 0 00-1.482-.117c-5.082 0-9.226 4.146-9.226 9.24s4.136 9.248 9.226 9.248a9.243 9.243 0 008.361-5.352.59.59 0 01.778-.287c.293.14.418.486.286.78a10.412 10.412 0 01-9.425 6.035z" fill="#061C2D"/><path d="M195.985 64.108a.431.431 0 01-.168-.037l-3.469-1.676a.38.38 0 01-.206-.242.435.435 0 01.037-.316l3.381-5.66a.39.39 0 01.535-.133c.184.11.242.353.132.537l-3.161 5.292 3.088 1.493c.191.095.279.33.183.522a.387.387 0 01-.352.22zm-3.468 5.616a.392.392 0 01-.389-.39V67.41c0-.213.176-.39.389-.39.212 0 .388.177.388.39v1.926c0 .22-.168.39-.388.39zm0-12.71a.392.392 0 01-.389-.39v-1.932c0-.214.176-.39.389-.39.212 0 .388.176.388.39v1.926c0 .22-.168.396-.388.396zm-5.384 5.698h-1.922a.392.392 0 01-.388-.39c0-.213.176-.39.388-.39h1.922c.213 0 .389.177.389.39 0 .22-.176.39-.389.39zm12.395-.118h-1.922a.392.392 0 01-.388-.39c0-.213.176-.39.388-.39h1.922c.213 0 .389.177.389.39 0 .213-.176.39-.389.39zM32.153 70.643a.604.604 0 01-.47-.228.588.588 0 01.11-.823l3.61-2.75-3.206-3.072a.591.591 0 01-.022-.83.588.588 0 01.829-.023l3.718 3.543a.596.596 0 01.184.456.593.593 0 01-.227.434l-4.16 3.168a.648.648 0 01-.366.125z" fill="#061C2D"/><path d="M28.596 72.576c.858-.367 1.716-.55 2.56-.55.785 0 1.415.198 1.9.602.476.397.718.89.718 1.47 0 .272-.051.537-.161.78-.11.242-.25.462-.433.66-.183.2-.389.39-.609.589-.227.191-.462.397-.718.61-.25.213-.492.441-.72.669a5.299 5.299 0 00-.66.83 4.824 4.824 0 00-.498 1.037h3.946v.846H28.8v-.522c.147-.463.33-.89.565-1.294.228-.404.462-.743.704-1.015a9.62 9.62 0 01.756-.779c.256-.242.506-.456.733-.64.228-.183.433-.36.624-.529.183-.169.33-.345.44-.522.11-.176.161-.36.161-.543 0-.383-.176-.714-.528-.993-.352-.28-.777-.419-1.269-.419-.535 0-1.24.154-2.105.463l-.286-.75zm10.187-.492h1.342v5.241h1.401v.846h-1.4v1.948H39.2V78.17h-3.65v-.633l3.234-5.454zm.418.919l-2.552 4.322h2.552v-4.322z" fill="#000"/><path d="M36.393 47.289a.378.378 0 01-.242-.088.389.389 0 01-.06-.552c.676-.852 1.372-1.712 2.076-2.572a.386.386 0 01.55-.052c.17.14.191.382.052.551-.704.86-1.394 1.72-2.068 2.566a.41.41 0 01-.308.147zm6.505-7.77a.376.376 0 01-.264-.103.387.387 0 01-.03-.551 100.318 100.318 0 014.739-4.955.391.391 0 01.55.008.393.393 0 01-.008.55 98.872 98.872 0 00-4.7 4.919.376.376 0 01-.287.132zm102.709-.786a.414.414 0 01-.264-.103 207.507 207.507 0 00-5.127-4.492.395.395 0 01-.044-.551.392.392 0 01.55-.044c1.577 1.33 3.257 2.8 5.149 4.506.161.147.176.39.029.551a.389.389 0 01-.293.133zm-92.903-8.704a.385.385 0 01-.3-.147.39.39 0 01.058-.552A66.17 66.17 0 0158 25.265a.396.396 0 01.543.11.4.4 0 01-.11.545 64.722 64.722 0 00-5.471 4.02.434.434 0 01-.257.089zm82.43-.059a.364.364 0 01-.235-.08 85.46 85.46 0 00-5.589-3.867.393.393 0 01-.124-.537.39.39 0 01.535-.125 86.058 86.058 0 015.64 3.903.39.39 0 01.081.544.384.384 0 01-.308.162zm-11.544-7.248a.387.387 0 01-.176-.044 59.817 59.817 0 00-6.22-2.698.39.39 0 01.264-.735 61.274 61.274 0 016.293 2.735.39.39 0 01.176.521.366.366 0 01-.337.22zm-59.466-.14a.402.402 0 01-.352-.213.392.392 0 01.175-.522 56.619 56.619 0 016.323-2.683.392.392 0 01.498.235.393.393 0 01-.234.5 56.68 56.68 0 00-6.235 2.646.502.502 0 01-.175.037zm12.835-4.535a.397.397 0 01-.382-.31.388.388 0 01.3-.462c1.21-.265 2.45-.5 3.69-.684a96.699 96.699 0 013.08-.426.389.389 0 01.433.338.384.384 0 01-.337.434c-1.005.125-2.032.272-3.059.426a63.75 63.75 0 00-3.638.676c-.029.008-.058.008-.088.008zm33.847-.03c-.029 0-.059-.007-.095-.014a63.055 63.055 0 00-6.66-1.228.39.39 0 01-.337-.441.39.39 0 01.44-.338c2.295.294 4.562.713 6.747 1.242a.387.387 0 01.286.47.39.39 0 01-.381.31zm-20.316-1.69a.388.388 0 01-.389-.368.392.392 0 01.367-.412 79.4 79.4 0 016.85-.08.387.387 0 01.374.404c-.007.213-.19.367-.403.375a84.024 84.024 0 00-6.784.08h-.015zm62.605 29.308a.4.4 0 01-.264-.103l-2.42-2.25a.387.387 0 01-.022-.55.385.385 0 01.55-.023l2.156 2a43.762 43.762 0 012.245-1.948.394.394 0 01.55.058c.132.17.11.412-.059.552a40.383 40.383 0 00-2.464 2.154.403.403 0 01-.272.11zM258.62 94.96a.387.387 0 01-.367-.264 92.34 92.34 0 00-2.383-6.227.397.397 0 01.205-.514.397.397 0 01.514.206 94.49 94.49 0 012.405 6.277.386.386 0 01-.242.493.308.308 0 01-.132.03zm-5.185-12.328a.394.394 0 01-.352-.22 112.785 112.785 0 00-3.125-5.896.38.38 0 01.147-.529.402.402 0 01.536.147 120.694 120.694 0 013.146 5.933.392.392 0 01-.176.521.389.389 0 01-.176.044zm-6.608-11.629a.397.397 0 01-.33-.176 89.873 89.873 0 00-3.829-5.44.397.397 0 01.074-.551.385.385 0 01.542.073 91.55 91.55 0 013.865 5.491.397.397 0 01-.11.544.44.44 0 01-.212.06zm-8.141-10.593a.393.393 0 01-.286-.124 109.96 109.96 0 00-4.643-4.779.387.387 0 01-.007-.551.385.385 0 01.55-.007 103.747 103.747 0 014.672 4.815.394.394 0 01-.022.55.418.418 0 01-.264.096zm-9.615-9.284a.368.368 0 01-.25-.095 93.109 93.109 0 00-5.229-4.117.389.389 0 11.455-.632 91.725 91.725 0 015.273 4.153c.161.14.183.382.044.551a.345.345 0 01-.293.14zm-10.796-7.843a.435.435 0 01-.206-.06 76.921 76.921 0 00-5.816-3.219.39.39 0 01.345-.698 77.618 77.618 0 015.875 3.249.394.394 0 01-.198.728zm-57.171-3.573a.396.396 0 01-.337-.198.38.38 0 01.146-.53 45.808 45.808 0 016.088-2.881.399.399 0 01.506.22.394.394 0 01-.22.508 44.16 44.16 0 00-5.978 2.83.444.444 0 01-.205.051zm45.208-2.338a.457.457 0 01-.139-.022 61.738 61.738 0 00-6.315-2.029.397.397 0 01-.279-.477.396.396 0 01.477-.28 67.377 67.377 0 016.396 2.051c.198.074.3.302.227.508a.397.397 0 01-.367.25zm-32.798-2.484a.4.4 0 01-.382-.302.39.39 0 01.294-.47 53.296 53.296 0 016.63-1.117.383.383 0 01.425.345.388.388 0 01-.345.426 51.476 51.476 0 00-6.527 1.103c-.037.007-.066.015-.095.015zm19.897-.875c-.014 0-.036 0-.051-.007a55.09 55.09 0 00-6.608-.515.39.39 0 01-.381-.397.396.396 0 01.396-.382c2.236.044 4.488.22 6.696.522a.39.39 0 01.33.44.382.382 0 01-.382.339zm67.593 70.644a.39.39 0 01-.389-.346c-.11-.97-.293-2.051-.543-3.22a.39.39 0 01.763-.162c.257 1.191.448 2.301.558 3.301a.4.4 0 01-.345.434c-.015-.007-.029-.007-.044-.007z" fill="#061C2D"/><path d="M94.472 16.973a1.88 1.88 0 001.878-1.881 1.88 1.88 0 00-1.878-1.882 1.88 1.88 0 00-1.877 1.882c0 1.039.84 1.881 1.877 1.881z" fill="#7ABC2F"/><path d="M94.472 15.481a.392.392 0 01-.388-.39V.39c0-.133.073-.265.183-.331a.373.373 0 01.381-.015l7.261 3.668a.395.395 0 01-.029.713L94.86 7.27v7.83a.38.38 0 01-.388.382zm.389-14.46v5.396l5.926-2.403-5.926-2.992z" fill="#061C2D"/><path d="M214.666 42.143a1.88 1.88 0 001.878-1.882 1.88 1.88 0 00-1.878-1.881 1.88 1.88 0 00-1.877 1.881c0 1.04.84 1.882 1.877 1.882z" fill="#7ABC2F"/><path d="M214.666 40.651a.392.392 0 01-.389-.39V25.567c0-.132.074-.265.184-.33a.39.39 0 01.381-.016l7.261 3.669c.139.066.22.213.213.367a.396.396 0 01-.242.346l-7.019 2.844v7.83a.389.389 0 01-.389.374zm.389-14.46v5.396l5.926-2.403-5.926-2.992z" fill="#061C2D"/><path d="M229.041 84.89a4.333 4.333 0 004.328-4.338 4.333 4.333 0 00-4.328-4.337 4.332 4.332 0 00-4.327 4.337 4.332 4.332 0 004.327 4.337z" fill="#fff"/><path d="M229.041 85.286c-2.604 0-4.723-2.124-4.723-4.734a4.728 4.728 0 014.723-4.726 4.733 4.733 0 014.723 4.726c0 2.61-2.119 4.734-4.723 4.734zm0-8.681a3.948 3.948 0 000 7.895 3.949 3.949 0 003.939-3.948 3.94 3.94 0 00-3.939-3.947z" fill="#061C2D"/><path d="M231.285 80.2h-1.929v-1.963a.313.313 0 00-.315-.316.314.314 0 00-.316.316V80.2h-1.914a.313.313 0 00-.315.316c0 .176.139.316.315.316h1.914v1.984c0 .177.14.316.316.316s.315-.14.315-.316v-1.984h1.929c.176 0 .315-.14.315-.316a.313.313 0 00-.315-.317z" fill="#050E28"/><path d="M113.585 32.763h17.163c.388 0 .696.589.696 1.309v16.143c0 .72-.315 1.308-.696 1.308h-17.163c-.388 0-.696-.588-.696-1.308V34.072c0-.72.308-1.309.696-1.309z" fill="#fff"/><path d="M130.747 51.913h-17.162c-.623 0-1.092-.728-1.092-1.698V34.072c0-.97.469-1.698 1.092-1.698h17.162c.624 0 1.093.727 1.093 1.698v16.143c0 .97-.469 1.698-1.093 1.698zM113.585 33.16c-.073.015-.308.324-.308.92v16.142c0 .595.242.904.308.919h17.162c.074-.015.309-.324.309-.919v-16.15c0-.596-.243-.904-.309-.919h-17.162v.007z" fill="#061C2D"/><path d="M116.791 40.703v5.314h7.686c.667 0 1.261-.411 1.489-1.044l1.54-4.197a.962.962 0 00-.932-1.198h-3.234l-.066-2.47a1.553 1.553 0 00-.755-1.286l-.176-.104a.562.562 0 00-.844.493l.029 1.772-1.98 2.631-2.757.089z" fill="#7ABC2F"/><path d="M228.25 113.603c0-5.205 4.209-9.424 9.402-9.424s9.403 4.219 9.403 9.424c0 5.204-4.21 9.424-9.403 9.424-5.193 0-9.402-4.22-9.402-9.424z" fill="#fff"/><path d="M237.652 123.416c-5.398 0-9.792-4.403-9.792-9.813 0-5.411 4.394-9.814 9.792-9.814s9.791 4.403 9.791 9.814c0 5.41-4.393 9.813-9.791 9.813zm0-18.84c-4.966 0-9.014 4.05-9.014 9.027 0 4.976 4.041 9.027 9.014 9.027 4.972 0 9.013-4.051 9.013-9.027 0-4.977-4.048-9.027-9.013-9.027z" fill="#061C2D"/><path d="M237.666 111.316s-1.789-3.139-4.224-1.536c-5.333 3.514 4.187 10.269 4.187 10.269s9.366-6.924 4.379-10.269c-2.442-1.639-4.342 1.536-4.342 1.536z" fill="#7ABC2F"/><path d="M169.443 77.7h14.089c.315 0 .572.478.572 1.073V92.02c0 .595-.257 1.073-.572 1.073h-14.089c-.316 0-.572-.478-.572-1.073V78.773c0-.595.256-1.073.572-1.073z" fill="#fff"/><path d="M183.524 93.483h-14.089c-.55 0-.96-.632-.96-1.463V78.773c0-.83.418-1.462.96-1.462h14.089c.55 0 .961.632.961 1.462V92.02c.007.83-.411 1.463-.961 1.463zM169.457 78.09c-.066.044-.205.286-.205.683V92.02c0 .412.147.654.213.684l14.059-.008c.037-.03.184-.272.184-.683V78.766c0-.412-.147-.654-.213-.684l-14.038.008z" fill="#061C2D"/><path d="M205.124 121.527h14.089c.315 0 .572.478.572 1.073v13.247c0 .595-.257 1.073-.572 1.073h-14.089c-.316 0-.572-.478-.572-1.073V122.6c0-.595.256-1.073.572-1.073z" fill="#fff"/><path d="M219.206 137.31h-14.089c-.551 0-.961-.633-.961-1.463V122.6c0-.83.418-1.463.961-1.463h14.089c.55 0 .96.633.96 1.463v13.247c.008.83-.41 1.463-.96 1.463zm-14.067-15.393c-.066.044-.198.286-.198.683v13.247c0 .411.146.654.212.683l14.06-.007c.037-.029.183-.272.183-.684v-13.246c0-.412-.146-.654-.212-.684l-14.045.008z" fill="#061C2D"/><path d="M176.484 79.802l1.687 3.419 3.762.551-2.728 2.661.645 3.756-3.366-1.771-3.366 1.771.645-3.756-2.721-2.661 3.762-.551 1.68-3.419zm34.111 54.802h-.058a.783.783 0 01-.609-.375l-3.359-5.587 1.335-.808 2.787 4.638 6.96-8.49 1.203.992-7.665 9.343a.738.738 0 01-.594.287zm15.527-74.194c5.838-2.499 10.129 3.72 10.246 3.419.191-.515-6.021-11.835 2.721-11.6 4.65.125 13.444 10.137 13.444 10.137s-1.592-4.212 1.423-4.947c3.014-.735 15.526 12.673 15.431 12.666-1.731-.11-36.818-1.265-40.294-1.309-.235-.007-7.335-6.49-2.971-8.365z" fill="#7ABC2F"/><path d="M152.397 114.611a.967.967 0 10-1.884-.446.968.968 0 101.884.446z" fill="#000"/><path d="M110.608 127.966s-4.885 1.471-7.907 4.712c-3.021 3.242-5.559 10.645-5.559 10.645l24.885.551 9.755 14.342 28.64-.25s1.181 1.044 4.232-3.205c3.051-4.256 5.324-9.439 7.987-10.674 2.655-1.235 14.162-1.595 14.162-1.595s.873-2.198-3.293-4.447c-4.166-2.25-10.877-3.661-10.877-3.661s.866-5.432-1.239-9.034c-2.112-3.602-6.718-7.881-6.718-7.881l-3.081 1.831s-.44 4.535.499 6.888c.939 2.352 3.506 21.023 3.506 21.023l-4.694 5.212-23.316.713-9.857-21.016s-9.952-1.007-12.05-1.573c-2.112-.566-5.075-2.581-5.075-2.581z" fill="#7ABC2F"/><path d="M164.28 116.977l-8.508 3.389s-.19 3.638 1.401 9.762c1.592 6.123 3.609 9.019 3.609 9.019l-2.421 10.696-15.526.338 2.838-13.761-16.304-.654 8.523 17.51 23.139-1 4.335-5.109-1.152-12.048s-2.867-9.88-2.831-12.232c.066-3.852 2.897-5.91 2.897-5.91z" fill="#fff"/><path d="M137.899 153.665a.4.4 0 01-.352-.22l-8.523-17.51a.395.395 0 01.022-.382.374.374 0 01.345-.177l16.304.654c.118.008.22.059.294.147a.39.39 0 01.073.324l-2.736 13.283 14.735-.323 2.317-10.24c-.425-.669-2.156-3.565-3.564-8.998-1.592-6.109-1.423-9.725-1.416-9.88a.396.396 0 01.242-.345l8.508-3.389a.384.384 0 01.484.177.4.4 0 01-.11.507c-.029.022-2.677 1.999-2.736 5.594-.036 2.264 2.788 12.019 2.817 12.122.007.022.015.044.015.073l1.151 12.048a.397.397 0 01-.088.287l-4.335 5.109a.41.41 0 01-.278.14l-23.14.999h-.029zm-7.884-17.48l8.126 16.687 22.714-.985 4.122-4.852-1.137-11.843c-.22-.749-2.875-9.975-2.838-12.312.029-2.184.902-3.808 1.709-4.852l-6.55 2.609c-.007.912.073 4.301 1.394 9.395 1.554 5.969 3.527 8.865 3.549 8.895a.36.36 0 01.059.308l-2.42 10.696a.379.379 0 01-.374.302l-15.527.345a.35.35 0 01-.308-.14.383.383 0 01-.081-.33l2.743-13.313-15.181-.61z" fill="#000"/><path d="M126.501 83.184c.088-2.925 2.545-5.226 5.494-5.138 2.948.088 5.266 2.536 5.178 5.454-.008.125 1.078-.272 1.166-.058.323.786-1.247.926-1.284 1.095-.506 2.477-2.743 4.175-5.383 4.094-2.941-.08-5.259-2.528-5.171-5.447z" fill="#fff"/><path d="M131.863 88.918h-.191a5.602 5.602 0 01-3.916-1.75 5.532 5.532 0 01-1.526-3.991 5.485 5.485 0 011.76-3.889 5.593 5.593 0 014.012-1.514 5.606 5.606 0 013.917 1.75 5.516 5.516 0 011.525 3.697.365.365 0 01.088-.015c.477-.103.917-.198 1.056.14a.715.715 0 010 .596c-.183.404-.711.58-1.1.705-.059.022-.139.044-.191.066-.557 2.5-2.765 4.205-5.434 4.205zm-5.362-5.734l.279.008a4.997 4.997 0 001.372 3.594 5.063 5.063 0 003.535 1.58c2.523.074 4.62-1.52 5.104-3.873.044-.206.242-.272.536-.368.242-.08.689-.228.777-.411.008-.008.008-.022.015-.044a3.346 3.346 0 00-.462.08c-.338.074-.506.11-.646-.007a.281.281 0 01-.102-.235 5.005 5.005 0 00-1.372-3.595 5.063 5.063 0 00-3.535-1.58 5.081 5.081 0 00-3.623 1.36 4.946 4.946 0 00-1.584 3.506l-.294-.015z" fill="#000"/><path d="M134.488 86.367a.26.26 0 01-.125-.03c-.036-.021-.938-.484-1.283-1.55a.278.278 0 01.176-.346.271.271 0 01.345.177c.271.838.997 1.22 1.004 1.227a.271.271 0 01.118.368.249.249 0 01-.235.154z" fill="#000102"/><path d="M122.614 80.861c.22-.036 2.729.618 2.729.618l6.923-1.75s5.501.838 6.219.375c.719-.463-3.337-2.213-3.337-2.213s-1.422-5.652-7.187-4.58c-6.242 1.052-5.567 7.594-5.347 7.55z" fill="#7ABC2F"/><path d="M109.603 126.018s-1.283 3.213 4.379 4.257c5.662 1.044 13.869 1.764 13.869 1.764l1.386 4.006 9.645.537 5.999.331s1.76-3.838 3.022-5.778c1.269-1.941 2.039-2 2.039-2s-14.119.25-20.25-.669c-3.653-.544-8.002-3.418-8.002-3.418l-12.087.97z" fill="#fff"/><path d="M144.881 137.31h-.022l-15.637-.868a.376.376 0 01-.344-.264l-1.298-3.771c-1.423-.133-8.596-.816-13.657-1.75-2.295-.419-3.799-1.25-4.466-2.455-.653-1.184-.228-2.279-.213-2.331a.382.382 0 01.33-.242l12.079-.963a.351.351 0 01.242.066c.044.029 4.328 2.83 7.848 3.359 6.029.905 20.045.669 20.184.662h.007a.39.39 0 01.03.779c.007 0-.653.155-1.739 1.823-1.232 1.897-2.977 5.69-2.992 5.727a.395.395 0 01-.352.228zm-15.358-1.632l15.116.838c.411-.882 1.841-3.904 2.941-5.587.403-.618.763-1.066 1.078-1.382-3.638.037-14.023.059-19.018-.684-3.41-.514-7.319-2.94-8.045-3.403l-11.684.933c-.058.302-.095.86.235 1.449.543.97 1.9 1.683 3.917 2.05 5.581 1.03 13.751 1.757 13.832 1.765a.395.395 0 01.337.264l1.291 3.757z" fill="#000"/><path d="M126.516 82.221l4.143-1.484.954.125s-.462 1.925-.037 3.352c.418 1.426 1.981 4.542 1.981 4.542l-.514.206-1.019-1.771-1.937-.243s-1.144-.786-2.017-2.11c-.88-1.315-1.554-2.617-1.554-2.617zm7.598-2.242s-.161.287-.125 1.308a6.211 6.211 0 00.338 1.801l3.19-.169s.103-.882-.139-1.617c-.242-.728-.536-1.073-.536-1.073l-2.728-.25z" fill="#051928"/><path d="M122.658 80.854l2.67.64 6.953-1.765s-.264.39-.404.677c-.139.286-.33.514-.33.514l-.916-.088-4.005 1.433s-.763.162-1.592.103c-.828-.059-1.73-.345-1.73-.345l-.646-1.17z" fill="#051928"/><path d="M134.121 80.001s-.212.816-.132 1.33c.074.515.352 1.765.352 1.765s-.762.037-1.459-.353c-.69-.39-1.452-.853-1.452-.853s-.037-.705.22-1.22a4.74 4.74 0 01.616-.919l1.855.25z" fill="#051928"/><path d="M134.151 83.177a.17.17 0 01-.125-.059c-.117-.162-.601-2.043-.058-3.05a.142.142 0 01.183-.06c.066.037.095.118.059.184-.462.868-.059 2.53.036 2.742a.135.135 0 01-.066.228c-.007.015-.014.015-.029.015zm-7.466-.838a.15.15 0 01-.125-.073.134.134 0 01.059-.184c.029-.015 3.095-1.61 5.178-1.154.073.014.124.088.102.161-.014.074-.088.125-.161.103-1.995-.433-4.965 1.11-4.995 1.125-.014.022-.036.022-.058.022z" fill="#fff"/><path d="M131.606 82.045a.14.14 0 01-.14-.14c.022-.61.514-2.264.792-2.264.074 0 .132.066.132.14a.12.12 0 01-.058.103c-.11.154-.572 1.279-.594 2.021 0 .081-.059.14-.132.14z" fill="#fff"/><path d="M121.485 125.474s5.104 2.801 9.74 3.433c4.642.633 18.636.449 18.636.449s-1.1-1.022-3.814 4.837c-2.721 5.866-5.009 11.6-5.009 11.6l8.009 1.374s13.561-16.437 10.627-22.325c-2.926-5.895-20.748-9.688-20.748-9.688s-3.161 4.079-5.604 5.564c-2.442 1.493-11.837 4.756-11.837 4.756zm1.826-43.422l1.437 3.882 2.816.808.69-1.8-1.753-2.75s-.91.345-1.643.103c-.733-.243-1.547-.243-1.547-.243z" fill="#051928"/><path d="M121.939 88.205l-4.892 3.668 4.005 33.969s5.64 0 10.774-3.418c5.127-3.418 7.063-7.101 7.063-7.101s-11.574-4.506-11.654-11.651c-.081-7.146 3.593-12.512 3.593-12.512l-.821-1.838-8.068-1.117z" fill="#7ABC2F"/><path d="M121.844 88.308l2.875-2.367s.631.044 2.735.544c4.269 1.014 6.873 6.16 6.873 6.16s-2.677-1.742-5.699-2.911c-3.014-1.161-6.784-1.426-6.784-1.426z" fill="#7ABC2F"/><path d="M128.767 90.3c7.29-1.72 9.689 13.415 9.755 14.496.066 1.073 10.048 4.903 10.048 4.903l-2.479 6.204s-12.564.949-16.304-1.771c-3.741-2.713-8.303-22.105-1.02-23.832zm23.001 19.274l3.807 10.696 9.123-3.367-2.523-9.115s-2.486-1.125-4.804-.779c-2.317.353-5.603 2.565-5.603 2.565z" fill="#7ABC2F"/><path d="M121 118.785l6.477-7.218s.616.419 1.041 1.396c.425.985.983 1.287.983 1.287l-7.921 7.968-.58-3.433z" fill="#051928"/><path d="M148.372 110.096l-2.252 5.852s2.86.595 3.843-.067c.976-.661.206-2.896 1.848-2.712 1.651.184.294 2.337.881 3.109.586.772 1.804-3.418 1.804-3.418s-.624 2.97-.118 3.264c.507.294 1.695-3.315 1.695-3.315s-.22 2.176.146 2.301c.367.124 1.863-2.47.352-3.735-1.518-1.264-3.285-1.691-4.312-1.602-1.042.088-3.887.323-3.887.323z" fill="#fff"/><path d="M152.853 116.646a.483.483 0 01-.382-.206c-.3-.389-.22-.978-.146-1.544.066-.492.132-.999-.066-1.249-.088-.118-.25-.184-.477-.213-.653-.074-.77.257-.939 1.139-.102.559-.227 1.191-.726 1.529-1.041.706-3.748.176-4.048.11a.255.255 0 01-.184-.139.277.277 0 01-.014-.228l2.251-5.852a.282.282 0 01.235-.176s2.846-.235 3.88-.323c1.129-.103 2.97.374 4.518 1.668 1.202 1.007.733 2.683.264 3.514-.213.382-.543.809-.881.691-.102-.037-.322-.11-.381-.86-.359.882-.792 1.742-1.151 1.874a.396.396 0 01-.352-.029c-.228-.132-.323-.507-.33-1-.309.684-.646 1.22-.969 1.279-.051.015-.073.015-.102.015zm-1.225-3.771c.066 0 .139.007.213.015.381.044.667.183.85.419.338.433.257 1.058.176 1.661-.058.419-.11.86.008 1.088.3-.272.895-1.706 1.349-3.279a.276.276 0 01.536.133c-.257 1.227-.367 2.47-.279 2.874.315-.382.909-1.801 1.327-3.065a.275.275 0 01.316-.184.266.266 0 01.212.294c-.08.772-.08 1.544-.022 1.889.206-.25.536-.853.617-1.558.08-.677-.11-1.213-.551-1.581-1.422-1.191-3.095-1.632-4.114-1.536l-3.711.309-2.068 5.38c.924.162 2.669.346 3.307-.088.308-.213.404-.683.492-1.176.139-.684.315-1.595 1.342-1.595z" fill="#000"/><path d="M138.97 116.234h-.008c-.08 0-.704-.014-1.415-.029-.961-.022-2.105-.044-2.332-.051-2.171-.067-3.976-.419-5.743-1.926-3.528-3.007-5.978-13.159-5.457-17.577.594-5.042 3.33-6.16 5.141-6.895a.273.273 0 01.36.154.274.274 0 01-.154.36c-1.79.728-4.247 1.728-4.804 6.455-.492 4.205 1.921 14.239 5.266 17.091 1.643 1.404 3.352 1.735 5.398 1.794.227.007 1.364.029 2.325.051.719.015 1.342.029 1.423.029a.274.274 0 01.264.287c.007.14-.118.257-.264.257z" fill="#fff"/><path d="M132.728 91.278c-.029 0-.059-.008-.095-.015-.044-.015-4.746-1.683-6.565-2.176a37.14 37.14 0 00-3.784-.786.281.281 0 01-.235-.316.271.271 0 01.316-.228c.022 0 2.009.301 3.85.801 1.834.5 6.41 2.124 6.608 2.19.147.052.22.206.169.353a.286.286 0 01-.264.177zm11.097 24.927a.331.331 0 01-.088-.015.274.274 0 01-.176-.345l2.266-6.947a.271.271 0 01.345-.176c.146.044.22.206.176.345l-2.267 6.947a.26.26 0 01-.256.191z" fill="#fff"/><path d="M116.27 88.86l-22.516 2.08 9.534 35.681 18.879-.771-5.897-36.99zm-15.49 69.275c-2.12-6.02.895-12.276 6.725-13.981 5.831-1.706 12.278 1.793 14.397 7.814 2.12 6.02-.894 12.276-6.725 13.981-5.838 1.699-12.285-1.801-14.397-7.814zm68.223 0c-2.119-6.02.895-12.276 6.726-13.981 5.831-1.706 12.278 1.793 14.397 7.814 2.12 6.02-.895 12.276-6.725 13.981-5.831 1.699-12.278-1.801-14.398-7.814zm-51.956-66.468s12.256-1.587 14.258-.83c-3.88-1.64-8.185-2.39-8.185-2.39-2.435-.146-6.476.339-6.476.339l.403 2.881z" fill="#051928"/><path d="M105.899 156.04c-1.137-3.234.477-6.601 3.616-7.52 3.139-.919 6.601.963 7.745 4.205 1.137 3.234-.477 6.601-3.616 7.52-3.139.919-6.608-.963-7.745-4.205z" fill="#F0ECE3"/><path d="M105.899 156.04c-1.137-3.234.477-6.601 3.616-7.52 3.139-.919 6.601.963 7.745 4.205 1.137 3.234-.477 6.601-3.616 7.52-3.139.919-6.608-.963-7.745-4.205zm68.231 0c-1.137-3.234.476-6.601 3.615-7.52 3.139-.919 6.601.963 7.745 4.205 1.137 3.234-.476 6.601-3.615 7.52-3.139.919-6.609-.963-7.745-4.205z" fill="#F0ECE3"/><path d="M141.184 145.807l-1.232 5.697 15.409 1.809-6.52-6.352-7.657-1.154z" fill="#7ABC2F"/><path d="M121.991 125.468a.276.276 0 01-.272-.236l-5.735-36.321a.28.28 0 01.227-.316.28.28 0 01.316.228l5.735 36.321a.28.28 0 01-.227.316c-.015.008-.03.008-.044.008zm22.061 18.678a.212.212 0 01-.117-.029.273.273 0 01-.125-.368c.044-.088 4.32-8.814 5.853-11.688 1.335-2.499 2.391-3.102 2.75-3.242l.491-.772-.476.25a.276.276 0 01-.308-.036.264.264 0 01-.074-.302l.352-.941c-1.488-.242-12.798-2.117-14.697-2.573-1.995-.477-5.347-1.646-5.384-1.654a.272.272 0 01-.168-.352.271.271 0 01.352-.169c.036.014 3.359 1.176 5.324 1.639 1.841.441 13.004 2.286 14.617 2.551l.521-.949a.274.274 0 01.352-.117.282.282 0 01.147.345l-.646 1.735.756-.39a.281.281 0 01.33.059.278.278 0 01.029.331l-1.085 1.713a.314.314 0 01-.176.125c-.008 0-1.056.301-2.501 2.999-1.533 2.86-5.802 11.578-5.846 11.666-.073.11-.168.169-.271.169z" fill="#fff"/><path d="M150.205 145.675c-.014 0-.036 0-.051-.007l-8.259-1.596a.28.28 0 01-.22-.323.281.281 0 01.323-.22l8.259 1.595a.28.28 0 01.22.323.29.29 0 01-.272.228zM97.611 98.982a.282.282 0 01-.264-.199l-1.709-5.785a.276.276 0 01.037-.228.268.268 0 01.198-.118l20.463-2.227a.267.267 0 01.3.243.273.273 0 01-.242.301l-20.132 2.198 1.62 5.47a.276.276 0 01-.183.345c-.036-.008-.066 0-.088 0z" fill="#fff"/><path d="M101.998 101.172l3.461 14.812 11.449-1.117-2.318-14.445-12.592.75z" fill="#7ABC2F"/><path d="M95.83 101.474a.275.275 0 01-.272-.265.274.274 0 01.264-.287l22.113-1.088c.146-.022.278.11.286.265a.274.274 0 01-.264.287l-22.113 1.088h-.015zm5.449 17.546a.278.278 0 01-.272-.25.275.275 0 01.25-.301l18.768-1.794a.28.28 0 01.301.25.275.275 0 01-.25.302l-18.768 1.793h-.029zm61.035-10.923l2.039 8.446s3.132-2.117 2.465-4.94c-.807-3.44-4.504-3.506-4.504-3.506z" fill="#fff"/><path d="M164.353 116.933a.317.317 0 01-.139-.03.385.385 0 01-.235-.272l-2.039-8.446a.398.398 0 01.074-.338.364.364 0 01.308-.147c.036 0 4.012.117 4.877 3.808.719 3.043-2.494 5.256-2.626 5.351a.342.342 0 01-.22.074zm-1.532-8.388l1.767 7.314c.792-.683 2.296-2.271 1.848-4.168-.55-2.359-2.633-2.984-3.615-3.146z" fill="#000"/><path d="M92.551 134.928l4.467 8.248s1.371-3.47 2.34-5.44a23.695 23.695 0 012.031-3.389s-1.614-.47-3.858-.301c-2.244.176-4.98.882-4.98.882z" fill="#fff"/><path d="M97.01 143.565a.406.406 0 01-.345-.205l-4.466-8.248a.383.383 0 01-.015-.346.4.4 0 01.257-.22c.11-.03 2.794-.713 5.046-.89 2.288-.176 3.924.294 3.997.309.125.037.22.132.264.25a.373.373 0 01-.059.36c-.007.015-1.063 1.419-1.994 3.323-.947 1.933-2.31 5.373-2.325 5.41a.393.393 0 01-.338.243c-.007.014-.014.014-.022.014zm-3.88-8.38l3.829 7.072c.462-1.147 1.357-3.301 2.039-4.697a24.767 24.767 0 011.723-2.963 12.712 12.712 0 00-3.168-.162c-1.621.125-3.543.544-4.423.75z" fill="#000"/><path d="M128.254 85.25c-.044 0-.095-.022-.117-.066l-1.65-2.75-.668.2a.102.102 0 01-.066 0l-2.472-.45a.141.141 0 01-.11-.161.14.14 0 01.162-.11l2.442.44.734-.22c.058-.014.124.008.154.059l1.701 2.838a.149.149 0 01-.044.19c-.015.023-.037.03-.066.03z" fill="#fff"/><path d="M158.603 148.174a.508.508 0 01-.462-.286l-5.12-10.056a.515.515 0 01.228-.699.513.513 0 01.697.228l5.119 10.056a.516.516 0 01-.227.699.448.448 0 01-.235.058z" fill="#051928"/></g><defs><clipPath id="dclip0"><path fill="#fff" d="M0 0h323v168H0z"/></clipPath></defs></svg><svg width="50" height="49" fill="none" viewBox="0 0 50 49" id="icon-catalog1" y="168" xmlns="http://www.w3.org/2000/svg"><g clip-path="url(#eclip0)"><path d="M1.584 29.981l4.956-1.734M1.584 14.714l4.956 1.734M0 22.277l5.322-.144m43.567 7.848l-4.957-1.734m4.957-13.533l-4.957 1.734m6.538 5.829l-5.321-.144" stroke="#3F4042" stroke-width="1.4"/><path d="M30.894 11a9.157 9.157 0 00-2.62.461.226.226 0 01-.071.012.189.189 0 00-.117.037.628.628 0 01-.138.072 4.967 4.967 0 00-.838.35l-.551.243c-.218.114-.479.327-.624.415a.814.814 0 01-.852-.027A9.142 9.142 0 0019.918 11a8.57 8.57 0 00-2.697.416c-5.352 1.718-7.28 7.517-5.67 12.586a18.192 18.192 0 004.363 6.886 283.156 283.156 0 018.793 8.84.57.57 0 00.71.093l.02-.013a.613.613 0 00.115-.09c3.106-3.11 6.706-6.168 9.517-8.845a18.487 18.487 0 004.365-6.871c1.639-5.069-.29-10.868-5.7-12.616a6.618 6.618 0 00-1.288-.3c-.116 0-.232-.008-.347-.023A8.576 8.576 0 0031.054 11h-.16zm-12.92 4.525a1.165 1.165 0 011.465.716 1.168 1.168 0 01-.725 1.474 2.398 2.398 0 00-1.551 2.247v.045a1.22 1.22 0 01-.276.888 1.22 1.22 0 01-.826.415 1.186 1.186 0 01-1.146-1.09v-.17a4.726 4.726 0 013.06-4.525z" fill="#FF6161"/></g><defs><clipPath id="eclip0"><path fill="#fff" d="M0 0h50v49H0z"/></clipPath></defs></svg><svg width="38" height="31" fill="none" viewBox="0 0 38 31" id="icon-header1" x="50" y="168" xmlns="http://www.w3.org/2000/svg"><path d="M29.635 3a8.306 8.306 0 00-2.392.424.204.204 0 01-.065.01.17.17 0 00-.107.035.573.573 0 01-.125.065 4.521 4.521 0 00-.766.322l-.503.223c-.198.106-.436.302-.569.382a.739.739 0 01-.778-.025A8.306 8.306 0 0019.616 3c-.836 0-1.67.118-2.462.382-4.885 1.579-6.646 6.908-5.175 11.566a16.733 16.733 0 003.982 6.327 50.858 50.858 0 008.38 6.526.636.636 0 00.66-.003l.014-.01a50.382 50.382 0 008.43-6.526 17.004 17.004 0 003.985-6.314c1.496-4.658-.265-9.987-5.203-11.594a6.013 6.013 0 00-1.176-.275c-.106 0-.211-.008-.316-.02A7.76 7.76 0 0029.78 3h-.145zM17.842 7.158a1.061 1.061 0 011.337.658 1.075 1.075 0 01-.662 1.354 2.203 2.203 0 00-1.416 2.066v.04c.025.302-.066.593-.252.816a1.111 1.111 0 01-.754.382 1.086 1.086 0 01-1.046-1.001v-.157a4.342 4.342 0 012.793-4.158z" fill="#fff"/><path fill-rule="evenodd" clip-rule="evenodd" d="M37.91 15.462c.94-7.417-5.637-14.447-12.4-15.35-6.828-.967-14.469 4.45-15.408 11.867-.94 7.481 4.76 14.963 11.524 15.93 6.827.903 15.345-5.03 16.284-12.447zm-16.797.924l8.137-8.948h1.313l-9.45 13.125-3.675-5.966h1.312l2.363 1.79z" fill="#FFB800"/><path d="M7.81 28.174a2.605 2.605 0 012.015 2.015.421.421 0 00.824 0 2.605 2.605 0 012.015-2.015.421.421 0 000-.824 2.605 2.605 0 01-2.015-2.015.421.421 0 00-.824 0A2.605 2.605 0 017.81 27.35a.421.421 0 000 .824zm-3.12-7.149c.645.135 1.15.64 1.285 1.285a.269.269 0 00.526 0c.135-.645.64-1.15 1.285-1.285a.269.269 0 000-.526 1.662 1.662 0 01-1.285-1.285.269.269 0 00-.526 0 1.662 1.662 0 01-1.285 1.285.269.269 0 000 .526zM.15 26.947c.453.095.808.45.903.903a.189.189 0 00.37 0c.094-.454.449-.808.902-.903a.189.189 0 000-.37 1.168 1.168 0 01-.903-.903.189.189 0 00-.37 0 1.165 1.165 0 01-.902.903.189.189 0 000 .37z" fill="#FFB800"/></svg><svg width="34" height="29" fill="none" viewBox="0 0 34 29" id="icon-header2" x="88" y="168" xmlns="http://www.w3.org/2000/svg"><path d="M25.636 0a8.307 8.307 0 00-2.392.424.203.203 0 01-.065.01.171.171 0 00-.107.035.57.57 0 01-.125.065 4.52 4.52 0 00-.766.322l-.503.223c-.198.106-.437.302-.569.382a.739.739 0 01-.778-.025A8.306 8.306 0 0015.617 0c-.836 0-1.67.118-2.462.382C8.27 1.961 6.509 7.29 7.98 11.948a16.734 16.734 0 003.982 6.327 50.854 50.854 0 008.38 6.526.635.635 0 00.659-.003l.015-.01a50.386 50.386 0 008.43-6.526 17.004 17.004 0 003.985-6.314C34.927 7.29 33.166 1.96 28.228.354A6.01 6.01 0 0027.052.08c-.106 0-.212-.008-.317-.02a7.758 7.758 0 00-.954-.06h-.145zM13.843 4.158a1.061 1.061 0 011.337.658 1.075 1.075 0 01-.662 1.354 2.203 2.203 0 00-1.416 2.066v.04c.025.302-.066.593-.252.816a1.111 1.111 0 01-.754.382 1.086 1.086 0 01-1.046-1.001v-.157a4.342 4.342 0 012.793-4.158zM7.811 26.174a2.605 2.605 0 012.015 2.015.421.421 0 00.824 0 2.605 2.605 0 012.015-2.015.421.421 0 000-.824 2.605 2.605 0 01-2.015-2.015.421.421 0 00-.824 0A2.605 2.605 0 017.81 25.35a.421.421 0 000 .824zM4.69 19.025c.645.135 1.15.64 1.285 1.285a.269.269 0 00.526 0c.135-.645.64-1.15 1.285-1.285a.269.269 0 000-.526 1.662 1.662 0 01-1.285-1.285.269.269 0 00-.526 0 1.662 1.662 0 01-1.285 1.285.269.269 0 000 .526zM.15 24.947c.454.095.809.45.904.903a.189.189 0 00.37 0c.094-.454.449-.808.902-.903a.189.189 0 000-.37 1.168 1.168 0 01-.903-.903.189.189 0 00-.37 0 1.165 1.165 0 01-.902.903.189.189 0 000 .37z" fill="#FFB800"/></svg><svg width="29" height="35" fill="none" viewBox="0 0 29 35" id="icon-header3" y="217" xmlns="http://www.w3.org/2000/svg"><path d="M16.334 3.174A2.605 2.605 0 0118.35 5.19a.421.421 0 00.825 0 2.605 2.605 0 012.015-2.015.421.421 0 000-.824A2.605 2.605 0 0119.174.335a.421.421 0 00-.825 0 2.605 2.605 0 01-2.015 2.015.421.421 0 000 .824zm-5.121 4.851c.646.135 1.15.64 1.286 1.285a.269.269 0 00.525 0c.136-.645.64-1.15 1.286-1.285a.269.269 0 000-.526 1.662 1.662 0 01-1.286-1.285.269.269 0 00-.525 0 1.662 1.662 0 01-1.286 1.285.269.269 0 000 .526z" fill="#FFB800"/><path d="M7.677 30.273c1.173 0 2.134.981 2.134 2.194 0 1.198-.961 2.18-2.134 2.18-1.188 0-2.15-.982-2.15-2.18 0-1.213.962-2.194 2.15-2.194zm15.902 0c1.174 0 2.135.981 2.135 2.194 0 1.198-.961 2.18-2.134 2.18-1.188 0-2.15-.982-2.15-2.18 0-1.213.962-2.194 2.15-2.194zM1.101 6.352l.144.012 3.371.519c.481.088.834.49.877.981L5.76 11.1a.87.87 0 00.863.81h19.09c.863 0 1.428.303 1.994.967.565.665.664 1.617.537 2.482l-1.343 9.471c-.255 1.82-1.781 3.162-3.577 3.162H7.903c-1.88 0-3.435-1.471-3.59-3.377L3.012 8.876.877 8.501a1.085 1.085 0 01-.862-1.242c.1-.59.65-.982 1.23-.894l-.144-.012zM21.064 17.25h-3.916a1.06 1.06 0 00-1.06 1.082 1.07 1.07 0 001.06 1.083h3.916c.593 0 1.06-.49 1.06-1.083 0-.606-.467-1.082-1.06-1.082z" fill="#FFB800"/></svg><svg width="26" height="27" fill="none" viewBox="0 0 26 27" id="icon-header4" x="146" y="168" xmlns="http://www.w3.org/2000/svg"><path fill-rule="evenodd" clip-rule="evenodd" d="M25.685 15.75a12.99 12.99 0 01-2.704 5.544l.02.015a1.76 1.76 0 01-.109.12 1.56 1.56 0 00-.096.103 4.822 4.822 0 01-.168.18l-.092.099c-.26.282-.528.552-.808.808-.06.054-.123.107-.184.16-.026.02-.05.043-.076.064a13.41 13.41 0 01-.92.726.756.756 0 00-.063.05c-.018.015-.036.03-.055.043v-.01a12.908 12.908 0 01-14.858 0v.01c-.02-.014-.038-.029-.057-.044a.827.827 0 00-.061-.049 12.9 12.9 0 01-.92-.726l-.078-.067a6.585 6.585 0 01-.182-.157c-.28-.255-.548-.526-.808-.808l-.091-.097a7.275 7.275 0 01-.169-.182 2.455 2.455 0 00-.096-.102c-.037-.04-.075-.078-.11-.12l.019-.016A12.906 12.906 0 010 13.002a12.99 12.99 0 1125.685 2.747z" fill="#FAB70C"/></svg><svg width="22" height="22" fill="none" viewBox="0 0 22 22" id="in" x="172" y="168" xmlns="http://www.w3.org/2000/svg"><g clip-path="url(#jclip0)" fill="#3F4042"><path d="M19.201 7.613a5.986 5.986 0 00-.384-2.031 4.227 4.227 0 00-2.413-2.414 6.055 6.055 0 00-2.004-.385c-.882-.04-1.162-.05-3.4-.05-2.239 0-2.526 0-3.401.05a6.056 6.056 0 00-2.003.385 4.223 4.223 0 00-2.414 2.414 6.008 6.008 0 00-.384 2.002c-.039.883-.05 1.163-.05 3.401 0 2.239 0 2.525.05 3.401.014.686.143 1.362.384 2.005a4.226 4.226 0 002.415 2.413c.64.25 1.317.39 2.003.412.883.04 1.162.051 3.4.051 2.24 0 2.526 0 3.402-.051a6.039 6.039 0 002.003-.384 4.23 4.23 0 002.414-2.414 6.04 6.04 0 00.384-2.004c.04-.882.051-1.162.051-3.401-.001-2.239-.001-2.523-.053-3.4zm-8.207 7.606a4.237 4.237 0 01-4.237-4.238 4.237 4.237 0 114.237 4.238zm4.407-7.645a.987.987 0 11.377-1.9.988.988 0 01-.377 1.9z"/><path d="M10.995 13.733a2.753 2.753 0 100-5.505 2.753 2.753 0 000 5.505z"/></g><defs><clipPath id="jclip0"><path fill="#fff" d="M0 0h22v22H0z"/></clipPath></defs></svg><svg width="14" height="14" fill="none" viewBox="0 0 14 14" id="map-i" x="50" y="199" xmlns="http://www.w3.org/2000/svg"><path d="M.346 4.377a.77.77 0 00-.244.163.359.359 0 00-.102.265c0 .109.02.197.061.265.04.068.115.129.224.183l5.66 2.57c.11.067.184.149.225.244l2.565 5.648c.04.108.102.183.183.224.082.04.177.061.286.061.108 0 .19-.027.244-.082.054-.054.115-.135.183-.244L13.968.625a.42.42 0 00-.122-.49c-.15-.135-.312-.169-.489-.101L.347 4.377z" fill="#7ABC2F"/></svg><svg width="10" height="3" fill="none" viewBox="0 0 10 3" id="minus" x="216" y="168" xmlns="http://www.w3.org/2000/svg"><path d="M.964.898h9V2.32h-9V.898z" fill="#4F742E"/></svg><svg width="10" height="10" fill="none" viewBox="0 0 10 10" id="plus" x="194" y="180" xmlns="http://www.w3.org/2000/svg"><path d="M.954 3.898h3.402V.19h1.44v3.708h3.402V5.32H5.796v3.726h-1.44V5.32H.954V3.898z" fill="#4F742E"/></svg><svg width="24" height="29" fill="none" viewBox="0 0 24 29" id="search" x="122" y="168" xmlns="http://www.w3.org/2000/svg"><path fill-rule="evenodd" clip-rule="evenodd" d="M18.32 17.25a8.307 8.307 0 001.643-5.78 8.242 8.242 0 00-2.673-5.365 7.898 7.898 0 00-5.54-2.041 7.919 7.919 0 00-5.407 2.388A8.265 8.265 0 004 11.979a8.287 8.287 0 001.997 5.668 7.942 7.942 0 005.252 2.732 7.878 7.878 0 005.658-1.686l.043.046 4.242 4.337a1 1 0 00.708.3.982.982 0 00.707-.3 1.025 1.025 0 00.294-.723 1.042 1.042 0 00-.294-.724l-4.243-4.335a1.14 1.14 0 00-.045-.043zm-2.077-9.352a6.142 6.142 0 011.322 1.99 6.25 6.25 0 01.018 4.717 6.142 6.142 0 01-1.305 2.001 5.993 5.993 0 01-1.958 1.334 5.887 5.887 0 01-4.614-.019 5.996 5.996 0 01-1.948-1.35 6.204 6.204 0 01-1.722-4.326 6.202 6.202 0 011.757-4.312 5.935 5.935 0 014.218-1.796 5.933 5.933 0 014.232 1.761z" fill="#4F742E"/></svg><svg width="22" height="12" fill="none" viewBox="0 0 22 12" id="vk" x="194" y="168" xmlns="http://www.w3.org/2000/svg"><path d="M21.496.813c.153-.47 0-.813-.727-.813H18.36c-.613 0-.893.297-1.046.624 0 0-1.224 2.741-2.959 4.519-.56.517-.816.68-1.12.68-.154 0-.375-.163-.375-.632V.813c0-.563-.177-.813-.688-.813H8.39c-.382 0-.613.26-.613.508 0 .532.868.655.957 2.156v3.254c0 .713-.14.843-.447.843-.816 0-2.8-2.751-3.979-5.901-.23-.612-.461-.859-1.076-.859H.826C.137.001 0 .298 0 .625c0 .587.816 3.49 3.8 7.331C5.79 10.578 8.59 12 11.14 12c1.53 0 1.719-.316 1.719-.86V9.158c0-.631.146-.758.63-.758.355 0 .968.165 2.396 1.428C17.518 11.326 17.788 12 18.706 12h2.406c.688 0 1.031-.316.834-.939-.217-.62-.996-1.522-2.03-2.59-.563-.609-1.402-1.264-1.658-1.592-.357-.422-.254-.609 0-.984 0 .001 2.933-3.792 3.239-5.081z" fill="#3F4042"/></svg></svg>