<?xml version="1.0" encoding="utf-8"?><svg width="98" height="66" viewBox="0 0 98 66" xmlns="http://www.w3.org/2000/svg" xmlns:xlink="http://www.w3.org/1999/xlink"><svg width="5" height="9" fill="none" viewBox="0 0 5 9" id="arrow" x="72" y="41" xmlns="http://www.w3.org/2000/svg"><path d="M.18 4.946l3.771 3.87c.24.246.63.246.87 0a.642.642 0 000-.892L1.482 4.5 4.82 1.076a.642.642 0 000-.891.603.603 0 00-.869 0L.18 4.055A.637.637 0 000 4.5c0 .161.06.323.18.446z" fill="#3F4042"/></svg><svg width="12" height="13" fill="none" viewBox="0 0 12 13" id="close-i" x="86" y="27" xmlns="http://www.w3.org/2000/svg"><path d="M7.315 6.004l4.24-4.29a1.011 1.011 0 000-1.42.983.983 0 00-1.4 0l-4.231 4.3-4.232-4.3a.984.984 0 00-1.4 0 1.011 1.011 0 000 1.42l4.241 4.29-4.241 4.29a1.002 1.002 0 00-.292.71 1.012 1.012 0 00.613.929.974.974 0 001.08-.219l4.23-4.3 4.232 4.3a.987.987 0 00.7.296.974.974 0 00.7-.296 1.003 1.003 0 00.293-.71 1.012 1.012 0 00-.292-.71l-4.241-4.29z" fill="#9A9494"/></svg><svg width="38" height="31" fill="none" viewBox="0 0 38 31" id="icon-header1" xmlns="http://www.w3.org/2000/svg"><path d="M29.635 3a8.306 8.306 0 00-2.392.424.204.204 0 01-.065.01.17.17 0 00-.107.035.573.573 0 01-.125.065 4.521 4.521 0 00-.766.322l-.503.223c-.198.106-.436.302-.569.382a.739.739 0 01-.778-.025A8.306 8.306 0 0019.616 3c-.836 0-1.67.118-2.462.382-4.885 1.579-6.646 6.908-5.175 11.566a16.733 16.733 0 003.982 6.327 50.858 50.858 0 008.38 6.526.636.636 0 00.66-.003l.014-.01a50.382 50.382 0 008.43-6.526 17.004 17.004 0 003.985-6.314c1.496-4.658-.265-9.987-5.203-11.594a6.013 6.013 0 00-1.176-.275c-.106 0-.211-.008-.316-.02A7.76 7.76 0 0029.78 3h-.145zM17.842 7.158a1.061 1.061 0 011.337.658 1.075 1.075 0 01-.662 1.354 2.203 2.203 0 00-1.416 2.066v.04c.025.302-.066.593-.252.816a1.111 1.111 0 01-.754.382 1.086 1.086 0 01-1.046-1.001v-.157a4.342 4.342 0 012.793-4.158z" fill="#fff"/><path fill-rule="evenodd" clip-rule="evenodd" d="M37.91 15.462c.94-7.417-5.637-14.447-12.4-15.35-6.828-.967-14.469 4.45-15.408 11.867-.94 7.481 4.76 14.963 11.524 15.93 6.827.903 15.345-5.03 16.284-12.447zm-16.797.924l8.137-8.948h1.313l-9.45 13.125-3.675-5.966h1.312l2.363 1.79z" fill="#FFB800"/><path d="M7.81 28.174a2.605 2.605 0 012.015 2.015.421.421 0 00.824 0 2.605 2.605 0 012.015-2.015.421.421 0 000-.824 2.605 2.605 0 01-2.015-2.015.421.421 0 00-.824 0A2.605 2.605 0 017.81 27.35a.421.421 0 000 .824zm-3.12-7.149c.645.135 1.15.64 1.285 1.285a.269.269 0 00.526 0c.135-.645.64-1.15 1.285-1.285a.269.269 0 000-.526 1.662 1.662 0 01-1.285-1.285.269.269 0 00-.526 0 1.662 1.662 0 01-1.285 1.285.269.269 0 000 .526zM.15 26.947c.453.095.808.45.903.903a.189.189 0 00.37 0c.094-.454.449-.808.902-.903a.189.189 0 000-.37 1.168 1.168 0 01-.903-.903.189.189 0 00-.37 0 1.165 1.165 0 01-.902.903.189.189 0 000 .37z" fill="#FFB800"/></svg><svg width="34" height="29" fill="none" viewBox="0 0 34 29" id="icon-header2" x="38" xmlns="http://www.w3.org/2000/svg"><path d="M25.636 0a8.307 8.307 0 00-2.392.424.203.203 0 01-.065.01.171.171 0 00-.107.035.57.57 0 01-.125.065 4.52 4.52 0 00-.766.322l-.503.223c-.198.106-.437.302-.569.382a.739.739 0 01-.778-.025A8.306 8.306 0 0015.617 0c-.836 0-1.67.118-2.462.382C8.27 1.961 6.509 7.29 7.98 11.948a16.734 16.734 0 003.982 6.327 50.854 50.854 0 008.38 6.526.635.635 0 00.659-.003l.015-.01a50.386 50.386 0 008.43-6.526 17.004 17.004 0 003.985-6.314C34.927 7.29 33.166 1.96 28.228.354A6.01 6.01 0 0027.052.08c-.106 0-.212-.008-.317-.02a7.758 7.758 0 00-.954-.06h-.145zM13.843 4.158a1.061 1.061 0 011.337.658 1.075 1.075 0 01-.662 1.354 2.203 2.203 0 00-1.416 2.066v.04c.025.302-.066.593-.252.816a1.111 1.111 0 01-.754.382 1.086 1.086 0 01-1.046-1.001v-.157a4.342 4.342 0 012.793-4.158zM7.811 26.174a2.605 2.605 0 012.015 2.015.421.421 0 00.824 0 2.605 2.605 0 012.015-2.015.421.421 0 000-.824 2.605 2.605 0 01-2.015-2.015.421.421 0 00-.824 0A2.605 2.605 0 017.81 25.35a.421.421 0 000 .824zM4.69 19.025c.645.135 1.15.64 1.285 1.285a.269.269 0 00.526 0c.135-.645.64-1.15 1.285-1.285a.269.269 0 000-.526 1.662 1.662 0 01-1.285-1.285.269.269 0 00-.526 0 1.662 1.662 0 01-1.285 1.285.269.269 0 000 .526zM.15 24.947c.454.095.809.45.904.903a.189.189 0 00.37 0c.094-.454.449-.808.902-.903a.189.189 0 000-.37 1.168 1.168 0 01-.903-.903.189.189 0 00-.37 0 1.165 1.165 0 01-.902.903.189.189 0 000 .37z" fill="#FFB800"/></svg><svg width="29" height="35" fill="none" viewBox="0 0 29 35" id="icon-header3" y="31" xmlns="http://www.w3.org/2000/svg"><path d="M16.334 3.174A2.605 2.605 0 0118.35 5.19a.421.421 0 00.825 0 2.605 2.605 0 012.015-2.015.421.421 0 000-.824A2.605 2.605 0 0119.174.335a.421.421 0 00-.825 0 2.605 2.605 0 01-2.015 2.015.421.421 0 000 .824zm-5.121 4.851c.646.135 1.15.64 1.286 1.285a.269.269 0 00.525 0c.136-.645.64-1.15 1.286-1.285a.269.269 0 000-.526 1.662 1.662 0 01-1.286-1.285.269.269 0 00-.525 0 1.662 1.662 0 01-1.286 1.285.269.269 0 000 .526z" fill="#FFB800"/><path d="M7.677 30.273c1.173 0 2.134.981 2.134 2.194 0 1.198-.961 2.18-2.134 2.18-1.188 0-2.15-.982-2.15-2.18 0-1.213.962-2.194 2.15-2.194zm15.902 0c1.174 0 2.135.981 2.135 2.194 0 1.198-.961 2.18-2.134 2.18-1.188 0-2.15-.982-2.15-2.18 0-1.213.962-2.194 2.15-2.194zM1.101 6.352l.144.012 3.371.519c.481.088.834.49.877.981L5.76 11.1a.87.87 0 00.863.81h19.09c.863 0 1.428.303 1.994.967.565.665.664 1.617.537 2.482l-1.343 9.471c-.255 1.82-1.781 3.162-3.577 3.162H7.903c-1.88 0-3.435-1.471-3.59-3.377L3.012 8.876.877 8.501a1.085 1.085 0 01-.862-1.242c.1-.59.65-.982 1.23-.894l-.144-.012zM21.064 17.25h-3.916a1.06 1.06 0 00-1.06 1.082 1.07 1.07 0 001.06 1.083h3.916c.593 0 1.06-.49 1.06-1.083 0-.606-.467-1.082-1.06-1.082z" fill="#FFB800"/></svg><svg width="26" height="27" fill="none" viewBox="0 0 26 27" id="icon-header4" x="72" xmlns="http://www.w3.org/2000/svg"><path fill-rule="evenodd" clip-rule="evenodd" d="M25.685 15.75a12.99 12.99 0 01-2.704 5.544l.02.015a1.76 1.76 0 01-.109.12 1.56 1.56 0 00-.096.103 4.822 4.822 0 01-.168.18l-.092.099c-.26.282-.528.552-.808.808-.06.054-.123.107-.184.16-.026.02-.05.043-.076.064a13.41 13.41 0 01-.92.726.756.756 0 00-.063.05c-.018.015-.036.03-.055.043v-.01a12.908 12.908 0 01-14.858 0v.01c-.02-.014-.038-.029-.057-.044a.827.827 0 00-.061-.049 12.9 12.9 0 01-.92-.726l-.078-.067a6.585 6.585 0 01-.182-.157c-.28-.255-.548-.526-.808-.808l-.091-.097a7.275 7.275 0 01-.169-.182 2.455 2.455 0 00-.096-.102c-.037-.04-.075-.078-.11-.12l.019-.016A12.906 12.906 0 010 13.002a12.99 12.99 0 1125.685 2.747z" fill="#FAB70C"/></svg><svg width="14" height="14" fill="none" viewBox="0 0 14 14" id="map-i" x="72" y="27" xmlns="http://www.w3.org/2000/svg"><path d="M.346 4.377a.77.77 0 00-.244.163.359.359 0 00-.102.265c0 .109.02.197.061.265.04.068.115.129.224.183l5.66 2.57c.11.067.184.149.225.244l2.565 5.648c.04.108.102.183.183.224.082.04.177.061.286.061.108 0 .19-.027.244-.082.054-.054.115-.135.183-.244L13.968.625a.42.42 0 00-.122-.49c-.15-.135-.312-.169-.489-.101L.347 4.377z" fill="#7ABC2F"/></svg><svg width="24" height="29" fill="none" viewBox="0 0 24 29" id="search" x="38" y="29" xmlns="http://www.w3.org/2000/svg"><path fill-rule="evenodd" clip-rule="evenodd" d="M18.32 17.25a8.307 8.307 0 001.643-5.78 8.242 8.242 0 00-2.673-5.365 7.898 7.898 0 00-5.54-2.041 7.919 7.919 0 00-5.407 2.388A8.265 8.265 0 004 11.979a8.287 8.287 0 001.997 5.668 7.942 7.942 0 005.252 2.732 7.878 7.878 0 005.658-1.686l.043.046 4.242 4.337a1 1 0 00.708.3.982.982 0 00.707-.3 1.025 1.025 0 00.294-.723 1.042 1.042 0 00-.294-.724l-4.243-4.335a1.14 1.14 0 00-.045-.043zm-2.077-9.352a6.142 6.142 0 011.322 1.99 6.25 6.25 0 01.018 4.717 6.142 6.142 0 01-1.305 2.001 5.993 5.993 0 01-1.958 1.334 5.887 5.887 0 01-4.614-.019 5.996 5.996 0 01-1.948-1.35 6.204 6.204 0 01-1.722-4.326 6.202 6.202 0 011.757-4.312 5.935 5.935 0 014.218-1.796 5.933 5.933 0 014.232 1.761z" fill="#4F742E"/></svg></svg>