<svg width="47" height="47" viewBox="0 0 47 47" fill="none" xmlns="http://www.w3.org/2000/svg">
<path d="M23.5 44.6133C35.1605 44.6133 44.6133 35.1605 44.6133 23.5C44.6133 11.8395 35.1605 2.38672 23.5 2.38672C11.8395 2.38672 2.38672 11.8395 2.38672 23.5C2.38672 35.1605 11.8395 44.6133 23.5 44.6133Z" fill="#C7E893"/>
<path d="M41.5 23.5C41.5 33.4411 33.4411 41.5 23.5 41.5C13.5589 41.5 5.5 33.4411 5.5 23.5C5.5 13.5589 13.5589 5.5 23.5 5.5C33.4411 5.5 41.5 13.5589 41.5 23.5Z" fill="#C7E893" stroke="#78A93F"/>
<path d="M15.7803 27.1914V31.7785H14.9412V29.8206H12.6477V31.7785H11.8086V27.1914H12.6477V29.0934H14.9412V27.1914H15.7803Z" fill="#78A93F"/>
<path d="M20.2557 30.9955H18.0181L17.6824 31.8346H16.7314L18.6334 27.2476H19.5844L21.4863 31.8346H20.5354L20.2557 30.9955ZM19.92 30.2683L19.0809 28.3104L18.2418 30.2683H19.92Z" fill="#78A93F"/>
<path d="M25.6261 31.0515V31.8346H22.4375V27.2476H23.2766V31.1074H25.6261V31.0515Z" fill="#78A93F"/>
<path d="M29.8201 30.9955H27.5825L27.2469 31.8346H26.2959L28.1979 27.2476H29.1488L31.0508 31.8346H30.0998L29.8201 30.9955ZM29.4845 30.2683L28.6454 28.3104L27.8063 30.2683H29.4845Z" fill="#78A93F"/>
<path d="M35.1915 31.0515V31.8346H32.0029V27.2476H32.842V31.1074H35.1915V31.0515Z" fill="#78A93F"/>
<path d="M35.1034 21.4534C34.9933 21.233 34.7729 21.0862 34.5526 21.0862C33.9284 21.0494 32.937 20.4252 32.0558 19.8744C30.844 19.1034 29.669 18.369 28.6776 18.5893C28.2737 18.6994 27.9065 18.9932 27.7229 19.3971C27.5394 19.6909 27.6495 20.0948 27.9433 20.2784C28.237 20.4619 28.6409 20.3518 28.8245 20.058C28.8245 20.058 28.8245 20.058 28.8245 20.0213C28.8979 19.8744 28.9714 19.8744 29.0081 19.8377C29.4487 19.7276 30.5503 20.4252 31.3581 20.9393C31.9823 21.3432 32.6065 21.7471 33.3042 22.0409C32.1292 22.8487 30.7706 23.326 29.3386 23.326C27.6128 23.3994 26.4378 23.0323 26.144 22.7018C25.63 22.1877 26.0339 18.9198 26.4378 17.194C26.5847 16.6432 26.9519 15.1377 27.062 14.8807C27.1722 14.5502 27.0253 14.183 26.6948 14.0362C26.3644 13.926 25.9604 14.0729 25.8503 14.4034C25.5198 15.5416 25.2628 16.5698 25.2261 16.8268C25.0058 17.7448 24.6753 18.626 24.2714 19.4705C23.4636 18.3323 21.9581 16.3127 20.8565 15.358C20.5995 15.1377 20.1956 15.1744 19.9386 15.4315C19.7183 15.6885 19.755 16.0924 20.012 16.3494C21.2237 17.3776 23.0964 20.0213 23.6104 20.7924C22.9495 22.0041 22.1417 22.9955 21.2604 23.2893C20.7097 23.3994 20.1589 23.326 19.6815 23.0323C19.3878 22.8487 18.9839 22.9221 18.8003 23.2159C18.6167 23.5096 18.6901 23.9135 18.9839 24.0971C19.5347 24.4276 20.5628 24.8315 21.6644 24.501C22.8761 24.1338 23.8675 22.9588 24.6386 21.6002C24.6753 22.4448 24.8222 23.1791 25.1894 23.583C25.887 24.3541 27.2823 24.6112 29.412 24.6112C30.587 24.5377 33.5245 24.1705 35.0667 22.0776C35.1769 21.9307 35.2136 21.6737 35.1034 21.4534Z" fill="#78A93F"/>
<path d="M18.9105 14.6604C18.9105 14.2932 18.6167 14.0361 18.2495 14.0361C17.8823 14.0361 17.6253 14.3299 17.6253 14.6971C17.6987 19.2869 17.2948 21.6736 16.2667 22.7385C15.7894 23.2158 15.0917 23.4729 14.4308 23.3994C13.88 23.3994 13.5128 23.2525 13.3292 22.9955C12.9253 22.4447 13.2558 21.2697 13.4027 20.9025C13.5495 20.5721 13.3659 20.2049 13.0355 20.058C12.705 19.9111 12.3378 20.0947 12.1909 20.4252C12.1175 20.6455 11.4198 22.4814 12.2644 23.6932C12.5581 24.1338 13.1823 24.6479 14.4308 24.6479C15.4589 24.6846 16.4503 24.3174 17.1847 23.583C18.6902 22.0408 18.9472 18.9197 18.9105 14.6604Z" fill="#78A93F"/>
</svg>
