<svg width="47" height="47" viewBox="0 0 47 47" fill="none" xmlns="http://www.w3.org/2000/svg">
<path d="M23.5 44.6133C35.1605 44.6133 44.6133 35.1605 44.6133 23.5C44.6133 11.8395 35.1605 2.38672 23.5 2.38672C11.8395 2.38672 2.38672 11.8395 2.38672 23.5C2.38672 35.1605 11.8395 44.6133 23.5 44.6133Z" fill="#C7E893"/>
<path d="M41.5 23.5C41.5 33.4411 33.4411 41.5 23.5 41.5C13.5589 41.5 5.5 33.4411 5.5 23.5C5.5 13.5589 13.5589 5.5 23.5 5.5C33.4411 5.5 41.5 13.5589 41.5 23.5Z" fill="#C7E893" stroke="#78A93F"/>
<path d="M15.7803 27.1914V31.7785H14.9412V29.8206H12.6477V31.7785H11.8086V27.1914H12.6477V29.0934H14.9412V27.1914H15.7803Z" fill="#78A93F"/>
<path d="M20.2557 30.9955H18.0181L17.6824 31.8346H16.7314L18.6334 27.2476H19.5844L21.4863 31.8346H20.5354L20.2557 30.9955ZM19.92 30.2683L19.0809 28.3104L18.2418 30.2683H19.92Z" fill="#78A93F"/>
<path d="M25.6261 31.0515V31.8346H22.4375V27.2476H23.2766V31.1074H25.6261V31.0515Z" fill="#78A93F"/>
<path d="M29.8201 30.9955H27.5825L27.2469 31.8346H26.2959L28.1979 27.2476H29.1488L31.0508 31.8346H30.0998L29.8201 30.9955ZM29.4845 30.2683L28.6454 28.3104L27.8063 30.2683H29.4845Z" fill="#78A93F"/>
<path d="M35.1915 31.0515V31.8346H32.0029V27.2476H32.842V31.1074H35.1915V31.0515Z" fill="#78A93F"/>
<path d="M35.1034 21.4534C34.9933 21.233 34.7729 21.0862 34.5526 21.0862C33.9284 21.0494 32.937 20.4252 32.0558 19.8744C30.844 19.1034 29.669 18.369 28.6776 18.5893C28.2737 18.6994 27.9065 18.9932 27.7229 19.3971C27.5394 19.6909 27.6495 20.0948 27.9433 20.2784C28.237 20.4619 28.6409 20.3518 28.8245 20.058C28.8245 20.058 28.8245 20.058 28.8245 20.0213C28.8979 19.8744 28.9714 19.8744 29.0081 19.8377C29.4487 19.7276 30.5503 20.4252 31.3581 20.9393C31.9823 21.3432 32.6065 21.7471 33.3042 22.0409C32.1292 22.8487 30.7706 23.326 29.3386 23.326C27.6128 23.3994 26.4378 23.0323 26.144 22.7018C25.63 22.1877 26.0339 18.9198 26.4378 17.194C26.5847 16.6432 26.9519 15.1377 27.062 14.8807C27.1722 14.5502 27.0253 14.183 26.6948 14.0362C26.3644 13.926 25.9604 14.0729 25.8503 14.4034C25.5198 15.5416 25.2628 16.5698 25.2261 16.8268C25.0058 17.7448 24.6753 18.626 24.2714 19.4705C23.4636 18.3323 21.9581 16.3127 20.8565 15.358C20.5995 15.1377 20.1956 15.1744 19.9386 15.4315C19.7183 15.6885 19.755 16.0924 20.012 16.3494C21.2237 17.3776 23.0964 20.0213 23.6104 20.7924C22.9495 22.0041 22.1417 22.9955 21.2604 23.2893C20.7097 23.3994 20.1589 23.326 19.6815 23.0323C19.3878 22.8487 18.9839 22.9221 18.8003 23.2159C18.6167 23.5096 18.6901 23.9135 18.9839 24.0971C19.5347 24.4276 20.5628 24.8315 21.6644 24.501C22.8761 24.1338 23.8675 22.9588 24.6386 21.6002C24.6753 22.4448 24.8222 23.1791 25.1894 23.583C25.887 24.3541 27.2823 24.6112 29.412 24.6112C30.587 24.5377 33.5245 24.1705 35.0667 22.0776C35.1769 21.9307 35.2136 21.6737 35.1034 21.4534Z" fill="#78A93F"/>
<path d="M18.9105 14.6604C18.9105 14.2932 18.6167 14.0361 18.2495 14.0361C17.8823 14.0361 17.6253 14.3299 17.6253 14.6971C17.6987 19.2869 17.2948 21.6736 16.2667 22.7385C15.7894 23.2158 15.0917 23.4729 14.4308 23.3994C13.88 23.3994 13.5128 23.2525 13.3292 22.9955C12.9253 22.4447 13.2558 21.2697 13.4027 20.9025C13.5495 20.5721 13.3659 20.2049 13.0355 20.058C12.705 19.9111 12.3378 20.0947 12.1909 20.4252C12.1175 20.6455 11.4198 22.4814 12.2644 23.6932C12.5581 24.1338 13.1823 24.6479 14.4308 24.6479C15.4589 24.6846 16.4503 24.3174 17.1847 23.583C18.6902 22.0408 18.9472 18.9197 18.9105 14.6604Z" fill="#78A93F"/>
<path d="M23.7266 45C35.6007 45 45.2266 35.3741 45.2266 23.5C45.2266 11.6259 35.6007 2 23.7266 2C11.8524 2 2.22656 11.6259 2.22656 23.5C2.22656 35.3741 11.8524 45 23.7266 45Z" fill="#EAEAEA"/>
<path d="M41.5 23.5C41.5 33.4411 33.4411 41.5 23.5 41.5C13.5589 41.5 5.5 33.4411 5.5 23.5C5.5 13.5589 13.5589 5.5 23.5 5.5C33.4411 5.5 41.5 13.5589 41.5 23.5Z" fill="#EAEAEA" stroke="#CCCCCC"/>
<g clip-path="url(#clip0)">
<path d="M23.1399 35.6807C21.2743 34.4952 14.4414 29.9011 11.9603 24.3119C10.404 20.8059 11.7292 17.1903 15.2847 15.7507L15.5819 15.2217C18.9329 14.1327 22.5936 15.8329 23.8961 19.1565C26.1704 24.9596 24.2176 33.3194 23.6384 35.5166L23.1399 35.6807Z" fill="#9FCE69"/>
<path d="M22.0014 20.1077L16.565 17.7325L15.5819 15.2217C15.4301 15.2709 15.2802 15.3256 15.1299 15.3864C15.0277 15.4278 14.9292 15.4706 14.8303 15.5165C11.4899 17.0661 10.0962 21.1376 11.6081 24.5435C14.0892 30.1327 21.0928 34.8569 22.9584 36.0424C23.1892 36.189 23.4937 36.0711 23.5635 35.8067C23.5861 35.7208 23.6117 35.6217 23.6384 35.5166C22.3508 34.7157 14.8568 29.874 12.3452 24.2165C11.6602 22.6735 11.6283 20.8963 12.2569 19.341C12.8129 17.9664 13.8281 16.893 15.128 16.2757L15.8145 18.0264L13.439 23.4631C13.3499 23.6671 13.4429 23.9049 13.6472 23.9939C13.7988 24.0603 13.9688 24.0259 14.0829 23.9203C14.1222 23.8839 14.1552 23.8383 14.1781 23.786L16.2306 19.0883L17.5629 22.4881L15.8151 26.4886C15.726 26.6926 15.819 26.9304 16.0233 27.0194C16.1749 27.0857 16.3449 27.0514 16.459 26.9458C16.4983 26.9094 16.5313 26.8638 16.5542 26.8115L17.9791 23.5501L19.3115 26.95L18.2929 29.2814C18.2039 29.4855 18.2969 29.7232 18.5012 29.8123C18.6527 29.8786 18.8228 29.8443 18.9369 29.7386C18.9762 29.7022 19.0091 29.6567 19.032 29.6043L19.7277 28.012L21.1211 31.5677C21.2022 31.7752 21.4362 31.8772 21.6435 31.7961C21.6918 31.7771 21.7344 31.75 21.7705 31.7166C21.8887 31.6072 21.9341 31.4325 21.8717 31.2735L20.4782 27.7179L22.0707 28.4134C22.2223 28.4797 22.3923 28.4454 22.5064 28.3397C22.5457 28.3033 22.5787 28.2578 22.6016 28.2054C22.6906 28.0014 22.5975 27.7635 22.3933 27.6746L20.0622 26.6565L18.7296 23.256L21.991 24.6808C22.1425 24.7471 22.3125 24.7128 22.4267 24.6071C22.466 24.5708 22.4989 24.5252 22.5218 24.4729C22.6109 24.2688 22.5179 24.0311 22.3136 23.942L18.3135 22.1945L16.9809 18.7941L21.6786 20.8465C21.8301 20.9128 22.0001 20.8785 22.1143 20.7729C22.1536 20.7365 22.1865 20.6909 22.2094 20.6386C22.2987 20.4345 22.2057 20.1967 22.0014 20.1077Z" fill="#78A93F"/>
<path d="M32.1075 15.516L31.6216 15.5716C27.9676 14.6846 24.4959 16.1329 23.2557 19.7627C21.2786 25.5495 23.2234 33.6653 23.7867 35.8028L24.2305 35.8813C26.4702 34.4306 33.351 29.6265 35.5355 24.0527C36.8382 20.7286 35.3069 16.9935 32.1075 15.516Z" fill="#9FCE69"/>
<path d="M33.4989 23.4633L31.124 18.0269L32.1074 15.5161C31.9626 15.4492 31.8166 15.3879 31.6651 15.3305C31.5619 15.2914 31.4606 15.2558 31.3568 15.2223C27.8531 14.0896 24.064 16.1301 22.8593 19.6563C20.8821 25.443 22.811 33.6678 23.3743 35.8052C23.444 36.0696 23.7476 36.19 23.9783 36.0434C24.0533 35.9958 24.1393 35.9404 24.2304 35.8815C23.8299 34.419 21.6211 25.7747 23.6222 19.9171C24.168 18.3196 25.3521 16.994 26.8701 16.2798C28.212 15.649 29.6862 15.5513 31.0594 15.9816L30.3736 17.7325L24.9367 20.1075C24.7327 20.1967 24.6394 20.4344 24.7288 20.6385C24.7949 20.7901 24.943 20.8805 25.0986 20.8805C25.1521 20.8805 25.2073 20.8695 25.2596 20.8466L29.9574 18.7944L28.625 22.1942L24.6244 23.9419C24.4205 24.0311 24.3271 24.2688 24.4165 24.4729C24.4827 24.6245 24.6307 24.7149 24.7863 24.7149C24.8399 24.7149 24.895 24.7039 24.9473 24.681L28.2088 23.2563L26.8763 26.6561L24.5449 27.6747C24.3409 27.7639 24.2476 28.0016 24.337 28.2057C24.4032 28.3573 24.5512 28.4477 24.7068 28.4477C24.7603 28.4477 24.8155 28.4367 24.8678 28.4138L26.4601 27.7181L25.0666 31.2738C24.9851 31.4812 25.0875 31.715 25.2946 31.7964C25.343 31.8153 25.3927 31.8244 25.4419 31.8244C25.6029 31.8244 25.7549 31.7271 25.8171 31.568L27.2106 28.0124L27.9065 29.6046C27.9727 29.7563 28.1207 29.8466 28.2763 29.8466C28.3299 29.8466 28.385 29.8356 28.4373 29.8128C28.6413 29.7235 28.7346 29.4857 28.6452 29.2817L27.6266 26.9509L28.9593 23.5504L30.3841 26.8118C30.4503 26.9634 30.5983 27.0538 30.7539 27.0538C30.8074 27.0538 30.8626 27.0427 30.9149 27.0199C31.1189 26.9307 31.2122 26.693 31.1228 26.4889L29.3752 22.4889L30.7079 19.0885L32.7601 23.7862C32.8263 23.9378 32.9743 24.0282 33.1299 24.0282C33.1835 24.0282 33.2386 24.0172 33.2909 23.9943C33.495 23.9051 33.5883 23.6675 33.4989 23.4633Z" fill="#78A93F"/>
</g>
<defs>
<clipPath id="clip0">
<rect width="25" height="25" fill="white" transform="translate(11 13)"/>
</clipPath>
</defs>
</svg>
