<svg width="22" height="12" viewBox="0 0 22 12" fill="none" xmlns="http://www.w3.org/2000/svg">
<path d="M21.4956 0.812637C21.6493 0.343808 21.4956 0 20.7688 0H18.3611C17.7485 0 17.4685 0.297429 17.3148 0.624097C17.3148 0.624097 16.0907 3.36548 14.356 5.143C13.7961 5.66022 13.5403 5.82356 13.2351 5.82356C13.0825 5.82356 12.8607 5.66023 12.8607 5.1914V0.812637C12.8607 0.250042 12.6839 0 12.1734 0H8.39007C8.00801 0 7.77745 0.260125 7.77745 0.50815C7.77745 1.0405 8.64478 1.1635 8.73371 2.66375V5.91833C8.73371 6.63115 8.59428 6.76122 8.28687 6.76122C7.47114 6.76122 5.48615 4.00975 4.30812 0.860024C4.07866 0.248026 3.84701 0.00100864 3.23219 0.00100864H0.825613C0.137236 0.00100864 0 0.298438 0 0.625105C0 1.2119 0.815732 4.11561 3.7998 7.95597C5.78917 10.5784 8.58989 12 11.1414 12C12.6707 12 12.8596 11.6844 12.8596 11.14V9.15779C12.8596 8.52663 13.0056 8.3996 13.4898 8.3996C13.8455 8.3996 14.4581 8.56495 15.8865 9.82826C17.5179 11.3265 17.788 11.999 18.7047 11.999H21.1113C21.7986 11.999 22.1422 11.6834 21.9446 11.0603C21.7283 10.4403 20.9488 9.53789 19.9146 8.47017C19.3525 7.8612 18.5126 7.20585 18.2568 6.87817C17.9 6.45572 18.0032 6.2692 18.2568 5.89414C18.2579 5.89514 21.1904 2.10217 21.4956 0.812637Z" fill="#3F4042"/>
</svg>
